<?xml version="1.0" encoding="UTF-8"?><svg id="a" xmlns="http://www.w3.org/2000/svg" viewBox="0 0 1920 1080"><defs><style>.om{fill:#a5a4a7;}.on{fill:#58575c;}.oo{fill:#dddcdf;}.op{fill:#f5f5f5;}.oq{fill:#d4d3d9;}.or{fill:#ececed;}.os{fill:#e6e5e6;}.ot{fill:#3e3b42;}.ou{fill:#727176;}.ov{fill:#bcbcbe;}.ow{fill:#858489;}.ox{fill:#231f2d;}.oy{opacity:.44;}.p`{fill:#323037;}.pa{fill:#f3f3f3;}.pb{fill:#424145;}.pc{fill:#656469;}.pd{fill:#47444c;}</style></defs><g id="b" class="oy"><path id="c" class="pa" d="M1747.05,189.85c.38,.34,.62,.82,.65,1.33,2.38,1.35,3.77,3.95,3.57,6.68,.39,.26,.61,.7,.59,1.17,3.88,1.88,3.67,5.8,4.55,9.18,.1,.67,.4,1.29,.87,1.78,4.87,.24,2.97,5.15,5.04,7.32,.39,.87,.77,1.73,1.16,2.59,5.97,9.29,14.71,16.47,24.98,20.52,1.75,.99,3.32,2.29,4.62,3.82,6.28,5.94,5.53,14.02-1.87,20.6,.97,6.1,7.06,5.12,10.6,7.67,3.85-.3,5.45,2.4,7.93,4.8,5.58,5.4,12.17,9.73,20.62,5.35-1.9-2.08-3.58-5.36-1.3-6.89,5.1-3.42,9.26,1.27,14.2,2.36-2.46,3.76-6.66-2.94-8.05,2.51,.55-.01,1,.42,1.01,.97,0,.02,0,.04,0,.06,3.22,1.53,6.45,3.03,9.64,4.61,2.44,1.21,4.61-5.92,6.93-.35,1.85,4.45-3.6,4.42-4.95,7l4.54,1.71c8.01-2.48,13.26,.48,16.1,8.18,3.98-.63,1.59-4.1,2.69-6.02,1.27-6.25,6.31-8.37,11.42-10.42,1.25-1.98,3.33-1.71,5.23-1.93,.41-.47,.69-1.05,.81-1.67-.04-4.29,1.03-8.36,6.18-7.78,5.85,.66,1.33,4.98,1.87,7.58l6.16,1.82c1.2-8.45,4.62-3.83,7.69-1.3,6.51,1.29,10.31-11.38,18.38-3.61,.49,.47,1.96-2.9,2.28-4.83-3.1-.96-6.56-2.07-1.73-5.29,5.79-3.86,8.94,0,11.59,4.61,1.02,.2,2.05,.4,3.07,.6l.04-.02,.25-2.07-1.32-3.49c-.67-2.25-6.19-1.25-3.8-5.4,1.68-2.91,3.52-6.34,7.87-3.31,2.47-2.05,4.55-4.31,4.08-7.88-6.67-2.04-2.51-4.07,0-6.1-8.29-6.06,1.79-13.24-3.07-20.81l12.25,4.65c.65-9.78-5.08-19-2.6-28.94l3.11-2.3c2.55-3.86,6.57-3.35,10.37-3.5l2.09-1.24-.08-3.28c-.81-2.71-3.97-4.97-1.55-8.28-.93-2.81-2.65-5.76,1.64-7.47,7.71-3.07,8.11-6.21,1.41-11.54-1.03-.82-2.84-1.56-1.73-2.78,.92-1.01,3.01-.95,4.59-1.37-.15-.66-.31-1.32-.46-1.98l-1.63-.38,.47-.92,1.28,1.03,8.22,.29c.6-.01,1.19,0,1.79,.01l.39-2.36c-6.18-12.59-4.02-25.9-2.78-39.18,1.02,7.08,2.05,14.17,3.08,21.25l5.24,.03c.84-9.39-2.37-19.32,3.72-28.02,.71-2.12,2.52-3.69,4.72-4.08l2.03-.14,7.92,.59,14.29,3.39c1.48-2.39,2.42-6.76,5.99-1.68,1.23-.36,1.85,.23,2.12,1.36l8.03,.34c-3.73-3.53,.27-6.76,.4-10.14l-2.15-3.85c-2.8-2.23-9.55-3.12-2.91-8.56-1.05-2-1.98-5.64-3.17-5.73-6.72-.48-8.27-3.97-7.37-9.88,.08-.49-2.04-1.32-3.13-1.98l-.59-.04,.68,.32,1.33-.65c-.53-.34-1.06-.67-1.58-1.01-3.47-.58-4.77-2.55-3.83-5.96l.17,.29-5.39-1.72c-4.48-.77-5.86-4.92-8.26-7.83-4.92-5.95-8.53-12.96-14.44-18.13l-1.59-1.09,1.26-.83,1.88-2.25c-1.93-1.02-2.93-2.46-2.09-4.71,1.59-1.17,2.45-3.1,2.24-5.07-6.44-2.11-7.91-3.58-8.16-8.16-2.34-3.48-6.54-3.57-9.81-5.35-.31,2.24-1.57,4.36-3.8,3.36-5.82-2.61-11.85-3.79-18.04-5.1-4.12-.87,1.3-2.88,1.39-4.69-9.13-1.14-18.22-4-27.44-.4-3.24,1.26-5.3-2.41-8.34-2.19-3.06,2.06-6.08,6.8-9.92,2.28-3.02-3.55-7.85-3.4-10.66-6.75-.88-.4-1.85-1.29-2.62-1.14-25.57,5.26-51.97,8.53-72.26,27.48-6.29,5.88-14.57,3.99-21.75,6.38-4.79,1.59-8.74,2.88-9.73,8.46-.22,1.68-1.02,3.24-2.25,4.4-11.47,8.37-14.33,21.45-18.75,33.69-.03,4,.55,8.25-4.17,10.37l-1.81,2.64c-.17,.62-.62,1.12-1.21,1.35-.77,2.26-1.55,4.51-2.33,6.77,.68,1.56,1.34,3.12,2.01,4.68,1.51-2.47,2.6-5.39,4.63-7.32,3.49-3.33,7.26-4.7,8.96,1.91,2.43,3.7-.14,3.71-2.73,3.7-.13,3.18,.77,6.71-1.27,9.41-3.11,4.11-1.2,7.41,.89,10.89,5.39,5.15,3.44,8.09-3.07,8.47-8.33,.49-12.29-4.79-14-12.26-.13-.3-.31-.57-.52-.81-.22-.09-.47-.07-.67,.07-5.19,4.57-.64,12.06-5.03,16.88l-.43,5.8c1.18,1.29,.85,2.05-.82,2.34-.12,9.58-1.43,19.12-3.91,28.38-1.94,7.35-1.43,15.13,1.45,22.16l-.32,1.99Zm178.12-75.03c1.33,.44,2.43,.95,.54,2.19-2.12,1.42-.16,2.72,.11,4.07,3.34,1.79,8.52,2.28,8.19,7.2,0,2.88-2.33,5.21-5.2,5.21-.64,0-1.27-.12-1.87-.35-5.55,2.07-10.47,1.26-14.57-3.23l-.08-.11c-7.87-6.49-7.84-13.54-1.52-21.05,.66-1.47,1.5-2.85,2.5-4.11,4.49-4.44,10.72-6.45,15.31-2.6,4.38,3.67-2.09,7.32-3.39,11.11,.09,.56,.11,1.13,.06,1.7l-.07-.02Zm3.36,121.59c.01,.53-.01,1.05-.07,1.58,2.03,1.63,4,3.29,3.28,6.85l-13.21-2.72c-2.75,.61-5.36,1.74-7.69,3.33-6.04,4.05-12.78,4.46-18.8-3.46,8.25,.29,15.47,.33,20.97-5.34,6.22-7.45,11.55-15.07,12.13-25.49,.83-14.85-9.82-22.41-18.34-31.49-4.8-2.59-8.76-6.8-14.74-7.23,8.22-.2,16.87-2.79,23,5.15,8.44,5.67,15.32,12.57,17.84,22.86,2.3,.16,4.03,2.16,3.87,4.46-.01,.14-.03,.28-.05,.42,.19,2.46,.82,5.1-2.35,6.31l.28,.43-.22-.47c1.48,3.37,5.53,6.16,2.37,10.56l2.22,2c1.26,.2,2.96,.53,2.68,1.97-.5,2.63-3.01,1.59-4.75,1.91l-5.84,2.23c-.1,.55-.15,1.1-.17,1.66,.16,1.83-.79,3.59-2.4,4.47h0Zm-46.33-210.11c-.04,1.39-.08,2.77-.12,4.16-2.51,3.62-5.83,1.5-8.89,1.25-7.49,4.2-9.59,2.65-9.99-9.57,1.84,5.62,3.97,8.44,8.39,7.84l-.13-3.45c-2.29-1.07-2.58-2.68-1.54-4.88,1.22-2.57,3.04-1.98,4.98-1.18,1.2,.36,1.35,1.09,.72,2.09l2.62,.69,.12-4.08c2.54-1.28,5.74-1.98,7.47-3.96,2.93-3.33,6.92-4.77,9.15-1.8,2.3,3.08-2.41,5.28-4.66,7.39-1.07,.74-2.25,1.32-3.49,1.72l-2.15,3.55-2.51,.24Zm28.81,6.15l-.8,1.49-1.52-1.58-9.73,.9c5.15-4.59,10.93-7.55,15.34-12.33,3.34-2.03-.61-6.27,2.12-8.46,5.67,1.42,9.93,3.05,9.48,10.17-.35,5.58-3.32,5.69-7.25,5.49-.06,1.29-.11,2.58-.17,3.87l-.21,1.54-1.49-1.22c-.55-.23-1.12-.39-1.71-.49l-4.03,.62h-.03Zm28.1,203.78c-1.72-.34-4.06,.61-4.65-2.09-.08-.35,.61-1.17,1.05-1.27,2.69-.58,3.14,1.43,3.62,3.34l1.8,.37-.51,.89-1.31-1.25Zm-90.97-127.32c2.11,4.26,.53,6.14-3.96,6.12l-.53,2.16c.86,1.32,1.73,2.64,2.59,3.96,.35,.45,.41,1.07,.14,1.58,.86,.85,1.72,1.7,2.57,2.55l3.18,.99c6.12,6.79,4.9,12.84-3.31,14.9-2.75,.69-5.82,.07-8.74,.05-10.02-3.41-16.5-12.02-16.57-21.49,.06-9.41,2.5-18.65,7.09-26.86,5.39-10.17,17.81-10.19,24.6-.11,.82,2.11,1.51,4.29,2.49,6.32,2.42,5.01-1.66,3.18-3.65,3.57,.39,4.32-1.84,6.16-5.92,6.26h0Zm-62.68-18.95c-2.87-.83-1.19-4.16-3.1-5.69-.6-.48-3.75-1.76-.69-3.21,1.31-.73,2.96-.27,3.7,1.04,.11,.19,.19,.4,.25,.61,7.99,4.86,9.2,8.52,4,12.09,2.47,6.4,.87,13.66-4.05,18.45l-1.93,4.12c-.65-.45-1.76-.82-1.88-1.38-.5-2.45,.22-4.4,2.94-5.1l.43-20.98,.33,.05Zm13.96,95.9c-1.95,5.41,4.89,9.12,2.83,14.55l3.47,1.56c3.25,.31,6.99-4.93,9.46-.35,2.29,4.16,1.32,9.35-2.3,12.41-2.36,2.05-4.74,3.84-7.3,.26l-.25,.02c-7.77,.38-12.16-4.26-15.5-10.46-5.92-8.97-11.43-18.11-10.64-29.45,.53-7.6,4.51-10.01,12.14-8.87,9.32,1.4,6.06,8.91,7.89,13.98,2.38,.49,6.43-1.09,6.74,1.91,.34,3.33-4.41,2.69-6.54,4.42h0Zm44.76-28.31c-3.12,1.61-5.72,.55-9.33-1.18,3.02-1.25,6.36-1.46,9.51-.61,7.79-.89,14.89-4.85,19.74-11.01,1.51-3.58,2.21-7.44,2.04-11.32-.36-7.81-.64-15.88,4.21-22.84l.42-3.73-5.03-11.91c-1.79-1.01-3.37-2.22-3.53-4.47-.13-1.8-3.21-3.56-.83-5.19,2.31-1.59,5.1-.16,7.69,.4,4.14,.9,.6,3.68,1.42,5.35l3.63,1.16c.18-.2,.35-.54,.56-.58s.46,.24,.69,.38l-1.3-.06c.71,3.5,6.7,5.27,3.33,10.11,5.03,7.75,4.7,20.39-.66,24.83-.44,.44-.91,.86-1.4,1.25-2.13,9.66,3.11,22.32-11.02,27.1-.31,.49-.8,.84-1.36,.97-2.38,2.46-5.13,3.73-8.59,2.7l-10.2-1.35Zm113.15-131.75c10.83-.29,7.74,8.87,9.84,14.5l1.98,2.88c1.41-.12,2.82-.24,4.24-.35l1.52,.57-1.52,.79c.59,2.71,1.78,4.06,4.83,2.73,2.12-.92,4.71-3.45,6.47,.52,1.56,3.51,2.03,7.24-.82,10.21-4.94,5.15-9.88,3.6-14.53-.7-4.13,.3-6.47-2.13-8.81-5.16-4.93-6.41-6.44-13.87-7.43-21.56-3.05-.52-5.81,6.06-8.32,1.46-2.88-5.29,3.69-5.82,6.32-8.08,2.67-2.29,6.11-4,6.24,2.2h0Zm3.47,143.96c.6,1.75,3.85,3.24-.35,5.23-2.78,1.32-4.34,1.28-5.75-1.16-1.48-2.55-2.64-5.3-4.15-7.84-.23-.39-1.58-.1-2.41-.13l.11,1.58c.86,0,1.72-.17,2.52-.48,2.41-1.55,1.3-7.23,6.52-5.52,2.85-2.1,6.36-5.13,9.3-1.96,3.5,3.76-1.74,5.95-3.38,8.7-.44,.74-1.58,1.06-2.41,1.56h0Zm-149.29,80.62c3.36,5.42,9.02,10.06,5.68,18.92l-9.44-16.64c-6.72-7.83-12.43-16.48-22.48-24.65,14.69,2.38,22.23,9.51,26.24,22.37h0Zm84.86-40.54c1.93,3.88,4.43,7.44,7.42,10.56,2.08,2.43,4.2,5.72,1.06,8.98-3.01,3.12-6.35,5.08-10.17,1-7.81-2.8-12.45-9.1-18.01-14.84-8.41-8.68-2.11-15.46,1.38-22.03,3.76-7.08,10.36-10.38,18.52-5.48,11.09,7.94,11.31,9.88,2.31,19.66l1.15,1.71-1.49-.07-2.17,.5Zm44.6-108.92l-7.81-7.45c14.11-3.88,16.33,9.17,21.33,15.57,3.47,4.45,1.09,13.47,1.32,20.45-4.95-.13-5.92,4.95-9.19,6.96-1.18,.65-2.58,.77-3.85,.31-2.08-1.01-.74-2.87-.31-4.34,1.29-4.42,3.55-8.62,2.97-13.46l-4.45-18.05Zm-115.49,90.39c-.65-.6-1.22-1.28-1.68-2.03-4.86-10.64-11.6-20.32-19.88-28.59-.72-.71-2.41-1.53-1.15-3.23,1.2-1.62,2.5-1.38,4.31-1,5.13,1.08,21.23,17.55,19.99,22.33-.96,3.72,.09,6.02,1.07,9,.51,1.35-.17,2.85-1.52,3.36-.36,.14-.75,.19-1.14,.16h0Zm-20.06-122.85c-4.38-6.81-2.44-12.48,2.77-15.34,7-3.85,13.02-14.99,22.46-6.22-5.43,10.85-21.07,8.37-25.23,21.57h0Zm113.32,198.28c-4.43-.67-10.22,.29-11.23-4.75-1.21-6.06,6.21,1.99,6.83-3.11,.06-.51,1.01-.86,1.34-1.4,1.37-2.27,2.54-4.99,5.89-2.58,2.49,1.79,5,4.03,3.22,7.29-1.22,2.23-2.02,6.21-6.04,4.55h0Zm-35.53-102.77c-.93,3.37-4.89,4.15-7.08,5.05-3.52,1.45-5.08-2.51-5.43-5.28-.58-4.72,3.99-4.69,6.81-5.67,4.99-1.72,2.93,3.88,5.7,5.91h0Zm13.29-52.44c8.76,8.3,3.02,18.67,4.42,28.01-5.4-8.78,.37-19.14-4.42-28.01Zm-38.17-48.3q20.16-4.18,25.36,1.16c-8.19-7.02-16.36,5.87-25.36-1.16Zm-47.59,128.41c.48-.33,.99-.63,1.52-.89,.09-.04,.6,.51,.55,.63-.24,.47-.53,.91-.86,1.32l-1.21-1.06Z"/><path id="d" class="on" d="M1791.21,264.84c7.4-6.58,8.15-14.65,1.87-20.6-1.31-1.53-2.87-2.82-4.62-3.82-10.27-4.05-19.01-11.23-24.98-20.52,5.58,16.61,12.99,32.18,25.57,44.81,.49-.58,.98-1.17,1.46-1.75l1.06,1.86-.36,.02Z"/><path id="e" class="pc" d="M1830.37,282.66c-8.45,4.37-15.04,.04-20.62-5.35-2.48-2.39-4.08-5.1-7.93-4.8-.34,1.25-1.23,3.46-.95,3.62,11.31,6.39,15.81,20.86,29.22,24.68,.29-3.21,2.51-2.72,4.17-1.73,5.04,3.03,8.64,.45,12.21-2.68l.55-3.27-2.66-.35c-2.17,.55-4.33,1.18-6.52,1.62-1.57,.32-3.49,.54-4.22-1.2-.97-2.31,1.78-3.06,2.55-4.69-1.22-2.29-2.41-4.59,.07-6.84,.02-.55-.41-1.01-.96-1.02-.02,0-.03,0-.05,0l-4.86,2.01Z"/><path id="f" class="ot" d="M1847.02,293.12c-.18,1.09-.37,2.18-.55,3.28,3.8,4.01,1.17,8.81,1.64,13.22,1.12,6.03,4.66,7.37,10.03,5.2,.7-2.65,2.07-4.35,5.03-2.99,.61,.28,.8,1.5,1.18,2.28l-5.8,1.16c4.98,3.5,8.64,1.03,12.03-2.66,1.34-3.37,2.68-6.74,4.01-10.12-.19-2.47-.04-5.14-3.42-5.7-1.1,1.92,1.3,5.39-2.69,6.02-9.86,4.63-12.84,3.12-16.1-8.18l-4.54-1.71-.84,.2Z"/><path id="g" class="ou" d="M1765.45,85.44l1.81-2.64-.92-.1-.92,.03c-4.51-1.9-4.77-.67-6.02,4.28-2.75,10.85-9.04,20.65-10.5,32.14-.49,3.89-.91,7.19,2.21,10.02,4.39-4.82-.16-12.3,5.03-16.88,.2-.13,.45-.16,.67-.07,.22,.24,.39,.51,.52,.81,7.49-.47,4.06-7.34,3.07-8.51-4.08-4.79-.59-7.59,1.51-10.98,.77-2.26,1.55-4.51,2.33-6.77l1.21-1.35Z"/><path id="h" class="oq" d="M1898.78-6.86c2.81,3.35,7.64,3.19,10.66,6.75,3.85,4.52,6.86-.21,9.92-2.28-5.99-5.5-13.6-3.54-20.58-4.47Z"/><path id="i" class="oq" d="M1689.87,1.5c-3.8-.16-6.33,1.2-6.1,4.95,.2,3.26,2.78,3.84,5.72,3.95,3.58,.12,5.88-.92,5.73-4.84-.14-3.63-2.99-3.81-5.35-4.05Z"/><path id="j" class="on" d="M1762.33,217.31c-2.07-2.17-.18-7.07-5.04-7.32-2.36-.09-4.57,1.55-3.95,3.27,1.42,3.9,5.44,3.85,8.99,4.05Z"/><path id="k" class="on" d="M1747.05,189.85l.35-2c-3.71,1.81-11.18-5.64-11.26,5.35,3.11-2.4,6.99-3.6,10.92-3.35Z"/><path id="l" class="oo" d="M1765.42,82.73l.92-.03,.92,.1c4.72-2.12,4.14-6.37,4.17-10.37-3.57,2.52-3.73,7.03-6,10.3Z"/><path id="m" class="on" d="M1756.42,208.21c-.88-3.38-.67-7.29-4.55-9.18-.9,4.26-.18,7.71,4.55,9.18Z"/><path id="n" class="ou" d="M1749.85,137.31c1.67-.29,2-1.04,.82-2.34-2.32,2.01-4.17-5.25-5.79-.7-1.1,3.11,2.75,2.79,4.97,3.03Z"/><path id="o" class="on" d="M1751.27,197.87c.2-2.73-1.19-5.33-3.57-6.68,.91,2.38-.67,6.08,3.57,6.68Z"/><path id="p" class="pa" d="M1791.58,264.82l-1.06-1.86c-.48,.58-.97,1.17-1.46,1.75,.33,.71,1.17,1.03,1.88,.7,.27-.12,.5-.33,.64-.59Z"/><path id="q" class="pb" d="M1848.95,125.29c-.86-.85-1.71-1.7-2.57-2.55l-1.45-.04,1.3-1.54c-.87-1.32-1.73-2.64-2.59-3.96-1.26-.25-3.41-.17-3.65-.81-3.56-9.31,4.73-22.01,15.22-23.62-6.79-10.08-19.21-10.06-24.6,.11-4.59,8.21-7.03,17.45-7.09,26.86,.07,9.47,6.55,18.08,16.57,21.49,.63-3.38-.49-7.13,2.13-10.1-2.16-7.01,2.59-6.08,6.72-5.85Zm-12.79-23.12c.31-.4,.67-.76,1.07-1.08,.21-.13,.6,.04,.91,.07l-.14,1.34-1.84-.32Z"/><path id="r" class="pb" d="M1932.89,200.45c-2.52-10.29-9.41-17.19-17.84-22.86-2.8,.52-6.52-2.63-8.25,2.09,8.52,9.08,19.17,16.64,18.34,31.49-.58,10.42-5.92,18.03-12.13,25.49,1.71,1.88,4.08,1.4,6.22,1.75,2.2-2.36,5.39-.93,7.9-2.07-.71-3.17,1.12-4.15,3.8-4.37,.01-.56,.07-1.11,.17-1.66-.8-3.47-.12-7.12,1.88-10.07,.9-2.8-1.3-6.12,1.44-8.62l.22,.47-.28-.43-1.14-5.44-.33-5.76Z"/><path id="s" class="ot" d="M1805.72,202l-3.47-1.56c-3.74-4.34-11.94-6.82-6.24-15.06-.4-2.75,.46-4.8,3.19-5.82-1.82-5.07,1.43-12.59-7.89-13.98-7.63-1.14-11.61,1.26-12.14,8.87-.79,11.34,4.72,20.49,10.64,29.45,4.31-2.79,8.42,.47,12.64,.41l3.26-2.3Z"/><path id="t" class="p`" d="M1896.59,188.05c-8.16-4.91-14.76-1.61-18.52,5.48-3.49,6.57-9.79,13.35-1.38,22.03,5.56,5.75,10.2,12.04,18.01,14.84,3.97-5.52-1.66-9.5-2.29-14.29-4.32-1.61-7.08-1.92-5.24-9.22,1.89-7.5,7.57-12.02,9.41-18.84Z"/><path id="u" class="pc" d="M1864.32,155.26c14.13-4.77,8.89-17.44,11.03-27.1-.05-.89-.46-2.34-.1-2.56,1.22-.75,1.24,.54,1.5,1.3,5.35-4.44,5.7-17.09,.66-24.83-1.74,2.26-3.26,4.8-6.62,4.8l-.42,3.73c-.82,4.72,7.45,8.08,4.44,10.67-7.21,6.22-6.05,13.66-5.5,21,.34,4.44-1.71,5.03-4.79,5.64l-.18,7.35Z"/><path id="v" class="p`" d="M1874.6,302.49c6.27,5.18,12.62,6.74,20.07,1.81,4.09-2.71,6.04,.09,6.2,4.32l9.81-7.76c.03-.58-.01-1.17-.14-1.74-4.44-.12-11.14,5.95-11.86-4.34-1.29-1.41-2.63-1.34-4.31-.52-11.42,5.56-11.6,5.42-11.77-7.88-5.11,2.05-10.15,4.16-11.42,10.42,3.38,.56,3.24,3.23,3.42,5.7Z"/><path id="w" class="pd" d="M1777.51,92.83c-1.7-6.61-5.47-5.24-8.96-1.91-2.03,1.93-3.12,4.85-4.63,7.32-1.19,5.61-.27,11.17,.59,16.7,.38,2.45-.03,5.69,3.37,6.5,3.73,.89,5.32-1.7,6.52-4.62-2.08-3.47-3.99-6.78-.89-10.89,2.03-2.69,1.14-6.21,1.27-9.41,.11-1.66,1.17-3.1,2.73-3.69Z"/><path id="x" class="pc" d="M1825.49,191.33c1.43,.13,2.7-.93,2.82-2.37,.03-.39-.02-.78-.16-1.15-.98-2.98-2.03-5.28-1.07-9,1.24-4.78-14.87-21.26-19.99-22.33-1.81-.38-3.11-.62-4.31,1-1.26,1.7,.43,2.52,1.15,3.23,8.28,8.26,15.02,17.95,19.88,28.59,.47,.75,1.03,1.43,1.68,2.03Z"/><path id="y" class="pc" d="M1896.58,188.05c-1.83,6.82-7.52,11.34-9.42,18.84-1.84,7.31,.92,7.61,5.24,9.22,2.46-1.37-.85-6.39,3.97-6.26l2.17-.5c-.04-.57,.08-1.14,.34-1.64,9.01-9.78,8.79-11.72-2.3-19.66Z"/><path id="a`" class="pd" d="M1925.18,113.15c1.3-3.79,7.77-7.44,3.39-11.11-4.59-3.85-10.83-1.83-15.31,2.6-1,1.26-1.84,2.64-2.5,4.11-.12,3.23,4.63,4.02,4.31,5.86-1.58,9.35,4.24,7.18,9.26,6.52,.45-.27,1.01-.29,1.48-.06-.27-1.35-2.23-2.65-.11-4.07-.18-.72-.36-1.46-.55-2.19l.07,.02c-.49-.25-.98-.51-1.47-.77l1.41-.93Z"/><path id="aa" class="pd" d="M1805.43,68.48c4.15-13.2,19.8-10.72,25.23-21.57-9.44-8.77-15.46,2.38-22.46,6.22-5.21,2.86-7.16,8.54-2.77,15.35Z"/><path id="ab" class="p`" d="M1924.34,121.14c-5.03,.65-10.84,2.83-9.26-6.52,.31-1.84-4.43-2.63-4.31-5.86-6.32,7.51-6.36,14.57,1.52,21.05,.73-1.28,.67-3.19,2.69-3.41,.2-.02,.65,.42,.64,.63-.1,2.03-2.15,1.94-3.26,2.89,4.1,4.49,9.02,5.3,14.57,3.23-5.11-3.09-7.1-6.85-2.59-12.02Z"/><path id="ac" class="pb" d="M1811.51,250.4c-4.01-12.86-11.55-20-26.23-22.38,10.04,8.17,15.75,16.81,22.48,24.65,.49-1.6,2.11-2.58,3.76-2.27Z"/><path id="ad" class="pc" d="M1855.21,92.77c-10.49,1.61-18.78,14.31-15.22,23.62,.25,.64,2.39,.56,3.65,.81l.53-2.16c-.13-2.98-.26-5.96,3.96-6.12h0c-1.02-4.92,.9-7.06,5.92-6.26,1.99-.38,6.08,1.44,3.65-3.57-.98-2.03-1.67-4.21-2.49-6.32Zm-5.42,4.77c.94-.23,1.9-.38,2.86-.43,.37,.01,.72,.64,1.09,.98-.81,.23-1.65,.37-2.49,.43-.42,0-.83-.53-1.46-.97h0Z"/><path id="ae" class="ow" d="M1933.04,288.77c-.22-1.56,.5-3.11,1.84-3.95l.98-6.13c.29-3.47-1.26-4.81-4.65-4.03-.32,1.93-1.79,5.31-2.28,4.83-8.06-7.78-11.86,4.9-18.38,3.61,.15,.47,.09,.98-.16,1.41,.16,.78,.31,1.56,.47,2.34l-.14-.14,7.03,.08h4.3l10.99,2Z"/><path id="af" class="pb" d="M1882.61,286.38c.17,13.29,.35,13.43,11.77,7.88,1.68-.82,3.02-.89,4.31,.52,3.47-2.41,1.45-7.03,3.92-9.84l.24-.53-6.16-1.82-2.07,.61c-.66,9.06-4.29,2.12-6.79,1.25-1.9,.22-3.98-.05-5.23,1.93Z"/><path id="ag" class="oo" d="M1774.4,116.82c-1.2,2.92-2.79,5.51-6.52,4.62-3.39-.81-2.99-4.05-3.37-6.5-.86-5.52-1.78-11.08-.59-16.7-.67-1.56-1.34-3.12-2.01-4.68-2.1,3.38-5.59,6.19-1.51,10.98,.99,1.17,4.42,8.03-3.07,8.51,1.72,7.47,5.68,12.74,14,12.26,6.51-.39,8.46-3.33,3.07-8.48Z"/><path id="ah" class="ow" d="M1896.38,209.85c-4.82-.13-1.5,4.89-3.97,6.26,.63,4.78,6.26,8.77,2.29,14.29,3.82,4.08,7.16,2.12,10.17-1,3.14-3.26,1.01-6.55-1.06-8.98-3-3.12-5.5-6.68-7.42-10.56Z"/><path id="ai" class="os" d="M1918.75,266.77c4.02,1.65,4.83-2.33,6.04-4.55,1.79-3.26-.72-5.5-3.22-7.29-3.35-2.41-4.52,.3-5.89,2.58-.33,.55-1.27,.89-1.34,1.4-.63,5.1-8.05-2.95-6.83,3.11,1.01,5.04,6.8,4.07,11.23,4.74Z"/><path id="aj" class="ow" d="M1842.22,131.14c-2.62,2.96-1.5,6.71-2.13,10.1,2.92,.02,5.99,.64,8.74-.05,8.2-2.07,9.43-8.12,3.31-14.9-1.69,4.93-5.4,5.73-9.92,4.85Z"/><path id="ak" class="on" d="M1919.22,238.4c-2.14-.35-4.51,.13-6.22-1.75-5.5,5.67-12.73,5.63-20.97,5.34,6.02,7.92,12.76,7.52,18.8,3.46,2.33-1.59,4.94-2.72,7.69-3.33l.7-3.73Z"/><path id="al" class="p`" d="M1864.51,147.91c3.08-.6,5.13-1.19,4.79-5.64-.55-7.33-1.72-14.78,5.5-21,3.01-2.6-5.26-5.95-4.44-10.67-4.86,6.96-4.57,15.03-4.21,22.84,.17,3.88-.53,7.75-2.04,11.32l.41,3.15Z"/><path id="am" class="ow" d="M1805.72,201.99c-1.09,.77-2.17,1.53-3.26,2.3-1.14,2.91,.78,4.73,2.85,5.5,4.77,1.77,.56,3.06,.01,4.55l.25-.02,7.3-.26c3.63-3.06,4.59-8.25,2.3-12.41-2.47-4.59-6.21,.66-9.46,.34Z"/><path id="an" class="ow" d="M1918.64,28.15c3.94,.2,6.9,.09,7.25-5.49,.45-7.12-3.82-8.75-9.48-10.17-2.72,2.19,1.23,6.43-2.12,8.46,3.17,1.37,1.96,5.37,4.34,7.2Z"/><path id="ao" class="ow" d="M1852.4,294.64c3.25,11.3,6.23,12.82,16.1,8.18-2.84-7.71-8.08-10.67-16.1-8.18Z"/><path id="ap" class="ou" d="M1883.22,164.01c-2.77-2.03-.71-7.64-5.7-5.91-2.81,.98-7.39,.95-6.81,5.67,.34,2.78,1.91,6.73,5.43,5.28,2.19-.9,6.14-1.68,7.08-5.05Z"/><path id="aq" class="on" d="M1847.02,293.12l.84-.2c1.35-2.58,6.8-2.55,4.95-7-2.32-5.57-4.49,1.56-6.93,.35-3.19-1.58-6.43-3.08-9.64-4.61-2.48,2.26-1.28,4.55-.07,6.84,2.73,1.42,5.46,2.85,8.19,4.27l2.66,.35Z"/><path id="ar" class="pd" d="M1805.32,214.34c.55-1.48,4.77-2.78-.01-4.55-2.07-.77-3.99-2.59-2.85-5.5-4.21,.06-8.33-3.2-12.64-.41,3.33,6.2,7.73,10.83,15.5,10.46Z"/><path id="as" class="ot" d="M1870.78,106.88c3.37,0,4.89-2.54,6.62-4.8,3.37-4.84-2.6-6.61-3.32-10.11l.05,.25-3.63-1.16c-.29,2.87-2.33,3.62-4.75,3.9l5.03,11.91Z"/><path id="at" class="pd" d="M1918.64,28.15c-2.38-1.84-1.18-5.84-4.34-7.2-4.42,4.77-10.2,7.74-15.34,12.33l9.73-.9,2.33,.09h.03c-.33-1.81-.07-3.55,2.11-3.57,1.52-.01,1.86,1.58,1.92,2.97,.59,.1,1.16,.27,1.71,.49,.5-.33,1.11-.45,1.7-.33l.16-3.87Z"/><path id="au" class="ot" d="M1896.51,111.57c4.8,8.87-.98,19.23,4.42,28.01-1.4-9.35,4.34-19.7-4.42-28.01Z"/><path id="av" class="pb" d="M1858.34,63.26c8.99,7.03,17.18-5.87,25.36,1.16q-5.2-5.33-25.36-1.16Z"/><path id="aw" class="ov" d="M1886.85,22.53c1.24-.4,2.42-.98,3.49-1.72,2.25-2.12,6.95-4.31,4.66-7.39-2.23-2.98-6.22-1.54-9.15,1.8-1.74,1.98-4.94,2.69-7.47,3.96l3.24,1c1.75,.79,3.49,1.57,5.24,2.36Z"/><path id="ax" class="pb" d="M1864.51,147.91l-.41-3.14c-4.85,6.15-11.96,10.12-19.74,11.01,.09,.6,.03,1.22-.18,1.79l10.19,1.36c1.74-4.48,5.21-3.46,8.59-2.7,.56-.13,1.05-.48,1.36-.97,.06-2.45,.12-4.9,.19-7.35Z"/><path id="ay" class="on" d="M1906.8,179.67c1.74-4.72,5.46-1.57,8.25-2.09-6.12-7.93-14.77-5.34-23-5.15,5.99,.43,9.95,4.65,14.75,7.23Z"/><path id="b`" class="ou" d="M1811.51,250.4c-1.65-.31-3.27,.66-3.76,2.27l9.44,16.64c3.35-8.85-2.32-13.49-5.67-18.91Z"/><path id="ba" class="ou" d="M1796.02,185.37c-5.7,8.25,2.5,10.73,6.24,15.06,2.06-5.44-4.77-9.14-2.83-14.55l-3.4-.51Z"/><path id="bb" class="pb" d="M1785.56,113.26c4.93-4.78,6.52-12.04,4.05-18.45-1.27-1.83-1.94-4.23-4.49-4.89l-.43,20.98,.87,2.36Z"/><path id="bc" class="pc" d="M1865.75,94.97c2.42-.28,4.46-1.03,4.75-3.9-.82-1.68,2.72-4.46-1.42-5.35-2.59-.56-5.39-1.99-7.69-.4-2.37,1.63,.7,3.38,.83,5.19,.16,2.25,1.74,3.46,3.53,4.47Z"/><path id="bd" class="os" d="M1919.22,238.4l-.7,3.73,13.21,2.72c.71-3.57-1.26-5.22-3.28-6.85-.75-.45-2.06-.43-1.54-1.91l.22,.24c-2.52,1.14-5.7-.29-7.9,2.07Z"/><path id="be" class="on" d="M1830.37,282.66l4.86-2.03c1.39-5.45,5.58,1.26,8.05-2.51-4.94-1.09-9.11-5.79-14.2-2.36-2.28,1.53-.6,4.81,1.3,6.89Z"/><path id="bf" class="pd" d="M1871.47,26.53l.13,3.45,1.59,1.74c3.06,.25,6.38,2.36,8.89-1.25-2.46-.16-5.44,.18-3.75-3.94l-.25-3.49,.18,.22-2.62-.7,.09,.02c-.32,2.49-2.41,3.08-4.25,3.95Z"/><path id="bg" class="ou" d="M1785.13,89.92c2.55,.67,3.21,3.06,4.49,4.89,5.2-3.58,3.99-7.23-4-12.09-.05,2.42-.1,4.83-.16,7.25l-.33-.05Z"/><path id="bh" class="or" d="M1894.63,283.2l2.07-.61c-.54-2.6,3.98-6.92-1.87-7.58-5.14-.58-6.22,3.49-6.18,7.78l5.98,.41Z"/><path id="bi" class="oo" d="M1842.22,131.14c4.52,.87,8.22,.08,9.92-4.85-1.07-.34-2.13-.67-3.19-1-4.14-.23-8.89-1.16-6.73,5.85Z"/><path id="bj" class="os" d="M1796.02,185.37l3.4,.51c2.12-1.74,6.87-1.1,6.53-4.42-.31-3.01-4.36-1.43-6.74-1.91-2.73,1.02-3.59,3.08-3.19,5.83Z"/><path id="bk" class="oq" d="M1873.2,31.72l-1.59-1.74c-4.42,.6-6.55-2.22-8.39-7.84,.39,12.22,2.49,13.77,9.98,9.57Z"/><path id="bl" class="ov" d="M1854.06,102.67c-5.02-.8-6.95,1.33-5.92,6.26,4.08-.09,6.31-1.94,5.92-6.26Z"/><path id="bm" class="or" d="M1910.55,283.1c-3.07-2.52-6.49-7.14-7.69,1.3l-.24,.53,5.51,.21,2.25-.64c.25-.42,.31-.93,.16-1.4Z"/><path id="bn" class="oq" d="M1871.47,26.53c1.83-.87,3.93-1.46,4.26-3.96-.27-.7-.54-1.4-.81-2.1-1.94-.8-3.76-1.39-4.98,1.18-1.04,2.19-.75,3.81,1.54,4.88Z"/><path id="bo" class="ov" d="M1848.13,108.93c-4.22,.16-4.09,3.14-3.96,6.12,4.49,.01,6.08-1.86,3.96-6.12Z"/><path id="bp" class="oo" d="M1785.56,113.26l-.87-2.35c-2.72,.69-3.44,2.65-2.94,5.1,.12,.56,1.22,.93,1.88,1.38l1.93-4.12Z"/><path id="bq" class="pb" d="M1785.46,89.97c.05-2.42,.11-4.83,.16-7.25-.4-1.45-1.9-2.3-3.34-1.9-.21,.06-.42,.14-.61,.25-3.05,1.45,.09,2.73,.69,3.21,1.91,1.53,.23,4.86,3.1,5.69Z"/><path id="br" class="ow" d="M1862.96,156.23c-3.39-.77-6.85-1.78-8.59,2.7,3.47,1.03,6.22-.24,8.59-2.7Z"/><path id="bs" class="ow" d="M1844.18,157.57c.21-.57,.27-1.19,.18-1.79-3.15-.85-6.49-.63-9.51,.61,3.61,1.73,6.21,2.79,9.33,1.17Z"/><path id="bt" class="p`" d="M1894.63,283.2l-5.98-.41c-.12,.62-.4,1.19-.81,1.67,2.5,.87,6.12,7.81,6.79-1.25Z"/><path id="bu" class="oq" d="M1886.85,22.53c-1.75-.78-3.49-1.57-5.24-2.36l-1.22,3.91,4.31,1.99,2.15-3.54Z"/><path id="bv" class="os" d="M1810.74,191.67l1.21,1.06c.32-.41,.61-.86,.86-1.32,.05-.12-.45-.66-.55-.63-.53,.26-1.04,.55-1.52,.89Z"/><path id="bw" class="ow" d="M1915.07,31.85c-.06-1.39-.39-2.98-1.92-2.97-2.18,.02-2.44,1.76-2.11,3.58l4.03-.62Z"/><path id="bx" class="ow" d="M1878.33,26.54c-1.69,4.12,1.29,3.78,3.75,3.94,.04-1.39,.08-2.77,.12-4.16l-3.87,.22Z"/><path id="by" class="oo" d="M1777.51,92.83c-1.56,.59-2.62,2.04-2.73,3.7,2.59,.01,5.16,0,2.73-3.7Z"/><path id="c`" class="pd" d="M1812.88,214.06l-7.3,.26c2.56,3.57,4.94,1.79,7.3-.26Z"/><path id="ca" class="or" d="M1878.33,26.53l3.87-.22,2.51-.23-4.31-1.99-2.32-1.04,.25,3.49Z"/><path id="cb" class="ow" d="M1878.08,23.04l2.32,1.04c.41-1.3,.81-2.61,1.22-3.91l-3.24-1c-.04,1.36-.08,2.72-.12,4.08l-.18-.22Z"/><path id="cc" class="ow" d="M1898.89,207.71c-.26,.5-.38,1.07-.34,1.64l1.49,.07-1.15-1.71Z"/><path id="cd" class="ow" d="M1911.01,32.45l-2.33-.09,1.52,1.58,.8-1.49Z"/><path id="ce" class="ow" d="M1918.47,32.02c-.59-.12-1.2,0-1.7,.33l1.49,1.22,.21-1.54Z"/><path id="cf" class="ow" d="M1874.92,20.47c.27,.7,.54,1.4,.81,2.1l-.09-.02c.63-.99,.48-1.72-.72-2.09Z"/><path id="cg" class="pc" d="M1874.14,92.23l-.05-.25,1.3,.05c-.23-.14-.49-.41-.69-.38s-.37,.37-.56,.57Z"/><path id="ch" class="ov" d="M1846.23,121.16l-1.3,1.54,1.45,.04c.26-.51,.21-1.13-.14-1.58Z"/><path id="ci" class="oo" d="M1765.45,85.43l-1.21,1.35c.59-.23,1.04-.73,1.21-1.35Z"/><path id="cj" class="ow" d="M1910.55,299.12c.13,.57,.18,1.15,.14,1.74,1.84,.14,3.46,4.58,4.23,2.18,1.3-4.05,2.61-3.37,4.63-1.46,1.31,1.12,1.47,3.09,.35,4.4-.27,.31-.6,.57-.97,.76-6.16,3.86-12.33,8.12-20.19,4.48-3.95-.13-7.91-.32-11.86-.37-1.96-.02-4.33,.06-4.63,2.51-.27,2.22,3.78,1.23,3.61,3.86,18.53,2.62,37.01,3.47,55.24-2.12,2.94-4.61-5.32-7.49-1.87-12.17-.14-.51-.25-1.04-.3-1.57l-4.09-6.83-13.66-3.52-2.42-.25c-2.8,.02-5.61,.05-7.75-2.23-1.06,3.49,1.79,7.14-.46,10.59Zm16.09,10.23c-4.88-3.58-3.1-9.25-5.53-14.37,7.11,2.5,12.19,4.96,6.37,12.25-.14,.17,.08,.64,.13,.98,.83,.58,2.84,.68,1.81,2.13-.83,1.17-2.12,.19-2.78-.99Z"/><path id="ck" class="ou" d="M1844.36,292.77c-2.73-1.42-5.46-2.85-8.19-4.27-.78,1.63-3.52,2.38-2.55,4.69,.72,1.74,2.65,1.52,4.22,1.2,2.19-.44,4.35-1.07,6.52-1.62Z"/><path id="cl" class="pc" d="M1836.16,102.17l1.83,.32,.14-1.34c-.31-.03-.7-.2-.91-.07-.4,.32-.75,.68-1.07,1.08Z"/><path id="cm" class="pa" d="M1876.74,126.91c-.25-.77-.28-2.06-1.5-1.3-.36,.22,.05,1.67,.1,2.56,.49-.39,.95-.81,1.39-1.26Z"/><path id="cn" class="pc" d="M1910.55,299.12c2.25-3.44-.6-7.1,.45-10.59-.03-.62-.12-1.23-.28-1.83l.14,.14c-.91-.56-1.82-1.13-2.73-1.7l-5.51-.21c-2.48,2.81-.44,7.43-3.92,9.84,.7,10.3,7.4,4.24,11.85,4.35Z"/><path id="co" class="pd" d="M1912.36,129.92c1.1-.96,3.15-.86,3.26-2.89,.01-.21-.43-.65-.64-.63-2.03,.22-1.96,2.14-2.69,3.41l.08,.11Z"/><path id="cp" class="pa" d="M1849.8,97.55c.63,.44,1.04,.97,1.45,.98,.84-.06,1.68-.21,2.49-.43-.36-.35-.72-.97-1.09-.98-.96,.06-1.92,.21-2.86,.44Z"/><path id="cq" class="oo" d="M1910.72,286.7c.16,.6,.25,1.22,.28,1.83,2.14,2.28,4.95,2.24,7.75,2.23l-1-3.99-7.03-.08Z"/><path id="cr" class="pd" d="M1917.75,286.77l1,3.99,2.42,.25c1.37-.68,1.92-2.34,1.24-3.71-.1-.19-.22-.37-.35-.54h-4.3Z"/><path id="cs" class="oq" d="M1908.13,285.15c.91,.57,1.82,1.13,2.73,1.7-.16-.78-.31-1.56-.47-2.34-.76,.21-1.51,.42-2.26,.64Z"/></g><g id="ct" class="oy"><path id="cu" class="pa" d="M-97.8,933.58c.38,.34,.62,.82,.65,1.33,2.38,1.35,3.77,3.95,3.57,6.68,.39,.26,.61,.7,.59,1.17,3.88,1.88,3.67,5.8,4.55,9.18,.1,.67,.4,1.29,.87,1.78,4.87,.24,2.97,5.15,5.04,7.32,.39,.87,.77,1.73,1.16,2.59,5.97,9.29,14.71,16.47,24.98,20.52,1.75,.99,3.32,2.29,4.62,3.82,6.28,5.94,5.53,14.02-1.87,20.6,.97,6.1,7.06,5.12,10.6,7.67,3.85-.3,5.45,2.4,7.93,4.8,5.58,5.4,12.17,9.73,20.62,5.35-1.9-2.08-3.58-5.36-1.3-6.89,5.1-3.42,9.26,1.27,14.2,2.36-2.46,3.76-6.66-2.94-8.05,2.51,.55-.01,1,.42,1.01,.97,0,.02,0,.04,0,.06,3.22,1.53,6.45,3.03,9.64,4.61,2.44,1.21,4.61-5.92,6.93-.35,1.85,4.45-3.6,4.42-4.95,7l4.54,1.71c8.01-2.48,13.26,.48,16.1,8.18,3.98-.63,1.59-4.1,2.69-6.02,1.27-6.25,6.31-8.37,11.42-10.42,1.25-1.98,3.33-1.71,5.23-1.93,.41-.47,.69-1.05,.81-1.67-.04-4.29,1.03-8.36,6.18-7.78,5.85,.66,1.33,4.98,1.87,7.58l6.16,1.82c1.2-8.45,4.62-3.83,7.69-1.3,6.51,1.29,10.31-11.38,18.38-3.61,.49,.47,1.96-2.9,2.28-4.83-3.1-.96-6.56-2.07-1.73-5.29,5.79-3.86,8.94,0,11.59,4.61,1.02,.2,2.05,.4,3.07,.6l.04-.02,.25-2.07-1.32-3.49c-.67-2.25-6.19-1.25-3.8-5.4,1.68-2.91,3.52-6.34,7.87-3.31,2.47-2.05,4.55-4.31,4.08-7.88-6.67-2.04-2.51-4.07,0-6.1-8.29-6.06,1.79-13.24-3.07-20.81l12.25,4.65c.65-9.78-5.08-19-2.6-28.94l3.11-2.3c2.55-3.86,6.57-3.35,10.37-3.5l2.09-1.24-.08-3.28c-.81-2.71-3.97-4.97-1.55-8.28-.93-2.81-2.65-5.76,1.64-7.47,7.71-3.07,8.11-6.21,1.41-11.54-1.03-.82-2.84-1.56-1.73-2.78,.92-1.01,3.01-.95,4.59-1.37-.15-.66-.31-1.32-.46-1.98l-1.63-.38,.47-.92,1.28,1.03,8.22,.29c.6-.01,1.19,0,1.79,.01l.39-2.36c-6.18-12.59-4.02-25.9-2.78-39.18,1.02,7.08,2.05,14.17,3.08,21.25l5.24,.03c.84-9.39-2.37-19.32,3.72-28.02,.71-2.12,2.52-3.69,4.72-4.08l2.03-.14,7.92,.59,14.29,3.39c1.48-2.39,2.42-6.76,5.99-1.68,1.23-.36,1.85,.23,2.12,1.36l8.03,.34c-3.73-3.53,.27-6.76,.4-10.14l-2.15-3.85c-2.8-2.23-9.55-3.12-2.91-8.56-1.05-2-1.98-5.64-3.17-5.73-6.72-.48-8.27-3.97-7.37-9.88,.08-.49-2.04-1.32-3.13-1.98l-.59-.04,.68,.32,1.33-.65c-.53-.34-1.06-.67-1.58-1.01-3.47-.58-4.77-2.55-3.83-5.96l.17,.29-5.39-1.72c-4.48-.77-5.86-4.92-8.26-7.83-4.92-5.95-8.53-12.96-14.44-18.13l-1.59-1.09,1.26-.83,1.88-2.25c-1.93-1.02-2.93-2.46-2.09-4.71,1.59-1.17,2.45-3.1,2.24-5.07-6.44-2.11-7.91-3.58-8.16-8.16-2.34-3.48-6.54-3.57-9.81-5.35-.31,2.24-1.57,4.36-3.8,3.36-5.82-2.61-11.85-3.79-18.04-5.1-4.12-.87,1.3-2.88,1.39-4.69-9.13-1.14-18.22-4-27.44-.4-3.24,1.26-5.3-2.41-8.34-2.19-3.06,2.06-6.08,6.8-9.92,2.28-3.02-3.55-7.85-3.4-10.66-6.75-.88-.4-1.85-1.29-2.62-1.14-25.57,5.26-51.97,8.53-72.26,27.48-6.29,5.88-14.57,3.99-21.75,6.38-4.79,1.59-8.74,2.88-9.73,8.46-.22,1.68-1.02,3.24-2.25,4.4-11.47,8.37-14.33,21.45-18.75,33.69-.03,4,.55,8.25-4.17,10.37l-1.81,2.64c-.17,.62-.62,1.12-1.21,1.35-.77,2.26-1.55,4.51-2.33,6.77,.68,1.56,1.34,3.12,2.01,4.68,1.51-2.47,2.6-5.39,4.63-7.32,3.49-3.33,7.26-4.7,8.96,1.91,2.43,3.7-.14,3.71-2.73,3.7-.13,3.18,.77,6.71-1.27,9.41-3.11,4.11-1.2,7.41,.89,10.89,5.39,5.15,3.44,8.09-3.07,8.47-8.33,.49-12.29-4.79-14-12.26-.13-.3-.31-.57-.52-.81-.22-.09-.47-.07-.67,.07-5.19,4.57-.64,12.06-5.03,16.88l-.43,5.8c1.18,1.29,.85,2.05-.82,2.34-.12,9.58-1.43,19.12-3.91,28.38-1.94,7.35-1.43,15.13,1.45,22.16l-.32,1.99Zm178.12-75.03c1.33,.44,2.43,.95,.54,2.19-2.12,1.42-.16,2.72,.11,4.07,3.34,1.79,8.52,2.28,8.19,7.2,0,2.88-2.33,5.21-5.2,5.21-.64,0-1.27-.12-1.87-.35-5.55,2.07-10.47,1.26-14.57-3.23l-.08-.11c-7.87-6.49-7.84-13.54-1.52-21.05,.66-1.47,1.5-2.85,2.5-4.11,4.49-4.44,10.72-6.45,15.31-2.6,4.38,3.67-2.09,7.32-3.39,11.11,.09,.56,.11,1.13,.06,1.7l-.07-.02Zm3.36,121.59c.01,.53-.01,1.05-.07,1.58,2.03,1.63,4,3.29,3.28,6.85l-13.21-2.72c-2.75,.61-5.36,1.74-7.69,3.33-6.04,4.05-12.78,4.46-18.8-3.46,8.25,.29,15.47,.33,20.97-5.34,6.22-7.45,11.55-15.07,12.13-25.49,.83-14.85-9.82-22.41-18.34-31.49-4.8-2.59-8.76-6.8-14.74-7.23,8.22-.2,16.87-2.79,23,5.15,8.44,5.67,15.32,12.57,17.84,22.86,2.3,.16,4.03,2.16,3.87,4.46-.01,.14-.03,.28-.05,.42,.19,2.46,.82,5.1-2.35,6.31l.28,.43-.22-.47c1.48,3.37,5.53,6.16,2.37,10.56l2.22,2c1.26,.2,2.96,.53,2.68,1.97-.5,2.63-3.01,1.59-4.75,1.91l-5.84,2.23c-.1,.55-.15,1.1-.17,1.66,.16,1.83-.79,3.59-2.4,4.47h0Zm-46.33-210.11c-.04,1.39-.08,2.77-.12,4.16-2.51,3.62-5.83,1.5-8.89,1.25-7.49,4.2-9.59,2.65-9.99-9.57,1.84,5.62,3.97,8.44,8.39,7.84l-.13-3.45c-2.29-1.07-2.58-2.68-1.54-4.88,1.22-2.57,3.04-1.98,4.98-1.18,1.2,.36,1.35,1.09,.72,2.09l2.62,.69,.12-4.08c2.54-1.28,5.74-1.98,7.47-3.96,2.93-3.33,6.92-4.77,9.15-1.8,2.3,3.08-2.41,5.28-4.66,7.39-1.07,.74-2.25,1.32-3.49,1.72l-2.15,3.55-2.51,.24Zm28.81,6.15l-.8,1.49-1.52-1.58-9.73,.9c5.15-4.59,10.93-7.55,15.34-12.33,3.34-2.03-.61-6.27,2.12-8.46,5.67,1.42,9.93,3.05,9.48,10.17-.35,5.58-3.32,5.69-7.25,5.49-.06,1.29-.11,2.58-.17,3.87l-.21,1.54-1.49-1.22c-.55-.23-1.12-.39-1.71-.49l-4.03,.62h-.03Zm28.1,203.78c-1.72-.34-4.06,.61-4.65-2.09-.08-.35,.61-1.17,1.05-1.27,2.69-.58,3.14,1.43,3.62,3.34l1.8,.37-.51,.89-1.31-1.25ZM3.28,852.66c2.11,4.26,.53,6.14-3.96,6.12l-.53,2.16c.86,1.32,1.73,2.64,2.59,3.96,.35,.45,.41,1.07,.14,1.58,.86,.85,1.72,1.7,2.57,2.55l3.18,.99c6.12,6.79,4.9,12.84-3.31,14.9-2.75,.69-5.82,.07-8.74,.05-10.02-3.41-16.5-12.02-16.57-21.49,.06-9.41,2.5-18.65,7.09-26.86,5.39-10.17,17.81-10.19,24.6-.11,.82,2.11,1.51,4.29,2.49,6.32,2.42,5.01-1.66,3.18-3.65,3.57,.39,4.32-1.84,6.16-5.92,6.26h0Zm-62.68-18.95c-2.87-.83-1.19-4.16-3.1-5.69-.6-.48-3.75-1.76-.69-3.21,1.31-.73,2.96-.27,3.7,1.04,.11,.19,.19,.4,.25,.61,7.99,4.86,9.2,8.52,4,12.09,2.47,6.4,.87,13.66-4.05,18.45l-1.93,4.12c-.65-.45-1.76-.82-1.88-1.38-.5-2.45,.22-4.4,2.94-5.1l.43-20.98,.33,.05Zm13.96,95.9c-1.95,5.41,4.89,9.12,2.83,14.55l3.47,1.56c3.25,.31,6.99-4.93,9.46-.35,2.29,4.16,1.32,9.35-2.3,12.41-2.36,2.05-4.74,3.84-7.3,.26l-.25,.02c-7.77,.38-12.16-4.26-15.5-10.46-5.92-8.97-11.43-18.11-10.64-29.45,.53-7.6,4.51-10.01,12.14-8.87,9.32,1.4,6.06,8.91,7.89,13.98,2.38,.49,6.43-1.09,6.74,1.91,.34,3.33-4.41,2.69-6.54,4.42h0ZM-.68,901.29c-3.12,1.61-5.72,.55-9.33-1.18,3.02-1.25,6.36-1.46,9.51-.61,7.79-.89,14.89-4.85,19.74-11.01,1.51-3.58,2.21-7.44,2.04-11.32-.36-7.81-.64-15.88,4.21-22.84l.42-3.73-5.03-11.91c-1.79-1.01-3.37-2.22-3.53-4.47-.13-1.8-3.21-3.56-.83-5.19,2.31-1.59,5.1-.16,7.69,.4,4.14,.9,.6,3.68,1.42,5.35l3.63,1.16c.18-.2,.35-.54,.56-.58s.46,.24,.69,.38l-1.3-.06c.71,3.5,6.7,5.27,3.33,10.11,5.03,7.75,4.7,20.39-.66,24.83-.44,.44-.91,.86-1.4,1.25-2.13,9.66,3.11,22.32-11.02,27.1-.31,.49-.8,.84-1.36,.97-2.38,2.46-5.13,3.73-8.59,2.7l-10.2-1.35Zm113.15-131.75c10.83-.29,7.74,8.87,9.84,14.5l1.98,2.88c1.41-.12,2.82-.24,4.24-.35l1.52,.57-1.52,.79c.59,2.71,1.78,4.06,4.83,2.73,2.12-.92,4.71-3.45,6.47,.52,1.56,3.51,2.03,7.24-.82,10.21-4.94,5.15-9.88,3.6-14.53-.7-4.13,.3-6.47-2.13-8.81-5.16-4.93-6.41-6.44-13.87-7.43-21.56-3.05-.52-5.81,6.06-8.32,1.46-2.88-5.29,3.69-5.82,6.32-8.08,2.67-2.29,6.11-4,6.24,2.2h0Zm3.47,143.96c.6,1.75,3.85,3.24-.35,5.23-2.78,1.32-4.34,1.28-5.75-1.16-1.48-2.55-2.64-5.3-4.15-7.84-.23-.39-1.58-.1-2.41-.13l.11,1.58c.86,0,1.72-.17,2.52-.48,2.41-1.55,1.3-7.23,6.52-5.52,2.85-2.1,6.36-5.13,9.3-1.96,3.5,3.76-1.74,5.95-3.38,8.7-.44,.74-1.58,1.06-2.41,1.56h0Zm-149.29,80.62c3.36,5.42,9.02,10.06,5.68,18.92l-9.44-16.64c-6.72-7.83-12.43-16.48-22.48-24.65,14.69,2.38,22.23,9.51,26.24,22.37h0Zm84.86-40.54c1.93,3.88,4.43,7.44,7.42,10.56,2.08,2.43,4.2,5.72,1.06,8.98-3.01,3.12-6.35,5.08-10.17,1-7.81-2.8-12.45-9.1-18.01-14.84-8.41-8.68-2.11-15.46,1.38-22.03,3.76-7.08,10.36-10.38,18.52-5.48,11.09,7.94,11.31,9.88,2.31,19.66l1.15,1.71-1.49-.07-2.17,.5Zm44.6-108.92l-7.81-7.45c14.11-3.88,16.33,9.17,21.33,15.57,3.47,4.45,1.09,13.47,1.32,20.45-4.95-.13-5.92,4.95-9.19,6.96-1.18,.65-2.58,.77-3.85,.31-2.08-1.01-.74-2.87-.31-4.34,1.29-4.42,3.55-8.62,2.97-13.46l-4.45-18.05Zm-115.49,90.39c-.65-.6-1.22-1.28-1.68-2.03-4.86-10.64-11.6-20.32-19.88-28.59-.72-.71-2.41-1.53-1.15-3.23,1.2-1.62,2.5-1.38,4.31-1,5.13,1.08,21.23,17.55,19.99,22.33-.96,3.72,.09,6.02,1.07,9,.51,1.35-.17,2.85-1.52,3.36-.36,.14-.75,.19-1.14,.16h0Zm-20.06-122.85c-4.38-6.81-2.44-12.48,2.77-15.34,7-3.85,13.02-14.99,22.46-6.22-5.43,10.85-21.07,8.37-25.23,21.57h0Zm113.32,198.28c-4.43-.67-10.22,.29-11.23-4.75-1.21-6.06,6.21,1.99,6.83-3.11,.06-.51,1.01-.86,1.34-1.4,1.37-2.27,2.54-4.99,5.89-2.58,2.49,1.79,5,4.03,3.22,7.29-1.22,2.23-2.02,6.21-6.04,4.55h0Zm-35.53-102.77c-.93,3.37-4.89,4.15-7.08,5.05-3.52,1.45-5.08-2.51-5.43-5.28-.58-4.72,3.99-4.69,6.81-5.67,4.99-1.72,2.93,3.88,5.7,5.91h0Zm13.29-52.44c8.76,8.3,3.02,18.67,4.42,28.01-5.4-8.78,.37-19.14-4.42-28.01Zm-38.17-48.3q20.16-4.18,25.36,1.16c-8.19-7.02-16.36,5.87-25.36-1.16Zm-47.59,128.41c.48-.33,.99-.63,1.52-.89,.09-.04,.6,.51,.55,.63-.24,.47-.53,.91-.86,1.32l-1.21-1.06Z"/><path id="cv" class="ow" d="M162.99,1026.53c14.66-14.72,29.88-28.9,42.73-45.32,2.66-3.4,5.66-6.64,6.29-11.2-2.69-.51-6.63-4.65-6.62,2.63,0,1.07-2.7,7.11-6.1,1.3-.58,6.84-4.09,12.22-8.42,17.38-2.2-1.5-3.6-3.93-3.78-6.59l-4.06,1.39c-6.02,1.08-10.98-1.9-16.1-4.22l-1.63,1.92-6.37,12.16-.2,.77c2.28,.11,1.19,1,.41,1.81-.3,2.21,.5,4.87-2.4,6.04l-.67-.17-.08,3.82c.45,3.7,3.12,5.77,6.56,7.46-5.51,1.91-9.68-.76-14.11-1.42-.06,1.71,.85,3.3,2.34,4.13,4.7,1.76,10.54,1.79,12.22,8.1Z"/><path id="cw" class="ot" d="M227.31,931.47l-4.17-6.8c-3.51-5.43-.38-11.42-1.44-17.05-2.38-7.84,2.33-12.33,7.78-16.46,.17-2.46,.35-4.92,.52-7.38-8.53,1.75-10.06-1.65-6.5-8.81-3-.27-6.22-.22-6.45-7.06,2.08,4.28,6.28,2.83,6.5,7.01,2.79-.29,6.26,.87,7.45-3.06,.49-1.62-.03-4.33-1.55-4.04-7.62,1.45-10.92-7.81-18.11-6.92,.03,1.28,.06,2.57,.09,3.85l-.38,4.5c.5,3.08-.14,5.35-3.84,5.53-.9,1.29,1.19,3.68-1.57,4.29l-2.44,3.78c1.47,2.25,2.44,4.55,.67,7.11,3.95-.5,9.17-.76,10.71,2.4,1.47,3.01-4.05,3.93-6.16,6.09-.92,.95-.68,3.02-.97,4.59,1.79,.81,1.87,2.37,1.74,4.01-.22,1.82-.45,3.64-.67,5.46-.18,.56-.5,1.07-.92,1.49,0,.35-.02,.71-.07,1.06,.21,1.82,1.01,3.85,.45,5.39-.41,1.14-2.1,.17-2.88-.93l-.6-.03-.6,.07c-.08,2.67-.17,5.33-.25,7.99l5.34-.04c3.63-.85,1.56,2.13,2.21,3.28l.22,2.59c1.39,2.21,3.67,2.16,5.86,2.3,1.7-2.11,4.1-2.19,6.51-2.25l3.53-1.96Zm-10.71-46.18l.71-1.59c.56,.61,1.4,1.14,1.6,1.85,.14,.52-.55,1.27-.87,1.93l-1.45-2.18Z"/><path id="cx" class="pd" d="M211.33,860.89c7.19-.89,10.49,8.37,18.11,6.92,1.52-.29,2.04,2.43,1.55,4.04-1.19,3.93-4.65,2.77-7.45,3.06l-.05,.05c-3.57,7.16-2.03,10.56,6.5,8.81,3.22-1.5,6.34-3.32,12.49-1.51-4.27-5.49-8.2-8.44-7-13.4-.59-1.39-1.18-2.79-1.77-4.19-1.27-6.55-4.17-12.67-8.43-17.8-1.72,1.75-3.54,4.44-6.1,2.75-1.1-.73-1.56-4.04,.62-5.81l-.24-.26c-.19-1.08-.38-2.15-.56-3.22,0,0-.69,.29-.71,.29-.97-.69-1.93-1.38-2.88-2.07-1.38-1.96-2.76-3.91-4.15-5.87-2.63-.03-5.23-3.11-7.89-.08,0,.64-.02,1.29-.04,1.93,6.47,4.81,3.52,7.71-2.04,10.09l-.56,.4,.59-.37-3.67-2.09c-.14,3.38-4.13,6.61-.4,10.14l2.96,.1c.78,.41,2.16,.71,2.25,1.24,.37,2.17-2.05,1.9-3.01,2.97,.57,.34,.96,.91,1.08,1.56l3.06,.25,3.55-.02c1.67-.12,3.27,.67,4.18,2.07Zm-.75-5.43c1.03-.8,1.75-1.8,2.46-1.8,.88,.22,1.6,.85,1.92,1.7,.29,.62,.02,1.36-.6,1.65-.32,.15-.68,.16-1,.02-.98-.42-1.92-.94-2.78-1.57Z"/><path id="cy" class="on" d="M114.48,1050.72c3.72-2.66,9.28,5.82,12.15-2-1.97-1.4-2.65-4.01-1.6-6.19,3.67-10.31,13.83-6.51,20.89-9.48,.26-2.16,.53-4.32,.79-6.49-2.03-.1-4.05-.19-6.07-.27-4.85,2.5-8.13-4.76-13.01-2.11-1.38,4.61-4.23,7.03-9.25,6.21l.27,2.29c2.43,8.89,.06,13.69-10.09,11.88-4.93,1.38-5.45,5.44-2.99,8.32,3.49,4.07,4.12-1.98,6.35-2.85,.66-.26,1.69,.43,2.55,.68Z"/><path id="d`" class="pc" d="M-14.49,1026.39c-8.45,4.37-15.04,.04-20.62-5.35-2.48-2.39-4.08-5.1-7.93-4.8-.34,1.25-1.23,3.46-.95,3.62,11.31,6.39,15.81,20.86,29.22,24.68,.29-3.21,2.51-2.72,4.17-1.73,5.04,3.03,8.64,.45,12.21-2.68l.55-3.27-2.66-.35c-2.17,.55-4.33,1.18-6.52,1.62-1.57,.32-3.49,.54-4.22-1.2-.97-2.31,1.78-3.06,2.55-4.69-1.22-2.29-2.41-4.59,.07-6.84,.02-.55-.41-1.01-.96-1.02-.02,0-.03,0-.05,0l-4.86,2.01Z"/><path id="da" class="pd" d="M114.48,1050.72c-.86-.25-1.89-.94-2.55-.68-2.23,.87-2.86,6.93-6.35,2.85-2.46-2.88-1.94-6.95,2.99-8.32-1.68-2.61-.67-4.28,1.96-5.22,2.51-.9,2.68-2.56,1.79-4.69-.96-1.24-1.92-2.49-2.88-3.73,0,0-.84-.27-.84-.27l-2.25-.17-.65,.21-.69-.03c.01,3-1.33,5.68-4.16,6.04s-4.69-1.9-5.04-4.93l.08,.11c-3.33,1.3-4.45-1.28-5.87-3.33-1.34,.84-2.06,2.38-1.84,3.95,2.23,1.41,2.29,3.49,1.79,5.75l4.09,6.83c.72-.94,1.91-2.43,2.71-1.05,1.18,2.03-1.09,2.17-2.4,2.63-3.45,4.68,4.81,7.57,1.87,12.17l-.04-.07c1.35-.09,1.78,.76,1.93,1.88,4.2,.66,7.98-1.19,11.94-1.96,2.45-2.11,4.92-4.22,4.41-7.97Zm-13.53-1.88l.32-.69,.33,.69h-.66Z"/><path id="db" class="p`" d="M169.69,803.8c1.8,.57,3.6,1.15,5.39,1.72,.32-3.77,3.07-4.21,6.02-4.39v-5.42c-3.66-4.85-7.32-9.69-11.12-14.74,4.83-2.4,6.22,2.16,9.03,3.27,.97-12.7-6.97-19.15-18.12-14.71-4.13,6.95-1.09,12.66,4.36,16.38,7.33,5.01,6.78,10.99,4.44,17.88Zm-1.79-30.72c-.69-.38-1.88-.64-2.37-1.38-.98-1.47,.48-1.69,1.37-1.59,.98,.02,1.91,.42,2.6,1.1,.74,1.13-.14,1.77-1.6,1.86Z"/><path id="dc" class="ot" d="M2.16,1036.85c-.18,1.09-.37,2.18-.55,3.28,3.8,4.01,1.17,8.81,1.64,13.22,1.12,6.03,4.66,7.37,10.03,5.2,.7-2.65,2.07-4.35,5.03-2.99,.61,.28,.8,1.5,1.18,2.28l-5.8,1.16c4.98,3.5,8.64,1.03,12.03-2.66,1.34-3.37,2.68-6.74,4.01-10.12-.19-2.47-.04-5.14-3.42-5.7-1.1,1.92,1.3,5.39-2.69,6.02-9.86,4.63-12.84,3.12-16.1-8.18l-4.54-1.71-.84,.2Z"/><path id="dd" class="pb" d="M169.69,803.8c2.34-6.9,2.89-12.87-4.44-17.88-5.44-3.72-8.49-9.45-4.36-16.38-.62,.1-1.25,.14-1.88,.11-1.77,.55-2.26,4.03-5.06,2.22-1.09,2.75-3.2,2.42-5.41,1.81l-1.88,2.25c-.11,.66,0,1.34,.33,1.92,5.91,5.18,9.52,12.18,14.44,18.13,2.41,2.91,3.79,7.05,8.27,7.83Z"/><path id="de" class="ot" d="M203.33,834.54c.02-.64,.03-1.29,.04-1.93,1.81-4.71-8.97-9.17-.29-14.02-2.3-2.99-.51-3.88,2.21-4.28h0c-.33-5.28,4.71-5.2,7.97-7.72-9.19,2.83-15.16-3.21-21.99-6.45-1.65,4.06,2.43,8.15-.06,12.2l-1.74,4.25c.7,1.76,2.3,1.67,3.78,1.85,.41-.38,.81-.76,1.21-1.14l.38,.76-1.67,.29c0,2.8,0,5.59,.02,8.39l2.01,1.75c2.64,.32,3.79,1.97,4.26,4.46,.45,2.32,1.6,3.48,3.9,1.6Z"/><path id="df" class="ow" d="M145.91,1033.05c-7.06,2.97-17.22-.83-20.88,9.47-1.05,2.18-.37,4.79,1.6,6.19,7.52,.39,14.59-.74,20.43-6.03-.38-3.21-.76-6.42-1.14-9.63Z"/><path id="dg" class="p`" d="M227.31,931.47l-3.53,1.96c-.7,3.55-3.24,4.26-6.33,4.12-2.75,3.58-2.86,8.03-4,12.13l.24,.23c1.94,.59,3.87,1.19,5.81,1.78,11.34,.24,13.59-5.57,7.82-20.22Z"/><path id="dh" class="ou" d="M219.49,951.7c-1.94-.59-3.88-1.19-5.82-1.79-.03,8.47-10.16,9-12.39,15.74l-1.9,2.33-.1,5.95c3.4,5.81,6.1-.23,6.1-1.3-.01-7.28,3.93-3.14,6.62-2.63,3.71-2.38,3.49-7,5.81-10.17,.45-1.4,.91-2.8,1.37-4.2l.3-3.94Z"/><path id="di" class="pd" d="M191.2,812.33c2.48-4.05-1.59-8.14,.06-12.2-.82-4.34-3.59-6.86-7.63-8.21l-2.53,3.79v5.42c1.38,1.03,2.07,2.75,1.8,4.45l.26,2.78c3.71-.76,4.65,4.1,8.05,3.97Z"/><path id="dj" class="p`" d="M203.08,818.58c-8.69,4.85,2.1,9.31,.29,14.02,2.66-3.04,5.26,.05,7.89,.08-.39-6.06,2.8-14.18-8.18-14.1Z"/><path id="dk" class="ov" d="M110.28,743.94c-.1,1.81-5.51,3.82-1.39,4.69,6.19,1.3,12.22,2.49,18.04,5.1,2.23,1,3.49-1.11,3.8-3.36-6.73-2.43-13.01-6.26-20.44-6.43Z"/><path id="dl" class="oq" d="M53.93,736.87c2.81,3.35,7.64,3.19,10.66,6.75,3.85,4.52,6.86-.21,9.92-2.28-5.99-5.5-13.6-3.54-20.58-4.47Z"/><path id="dm" class="on" d="M162.99,1026.53c-1.68-6.31-7.52-6.35-12.23-8.1,0,1.32,0,2.64,0,3.97l1.98,6.62c1.77,1.66,3.95,1.6,6.15,1.46,2.06,.19,3.89-1.32,4.08-3.38,.02-.19,.02-.37,.01-.56Z"/><path id="dn" class="ow" d="M221.7,907.62c1.05,5.64-2.07,11.62,1.44,17.05,1.88-6.3,4.53-12.44,3.93-19.25l-.74,.06-.74-.03-3.89,2.17Z"/><path id="do" class="pd" d="M221.7,907.62l3.89-2.18c-.09-2.22,1.59-4.12,3.81-4.3,.02-3.33,.05-6.66,.07-9.98-5.45,4.14-10.16,8.63-7.78,16.46Z"/><path id="dp" class="ou" d="M181.1,795.71l2.53-3.79-4.62-7.68c-2.81-1.11-4.2-5.67-9.03-3.27,3.81,5.04,7.46,9.89,11.12,14.74Z"/><path id="dq" class="ow" d="M158.91,1030.46c-2.2,.14-4.38,.2-6.15-1.46-9.04,2.45,.45,8.04-1.97,11.61,3.24-2.95,7.3-5.25,8.12-10.15Z"/><path id="dr" class="pb" d="M150.78,1040.61c2.42-3.57-7.07-9.16,1.97-11.61-.66-2.2-1.32-4.41-1.98-6.62l-4.06,4.18c-.26,2.16-.52,4.32-.79,6.49,.38,3.22,.76,6.43,1.14,9.64l2.35-.56,1.49-1.63-.12,.11Z"/><path id="ds" class="p`" d="M140.54,755.73c.25,4.58,1.72,6.05,8.16,8.16,.79-5.43,.49-5.72-8.16-8.16Z"/><path id="dt" class="ot" d="M233.71,864.69c.59,1.4,1.18,2.79,1.77,4.19l8.74-4.23c-4.03-3.11-7.25-.8-10.51,.04Z"/><path id="du" class="p`" d="M153.95,771.86c2.8,1.81,3.29-1.67,5.06-2.22-1.06-3.73-3.02-4.64-6.13-1.95,1,1.22-2.96,3.72,1.06,4.17Z"/><path id="dv" class="pc" d="M219.8,843.82c-2.17,1.77-1.72,5.08-.62,5.81,2.56,1.7,4.38-.99,6.1-2.75l-5.48-3.06Z"/><path id="dw" class="ov" d="M153.96,771.86c-4.02-.45-.06-2.95-1.07-4.17-2.25-.12-4.52-.34-6.43,1.27-.84,2.25,.15,3.69,2.09,4.71,2.21,.61,4.32,.94,5.41-1.81Z"/><path id="dx" class="ot" d="M229.4,901.14c-2.22,.18-3.9,2.08-3.81,4.3l.74,.03,.74-.06c1.5-.9,2.39-2.54,2.34-4.28Z"/><path id="dy" class="p`" d="M219.19,955.64c-.45,1.4-.91,2.8-1.37,4.2,2.49-.74,3.97-1.8,1.37-4.2Z"/><path id="e`" class="pc" d="M215.4,838.55c.96,.69,1.91,1.38,2.88,2.07-.67-1.08-.43-3.45-2.88-2.07Z"/><path id="ea" class="pc" d="M219,840.33c.19,1.07,.38,2.14,.56,3.22,1.34-1.34,1.55-2.48-.56-3.22Z"/><path id="eb" class="pb" d="M4.09,869.02c-.86-.85-1.71-1.7-2.57-2.55l-1.45-.04,1.3-1.54c-.87-1.32-1.73-2.64-2.59-3.96-1.26-.25-3.41-.17-3.65-.81-3.56-9.31,4.73-22.01,15.22-23.62-6.79-10.08-19.21-10.06-24.6,.11-4.59,8.21-7.03,17.45-7.09,26.86,.07,9.47,6.55,18.08,16.57,21.49,.63-3.38-.49-7.13,2.13-10.1-2.16-7.01,2.59-6.08,6.72-5.85Zm-12.79-23.12c.31-.4,.67-.76,1.07-1.08,.21-.13,.6,.04,.91,.07l-.14,1.34-1.84-.32Z"/><path id="ec" class="oo" d="M115.58,973.86l-12.25-4.65c4.87,7.57-5.22,14.75,3.07,20.81l1.87-1.99,2.09-1.94c.67-.03,1.33-.07,2-.11,.27-.82,.51-2.38,1.5-1.59,.72,.58,.45,2.4,.63,3.66,.67,.04,1.34,.06,2.02,.05,6.61-1.35,5.68,6.82,10.22,8.08,3.04-1.08,2.23-4.7,4.88-6.7,4.85-3.65,7.38,2.59,11.19,1.3l-2.31,1.37c2.75,.72,5.51,1.45,8.26,2.17l4.12-3.16c1.16-2.39-4.05-6.52,2.07-7.56-.16-2.24-.39-4.46-2.63-5.74-4.96,3.99-10.6,3.29-15.68,1.08-3.04-1.33,.03-4.66-.03-7.1l-4.18-.02c-1.8,.24-4.22-.9-5.28,1.11-3.48,6.58-7.46,3.84-11.56,.94Z"/><path id="ed" class="pb" d="M88.04,944.18c-2.52-10.29-9.41-17.19-17.84-22.86-2.8,.52-6.52-2.63-8.25,2.09,8.52,9.08,19.17,16.64,18.34,31.49-.58,10.42-5.92,18.03-12.13,25.49,1.71,1.88,4.08,1.4,6.22,1.75,2.2-2.36,5.39-.93,7.9-2.07-.71-3.17,1.12-4.15,3.8-4.37,.01-.56,.07-1.11,.17-1.66-.8-3.47-.12-7.12,1.88-10.07,.9-2.8-1.3-6.12,1.44-8.62l.22,.47-.28-.43-1.14-5.44-.33-5.76Z"/><path id="ee" class="p`" d="M51.73,931.78c-8.16-4.91-14.76-1.61-18.52,5.48-3.49,6.57-9.79,13.35-1.38,22.03,5.56,5.75,10.2,12.04,18.01,14.84,3.97-5.52-1.66-9.5-2.29-14.29-4.32-1.61-7.08-1.92-5.24-9.22,1.89-7.5,7.57-12.02,9.41-18.84Z"/><path id="ef" class="pd" d="M115.58,973.86c4.1,2.89,8.08,5.64,11.56-.93,1.06-2,3.47-.87,5.28-1.11,.39-4.11-1.63-7.1-4.15-10.13-3.38-4.07-4.16-8.05,2.32-10.09,.09-2.08,.18-4.16,.27-6.24l-4.04-3.36-.34-2.87c-3.8,.14-7.81-.36-10.37,3.5l-3.11,2.3c-2.48,9.95,3.25,19.16,2.6,28.94Z"/><path id="eg" class="or" d="M142.5,901.21c-.6-.02-1.19-.02-1.79-.01-2.15,2.58-5.14,1.77-7.88,1.96-1.57,.41-3.67,.36-4.59,1.37-1.11,1.22,.7,1.96,1.73,2.78,6.7,5.33,6.3,8.47-1.41,11.54-4.29,1.71-2.57,4.66-1.64,7.47,.47,.05,.7-.16,.68-.63l8.79-.24c.26-1.36-.69-3.61,1.43-3.71,1.93-.09,3.15,1.68,3.63,3.65l10.99,1.8c3.79-5.75-7.4-10.71,.33-15.85-6.06-.7-2.62-11.04-10.27-10.13Z"/><path id="eh" class="pc" d="M100.58,862.72c.58,4.83-1.68,9.03-2.97,13.46-.43,1.47-1.77,3.32,.31,4.34,1.27,.46,2.67,.34,3.85-.31,3.27-2.01,4.24-7.09,9.19-6.96-.23-6.98,2.15-16-1.32-20.45-5-6.41-7.21-19.45-21.33-15.57l7.81,7.45c6.67,4.58,8.72,12.91,4.45,18.05Z"/><path id="ei" class="pc" d="M19.47,898.99c14.13-4.77,8.89-17.44,11.03-27.1-.05-.89-.46-2.34-.1-2.56,1.22-.75,1.24,.54,1.5,1.3,5.35-4.44,5.7-17.09,.66-24.83-1.74,2.26-3.26,4.8-6.62,4.8l-.42,3.73c-.82,4.72,7.45,8.08,4.44,10.67-7.21,6.22-6.05,13.66-5.5,21,.34,4.44-1.71,5.03-4.79,5.64l-.18,7.35Z"/><path id="ej" class="p`" d="M29.75,1046.22c6.27,5.18,12.62,6.74,20.07,1.81,4.09-2.71,6.04,.09,6.2,4.32l9.81-7.76c.03-.58-.01-1.17-.14-1.74-4.44-.12-11.14,5.95-11.86-4.34-1.29-1.41-2.63-1.34-4.31-.52-11.42,5.56-11.6,5.42-11.77-7.88-5.11,2.05-10.15,4.16-11.42,10.42,3.38,.56,3.24,3.23,3.42,5.7Z"/><path id="ek" class="pc" d="M51.73,931.78c-1.83,6.82-7.52,11.34-9.42,18.84-1.84,7.31,.92,7.61,5.24,9.22,2.46-1.37-.85-6.39,3.97-6.26l2.17-.5c-.04-.57,.08-1.14,.34-1.64,9.01-9.78,8.79-11.72-2.3-19.66Z"/><path id="el" class="pd" d="M80.32,856.88c1.3-3.79,7.77-7.44,3.39-11.11-4.59-3.85-10.83-1.83-15.31,2.6-1,1.26-1.84,2.64-2.5,4.11-.12,3.23,4.63,4.02,4.31,5.86-1.58,9.35,4.24,7.18,9.26,6.52,.45-.27,1.01-.29,1.48-.06-.27-1.35-2.23-2.65-.11-4.07-.18-.72-.36-1.46-.55-2.19l.07,.02c-.49-.25-.98-.51-1.47-.77l1.41-.93Z"/><path id="em" class="pc" d="M128.53,786.57l-4.24,.35c.06,4.59,.12,9.17,.18,13.76,4.65,4.3,9.59,5.85,14.53,.7,2.84-2.96,2.38-6.7,.82-10.21-1.76-3.97-4.34-1.44-6.47-.52-3.05,1.33-4.24-.02-4.83-2.73-.04-.45-.04-.91,0-1.36Z"/><path id="en" class="p`" d="M124.48,800.68c-.06-4.59-.12-9.17-.18-13.76l-1.98-2.88c-8.99,.96-7.64-8.16-11.71-12l-2.37,1.91c.99,7.69,2.5,15.16,7.43,21.56,2.33,3.03,4.68,5.46,8.81,5.16Z"/><path id="eo" class="ox" d="M152.15,852.94c-6.09,8.69-2.88,18.63-3.72,28.02l2.51,4.06c4.39,.29,3.56-6.37,8-6.01,.86-1.68,2.49-1.68,4.03-1.87-.13-1.35-.27-2.7-.4-4.05-10.22-1.43-9.24-7.34-5.71-14.26l-4.72-5.88Z"/><path id="ep" class="p`" d="M79.49,864.87c-5.03,.65-10.84,2.83-9.26-6.52,.31-1.84-4.43-2.63-4.31-5.86-6.32,7.51-6.36,14.57,1.52,21.05,.73-1.28,.67-3.19,2.69-3.41,.2-.02,.65,.42,.64,.63-.1,2.03-2.15,1.94-3.26,2.89,4.1,4.49,9.02,5.3,14.57,3.23-5.11-3.09-7.1-6.85-2.59-12.02Z"/><path id="eq" class="oq" d="M142.5,901.21c7.65-.91,4.21,9.43,10.27,10.13l2.28,.19h3.76c5.71-2.6,.76-7.23,2.04-10.69-2.81-2.57-7.23,.79-9.86-2.77,2.1-2.32,5.84,.1,7.76-2.62l-5.76-4.4-8.08,2.05c-1.1,1.77,1.37,4.8-2.03,5.75l-.39,2.36Zm11.35,4.81c.53-.4,1.26-1.39,1.96-1.36,1.14-.03,2.08,.87,2.11,2,0,.19-.02,.37-.06,.55-.36,.8-1.1,1.37-1.96,1.52-1.44,.11-2.26-.82-2.04-2.71h0Z"/><path id="er" class="pc" d="M10.36,836.5c-10.49,1.61-18.78,14.31-15.22,23.62,.25,.64,2.39,.56,3.65,.81l.53-2.16c-.13-2.98-.26-5.96,3.96-6.12h0c-1.02-4.92,.9-7.06,5.92-6.26,1.99-.38,6.08,1.44,3.65-3.57-.98-2.03-1.67-4.21-2.49-6.32Zm-5.42,4.77c.94-.23,1.9-.38,2.86-.43,.37,.01,.72,.64,1.09,.98-.81,.23-1.65,.37-2.49,.43-.42,0-.83-.53-1.46-.97h0Z"/><path id="es" class="ow" d="M88.18,1032.5c-.22-1.56,.5-3.11,1.84-3.95l.98-6.13c.29-3.47-1.26-4.81-4.65-4.03-.32,1.93-1.79,5.31-2.28,4.83-8.06-7.78-11.86,4.9-18.38,3.61,.15,.47,.09,.98-.16,1.41,.16,.78,.31,1.56,.47,2.34l-.14-.14,7.03,.08h4.3l10.99,2Z"/><path id="et" class="pb" d="M37.75,1030.11c.17,13.29,.35,13.43,11.77,7.88,1.68-.82,3.02-.89,4.31,.52,3.47-2.41,1.45-7.03,3.92-9.84l.24-.53-6.16-1.82-2.07,.61c-.66,9.06-4.29,2.12-6.79,1.25-1.9,.22-3.98-.05-5.23,1.93Z"/><path id="eu" class="ow" d="M51.52,953.58c-4.82-.13-1.5,4.89-3.97,6.26,.63,4.78,6.26,8.77,2.29,14.29,3.82,4.08,7.16,2.12,10.17-1,3.14-3.26,1.01-6.55-1.06-8.98-3-3.12-5.5-6.68-7.42-10.56Z"/><path id="ev" class="p`" d="M203.6,858.84l-3.06-.25c.09,2.12,.18,4.24,.27,6.37,.28,1.48,1.39,3.6-1.18,3.68-2.29,.07-2.14-1.92-1.57-3.63-.63-2.89-6.51-6.6,1.27-8.18,2.46-.86-.44-2.9,.89-4.01l-2.96-.1-8.03-.34c.03,3.14,.07,6.28,.1,9.43,5.03,.74,4.99,4.77,5.49,8.46,2.93,.84,2.29,3.4,2.66,5.48l.81,.08-.06,.81-.02-.68,.58-.35,4.72-4.1c.18-2.38,.36-4.77,.55-7.15-.15-1.84-.3-3.68-.45-5.52Z"/><path id="ew" class="os" d="M73.89,1010.5c4.02,1.65,4.83-2.33,6.04-4.55,1.79-3.26-.72-5.5-3.22-7.29-3.35-2.41-4.52,.3-5.89,2.58-.33,.55-1.27,.89-1.34,1.4-.63,5.1-8.05-2.95-6.83,3.11,1.01,5.04,6.8,4.07,11.23,4.74Z"/><path id="ex" class="ov" d="M126.8,942l4.04,3.36c2.97,.56,3.26-1.92,4.67-3.58,2.8-3.3,3.35-.7,3.37,1.94,4.71,.43,6.59-4.09,12.72-5.62l-14.24-4.75c-2.38,4.59-6.18-.91-8.9,1.25l.08,3.28c.08,1.65,.02,3.25-1.75,4.11Z"/><path id="ey" class="ow" d="M-2.63,874.87c-2.62,2.96-1.5,6.71-2.13,10.1,2.92,.02,5.99,.64,8.74-.05,8.2-2.07,9.43-8.12,3.31-14.9-1.69,4.93-5.4,5.73-9.92,4.85Z"/><path id="f`" class="or" d="M98.25,1012.71c.44,1.16,.88,2.33,1.32,3.49l2.8,.1,8.18-.03c-.2-4.4-5.04-9.9,2.93-12.37-1.07-3.77-2.48-7.23-7.09-7.78,.48,3.58-1.6,5.83-4.08,7.88,3.61,5.22-2.17,6.06-4.07,8.71Z"/><path id="fa" class="on" d="M74.37,982.13c-2.14-.35-4.51,.13-6.22-1.75-5.5,5.67-12.73,5.63-20.97,5.34,6.02,7.92,12.76,7.52,18.8,3.46,2.33-1.59,4.94-2.72,7.69-3.33l.7-3.73Z"/><path id="fb" class="p`" d="M19.66,891.64c3.08-.6,5.13-1.19,4.79-5.64-.55-7.33-1.72-14.78,5.5-21,3.01-2.6-5.26-5.95-4.44-10.67-4.86,6.96-4.57,15.03-4.21,22.84,.17,3.88-.53,7.75-2.04,11.32l.41,3.15Z"/><path id="fc" class="pb" d="M142.89,898.85c3.4-.96,.93-3.99,2.03-5.75-3.39-3.66-1.75-8.03-1.74-12.17-1.03-7.08-2.05-14.17-3.08-21.25-1.23,13.28-3.39,26.59,2.79,39.17Z"/><path id="fd" class="ow" d="M73.78,771.88c3.94,.2,6.9,.09,7.25-5.49,.45-7.12-3.82-8.75-9.48-10.17-2.72,2.19,1.23,6.43-2.12,8.46,3.17,1.37,1.96,5.37,4.34,7.2Z"/><path id="fe" class="ow" d="M7.55,1038.37c3.25,11.3,6.23,12.82,16.1,8.18-2.84-7.71-8.08-10.67-16.1-8.18Z"/><path id="ff" class="ou" d="M38.36,907.74c-2.77-2.03-.71-7.64-5.7-5.91-2.81,.98-7.39,.95-6.81,5.67,.34,2.78,1.91,6.73,5.43,5.28,2.19-.9,6.14-1.68,7.08-5.05Z"/><path id="fg" class="pb" d="M181.11,852.7l-14.29-3.39c-1.72,5.21-4.66,3.99-7.85,1.5-.02,2.79-.48,5.65,1.52,8.06,5.98-3.97,12.15-.64,18.23-.47l2.39-5.7Z"/><path id="fh" class="on" d="M2.16,1036.85l.84-.2c1.35-2.58,6.8-2.55,4.95-7-2.32-5.57-4.49,1.56-6.93,.35-3.19-1.58-6.43-3.08-9.64-4.61-2.48,2.26-1.28,4.55-.07,6.84,2.73,1.42,5.46,2.85,8.19,4.27l2.66,.35Z"/><path id="fi" class="ot" d="M112.45,905.2c-5.23-1.72-4.12,3.98-6.52,5.52-.81,.31-1.66,.47-2.52,.48l-.11-1.58c.83,.03,2.18-.26,2.41,.13,1.5,2.54,2.66,5.28,4.15,7.84,1.42,2.43,2.97,2.48,5.75,1.16,4.2-1.99,.95-3.48,.35-5.23l-3.5-8.3Z"/><path id="fj" class="os" d="M86.35,1018.39c3.39-.77,4.94,.56,4.65,4.03l2.69-.12,2.92,2.21c.44,0,.88,.04,1.32,.11,.45-.11,.91-.19,1.38-.23,.39-.73,.77-1.47,1.16-2.2l-1.05-1.86h-.08c-1.51-.08-2.78-1.16-3.11-2.64-2.65-4.61-5.81-8.46-11.59-4.6-4.84,3.23-1.38,4.34,1.72,5.3Z"/><path id="fk" class="ou" d="M110.6,772.05c4.07,3.83,2.73,12.96,11.71,12-2.1-5.64,.99-14.79-9.84-14.5l-1.87,2.51Z"/><path id="fl" class="ou" d="M79.49,864.87c-4.5,5.16-2.51,8.92,2.59,12.01,2.69,1.03,5.7-.31,6.73-3,.23-.6,.35-1.23,.35-1.87,.33-4.92-4.84-5.41-8.19-7.2-.47-.23-1.03-.21-1.48,.06Z"/><path id="fm" class="ou" d="M193.24,818.42c-1.48-.17-3.08-.08-3.78-1.85-2.73-.64-5.11-2.27-6.7-4.58l-2.43,.2-1.33,.65-.09-.29c1.1,.67,3.21,1.49,3.13,1.98-.9,5.91,.65,9.41,7.37,9.88,1.19,.09,2.12,3.73,3.17,5.73l.58-3.44-.02-8.39,.08,.1Z"/><path id="fn" class="ot" d="M25.93,850.61c3.37,0,4.89-2.54,6.62-4.8,3.37-4.84-2.6-6.61-3.32-10.11l.05,.25-3.63-1.16c-.29,2.87-2.33,3.62-4.75,3.9l5.03,11.91Z"/><path id="fo" class="pd" d="M73.79,771.88c-2.38-1.84-1.18-5.84-4.34-7.2-4.42,4.77-10.2,7.74-15.34,12.33l9.73-.9,2.33,.09h.03c-.33-1.81-.07-3.55,2.11-3.57,1.52-.01,1.86,1.58,1.92,2.97,.59,.1,1.16,.27,1.71,.49,.5-.33,1.11-.45,1.7-.33l.16-3.87Z"/><path id="fp" class="ot" d="M51.65,855.29c4.8,8.87-.98,19.23,4.42,28.01-1.4-9.35,4.34-19.7-4.42-28.01Z"/><path id="fq" class="os" d="M106.39,996.12c4.61,.55,6.02,4.01,7.09,7.78,.53-.04,.94-.47,.96-.99-.74-5.13-1.59-10.28,2.06-14.8-.67,0-1.34-.01-2.02-.05l-2.13-2.07c-.67,.04-1.33,.08-2,.11l-2.09,1.94-1.86,2c-2.52,2.03-6.69,4.05-.01,6.09Z"/><path id="fr" class="pb" d="M13.48,806.99c8.99,7.03,17.18-5.87,25.36,1.16q-5.2-5.33-25.36-1.16Z"/><path id="fs" class="ov" d="M42,766.26c1.24-.4,2.42-.98,3.49-1.72,2.25-2.12,6.95-4.31,4.66-7.39-2.23-2.98-6.22-1.54-9.15,1.8-1.74,1.98-4.94,2.69-7.47,3.96l3.24,1c1.75,.79,3.49,1.57,5.24,2.36Z"/><path id="ft" class="oo" d="M143.19,880.93c-.02,4.14-1.66,8.51,1.74,12.17l8.07-2.05c-.68-2.01-1.37-4.02-2.06-6.04-.84-1.35-1.68-2.7-2.51-4.06l-5.23-.03Z"/><path id="fu" class="os" d="M110.6,772.05l1.87-2.51c-.13-6.2-3.57-4.49-6.24-2.2-2.62,2.26-9.2,2.79-6.32,8.08,2.5,4.6,5.27-1.98,8.32-1.46l2.37-1.91Z"/><path id="fv" class="pb" d="M19.66,891.64l-.41-3.14c-4.85,6.15-11.96,10.12-19.74,11.01,.09,.6,.03,1.22-.18,1.79l10.19,1.36c1.74-4.48,5.21-3.46,8.59-2.7,.56-.13,1.05-.48,1.36-.97,.06-2.45,.12-4.9,.19-7.35Z"/><path id="fw" class="on" d="M61.94,923.4c1.74-4.72,5.46-1.57,8.25-2.09-6.12-7.93-14.77-5.34-23-5.15,5.99,.43,9.95,4.65,14.75,7.23Z"/><path id="fx" class="p`" d="M203.33,834.54c-2.29,1.87-3.45,.71-3.89-1.61-.47-2.48-1.62-4.13-4.26-4.46,2.14,3.35,2.81,6.75,.32,10.25l2.15,3.85,3.67,2.09-.03-.03c5.55-2.38,8.51-5.28,2.04-10.09Z"/><path id="fy" class="or" d="M112.45,905.2l3.5,8.3c.82-.51,1.97-.82,2.41-1.56,1.65-2.75,6.89-4.93,3.38-8.7-2.94-3.16-6.45-.14-9.3,1.96Z"/><path id="g`" class="pc" d="M20.9,838.7c2.42-.28,4.46-1.03,4.75-3.9-.82-1.68,2.72-4.46-1.42-5.35-2.59-.56-5.39-1.99-7.69-.4-2.37,1.63,.7,3.38,.83,5.19,.16,2.25,1.74,3.46,3.53,4.47Z"/><path id="ga" class="os" d="M74.37,982.13l-.7,3.73,13.21,2.72c.71-3.57-1.26-5.22-3.28-6.85-.75-.45-2.06-.43-1.54-1.91l.22,.24c-2.52,1.14-5.7-.29-7.9,2.07Z"/><path id="gb" class="ov" d="M98.25,1012.71c1.9-2.65,7.68-3.49,4.07-8.71-4.35-3.03-6.19,.41-7.87,3.31-2.4,4.15,3.13,3.15,3.8,5.4Z"/><path id="gc" class="ow" d="M181.11,852.7c-.8,1.9-1.59,3.8-2.39,5.7,1.1,2.08,2.2,4.15,3.31,6.23l-.91,.19,2.43-1.85-.45-2.34c1.34-3.2,2.67-6.41,4.01-9.61-3.58-5.09-4.51-.72-5.99,1.68Z"/><path id="gd" class="p`" d="M100.58,862.72c4.27-5.14,2.22-13.47-4.46-18.06l4.46,18.06Z"/><path id="ge" class="pd" d="M26.61,770.26l.13,3.45,1.59,1.74c3.06,.25,6.38,2.36,8.89-1.25-2.46-.16-5.44,.18-3.75-3.94l-.25-3.49,.18,.22-2.62-.7,.09,.02c-.32,2.49-2.41,3.08-4.25,3.95Z"/><path id="gf" class="p`" d="M160.48,858.87c-2-2.4-1.54-5.27-1.52-8.06l-.19-.27-1.91-1.68c-2.2,.39-4.01,1.96-4.72,4.08l4.72,5.88c.21,2.84-.63,6,2.44,7.96,.39-2.64,.79-5.28,1.18-7.91Z"/><path id="gg" class="or" d="M49.77,1026.93l2.07-.61c-.54-2.6,3.98-6.92-1.87-7.58-5.14-.58-6.22,3.49-6.18,7.78l5.98,.41Z"/><path id="gh" class="pd" d="M128.47,934.6c2.72-2.17,6.52,3.34,8.9-1.25-.07-1.42,2.4-3.23-.65-4.18-3.62,.36-7.59,1.63-9.12-3.47,.01,.47-.21,.68-.68,.63-2.42,3.31,.74,5.57,1.55,8.28Z"/><path id="gi" class="ow" d="M195.5,838.72c2.49-3.5,1.82-6.89-.32-10.25l-2.01-1.75c-.19,1.15-.39,2.29-.58,3.44-6.65,5.44,.1,6.33,2.91,8.56Z"/><path id="gj" class="oo" d="M-2.63,874.87c4.52,.87,8.22,.08,9.92-4.85-1.07-.34-2.13-.67-3.19-1-4.14-.23-8.89-1.16-6.73,5.85Z"/><path id="gk" class="pc" d="M88.13,963.95c-2,2.95-2.68,6.6-1.88,10.07l5.84-2.23,2.06-3.88-2.22-2-3.81-1.95Z"/><path id="gl" class="oq" d="M28.34,775.45l-1.59-1.74c-4.42,.6-6.55-2.22-8.39-7.84,.39,12.22,2.49,13.77,9.98,9.57Z"/><path id="gm" class="ou" d="M187.1,851.02c-1.33,3.2-2.67,6.41-4.01,9.61l4.66,1.94c.57-.15,1.1-.41,1.56-.77l-.1-9.43c-.27-1.13-.9-1.72-2.12-1.36Z"/><path id="gn" class="ov" d="M9.2,846.4c-5.02-.8-6.95,1.33-5.92,6.26,4.08-.09,6.31-1.94,5.92-6.26Z"/><path id="go" class="oq" d="M88.12,963.96l3.81,1.95c3.16-4.41-.89-7.2-2.37-10.56-2.74,2.48-.54,5.8-1.44,8.61Z"/><path id="gp" class="or" d="M65.69,1026.83c-3.07-2.52-6.49-7.14-7.69,1.3l-.24,.53,5.51,.21,2.25-.64c.25-.42,.31-.93,.16-1.4Z"/><path id="gq" class="oq" d="M26.61,770.26c1.83-.87,3.93-1.46,4.26-3.96-.27-.7-.54-1.4-.81-2.1-1.94-.8-3.76-1.39-4.98,1.18-1.04,2.19-.75,3.81,1.54,4.88Z"/><path id="gr" class="ov" d="M3.28,852.66c-4.22,.16-4.09,3.14-3.96,6.12,4.49,.01,6.08-1.86,3.96-6.12Z"/><path id="gs" class="oo" d="M182.9,805.57c.27-1.7-.42-3.42-1.8-4.45-2.95,.17-5.7,.61-6.02,4.39l-.16-.29c1.55-.87,2.83-.05,4.14,.63l3.84-.28Z"/><path id="gt" class="p`" d="M158.97,850.81c3.18,2.49,6.14,3.71,7.85-1.5l-7.92-.59c-.1,.6-.14,1.21-.12,1.82l.19,.27Z"/><path id="gu" class="ow" d="M18.11,899.96c-3.39-.77-6.85-1.78-8.59,2.7,3.47,1.03,6.22-.24,8.59-2.7Z"/><path id="gv" class="p`" d="M49.77,1026.93l-5.98-.41c-.12,.62-.4,1.19-.81,1.67,2.5,.87,6.12,7.81,6.79-1.25Z"/><path id="gw" class="pb" d="M182.9,805.58l-3.84,.27-.31,5.33c.53,.34,1.06,.68,1.58,1.01l2.43-.2c.13-1.21,.26-2.42,.39-3.63l-.26-2.79Z"/><path id="gx" class="os" d="M94.27,979.96c-.47-1.92-.93-3.91-3.62-3.34-.43,.1-1.13,.92-1.05,1.27,.59,2.7,2.93,1.74,4.65,2.09h.02Z"/><path id="gy" class="oq" d="M42,766.26c-1.75-.78-3.49-1.57-5.24-2.36l-1.22,3.91,4.31,1.99,2.15-3.54Z"/><path id="h`" class="oq" d="M94.15,967.91l-2.06,3.88c1.74-.32,4.24,.72,4.75-1.91,.28-1.45-1.42-1.78-2.68-1.97Z"/><path id="ha" class="pc" d="M88.04,944.17l.33,5.75,3.49-.87c.4-2.27-1.12-4.43-3.39-4.83-.14-.02-.28-.04-.42-.05Z"/><path id="hb" class="oq" d="M91.85,949.06l-3.49,.87,1.15,5.45c3.17-1.22,2.53-3.85,2.34-6.32Z"/><path id="hc" class="oq" d="M132.83,903.16c2.75-.19,5.73,.62,7.88-1.96l-8.22-.29-.13,.27,.46,1.98Z"/><path id="hd" class="ow" d="M70.21,775.58c-.06-1.39-.39-2.98-1.92-2.97-2.18,.02-2.44,1.76-2.11,3.58l4.03-.62Z"/><path id="he" class="ow" d="M33.48,770.26c-1.69,4.12,1.29,3.78,3.75,3.94,.04-1.39,.08-2.77,.12-4.16l-3.87,.22Z"/><path id="hf" class="os" d="M86.07,975.69c-2.69,.22-4.51,1.2-3.8,4.37l-.22-.24c.44,.39,1.06,.51,1.61,.33,1.61-.88,2.56-2.63,2.4-4.46Z"/><path id="hg" class="pd" d="M178.75,811.18l.31-5.33c-1.3-.68-2.6-1.5-4.14-.63-.94,3.41,.37,5.38,3.83,5.96Z"/><path id="hh" class="on" d="M99.4,1020.33l1.05,1.86c.66,0,1.32,.09,1.96,.28-.01-2.05-.03-4.11-.04-6.16l-2.8-.1c-.09,.69-.17,1.38-.25,2.07,.03,.68,.05,1.37,.08,2.05Z"/><path id="hi" class="or" d="M33.47,770.26l3.87-.22,2.51-.23-4.31-1.99-2.32-1.04,.25,3.49Z"/><path id="hj" class="ow" d="M33.23,766.76l2.32,1.04c.41-1.3,.81-2.61,1.22-3.91l-3.24-1c-.04,1.36-.08,2.72-.12,4.08l-.18-.22Z"/><path id="hk" class="or" d="M132.49,900.91l-1.28-1.03-.47,.92,1.63,.38,.12-.27Z"/><path id="hl" class="os" d="M94.25,979.98l1.3,1.25,.51-.89c-.6-.12-1.2-.25-1.8-.37h-.01Z"/><path id="hm" class="on" d="M126.8,942c1.77-.87,1.83-2.46,1.75-4.11l-2.09,1.24,.34,2.87Z"/><path id="hn" class="or" d="M99.4,1020.33c-.03-.68-.05-1.37-.08-2.05l-.04,.02,.04,2.03h.08Z"/><path id="ho" class="ov" d="M99.32,1020.33l-.04-2.03c-1.02-.2-2.05-.4-3.07-.6,.33,1.47,1.61,2.55,3.11,2.63Z"/><path id="hp" class="pb" d="M83.67,980.14c-.56,.18-1.17,.06-1.61-.33-.51,1.47,.8,1.46,1.54,1.91,.06-.52,.08-1.05,.07-1.58Z"/><path id="hq" class="on" d="M112.97,944.92l3.11-2.3c-1.03,.76-2.07,1.53-3.11,2.3Z"/><path id="hr" class="pb" d="M178.92,812.56l.09,.29c-.22-.11-.45-.22-.68-.33l.59,.04Z"/><path id="hs" class="ou" d="M128.53,786.57c-.04,.45-.04,.91,0,1.36l1.52-.79-1.52-.57Z"/><path id="ht" class="ow" d="M54.04,951.44c-.26,.5-.38,1.07-.34,1.64l1.49,.07-1.15-1.71Z"/><path id="hu" class="ow" d="M66.15,776.18l-2.33-.09,1.52,1.58,.8-1.49Z"/><path id="hv" class="ow" d="M73.62,775.75c-.59-.12-1.2,0-1.7,.33l1.49,1.22,.21-1.54Z"/><path id="hw" class="ou" d="M80.32,856.88l-1.41,.93c.49,.26,.98,.51,1.47,.77,.05-.57,.03-1.14-.06-1.7Z"/><path id="hx" class="pb" d="M158.78,850.54c-.02-.61,.02-1.22,.12-1.82l-2.03,.14,1.91,1.68Z"/><path id="hy" class="ov" d="M146.99,777.84c-.33-.58-.44-1.26-.33-1.92l-1.26,.83,1.59,1.09Z"/><path id="i`" class="ou" d="M80.31,858.56c.18,.72,.37,1.46,.55,2.19,1.89-1.24,.79-1.74-.55-2.19Z"/><path id="ia" class="ow" d="M30.06,764.2c.27,.7,.54,1.4,.81,2.1l-.09-.02c.63-.99,.48-1.72-.72-2.09Z"/><path id="ib" class="pc" d="M29.28,835.95l-.05-.25,1.3,.05c-.23-.14-.49-.41-.69-.38s-.37,.37-.56,.57Z"/><path id="ic" class="ov" d="M1.38,864.89l-1.3,1.54,1.45,.04c.26-.51,.21-1.13-.14-1.58Z"/><path id="id" class="ow" d="M65.69,1042.85c.13,.57,.18,1.15,.14,1.74,1.84,.14,3.46,4.58,4.23,2.18,1.3-4.05,2.61-3.37,4.63-1.46,1.31,1.12,1.47,3.09,.35,4.4-.27,.31-.6,.57-.97,.76-6.16,3.86-12.33,8.12-20.19,4.48-3.95-.13-7.91-.32-11.86-.37-1.96-.02-4.33,.06-4.63,2.51-.27,2.22,3.78,1.23,3.61,3.86,18.53,2.62,37.01,3.47,55.24-2.12,2.94-4.61-5.32-7.49-1.87-12.17-.14-.51-.25-1.04-.3-1.57l-4.09-6.83-13.66-3.52-2.42-.25c-2.8,.02-5.61,.05-7.75-2.23-1.06,3.49,1.79,7.14-.46,10.59Zm16.09,10.23c-4.88-3.58-3.1-9.25-5.53-14.37,7.11,2.5,12.19,4.96,6.37,12.25-.14,.17,.08,.64,.13,.98,.83,.58,2.84,.68,1.81,2.13-.83,1.17-2.12,.19-2.78-.99Z"/><path id="ie" class="on" d="M166.92,981.89c5.13,2.33,10.08,5.3,16.11,4.22,1.04-6.73,2.53-13.41,2.05-20.29l.08,.1c-1.57-.68-1.58-1.38-.03-2.1l2.03-2.03c-2.79-2.79-1.6-5.99,.45-7.87,3.3-3.03,.23-5.16-.14-7.67l-4.29-2.17c-1.78-.08-3.64-.03-4.2-2.34l-4.06-1.23c-3.8,.4,2.8,5.35-2.27,5.19-.51,0-1.01,0-1.53-.03l-6.1,.06,.17,2.27-.19,.54,.54,9.43c2.36,3.03,.64,5.31-1.38,7.53-1.11,.66-1.47,2.1-.81,3.21,.01,.02,.03,.05,.04,.07,3.83-3.35,8.48-5.03,13.1-3.06,4.76,2.03,.39,5.82,.42,8.8,.07,6.22-4.86,3.34-7.84,3.98-3.37-1.22-3.5,1.45-4.15,3.47l.29-.43,.48,.2c.41,.02,.81,.06,1.21,.14Z"/><path id="if" class="on" d="M148.74,994.33c-2.75-.72-5.5-1.45-8.25-2.17-2.52,1.13-2.2,3.12-1.55,5.21,1.34,1,3.95,2.25,3.81,2.97-1.03,5.42,11.46,6.99,3.91,13.97,.59,.05,1.17,.04,1.76-.02,4.43,.66,8.6,3.33,14.11,1.42-3.44-1.69-6.11-3.76-6.56-7.46-2.13-.5-3.41-1.65-3.11-4.02l-4.07-4.21c.06-1.38-2.15-2.7-.11-4.13,.03-.52,.04-1.04,.04-1.55Z"/><path id="ig" class="on" d="M199.29,973.94c.03-1.98,.07-3.97,.1-5.95-.69-1.48-1.39-2.96-2.08-4.44-2.08,.48-4.19-1.52-6.25,.08l.08,2.97c4.72,7.4-.75,12.53-4.05,18.14,.19,2.66,1.59,5.08,3.79,6.58,4.32-5.15,7.83-10.53,8.42-17.37Z"/><path id="ih" class="ov" d="M154.93,983.61c-6.12,1.03-.91,5.17-2.07,7.56,.11,1.53,.22,3.05,.33,4.57,.61,.13,1.18,.38,1.69,.74l4.04-.49,6.37-12.16c.13-.69,.27-1.37,.4-2.06l-.48-.2-.29,.43c-3.32,.54-6.65,1.08-9.99,1.62Z"/><path id="ii" class="ox" d="M187.09,984.73c3.3-5.61,8.77-10.74,4.05-18.15-2.02-.25-4.04-.5-6.07-.75,.48,6.88-1.01,13.56-2.05,20.29l4.06-1.39Z"/><path id="ij" class="ot" d="M148.43,1014.29c-.58,.06-1.17,.07-1.76,.02l-5.56-.14c-.87,3.48,4.92,7.23-.42,10.53-.03,.53-.05,1.05-.05,1.58,2.03,.09,4.05,.18,6.07,.27l4.06-4.18v-3.97c-1.49-.83-2.4-2.42-2.34-4.13Z"/><path id="ik" class="ot" d="M154.89,996.47c-.51-.36-1.08-.61-1.69-.74l-2.27,.39c-.18,1.59-.17,3.27-2.12,3.9l4.07,4.21,3.18,.2,.67,.17c-.61-2.71-1.22-5.42-1.84-8.12Z"/><path id="il" class="p`" d="M154.88,996.47c.62,2.71,1.23,5.42,1.84,8.12,2.91-1.17,2.11-3.83,2.4-6.04-.16-.6-.29-1.2-.41-1.81l.2-.77-4.03,.49Z"/><path id="im" class="p`" d="M156.06,1004.43l-3.18-.2c-.3,2.37,.98,3.52,3.11,4.02,.03-1.28,.05-2.55,.08-3.82Z"/><path id="in" class="ot" d="M158.72,996.75c.12,.61,.25,1.21,.41,1.81,.78-.81,1.87-1.69-.41-1.81Z"/><path id="io" class="ou" d="M165.7,981.76c-.13,.69-.27,1.38-.4,2.06l1.63-1.92c-.4-.08-.81-.13-1.22-.14Z"/><path id="ip" class="p`" d="M191.06,963.62c2.06-1.59,4.17,.4,6.25-.07,2.6-1.71,3.01,.72,3.97,2.1,2.23-6.74,12.36-7.27,12.39-15.74l-.23-.22c-5.35-.91-7.46-5.06-8.22-9.54-.69-4.07,1.63-6.79,6.19-6.77-.07-.87-.14-1.73-.22-2.59-1.8-.38-1.72-2.03-2.21-3.29l-5.34,.05-.17,.22c-.78,1.26-1.56,2.53-2.34,3.8,1.27,7.62-3.85,13.12-13.67,14.7,.37,2.51,3.44,4.64,.14,7.67-2.05,1.88-3.24,5.09-.45,7.87l3.91,1.81Zm6.57-5.06c-.87,.53-1.4,1.13-1.87,1.08-.85-.18-1.68-.48-2.46-.87,.5-.32,1-.91,1.49-.9,.97,.13,1.92,.36,2.84,.7h0Z"/><path id="iq" class="ou" d="M207.44,903.04c.29-1.56,.05-3.64,.97-4.59,2.11-2.16,7.63-3.08,6.16-6.09-1.54-3.16-6.76-2.89-10.71-2.41-1.26,.6,.66,4.53-2.88,2.79-1.63,.39-3.31-.44-3.99-1.97-2.69,.84-4.51,4.05-7.93,2.87-1.9-.04-3.93-.65-5.41,1.21,2.31,.52,4.65,1.01,3.56,4.32l.56,2.09,9.04,2c3.42-5.76,7.19,4.21,10.64-.23Z"/><path id="ir" class="pc" d="M211.41,933.38c-4.56-.02-6.88,2.69-6.19,6.77,.76,4.48,2.86,8.63,8.22,9.54,1.15-4.11,1.26-8.56,4.01-12.13,.04-.63-.02-1.26-.17-1.87-2.2-.15-4.48-.1-5.86-2.31Z"/><path id="is" class="ow" d="M200.98,892.74c3.55,1.74,1.62-2.19,2.88-2.79,1.75-2.55,.78-4.85-.68-7.1-4.91,.53-4.28-3.35-4.96-6.21l.06-.81-.81-.08-2.76,.22c-.32,1.42-.65,2.83-.97,4.25,4.28,.96,3.55,4.02,2.96,7.03l.49,.21,.37-.38c1.92,1.42,3.86,2.83,3.42,5.66Z"/><path id="it" class="ou" d="M203.64,927.55c.08-2.66,.17-5.33,.25-7.99l-.74-.27-1.81-.74c-.04,.37-.06,.74-.06,1.11l-2.37,2.26c-3.53,.76-2.83,5.51-6.12,6.5v.45l2.49,.68c.58-.03,1.17,.05,1.72,.24,1.73-2.04,4.15-1.84,6.46-2.03l.17-.21Z"/><path id="iu" class="or" d="M207.44,903.04c-3.45,4.44-7.21-5.53-10.63,.23l3.21,3.94c.41-.34,.99-.36,1.43-.06,.52-.02,1.04-.01,1.55,.02l4.21,.48,1.96-.59c.13-1.65,.05-3.2-1.73-4.01Z"/><path id="iv" class="on" d="M204.06,864.36c-.18,2.38-.37,4.76-.55,7.14,1.23,.71,2.46,1.44,3.69,2.16,.93-1.77,.41-4.8,3.83-4.41l.38-4.5-2.95,.09-4.4-.47Z"/><path id="iw" class="oq" d="M207.2,873.66c-1.23-.72-2.46-1.45-3.69-2.16-1.57,1.38-3.15,2.75-4.71,4.12,2.28,1.15,4.55,2.3,6.82,3.45,2.76-.61,.67-3,1.57-4.29-.24-.33-.24-.78,0-1.11Z"/><path id="ix" class="or" d="M205.62,879.07c-2.27-1.15-4.54-2.3-6.82-3.45l-.59,.35,.02,.68c.67,2.85,.05,6.74,4.96,6.21l2.44-3.78Z"/><path id="iy" class="p`" d="M208.47,864.83l2.95-.09c-.03-1.28-.06-2.57-.09-3.85-.91-1.4-2.51-2.19-4.18-2.07-.92,2.08-.39,4.51,1.31,6.01Z"/><path id="j`" class="pd" d="M223.55,874.92c-.22-4.17-4.42-2.73-6.5-7.01,.23,6.83,3.46,6.78,6.45,7.06l.05-.05Z"/><path id="ja" class="ox" d="M217.27,935.68c.16,.61,.21,1.24,.17,1.87,3.1,.14,5.63-.58,6.33-4.12-2.4,.06-4.81,.14-6.51,2.25Z"/><path id="jb" class="ow" d="M207.2,873.66c-.24,.33-.24,.78,0,1.12,3.69-.17,4.34-2.45,3.84-5.53-3.42-.39-2.91,2.64-3.84,4.41Z"/><path id="jc" class="ow" d="M205.09,919.51c.78,1.1,2.47,2.07,2.88,.93,.56-1.54-.24-3.57-.46-5.38-2.1,.78-2.27,2.61-2.42,4.45Z"/><path id="jd" class="ou" d="M216.6,885.29c.46,.69,.96,1.44,1.46,2.18,.32-.65,1.01-1.41,.87-1.93-.2-.71-1.04-1.24-1.6-1.85l-.72,1.59Z"/><path id="je" class="on" d="M205.09,919.51c.14-1.84,.32-3.67,2.42-4.45,.05-.35,.08-.71,.07-1.06-1.37-.19-2.74-.38-4.1-.56-.16,.69-.31,1.38-.46,2.07l.14,3.78,.74,.27,.6-.07,.6,.03Z"/><path id="jf" class="ou" d="M208.98,927.51c.49,1.26,.41,2.91,2.21,3.29-.65-1.16,1.42-4.14-2.21-3.29Z"/><path id="jg" class="ow" d="M209.18,907.05l-1.96,.59-.5,2.99,1.79,1.89,.67-5.47Z"/><path id="jh" class="ow" d="M203.48,913.44l4.1,.56c.42-.42,.73-.93,.92-1.49-.59-.62-1.19-1.25-1.78-1.88-.82,.22-1.65,.45-2.47,.67l-.82,.09,.06,2.05Z"/><path id="ji" class="ov" d="M199.33,856.82c-7.79,1.58-1.9,5.29-1.27,8.18l2.75-.05c-.09-2.12-.18-4.24-.27-6.37-.12-.65-.51-1.22-1.08-1.56l-.13-.21Z"/><path id="jj" class="p`" d="M210.58,855.47c.86,.63,1.8,1.16,2.78,1.57,.63,.26,1.36-.03,1.62-.66,.13-.32,.13-.69-.02-1-.32-.85-1.04-1.48-1.92-1.7-.71,0-1.43,.99-2.46,1.8Z"/><path id="jk" class="ow" d="M208.47,864.83c-1.7-1.5-2.23-3.94-1.31-6.01l-3.55,.02c.15,1.84,.3,3.68,.46,5.52l4.4,.47Z"/><path id="jl" class="ow" d="M199.33,856.82l.13,.21c.96-1.08,3.38-.81,3.01-2.97-.09-.53-1.47-.83-2.25-1.24-1.33,1.11,1.56,3.15-.89,4.01Z"/><path id="jm" class="p`" d="M201.33,844.66l-.59,.37,.56-.4,.03,.03Z"/><path id="jn" class="p`" d="M140.64,1026.29c0-.53,.01-1.05,.05-1.59-6.83-5.19-7.1-11.45-2.81-19.34l3.23,8.82,5.56,.14c7.56-6.98-4.94-8.56-3.91-13.97,.14-.72-2.47-1.97-3.81-2.96-2.81,3.79-7.05,6.27-11.73,6.86-1.92,4.16-1.72,9.52-6.7,11.98l2.25,1.9c1.4,1.16,3.54,1.74,3.3,4.18,1.29,0,1.83,.61,1.56,1.89,4.88-2.65,8.15,4.61,13.01,2.11Z"/><path id="jo" class="ow" d="M112.31,1034.66c.89,2.13,.71,3.8-1.79,4.69-2.63,.94-3.64,2.6-1.96,5.22,10.15,1.8,12.53-3,10.09-11.88l-6.34,1.97Z"/><path id="jp" class="ov" d="M127.63,1024.18c.27-1.28-.27-1.9-1.57-1.88-2.48,.34-4.95,.68-7.41,1-.23,.57-.41,1.16-.55,1.76,.78-.33,.94-.15,.47,.55l-.53-.48c-.56-.09-1.13,.1-1.52,.52,1.6,1.06,2.4,2.98,2.03,4.87l-.16-.13c5.02,.82,7.87-1.6,9.25-6.21Z"/><path id="jq" class="ov" d="M112.31,1034.66l6.34-1.97-.27-2.29,.16,.13-6.72-3.2-.89,.08c-.17,.32-.32,.65-.47,.98l-1.04,2.54,2.88,3.73Z"/><path id="jr" class="oo" d="M99.3,1024.38c-.46,.04-.92,.12-1.37,.23,.14,.9,.28,1.8,.41,2.7-.61,1.62,.45,4.2-2.53,4.47,.34,3.04,2.19,5.29,5.04,4.93,2.84-.36,4.17-3.04,4.16-6.04-.24-1.42-.48-2.84-.72-4.25l.13,.11c-1.61-.06-3.54,.49-3.83-2.04l-.65,.09-.63-.2Z"/><path id="js" class="oo" d="M76.32,1034.74l13.66,3.52c.5-2.26,.43-4.34-1.79-5.75l-10.99-2.01c.98,1.17,.83,2.91-.34,3.9-.16,.14-.35,.26-.54,.35Z"/><path id="jt" class="or" d="M98.34,1027.31c-.14-.9-.27-1.8-.41-2.7-.44-.06-.88-.09-1.33-.1-.98-.74-1.95-1.47-2.92-2.21l-2.69,.12-.98,6.13c1.42,2.06,2.54,4.63,5.87,3.33,.82-1.53,1.63-3.05,2.45-4.58Z"/><path id="ju" class="ov" d="M106.35,1030.48l2.25,.17c-.14-1.39,.61-2.04,1.87-2.26,.14-.33,.31-.66,.47-.98l-.39-.06-4.24-.86,.14-.14-.1,4.14Z"/><path id="jv" class="ou" d="M106.35,1030.48c.03-1.38,.06-2.76,.09-4.13l-2.16,.07c.24,1.42,.48,2.84,.72,4.25l.69,.03,.66-.22Z"/><path id="jw" class="ow" d="M98.34,1027.31c-.82,1.53-1.63,3.05-2.45,4.58l-.08-.11c2.98-.28,1.92-2.85,2.53-4.47Z"/><path id="jx" class="ou" d="M110.47,1028.39c-1.26,.23-2.03,.87-1.87,2.26,0,0,.85,.27,.84,.27,.34-.84,.68-1.69,1.03-2.54Z"/><path id="jy" class="ox" d="M167.91,773.08c1.45-.09,2.34-.74,1.61-1.87-.7-.69-1.63-1.08-2.6-1.1-.89-.09-2.35,.13-1.37,1.59,.48,.74,1.67,1,2.37,1.38Z"/><path id="k`" class="ow" d="M183.16,808.36c-.13,1.21-.26,2.42-.39,3.63,1.58,2.31,3.97,3.95,6.7,4.58,.58-1.42,1.16-2.83,1.74-4.25-3.4,.13-4.33-4.72-8.05-3.97Z"/><path id="ka" class="ou" d="M193.16,818.33l1.67-.29-.38-.76c-.4,.38-.81,.76-1.21,1.14l-.08-.09Z"/><path id="kb" class="pd" d="M201.28,965.65c-.96-1.39-1.37-3.82-3.97-2.1,.69,1.48,1.39,2.96,2.08,4.43,.63-.78,1.26-1.55,1.9-2.33Z"/><path id="kc" class="or" d="M130.57,951.6c-6.48,2.05-5.7,6.02-2.32,10.09,2.52,3.04,4.54,6.02,4.15,10.13l4.18,.02c4.92,.39,9.61-.78,14.3-2,3.62-1.14,7.87-1,10-5.05l-3.76-3.71-8.09-1.98c-.43,1.52-.59,3.79-2.69,3.18-.89-.26-1.14-2.74-1.68-4.21-.41-.42-.78-.86-1.14-1.32-5.39,.99-7.53-6.22-12.97-5.15Z"/><path id="kd" class="os" d="M160.89,964.78c-2.14,4.05-6.39,3.91-10,5.05l1.41,8.03c2.25,1.29,2.47,3.5,2.63,5.74l10-1.62c.65-2.03,.78-4.69,4.15-3.47,2.49-5.8-4-6.36-5.68-9.72-.7-1.09-.39-2.53,.7-3.23,.02-.02,.05-.03,.07-.04l.09-.21c-1.38,1.56-2.5,1.35-3.37-.53Z"/><path id="ke" class="pd" d="M127.23,1004.23c4.68-.59,8.91-3.07,11.72-6.86-.65-2.1-.97-4.09,1.55-5.22,.75-.45,1.52-.91,2.29-1.37-3.82,1.28-6.35-4.96-11.19-1.3-2.65,2-1.84,5.62-4.88,6.7l-2.14,6.04,2.65,2Z"/><path id="kf" class="ov" d="M152.3,977.86l-1.41-8.03c-4.69,1.23-9.38,2.39-14.3,2,.06,2.44-3.01,5.77,.03,7.1,5.08,2.22,10.71,2.91,15.68-1.08Z"/><path id="kg" class="or" d="M124.58,1002.23l2.14-6.04c-4.54-1.26-3.61-9.44-10.22-8.08-3.65,4.52-2.8,9.67-2.06,14.8,3.37-.23,6.57-3.2,10.14-.68Z"/><path id="kh" class="or" d="M112.36,985.98l2.13,2.07c-.17-1.26,.1-3.09-.63-3.66-1-.79-1.23,.77-1.5,1.59Z"/><path id="ki" class="ou" d="M150.93,996.13l2.27-.39c-.11-1.52-.22-3.04-.33-4.57-1.38,1.05-2.75,2.11-4.12,3.16,0,.52-.01,1.04-.04,1.56l2.22,.24Z"/><path id="kj" class="or" d="M108.27,988.03l2.09-1.94-2.09,1.94Z"/><path id="kk" class="ou" d="M130.57,951.6c5.43-1.07,7.57,6.14,12.96,5.16,.41-.39,.84-.75,1.29-1.1,.43-4.79,3.34-7.18,7.81-8.06l.52-1.96-4.52-.39c-3.33-.02-7.09,2.79-9.74-1.53-.02-2.64-.58-5.24-3.37-1.94-1.41,1.66-1.7,4.14-4.67,3.58-.09,2.08-.18,4.16-.27,6.24Z"/><path id="kl" class="oo" d="M138.89,943.72c2.65,4.32,6.42,1.51,9.74,1.53,8.49-8.42,10.66-8.66,14.26-1.57,.77,1.45,1.54,2.9,2.31,4.35-.06-.76-.11-1.52-.17-2.27-.08-2.73,1.3-4.07,3.98-4.14l2.03-.32,1.87-1.68c.2-.51,.3-1.06,.29-1.62l2.03-2.36-6.11-6.06-.26-.27c-6.41,1.14-13.98,4.03-11.75-7.81l-.31-3.99c-1.6-1.54-2.26-3.8-1.74-5.96l-2.28-.19c-7.73,5.15,3.46,10.09-.33,15.85l-10.99-1.8c-1.36,1.64-.45,6.09-4.87,3.95l.14-.17c3.05,.95,.58,2.76,.65,4.18l14.24,4.75c-6.14,1.53-8.03,6.05-12.74,5.62Z"/><path id="km" class="pa" d="M127.6,925.69c1.53,5.11,5.5,3.84,9.12,3.47l-.14,.17c-.06-1.3-.12-2.59-.18-3.89l-8.79,.25Z"/><path id="kn" class="pd" d="M136.39,925.45c.06,1.3,.12,2.59,.18,3.89,4.42,2.14,3.51-2.31,4.87-3.95-.47-1.97-1.69-3.74-3.63-3.65-2.12,.1-1.16,2.35-1.43,3.71Z"/><path id="ko" class="pa" d="M31.88,870.64c-.25-.77-.28-2.06-1.5-1.3-.36,.22,.05,1.67,.1,2.56,.49-.39,.95-.81,1.39-1.26Z"/><path id="kp" class="pc" d="M65.7,1042.85c2.25-3.44-.6-7.1,.45-10.59-.03-.62-.12-1.23-.28-1.83l.14,.14c-.91-.56-1.82-1.13-2.73-1.7l-5.51-.21c-2.48,2.81-.44,7.43-3.92,9.84,.7,10.3,7.4,4.24,11.85,4.35Z"/><path id="kq" class="ot" d="M150.94,885.02c.69,2.01,1.37,4.02,2.06,6.04l5.76,4.4,6.25,1.76c.87-4.65,1.76-9.1-3.94-11.8-2.26-1.07-1.85-4.1-2.14-6.4-4.44-.36-3.6,6.31-8,6.01Z"/><path id="kr" class="ow" d="M158.94,879c.28,2.3-.13,5.33,2.14,6.4,5.7,2.7,4.81,7.15,3.94,11.8l3.81-.18c.58-6.14,1.84-12.33-1.58-18.11-1.97,.72-4.07,1.77-4.27-1.77-1.54,.19-3.18,.19-4.03,1.86Z"/><path id="ks" class="pd" d="M159.3,866.78c-3.07-1.96-2.23-5.12-2.44-7.96-3.54,6.93-4.51,12.83,5.71,14.26,2.67-1.86,3.5,.21,4.44,2.06,7.81-1.12,5.88-4.48,1.9-8.3-3.19-2.2-6.4-.5-9.61-.07Z"/><path id="kt" class="ou" d="M167.01,875.15c-.94-1.85-1.78-3.92-4.44-2.06,.13,1.35,.26,2.7,.4,4.05,.2,3.55,2.3,2.5,4.27,1.78l-.22-3.76Z"/><path id="ku" class="pd" d="M67.51,873.65c1.1-.96,3.15-.86,3.26-2.89,.01-.21-.43-.65-.64-.63-2.03,.22-1.96,2.14-2.69,3.41l.08,.11Z"/><path id="kv" class="os" d="M156.79,917.49c.1,1.33,.21,2.66,.31,3.99,2.73-.26,3.9-2.73,5.83-4.12,2.15-2.24,4.61-4.31,4.04-7.94,.04-2.11,.09-4.22,.13-6.33-1.51-2.34-3.99-1.98-6.24-2.24-1.28,3.45,3.67,8.09-2.04,10.69,.13,2.26-.05,4.41-2.02,5.96Z"/><path id="kw" class="ov" d="M160.85,900.84c2.25,.27,4.73-.09,6.24,2.25l2.09,.17c1.97-3.06,5.15-1.63,7.81-2.11-1.9-3.03-6.55-.59-8.2-4.12l-3.81,.18-6.25-1.76c-1.93,2.72-5.66,.31-7.76,2.62,2.63,3.57,7.06,.2,9.87,2.77Z"/><path id="kx" class="os" d="M153.85,906.02c-.22,1.89,.6,2.82,2.04,2.71,.87-.15,1.6-.72,1.96-1.52,.28-1.1-.39-2.22-1.5-2.49-.18-.04-.37-.07-.55-.06-.7-.02-1.43,.97-1.96,1.36Z"/><path id="ky" class="or" d="M156.79,917.49c1.97-1.55,2.15-3.7,2.03-5.96h-3.76c-.52,2.15,.14,4.42,1.74,5.96Z"/><path id="l`" class="pa" d="M4.94,841.28c.63,.44,1.04,.97,1.45,.98,.84-.06,1.68-.21,2.49-.43-.36-.35-.72-.97-1.09-.98-.96,.06-1.92,.21-2.86,.44Z"/><path id="la" class="oo" d="M65.86,1030.43c.16,.6,.25,1.22,.28,1.83,2.14,2.28,4.95,2.24,7.75,2.23l-1-3.99-7.03-.08Z"/><path id="lb" class="pd" d="M72.89,1030.5l1,3.99,2.42,.25c1.37-.68,1.92-2.34,1.24-3.71-.1-.19-.22-.37-.35-.54h-4.3Z"/><path id="lc" class="oq" d="M63.28,1028.88c.91,.57,1.82,1.13,2.73,1.7-.16-.78-.31-1.56-.47-2.34-.76,.21-1.51,.42-2.26,.64Z"/><path id="ld" class="or" d="M168.81,897.02c1.65,3.53,6.3,1.1,8.2,4.12,2.4,2.14,2.26,4.23-.11,6.29-2.89,2.78-6.6,1.47-9.94,1.98,.58,3.62-1.88,5.7-4.04,7.94h0l1.9,1.9,.21,.21c3.31,.65,6.62,1.29,9.93,1.95-.71-6.42,3.4-7.88,8.53-8.29-2.22-5.27,2.46-8.05,4.27-11.86-.18-.7-.37-1.39-.56-2.09-2.29-.53-6.93,.87-3.56-4.32,1.47-1.86,3.51-1.25,5.41-1.21,.12-3.02,.34-5.97,4.21-6.59,.15-2.28,.31-4.55,.46-6.83,.32-1.42,.65-2.84,.97-4.26-2.61-1.95-3.17-3.86,.11-5.7-.5-3.68-.46-7.72-5.49-8.46-.47,.35-1,.61-1.57,.77l-4.21,.39c-.81,.62-1.62,1.23-2.42,1.85,.01,0-.45-.11-.45-.11-3.26,4.34-8.22-.64-11.77,2.14,3.98,3.82,5.91,7.18-1.9,8.3l.22,3.76c3.42,5.79,2.16,11.99,1.58,18.12Zm1.6,16.5l-.78,.07,.33-.82,.45,.75Z"/><path id="le" class="os" d="M194.82,870.27c-3.28,1.83-2.72,3.74-.11,5.7,.93-.07,1.85-.14,2.76-.22-.37-2.08,.27-4.64-2.66-5.48Z"/><path id="lf" class="oo" d="M200.81,864.95l-2.75,.05c-.57,1.71-.72,3.7,1.57,3.63,2.57-.08,1.46-2.2,1.18-3.68Z"/><path id="lg" class="ou" d="M124.58,1002.23c-3.56-2.53-6.76,.45-10.14,.68-.02,.53-.43,.95-.96,.99-7.97,2.47-3.13,7.97-2.93,12.37l-.1-.11,2.83,2.32,5.02,1.16,2.22-3.42c4.98-2.46,4.77-7.81,6.7-11.98-.88-.67-1.76-1.34-2.64-2.01Z"/><path id="lh" class="ov" d="M104.28,1026.42l2.16-.07-.14,.14c.01-.87,.03-1.74,.04-2.62l1.06-3.67-.1-.57,.06,.58c2.92,.09,3.13-1.88,3.09-4.05l.1,.11-8.18,.03c.01,2.05,.03,4.11,.04,6.16l-.14-.17c3.06,.23,1.66,2.71,2.14,4.24l-.12-.13Z"/><path id="li" class="ou" d="M168.91,866.85c3.55-2.79,8.5,2.2,11.77-2.14,.43-.15,.89-.18,1.34-.08-1.1-2.07-2.2-4.15-3.31-6.23-6.09-.16-12.25-3.49-18.23,.47-.4,2.64-.79,5.28-1.18,7.91,3.21-.43,6.42-2.13,9.61,.07Z"/><path id="lj" class="ov" d="M102.41,1022.46c-.63-.19-1.29-.29-1.96-.28-.39,.73-.77,1.47-1.16,2.2l.62,.2,.65-.09,1.69-2.2,.15,.17Z"/><path id="lk" class="ov" d="M93.69,1022.3c.97,.74,1.95,1.47,2.92,2.21l-2.92-2.21Z"/><path id="ll" class="os" d="M183.55,862.97l4.21-.39c-1.55-.65-3.1-1.3-4.66-1.94l.45,2.34Z"/><path id="lm" class="os" d="M182.03,864.63c-.44-.1-.91-.07-1.34,.08,0,0,.45,.11,.44,.11l.9-.19Z"/><path id="ln" class="pb" d="M82.75,1051.95c-.05-.33-.27-.79-.14-.97,5.83-7.3,.74-9.76-6.37-12.25,2.43,5.12,.64,10.79,5.53,14.37,.34-.38,.66-.76,.98-1.15Z"/><path id="lo" class="ow" d="M187.46,946.26c9.82-1.58,14.94-7.08,13.67-14.7l-3.57-.26c.24,2.14,.82,4.65-2.81,2.59-1.61,2.63-3.8,4.13-7.03,3.62l-7.01,.43c.16,.51,.33,1.03,.5,1.54,2.26,.84,1.84,2.84,1.97,4.6l4.28,2.18Z"/><path id="lp" class="ow" d="M163.4,968.8c1.68,3.36,8.17,3.92,5.69,9.72,2.98-.64,7.91,2.24,7.84-3.98-.04-2.98,4.34-6.77-.42-8.8-4.62-1.97-9.26-.29-13.1,3.06Z"/><path id="lq" class="pc" d="M165.2,948.02c-.77-1.45-1.54-2.9-2.31-4.35-2.73,.21-5.73-.79-7.9,1.83,3.23-.27,6.32,1.37,7.9,4.21l2.12-1.16,.19-.53Z"/><path id="lr" class="ov" d="M165.02,948.56l-2.12,1.16-1.94,4.04c.07,2.06,1.67,3.75,3.73,3.94l.87,.29c-.18-3.14-.35-6.28-.53-9.43Z"/><path id="ls" class="ov" d="M169.02,941.61c-2.69,.07-4.06,1.41-3.98,4.14l6.1-.06-2.11-4.08Z"/><path id="lt" class="pd" d="M191.06,963.63l-3.91-1.82-2.03,2.03c0,.7,.02,1.4,.03,2.1l-.08-.1c2.03,.25,4.05,.5,6.07,.75-.02-.99-.05-1.98-.08-2.96Z"/><path id="lu" class="oq" d="M181.21,939.5c-.17-.51-.34-1.03-.5-1.54l-5.22-.68-.37,.16,.03,2.6-.22,.48,4.06,1.23,2.22-2.26Z"/><path id="lv" class="os" d="M174.92,940.53l.22-.48-2.24-.43-1.87,1.68c3.26,.48,2.72,2.36,1.61,4.43,5.07,.15-1.53-4.79,2.27-5.19Z"/><path id="lw" class="op" d="M181.21,939.49l-2.23,2.26c.55,2.3,2.41,2.25,4.2,2.34-.13-1.76,.29-3.75-1.97-4.6Z"/><path id="lx" class="ou" d="M172.65,945.72c1.1-2.08,1.65-3.95-1.61-4.43l-2.03,.32,2.11,4.08c.52,.02,1.02,.03,1.53,.03Z"/><path id="ly" class="ou" d="M164.17,965.52c2.03-2.22,3.74-4.5,1.38-7.53l-.87-.29,.32,2.61c-.25,1.67-.5,3.34-.75,5.02l-.08,.19Z"/><path id="m`" class="ox" d="M185.15,965.93c0-.7-.02-1.4-.03-2.1-1.55,.72-1.54,1.42,.03,2.1Z"/><path id="ma" class="ov" d="M150.92,996.12l-2.22-.24c-2.05,1.43,.16,2.75,.11,4.13,1.95-.62,1.94-2.31,2.12-3.9Z"/><path id="mb" class="on" d="M141.11,1014.18l-3.23-8.82c-4.3,7.89-4.02,14.16,2.81,19.34,5.34-3.3-.44-7.04,.42-10.53Z"/><path id="mc" class="ot" d="M197.56,931.31l3.57,.26c.78-1.27,1.56-2.53,2.34-3.8-2.32,.18-4.73-.02-6.46,2.03,.02,.55,.21,1.08,.55,1.51Z"/><path id="md" class="pd" d="M197.63,958.56c-.92-.34-1.87-.57-2.84-.69-.49,0-1,.58-1.49,.9,.78,.39,1.61,.68,2.46,.87,.48,.05,1.01-.55,1.88-1.08Z"/><path id="me" class="pc" d="M187.77,901.26c-1.81,3.81-6.5,6.59-4.27,11.86l-.26,.03c4.77,.16,5.19,2.06,2.14,5.35,1.12-.01,1.36,.46,.78,1.4,2.42-.91,5.15-.39,7.06,1.36,2.88-4.39-3.7-13.36,6.8-14.06l-3.21-3.94-9.04-2.01Z"/><path id="mf" class="os" d="M193.28,887.05c-3.88,.61-4.1,3.57-4.21,6.59,3.41,1.18,5.24-2.03,7.93-2.87l.57-3.69-.37,.38-.49-.21-3.42-.2Z"/><path id="mg" class="os" d="M183.66,894.85c-3.37,5.19,1.27,3.79,3.56,4.32,1.09-3.32-1.25-3.81-3.56-4.32Z"/><path id="mh" class="pd" d="M197.56,887.08l-.57,3.69c.68,1.53,2.36,2.36,3.99,1.97,.42-2.83-1.51-4.24-3.42-5.66Z"/><path id="mi" class="oq" d="M193.28,887.05l3.42,.2c.59-3.01,1.32-6.08-2.96-7.03-.15,2.28-.31,4.55-.46,6.83Z"/><path id="mj" class="ov" d="M200.02,907.21c-10.51,.7-3.92,9.67-6.8,14.06-.69,5.86-5.82,3.33-8.88,4.71,.54,4.09,3.91,4.59,6.96,5.46l-.16,.16,1.66-3.18c3.28-.99,2.58-5.74,6.12-6.5-.46-2.07,.43-2.72,2.37-2.26,0-.37,.02-.74,.06-1.11l1.67-3.04c.16-.69,.31-1.38,.46-2.07l-.06-2.05c-2.78-.42-4.31-1.43-1.97-4.24-.44-.3-1.02-.28-1.43,.06Z"/><path id="mk" class="ov" d="M187.72,937.51c3.23,.51,5.42-.98,7.03-3.62,.18-1.45,.36-2.89,.54-4.34l-2.49-.68c-.55,.91-1.11,1.82-1.66,2.73l.16-.16c-.65,2.34-4.09,3.04-3.58,6.07Z"/><path id="ml" class="os" d="M195.29,929.55c-.18,1.45-.36,2.89-.54,4.34,3.63,2.06,3.05-.45,2.8-2.59-.33-.44-.52-.97-.55-1.52-.55-.19-1.14-.26-1.72-.23Z"/><path id="mm" class="ot" d="M191.14,931.6c.55-.91,1.11-1.82,1.66-2.73v-.45l-1.66,3.18Z"/><path id="mn" class="os" d="M203.02,915.51l-1.67,3.04,1.81,.74-.14-3.78Z"/><path id="mo" class="pd" d="M201.29,919.66c-1.95-.46-2.83,.19-2.37,2.26l2.37-2.26Z"/><path id="mp" class="os" d="M201.45,907.15c-2.33,2.8-.81,3.82,1.97,4.24l.82-.09-1.24-4.13c-.52-.03-1.04-.04-1.55-.02Z"/><path id="mq" class="on" d="M203,907.16l1.24,4.13c.82-.22,1.65-.44,2.47-.67,.16-1,.33-1.99,.49-2.99l-4.21-.48Z"/><path id="mr" class="oo" d="M118.65,1023.31c2.47-.33,4.94-.66,7.41-1,.25-2.46-1.9-3.04-3.3-4.2l-2.91,2.84-1.21,2.36Z"/><path id="ms" class="oo" d="M120.52,1016.21l-2.22,3.42,1.56,1.31,2.91-2.84-2.25-1.9Z"/><path id="mt" class="pd" d="M119.86,1020.95l-1.56-1.31-5.02-1.16c-.46,2.86-.92,5.73-1.38,8.59l4.63-1.41c.39-.41,.96-.6,1.52-.51l.06-.08c.14-.6,.32-1.19,.55-1.76,.39-.78,.79-1.56,1.2-2.35Z"/><path id="mu" class="ou" d="M116.52,1025.66c-1.54,.47-3.08,.94-4.62,1.43-.02,.08-.05,.17-.08,.25l6.72,3.2c.38-1.88-.42-3.8-2.02-4.87Z"/><path id="mv" class="ou" d="M118.11,1025.07l-.06,.08c.17,.15,.35,.31,.53,.47,.47-.7,.31-.88-.47-.55Z"/><path id="mw" class="os" d="M111.82,1027.33c.03-.08,.06-.16,.08-.25,.45-2.88,.91-5.74,1.38-8.6l-2.83-2.32c.04,2.17-.17,4.14-3.08,4.05h.04c-.36,1.22-.71,2.44-1.06,3.67,1.67,.83,5.02-.37,4.2,3.47l.39,.06,.89-.09Z"/><path id="mx" class="pd" d="M102.27,1022.29l-1.69,2.2c.29,2.53,2.23,1.98,3.83,2.04-.48-1.53,.92-4.01-2.14-4.24Z"/><path id="my" class="ou" d="M110.55,1027.35c.81-3.84-2.53-2.64-4.2-3.47-.01,.87-.03,1.74-.04,2.61l4.24,.86Z"/><path id="n`" class="ou" d="M143.54,956.75c.35,.46,.73,.91,1.14,1.32l4.37,1.03,8.09,1.98,1.98-1.45-2.16-2.06h-2.22l-9.9-1.91c-.45,.34-.88,.71-1.29,1.09Z"/><path id="na" class="on" d="M159.11,959.63l-1.98,1.45,3.76,3.71c.87,1.88,1.99,2.08,3.37,.52,.24-1.65,.49-3.33,.74-4.99l-5.89-.68Z"/><path id="nb" class="pa" d="M149.04,959.1l-4.37-1.03c.54,1.47,.79,3.95,1.68,4.21,2.09,.61,2.25-1.66,2.69-3.18Z"/><path id="nc" class="oq" d="M144.83,955.65l9.9,1.9c-.5-2.01-2.4-4.07,.19-5.97,.1-1.67-.8-3.23-2.29-3.99-4.47,.88-7.37,3.28-7.81,8.06Z"/><path id="nd" class="ov" d="M155,945.5c2.17-2.62,5.17-1.62,7.9-1.83-3.6-7.09-5.76-6.85-14.26,1.57l4.52,.39c.61,.18,1.26,.13,1.84-.13Z"/><path id="ne" class="pa" d="M154.99,945.5c-.58,.26-1.23,.31-1.84,.13l-.52,1.96c1.49,.76,2.38,2.32,2.29,3.99,.71,.65,1.43,1.3,2.14,1.95l3.88,.22,1.94-4.04c-1.58-2.83-4.67-4.48-7.9-4.21Z"/><path id="nf" class="or" d="M162.93,917.36c-1.93,1.39-3.1,3.86-5.83,4.12-2.23,11.84,5.34,8.96,11.76,7.81l.87-.24-.6,.51,6.11,6.06,.14,.24c9.24-2.25,2.16-6.78,1.45-10.42-4.37-1.13-11.46,3.11-11.78-5.99l-.21-.21c-.63-.63-1.27-1.27-1.9-1.9h0Z"/><path id="ng" class="os" d="M175.23,935.63l-2.03,2.36c.63-.23,1.27-.42,1.92-.55l.37-.16c.16-.46,.12-.97-.11-1.41l-.15-.24Z"/><path id="nh" class="ou" d="M175.12,937.44c-.65,.14-1.3,.32-1.92,.55,.01,.55-.09,1.1-.29,1.62l2.24,.43c0-.87-.01-1.74-.02-2.6Z"/><path id="ni" class="oq" d="M166.97,909.42c3.34-.52,7.05,.8,9.94-1.99-3.5,.33-5.68-1.8-7.72-4.18l-2.09-.17c-.04,2.11-.09,4.22-.13,6.33Z"/><path id="nj" class="pa" d="M169.2,903.25c2.04,2.38,4.21,4.51,7.72,4.18,2.37-2.05,2.51-4.15,.11-6.28-2.68,.48-5.86-.95-7.82,2.11Z"/><path id="nk" class="ov" d="M186.17,919.9c.58-.94,.33-1.42-.79-1.4-1.19-1.59-2.69-3.06-2.14-5.35l.26-.03c-5.13,.41-9.24,1.87-8.53,8.29,.59,.04,1.18,.03,1.77-.04h6.47l2.96-1.47Z"/><path id="nl" class="os" d="M176.74,921.37c-.59,.07-1.18,.08-1.77,.04-3.31-.65-6.62-1.3-9.93-1.95,.32,9.1,7.41,4.86,11.78,5.99l-.08-4.08Z"/><path id="nm" class="oo" d="M170.41,913.52l-.45-.76-.33,.82,.78-.06Z"/><path id="nn" class="os" d="M162.93,917.36c.63,.64,1.27,1.27,1.9,1.9l-1.9-1.9Z"/><path id="no" class="or" d="M107.41,1020.21h-.04l-.06-.58,.1,.58Z"/><path id="np" class="on" d="M176.74,921.37l.08,4.08c.71,3.64,7.79,8.16-1.45,10.42,.23,.43,.27,.94,.11,1.41,1.74,.22,3.49,.45,5.23,.68l7.01-.43c-.51-3.03,2.93-3.73,3.58-6.08-3.06-.88-6.42-1.37-6.96-5.47-.37-1.53-.75-3.06-1.13-4.59h-6.47Z"/><path id="nq" class="oq" d="M160.95,953.75l-3.88-.22c-.04,1.35-.08,2.7-.12,4.04l2.16,2.06,5.89,.68-.32-2.61c-2.06-.18-3.67-1.87-3.73-3.94Z"/><path id="nr" class="oo" d="M183.21,921.38c.38,1.53,.76,3.06,1.13,4.6,3.06-1.38,8.19,1.16,8.87-4.7-1.91-1.75-4.64-2.28-7.06-1.36-.97,.49-1.96,.98-2.95,1.47Z"/><path id="ns" class="or" d="M183.24,913.15c-.55,2.29,.95,3.76,2.14,5.35,3.05-3.29,2.63-5.19-2.14-5.35Z"/><path id="nt" class="ov" d="M156.95,957.57c.04-1.34,.08-2.69,.12-4.04-.72-.65-1.43-1.3-2.14-1.95-2.6,1.91-.7,3.96-.19,5.97h2.22Z"/><path id="nu" class="oo" d="M169.11,929.57l.6-.51-.87,.24,.26,.27Z"/></g><path id="nv" class="om" d="M297.15,111.03c.03-.17,.01-.34-.04-.5-.13-1.27-.24-2.54-.4-3.81-.05-.39,.1-.85-.19-1.15s-.76-.14-1.14-.19c-1.27-.16-2.54-.27-3.81-.39-.67-.14-1.36-.21-2.04-.22-.8-.1-1.59-.22-2.39-.29-1.24-.14-2.49-.25-3.74-.37l-.48-.07-7.14-.81v-.1l3.57-.4,5.79-.64,5.57-.6c1.84-.2,3.67-.39,5.51-.59,.25,0,.45-.2,.45-.45v-.02c.23-2.21,.46-4.42,.7-6.64s.52-4.46,.76-6.69,.47-4.5,.71-6.75c0-.11,.03-.22,.06-.45,.17,.47,.25,.96,.24,1.45,.37,3.26,.71,6.52,1.06,9.78,.34,3.09,.68,6.19,1.02,9.27,0,.26,.2,.48,.47,.49,.01,0,.02,0,.03,0,2.19,.23,4.39,.46,6.58,.7,2.23,.24,4.46,.51,6.69,.76s4.38,.47,6.58,.71c.17-.02,.34,.04,.46,.17l-6.85,.76c-3.62,.4-7.23,.81-10.85,1.21-.84,.09-1.69,.18-2.53,.24-.36,.03-.53,.16-.57,.54-.44,4.1-.9,8.21-1.35,12.31-.29,2.61-.55,5.21-.83,7.82,0,.09-.06,.17-.13,.22l-.88-7.61c0-.13,0-.26,0-.39-.15-1.36-.29-2.73-.46-4.1-.12-1.07-.26-2.13-.4-3.19Z"/><path id="nw" class="om" d="M140.13,598.71c.01-.08,0-.17-.02-.24-.06-.62-.12-1.25-.2-1.87-.02-.19,.05-.42-.09-.56s-.37-.07-.56-.09c-.62-.08-1.25-.13-1.87-.19-.33-.07-.67-.1-1-.11-.39-.05-.78-.11-1.17-.14-.61-.07-1.22-.12-1.83-.18l-.23-.03-3.51-.4v-.05l1.75-.2,2.84-.32,2.73-.3c.9-.1,1.8-.19,2.71-.29,.12,0,.22-.1,.22-.22h0c.11-1.1,.23-2.18,.34-3.27s.25-2.19,.37-3.28,.23-2.21,.35-3.31c0-.05,.01-.11,.03-.22,.08,.23,.12,.47,.12,.71,.18,1.6,.35,3.2,.52,4.8,.16,1.52,.34,3.04,.5,4.55,0,.13,.1,.24,.23,.24,0,0,0,0,.01,0,1.08,.11,2.15,.23,3.23,.34,1.09,.12,2.19,.25,3.28,.37s2.15,.23,3.23,.35c.08,0,.17,.02,.23,.08l-3.36,.37c-1.78,.2-3.55,.4-5.33,.59-.41,.05-.83,.09-1.24,.12-.18,.01-.26,.08-.28,.26-.22,2.02-.44,4.03-.66,6.05-.14,1.28-.27,2.56-.41,3.84,0,.04-.03,.08-.07,.11l-.43-3.74c0-.06,0-.13,0-.19-.07-.67-.14-1.34-.22-2.01-.06-.53-.13-1.04-.2-1.57Z"/><path id="nx" class="om" d="M1925.66,1013.98c.01-.08,0-.17-.02-.24-.06-.62-.12-1.25-.2-1.87-.02-.19,.05-.42-.09-.56s-.37-.07-.56-.09c-.62-.08-1.25-.13-1.87-.19-.33-.07-.67-.1-1-.11-.39-.05-.78-.11-1.17-.14-.61-.07-1.22-.12-1.83-.18l-.23-.03-3.51-.4v-.05l1.75-.2,2.84-.32,2.73-.3c.9-.1,1.8-.19,2.71-.29,.12,0,.22-.1,.22-.22h0c.11-1.1,.23-2.18,.34-3.27s.25-2.19,.37-3.28,.23-2.21,.35-3.31c0-.05,.01-.11,.03-.22,.08,.23,.12,.47,.12,.71,.18,1.6,.35,3.2,.52,4.8,.16,1.52,.34,3.04,.5,4.55,0,.13,.1,.24,.23,.24,0,0,0,0,.01,0,1.08,.11,2.15,.23,3.23,.34,1.09,.12,2.19,.25,3.28,.37s2.15,.23,3.23,.35c.08,0,.17,.02,.23,.08l-3.36,.37c-1.78,.2-3.55,.4-5.33,.59-.41,.05-.83,.09-1.24,.12-.18,.01-.26,.08-.28,.26-.22,2.02-.44,4.03-.66,6.05-.14,1.28-.27,2.56-.41,3.84,0,.04-.03,.08-.07,.11l-.43-3.74c0-.06,0-.13,0-.19-.07-.67-.14-1.34-.22-2.01-.06-.53-.13-1.04-.2-1.57Z"/><path id="ny" class="om" d="M239.97,155.95c.01-.08,0-.17-.02-.24-.06-.62-.12-1.25-.2-1.87-.02-.19,.05-.42-.09-.56s-.37-.07-.56-.09c-.62-.08-1.25-.13-1.87-.19-.33-.07-.67-.1-1-.11-.39-.05-.78-.11-1.17-.14-.61-.07-1.22-.12-1.83-.18l-.23-.03-3.51-.4v-.05l1.75-.2,2.84-.32,2.73-.3c.9-.1,1.8-.19,2.71-.29,.12,0,.22-.1,.22-.22h0c.11-1.1,.23-2.18,.34-3.27s.25-2.19,.37-3.28,.23-2.21,.35-3.31c0-.05,.01-.11,.03-.22,.08,.23,.12,.47,.12,.71,.18,1.6,.35,3.2,.52,4.8,.16,1.52,.34,3.04,.5,4.55,0,.13,.1,.24,.23,.24,0,0,0,0,.01,0,1.08,.11,2.15,.23,3.23,.34,1.09,.12,2.19,.25,3.28,.37s2.15,.23,3.23,.35c.08,0,.17,.02,.23,.08l-3.36,.37c-1.78,.2-3.55,.4-5.33,.59-.41,.05-.83,.09-1.24,.12-.18,.01-.26,.08-.28,.26-.22,2.02-.44,4.03-.66,6.05-.14,1.28-.27,2.56-.41,3.84,0,.04-.03,.08-.07,.11l-.43-3.74c0-.06,0-.13,0-.19-.07-.67-.14-1.34-.22-2.01-.06-.53-.13-1.04-.2-1.57Z"/><path id="o`" class="om" d="M274.7,1025.56c.01-.08,0-.17-.02-.24-.06-.62-.12-1.25-.2-1.87-.02-.19,.05-.42-.09-.56s-.37-.07-.56-.09c-.62-.08-1.25-.13-1.87-.19-.33-.07-.67-.1-1-.11-.39-.05-.78-.11-1.17-.14-.61-.07-1.22-.12-1.83-.18l-.23-.03-3.51-.4v-.05l1.75-.2,2.84-.32,2.73-.3c.9-.1,1.8-.19,2.71-.29,.12,0,.22-.1,.22-.22h0c.11-1.1,.23-2.18,.34-3.27s.25-2.19,.37-3.28,.23-2.21,.35-3.31c0-.05,.01-.11,.03-.22,.08,.23,.12,.47,.12,.71,.18,1.6,.35,3.2,.52,4.8,.16,1.52,.34,3.04,.5,4.55,0,.13,.1,.24,.23,.24,0,0,0,0,.01,0,1.08,.11,2.15,.23,3.23,.34,1.09,.12,2.19,.25,3.28,.37s2.15,.23,3.23,.35c.08,0,.17,.02,.23,.08l-3.36,.37c-1.78,.2-3.55,.4-5.33,.59-.41,.05-.83,.09-1.24,.12-.18,.01-.26,.08-.28,.26-.22,2.02-.44,4.03-.66,6.05-.14,1.28-.27,2.56-.41,3.84,0,.04-.03,.08-.07,.11l-.43-3.74c0-.06,0-.13,0-.19-.07-.67-.14-1.34-.22-2.01-.06-.53-.13-1.04-.2-1.57Z"/><path id="oa" class="om" d="M1455.4,103.86c.01-.08,0-.17-.02-.24-.06-.62-.12-1.25-.2-1.87-.02-.19,.05-.42-.09-.56s-.37-.07-.56-.09c-.62-.08-1.25-.13-1.87-.19-.33-.07-.67-.1-1-.11-.39-.05-.78-.11-1.17-.14-.61-.07-1.22-.12-1.83-.18l-.23-.03-3.51-.4v-.05l1.75-.2,2.84-.32,2.73-.3c.9-.1,1.8-.19,2.71-.29,.12,0,.22-.1,.22-.22h0c.11-1.1,.23-2.18,.34-3.27s.25-2.19,.37-3.28,.23-2.21,.35-3.31c0-.05,.01-.11,.03-.22,.08,.23,.12,.47,.12,.71,.18,1.6,.35,3.2,.52,4.8,.16,1.52,.34,3.04,.5,4.55,0,.13,.1,.24,.23,.24,0,0,0,0,.01,0,1.08,.11,2.15,.23,3.23,.34,1.09,.12,2.19,.25,3.28,.37s2.15,.23,3.23,.35c.08,0,.17,.02,.23,.08l-3.36,.37c-1.78,.2-3.55,.4-5.33,.59-.41,.05-.83,.09-1.24,.12-.18,.01-.26,.08-.28,.26-.22,2.02-.44,4.03-.66,6.05-.14,1.28-.27,2.56-.41,3.84,0,.04-.03,.08-.07,.11l-.43-3.74c0-.06,0-.13,0-.19-.07-.67-.14-1.34-.22-2.01-.06-.53-.13-1.04-.2-1.57Z"/><path id="ob" class="om" d="M1115.37,64.79c.01-.08,0-.17-.02-.24-.06-.62-.12-1.25-.2-1.87-.02-.19,.05-.42-.09-.56s-.37-.07-.56-.09c-.62-.08-1.25-.13-1.87-.19-.33-.07-.67-.1-1-.11-.39-.05-.78-.11-1.17-.14-.61-.07-1.22-.12-1.83-.18l-.23-.03-3.51-.4v-.05l1.75-.2,2.84-.32,2.73-.3c.9-.1,1.8-.19,2.71-.29,.12,0,.22-.1,.22-.22h0c.11-1.1,.23-2.18,.34-3.27s.25-2.19,.37-3.28,.23-2.21,.35-3.31c0-.05,.01-.11,.03-.22,.08,.23,.12,.47,.12,.71,.18,1.6,.35,3.2,.52,4.8,.16,1.52,.34,3.04,.5,4.55,0,.13,.1,.24,.23,.24,0,0,0,0,.01,0,1.08,.11,2.15,.23,3.23,.34,1.09,.12,2.19,.25,3.28,.37s2.15,.23,3.23,.35c.08,0,.17,.02,.23,.08l-3.36,.37c-1.78,.2-3.55,.4-5.33,.59-.41,.05-.83,.09-1.24,.12-.18,.01-.26,.08-.28,.26-.22,2.02-.44,4.03-.66,6.05-.14,1.28-.27,2.56-.41,3.84,0,.04-.03,.08-.07,.11l-.43-3.74c0-.06,0-.13,0-.19-.07-.67-.14-1.34-.22-2.01-.06-.53-.13-1.04-.2-1.57Z"/><path id="oc" class="om" d="M1115.37,980.7c.01-.08,0-.17-.02-.24-.06-.62-.12-1.25-.2-1.87-.02-.19,.05-.42-.09-.56s-.37-.07-.56-.09c-.62-.08-1.25-.13-1.87-.19-.33-.07-.67-.1-1-.11-.39-.05-.78-.11-1.17-.14-.61-.07-1.22-.12-1.83-.18l-.23-.03-3.51-.4v-.05l1.75-.2,2.84-.32,2.73-.3c.9-.1,1.8-.19,2.71-.29,.12,0,.22-.1,.22-.22h0c.11-1.1,.23-2.18,.34-3.27s.25-2.19,.37-3.28,.23-2.21,.35-3.31c0-.05,.01-.11,.03-.22,.08,.23,.12,.47,.12,.71,.18,1.6,.35,3.2,.52,4.8,.16,1.52,.34,3.04,.5,4.55,0,.13,.1,.24,.23,.24,0,0,0,0,.01,0,1.08,.11,2.15,.23,3.23,.34,1.09,.12,2.19,.25,3.28,.37s2.15,.23,3.23,.35c.08,0,.17,.02,.23,.08l-3.36,.37c-1.78,.2-3.55,.4-5.33,.59-.41,.05-.83,.09-1.24,.12-.18,.01-.26,.08-.28,.26-.22,2.02-.44,4.03-.66,6.05-.14,1.28-.27,2.56-.41,3.84,0,.04-.03,.08-.07,.11l-.43-3.74c0-.06,0-.13,0-.19-.07-.67-.14-1.34-.22-2.01-.06-.53-.13-1.04-.2-1.57Z"/><path id="od" class="om" d="M1443.83,1009.64c.01-.08,0-.17-.02-.24-.06-.62-.12-1.25-.2-1.87-.02-.19,.05-.42-.09-.56s-.37-.07-.56-.09c-.62-.08-1.25-.13-1.87-.19-.33-.07-.67-.1-1-.11-.39-.05-.78-.11-1.17-.14-.61-.07-1.22-.12-1.83-.18l-.23-.03-3.51-.4v-.05l1.75-.2,2.84-.32,2.73-.3c.9-.1,1.8-.19,2.71-.29,.12,0,.22-.1,.22-.22h0c.11-1.1,.23-2.18,.34-3.27s.25-2.19,.37-3.28,.23-2.21,.35-3.31c0-.05,.01-.11,.03-.22,.08,.23,.12,.47,.12,.71,.18,1.6,.35,3.2,.52,4.8,.16,1.52,.34,3.04,.5,4.55,0,.13,.1,.24,.23,.24,0,0,0,0,.01,0,1.08,.11,2.15,.23,3.23,.34,1.09,.12,2.19,.25,3.28,.37s2.15,.23,3.23,.35c.08,0,.17,.02,.23,.08l-3.36,.37c-1.78,.2-3.55,.4-5.33,.59-.41,.05-.83,.09-1.24,.12-.18,.01-.26,.08-.28,.26-.22,2.02-.44,4.03-.66,6.05-.14,1.28-.27,2.56-.41,3.84,0,.04-.03,.08-.07,.11l-.43-3.74c0-.06,0-.13,0-.19-.07-.67-.14-1.34-.22-2.01-.06-.53-.13-1.04-.2-1.57Z"/><path id="oe" class="om" d="M739.17,85.05c.01-.08,0-.17-.02-.24-.06-.62-.12-1.25-.2-1.87-.02-.19,.05-.42-.09-.56s-.37-.07-.56-.09c-.62-.08-1.25-.13-1.87-.19-.33-.07-.67-.1-1-.11-.39-.05-.78-.11-1.17-.14-.61-.07-1.22-.12-1.83-.18l-.23-.03-3.51-.4v-.05l1.75-.2,2.84-.32,2.73-.3c.9-.1,1.8-.19,2.71-.29,.12,0,.22-.1,.22-.22h0c.11-1.1,.23-2.18,.34-3.27s.25-2.19,.37-3.28,.23-2.21,.35-3.31c0-.05,.01-.11,.03-.22,.08,.23,.12,.47,.12,.71,.18,1.6,.35,3.2,.52,4.8,.16,1.52,.34,3.04,.5,4.55,0,.13,.1,.24,.23,.24,0,0,0,0,.01,0,1.08,.11,2.15,.23,3.23,.34,1.09,.12,2.19,.25,3.28,.37s2.15,.23,3.23,.35c.08,0,.17,.02,.23,.08l-3.36,.37c-1.78,.2-3.55,.4-5.33,.59-.41,.05-.83,.09-1.24,.12-.18,.01-.26,.08-.28,.26-.22,2.02-.44,4.03-.66,6.05-.14,1.28-.27,2.56-.41,3.84,0,.04-.03,.08-.07,.11l-.43-3.74c0-.06,0-.13,0-.19-.07-.67-.14-1.34-.22-2.01-.06-.53-.13-1.04-.2-1.57Z"/><path id="of" class="om" d="M533.7,953.21c.01-.08,0-.17-.02-.24-.06-.62-.12-1.25-.2-1.87-.02-.19,.05-.42-.09-.56s-.37-.07-.56-.09c-.62-.08-1.25-.13-1.87-.19-.33-.07-.67-.1-1-.11-.39-.05-.78-.11-1.17-.14-.61-.07-1.22-.12-1.83-.18l-.23-.03-3.51-.4v-.05l1.75-.2,2.84-.32,2.73-.3c.9-.1,1.8-.19,2.71-.29,.12,0,.22-.1,.22-.22h0c.11-1.1,.23-2.18,.34-3.27s.25-2.19,.37-3.28,.23-2.21,.35-3.31c0-.05,.01-.11,.03-.22,.08,.23,.12,.47,.12,.71,.18,1.6,.35,3.2,.52,4.8,.16,1.52,.34,3.04,.5,4.55,0,.13,.1,.24,.23,.24,0,0,0,0,.01,0,1.08,.11,2.15,.23,3.23,.34,1.09,.12,2.19,.25,3.28,.37s2.15,.23,3.23,.35c.08,0,.17,.02,.23,.08l-3.36,.37c-1.78,.2-3.55,.4-5.33,.59-.41,.05-.83,.09-1.24,.12-.18,.01-.26,.08-.28,.26-.22,2.02-.44,4.03-.66,6.05-.14,1.28-.27,2.56-.41,3.84,0,.04-.03,.08-.07,.11l-.43-3.74c0-.06,0-.13,0-.19-.07-.67-.14-1.34-.22-2.01-.06-.53-.13-1.04-.2-1.57Z"/><path id="og" class="om" d="M821.64,932.96c.01-.08,0-.17-.02-.24-.06-.62-.12-1.25-.2-1.87-.02-.19,.05-.42-.09-.56s-.37-.07-.56-.09c-.62-.08-1.25-.13-1.87-.19-.33-.07-.67-.1-1-.11-.39-.05-.78-.11-1.17-.14-.61-.07-1.22-.12-1.83-.18l-.23-.03-3.51-.4v-.05l1.75-.2,2.84-.32,2.73-.3c.9-.1,1.8-.19,2.71-.29,.12,0,.22-.1,.22-.22h0c.11-1.1,.23-2.18,.34-3.27s.25-2.19,.37-3.28,.23-2.21,.35-3.31c0-.05,.01-.11,.03-.22,.08,.23,.12,.47,.12,.71,.18,1.6,.35,3.2,.52,4.8,.16,1.52,.34,3.04,.5,4.55,0,.13,.1,.24,.23,.24,0,0,0,0,.01,0,1.08,.11,2.15,.23,3.23,.34,1.09,.12,2.19,.25,3.28,.37s2.15,.23,3.23,.35c.08,0,.17,.02,.23,.08l-3.36,.37c-1.78,.2-3.55,.4-5.33,.59-.41,.05-.83,.09-1.24,.12-.18,.01-.26,.08-.28,.26-.22,2.02-.44,4.03-.66,6.05-.14,1.28-.27,2.56-.41,3.84,0,.04-.03,.08-.07,.11l-.43-3.74c0-.06,0-.13,0-.19-.07-.67-.14-1.34-.22-2.01-.06-.53-.13-1.04-.2-1.57Z"/><path id="oh" class="om" d="M1671,931.51c.01-.08,0-.17-.02-.24-.06-.62-.12-1.25-.2-1.87-.02-.19,.05-.42-.09-.56s-.37-.07-.56-.09c-.62-.08-1.25-.13-1.87-.19-.33-.07-.67-.1-1-.11-.39-.05-.78-.11-1.17-.14-.61-.07-1.22-.12-1.83-.18l-.23-.03-3.51-.4v-.05l1.75-.2,2.84-.32,2.73-.3c.9-.1,1.8-.19,2.71-.29,.12,0,.22-.1,.22-.22h0c.11-1.1,.23-2.18,.34-3.27s.25-2.19,.37-3.28,.23-2.21,.35-3.31c0-.05,.01-.11,.03-.22,.08,.23,.12,.47,.12,.71,.18,1.6,.35,3.2,.52,4.8,.16,1.52,.34,3.04,.5,4.55,0,.13,.1,.24,.23,.24,0,0,0,0,.01,0,1.08,.11,2.15,.23,3.23,.34,1.09,.12,2.19,.25,3.28,.37s2.15,.23,3.23,.35c.08,0,.17,.02,.23,.08l-3.36,.37c-1.78,.2-3.55,.4-5.33,.59-.41,.05-.83,.09-1.24,.12-.18,.01-.26,.08-.28,.26-.22,2.02-.44,4.03-.66,6.05-.14,1.28-.27,2.56-.41,3.84,0,.04-.03,.08-.07,.11l-.43-3.74c0-.06,0-.13,0-.19-.07-.67-.14-1.34-.22-2.01-.06-.53-.13-1.04-.2-1.57Z"/><path id="oi" class="om" d="M1753.47,739.07c.01-.08,0-.17-.02-.24-.06-.62-.12-1.25-.2-1.87-.02-.19,.05-.42-.09-.56s-.37-.07-.56-.09c-.62-.08-1.25-.13-1.87-.19-.33-.07-.67-.1-1-.11-.39-.05-.78-.11-1.17-.14-.61-.07-1.22-.12-1.83-.18l-.23-.03-3.51-.4v-.05l1.75-.2,2.84-.32,2.73-.3c.9-.1,1.8-.19,2.71-.29,.12,0,.22-.1,.22-.22h0c.11-1.1,.23-2.18,.34-3.27s.25-2.19,.37-3.28,.23-2.21,.35-3.31c0-.05,.01-.11,.03-.22,.08,.23,.12,.47,.12,.71,.18,1.6,.35,3.2,.52,4.8,.16,1.52,.34,3.04,.5,4.55,0,.13,.1,.24,.23,.24,0,0,0,0,.01,0,1.08,.11,2.15,.23,3.23,.34,1.09,.12,2.19,.25,3.28,.37s2.15,.23,3.23,.35c.08,0,.17,.02,.23,.08l-3.36,.37c-1.78,.2-3.55,.4-5.33,.59-.41,.05-.83,.09-1.24,.12-.18,.01-.26,.08-.28,.26-.22,2.02-.44,4.03-.66,6.05-.14,1.28-.27,2.56-.41,3.84,0,.04-.03,.08-.07,.11l-.43-3.74c0-.06,0-.13,0-.19-.07-.67-.14-1.34-.22-2.01-.06-.53-.13-1.04-.2-1.57Z"/><path id="oj" class="om" d="M1909.74,621.86c.01-.08,0-.17-.02-.24-.06-.62-.12-1.25-.2-1.87-.02-.19,.05-.42-.09-.56s-.37-.07-.56-.09c-.62-.08-1.25-.13-1.87-.19-.33-.07-.67-.1-1-.11-.39-.05-.78-.11-1.17-.14-.61-.07-1.22-.12-1.83-.18l-.23-.03-3.51-.4v-.05l1.75-.2,2.84-.32,2.73-.3c.9-.1,1.8-.19,2.71-.29,.12,0,.22-.1,.22-.22h0c.11-1.1,.23-2.18,.34-3.27s.25-2.19,.37-3.28,.23-2.21,.35-3.31c0-.05,.01-.11,.03-.22,.08,.23,.12,.47,.12,.71,.18,1.6,.35,3.2,.52,4.8,.16,1.52,.34,3.04,.5,4.55,0,.13,.1,.24,.23,.24,0,0,0,0,.01,0,1.08,.11,2.15,.23,3.23,.34,1.09,.12,2.19,.25,3.28,.37s2.15,.23,3.23,.35c.08,0,.17,.02,.23,.08l-3.36,.37c-1.78,.2-3.55,.4-5.33,.59-.41,.05-.83,.09-1.24,.12-.18,.01-.26,.08-.28,.26-.22,2.02-.44,4.03-.66,6.05-.14,1.28-.27,2.56-.41,3.84,0,.04-.03,.08-.07,.11l-.43-3.74c0-.06,0-.13,0-.19-.07-.67-.14-1.34-.22-2.01-.06-.53-.13-1.04-.2-1.57Z"/><path id="ok" class="om" d="M1830.16,404.82c.01-.08,0-.17-.02-.24-.06-.62-.12-1.25-.2-1.87-.02-.19,.05-.42-.09-.56s-.37-.07-.56-.09c-.62-.08-1.25-.13-1.87-.19-.33-.07-.67-.1-1-.11-.39-.05-.78-.11-1.17-.14-.61-.07-1.22-.12-1.83-.18l-.23-.03-3.51-.4v-.05l1.75-.2,2.84-.32,2.73-.3c.9-.1,1.8-.19,2.71-.29,.12,0,.22-.1,.22-.22h0c.11-1.1,.23-2.18,.34-3.27s.25-2.19,.37-3.28,.23-2.21,.35-3.31c0-.05,.01-.11,.03-.22,.08,.23,.12,.47,.12,.71,.18,1.6,.35,3.2,.52,4.8,.16,1.52,.34,3.04,.5,4.55,0,.13,.1,.24,.23,.24,0,0,0,0,.01,0,1.08,.11,2.15,.23,3.23,.34,1.09,.12,2.19,.25,3.28,.37s2.15,.23,3.23,.35c.08,0,.17,.02,.23,.08l-3.36,.37c-1.78,.2-3.55,.4-5.33,.59-.41,.05-.83,.09-1.24,.12-.18,.01-.26,.08-.28,.26-.22,2.02-.44,4.03-.66,6.05-.14,1.28-.27,2.56-.41,3.84,0,.04-.03,.08-.07,.11l-.43-3.74c0-.06,0-.13,0-.19-.07-.67-.14-1.34-.22-2.01-.06-.53-.13-1.04-.2-1.57Z"/><path id="ol" class="om" d="M488.84,145.82c.01-.08,0-.17-.02-.24-.06-.62-.12-1.25-.2-1.87-.02-.19,.05-.42-.09-.56s-.37-.07-.56-.09c-.62-.08-1.25-.13-1.87-.19-.33-.07-.67-.1-1-.11-.39-.05-.78-.11-1.17-.14-.61-.07-1.22-.12-1.83-.18l-.23-.03-3.51-.4v-.05l1.75-.2,2.84-.32,2.73-.3c.9-.1,1.8-.19,2.71-.29,.12,0,.22-.1,.22-.22h0c.11-1.1,.23-2.18,.34-3.27s.25-2.19,.37-3.28,.23-2.21,.35-3.31c0-.05,.01-.11,.03-.22,.08,.23,.12,.47,.12,.71,.18,1.6,.35,3.2,.52,4.8,.16,1.52,.34,3.04,.5,4.55,0,.13,.1,.24,.23,.24,0,0,0,0,.01,0,1.08,.11,2.15,.23,3.23,.34,1.09,.12,2.19,.25,3.28,.37s2.15,.23,3.23,.35c.08,0,.17,.02,.23,.08l-3.36,.37c-1.78,.2-3.55,.4-5.33,.59-.41,.05-.83,.09-1.24,.12-.18,.01-.26,.08-.28,.26-.22,2.02-.44,4.03-.66,6.05-.14,1.28-.27,2.56-.41,3.84,0,.04-.03,.08-.07,.11l-.43-3.74c0-.06,0-.13,0-.19-.07-.67-.14-1.34-.22-2.01-.06-.53-.13-1.04-.2-1.57Z"/></svg>