<?xml version="1.0" encoding="UTF-8"?><svg xmlns="http://www.w3.org/2000/svg" xmlns:xlink="http://www.w3.org/1999/xlink" viewBox="0 0 1923.58 1084.98"><defs><style>.ej{clip-path:url(#bh);}.ek{clip-path:url(#ac);}.el,.em{fill:#fff;}.en{clip-path:url(#ci);}.eo{clip-path:url(#cc);}.ep{clip-path:url(#ds);}.eq{opacity:.2;}.er{clip-path:url(#ee);}.es{clip-path:url(#dj);}.et,.em{isolation:isolate;}.eu{clip-path:url(#as);}.ev{clip-path:url(#ag);}.ew{fill:url(#a`);}.ex{clip-path:url(#x);}.ey{clip-path:url(#dd);}.f`{clip-path:url(#cu);}.fa{fill:url(#do);}.fb{clip-path:url(#dm);}.fc{fill:url(#ei);mix-blend-mode:screen;opacity:.5;}.fc,.fd{fill-rule:evenodd;}.fe{fill:url(#bm);}.ff{clip-path:url(#aj);}.fg{fill:url(#bd);}.fh{fill:url(#eg);}.fi{fill:url(#ce);}.fj{clip-path:url(#dv);}.fk{clip-path:url(#u);}.fl{clip-path:url(#c`);}.fm{clip-path:url(#da);}.fn{clip-path:url(#bk);}.fo{fill:url(#au);}.fp{fill:url(#dx);}.fq{clip-path:url(#bt);}.fr{fill:url(#bv);}.fs{fill:url(#cn);}.ft{clip-path:url(#bq);}.fu{fill:url(#d);}.em{opacity:.83;}.fv{fill:none;}.fw{fill:url(#cw);}.fx{clip-path:url(#eb);}.fy{clip-path:url(#cl);}.fd{fill:#9786b3;mix-blend-mode:soft-light;}.g`{fill:url(#df);}.ga{fill:url(#al);}.gb{clip-path:url(#bb);}.gc{clip-path:url(#cr);}.gd{clip-path:url(#ap);}.ge{clip-path:url(#ay);}</style><linearGradient id="d" x1="-3875.91" y1="1083.27" x2="-3876.18" y2="1082.38" gradientTransform="translate(6985605.85 1113673.46) scale(1802 -1028)" gradientUnits="userSpaceOnUse"><stop offset="0" stop-color="#541498"/><stop offset="1" stop-color="#1275b8"/></linearGradient><clipPath id="u"><rect class="fv" x="1.99" y="935.2" width="427" height="147.71"/></clipPath><clipPath id="x"><polygon class="fv" points="300.95 935.2 293.52 960.69 293.52 950.8 290.78 945.13 286.9 946.79 267.03 960.69 263.97 967.48 247.61 1038.26 244.54 1040.15 249.92 998.94 242.13 984.93 240.12 983.33 240.12 971.22 234.52 962.77 231.78 962.66 222.03 989.88 224.77 992.68 217.76 1034.22 215.02 1067.66 213.8 1067.77 206.34 1016.58 193.88 1004.84 185.97 1015.5 161.09 1026.03 145.95 1053 148.12 1054.6 142.83 1065.21 132.79 1066.27 138.49 1009.71 128.37 996.93 126.45 997.78 110.11 973.06 89.35 968.34 83.2 971.22 65.61 1038.26 65 1041.47 57.84 1042.16 51.16 1017.16 41.94 1010.39 37.07 1004.19 33.74 998.4 20.24 996.67 14.83 998.4 16.27 1048.89 16.27 1051.77 11.02 1076.3 5.03 1079.07 2.08 1058.81 1.99 1058.68 1.99 1082.91 382.86 1082.91 382.86 1016.73 382.46 1016.9 372.56 1048.76 371.26 1049.32 359.3 1079.08 348.72 1069.05 348.72 1050.3 334.11 1027.51 328.47 1016.15 330.84 977.89 328.46 970.16 321.81 965.52 317.97 946.27 309.17 938.73 300.95 935.2"/></clipPath><linearGradient id="a`" x1="-3596.07" y1="923.9" x2="-3596.07" y2="923.9" gradientTransform="translate(2229363.23 223139.22) scale(619.94 -240.43)" gradientUnits="userSpaceOnUse"><stop offset="0" stop-color="#ff774d"/><stop offset=".1" stop-color="#ef6655"/><stop offset=".3" stop-color="#c63a6d"/><stop offset=".46" stop-color="#a41581"/><stop offset=".78" stop-color="#6d0867"/><stop offset="1" stop-color="#450054"/></linearGradient><clipPath id="ac"><rect class="fv" x="1.99" y="935.2" width="427" height="147.71"/></clipPath><clipPath id="ag"><rect class="fv" x="389.17" y="1023.48" width="12.72" height="16.28"/></clipPath><clipPath id="aj"><polygon class="fv" points="389.17 1033.85 389.17 1039.76 394.19 1032.31 401.89 1030.58 393.54 1023.48 395.65 1026.43 389.89 1031.66 389.17 1033.85"/></clipPath><linearGradient id="al" x1="-3471.67" y1="902.55" x2="-3471.64" y2="902.55" gradientTransform="translate(71872.47 24948.26) scale(20.7 -26.5)" gradientUnits="userSpaceOnUse"><stop offset="0" stop-color="#fff"/><stop offset="1" stop-color="#974577"/></linearGradient><clipPath id="ap"><rect class="fv" x="1.99" y="938.73" width="380.87" height="144.18"/></clipPath><clipPath id="as"><polygon class="fv" points="382.86 1052.62 376.1 1070.76 368.9 1074.43 367.85 1074.35 372.56 1048.75 371.26 1049.31 366.6 1075.95 363.32 1078.19 359.3 1079.07 348.72 1069.05 348.72 1050.3 338.99 1034.93 337.45 1040.9 338.99 1052.21 333.87 1075.87 316.14 1080.35 313.3 1054.28 320.26 1023.63 328.1 1026.82 330.84 977.89 328.46 970.16 326.31 990.44 313.3 1020.1 308.68 1022.79 318.17 974.52 321.81 965.52 317.97 946.27 309.17 938.73 308.69 948.06 310.66 946.78 308.69 976.86 301.18 1038.69 284.94 1072.99 278.53 1075.71 280.9 1033.4 293.52 960.69 293.52 950.8 288.73 961.53 284.94 965.47 288.96 963.78 279.81 1006.23 257.94 1034.98 247.61 1038.26 244.54 1040.15 249.92 998.94 242.13 984.93 238.25 991.44 234.59 999.28 240.12 983.33 240.12 971.22 234.59 977.12 229.79 987.08 222.03 989.88 224.77 992.68 233.88 993.89 236.42 1045.8 235.5 1067.72 254.56 1074.6 215.02 1067.66 213.8 1067.77 206.34 1016.59 204.48 1014.84 204.48 1038.69 195.22 1066.49 188.13 1068.41 189.79 1039.79 192.68 1036.11 185.97 1015.5 183.96 1016.35 185.05 1024.27 172.75 1052.21 145.96 1053 148.13 1054.6 161.6 1055.83 165.43 1068.2 142.83 1065.21 132.8 1066.28 138.5 1009.72 128.37 996.94 126.33 1008.12 107.2 1047.51 124.9 995.43 111.04 972.06 104.2 1034.63 89.85 1047.72 65 1041.47 57.84 1042.16 51.16 1017.16 42.09 1013.07 35.23 998.99 29.38 999.28 34.96 1023.2 39.19 1057.32 29.38 1079.07 29.38 1071.39 17.88 1079.71 11.02 1076.3 5.03 1079.07 2.08 1058.81 1.99 1058.68 1.99 1082.91 34.47 1082.91 41.64 1067.77 65.06 1052.21 87.09 1052.21 72.32 1073.53 46.8 1082.91 98.1 1082.91 104.2 1077.58 171.85 1070.54 176.68 1070.54 235.43 1082.91 275.22 1082.91 285.82 1078.65 304.08 1042.6 311.11 1034.63 308.68 1057.32 308.3 1082.91 382.86 1082.91 382.86 1075.14 377.63 1078.97 382.86 1059.01 382.86 1052.62"/></clipPath><linearGradient id="au" x1="-3596.07" y1="923.84" x2="-3596.07" y2="923.84" gradientTransform="translate(2229363.23 217816.86) scale(619.94 -234.68)" xlink:href="#al"/><clipPath id="ay"><rect class="fv" x="409.88" y="1040.15" width="19.11" height="42.76"/></clipPath><clipPath id="bb"><polygon class="fv" points="428.99 1040.15 422.32 1042.6 409.88 1082.91 423.97 1082.91 427.92 1057.5 428.99 1040.15"/></clipPath><linearGradient id="bd" x1="-3516.16" y1="917.72" x2="-3516.14" y2="917.72" gradientTransform="translate(109389.8 64935.67) scale(31.11 -69.6)" xlink:href="#al"/><clipPath id="bh"><rect class="fv" x="382.09" y="1078.3" width=".77" height="4.61"/></clipPath><clipPath id="bk"><polygon class="fv" points="382.86 1078.3 382.09 1082.91 382.86 1082.91 382.86 1078.3"/></clipPath><linearGradient id="bm" x1="-1444.88" y1="845.72" x2="-1444.37" y2="845.72" gradientTransform="translate(1809.65 7425.21) scale(1.25 -7.5)" xlink:href="#al"/><clipPath id="bq"><rect class="fv" x="389.17" y="1032.15" width="14.84" height="50.76"/></clipPath><clipPath id="bt"><polygon class="fv" points="401.88 1050.28 399.09 1050.71 403.31 1032.15 398.67 1033.41 393.35 1056.89 389.17 1064.42 389.17 1082.91 402.68 1082.91 404.01 1069 401.88 1050.28"/></clipPath><linearGradient id="bv" x1="-3490.2" y1="919.09" x2="-3490.17" y2="919.09" gradientTransform="translate(84293.78 76991.76) scale(24.15 -82.62)" xlink:href="#al"/><clipPath id="c`"><rect class="fv" x="234.48" y="998.94" width="15.44" height="68.77"/></clipPath><clipPath id="cc"><polygon class="fv" points="249.92 998.94 234.48 1006.23 236.42 1045.8 235.5 1067.72 244.54 1040.15 249.92 998.94"/></clipPath><linearGradient id="ce" x1="-3484.49" y1="920.92" x2="-3484.47" y2="920.92" gradientTransform="translate(87553.38 104125.18) scale(25.13 -111.94)" xlink:href="#al"/><clipPath id="ci"><rect class="fv" x="257.94" y="960.69" width="35.58" height="122.22"/></clipPath><clipPath id="cl"><polygon class="fv" points="293.52 960.69 288.96 963.78 279.81 1004.87 257.94 1034.98 259.1 1059.45 275.22 1082.91 278.53 1081.58 278.53 1075.71 280.9 1033.4 293.52 960.69"/></clipPath><linearGradient id="cn" x1="-3551.35" y1="923.37" x2="-3551.34" y2="923.37" gradientTransform="translate(205675.06 184715.87) scale(57.91 -198.94)" xlink:href="#al"/><clipPath id="cr"><rect class="fv" x="46.8" y="1008.12" width="96.03" height="74.79"/></clipPath><clipPath id="cu"><polygon class="fv" points="126.33 1008.12 138.5 1009.72 132.8 1066.28 142.83 1065.21 104.2 1077.58 98.11 1082.91 46.8 1082.91 72.32 1073.53 87.09 1052.21 75.92 1052.21 75.69 1044.16 89.85 1047.72 107.2 1049.64 126.33 1008.12"/></clipPath><linearGradient id="cw" x1="-3580.67" y1="921.44" x2="-3580.67" y2="921.44" gradientTransform="translate(559707.93 113223) scale(156.31 -121.74)" xlink:href="#al"/><clipPath id="da"><rect class="fv" x="1.99" y="1058.8" width="3.04" height="24.12"/></clipPath><clipPath id="dd"><polygon class="fv" points="2.08 1058.81 1.99 1058.8 1.99 1082.91 4.53 1082.91 5.03 1079.07 2.08 1058.81"/></clipPath><linearGradient id="df" x1="-2930.76" y1="911" x2="-2930.64" y2="911" gradientTransform="translate(14494.62 36832.88) scale(4.95 -39.26)" xlink:href="#al"/><clipPath id="dj"><rect class="fv" x="27.2" y="1013.07" width="30.63" height="69.84"/></clipPath><clipPath id="dm"><polygon class="fv" points="27.2 1082.91 39.18 1057.32 34.47 1020.11 42.09 1013.07 51.16 1017.16 57.84 1042.16 49.84 1062.32 41.64 1067.77 34.47 1082.91 27.2 1082.91"/></clipPath><linearGradient id="do" x1="-3535.73" y1="921.09" x2="-3535.72" y2="921.09" gradientTransform="translate(176293.62 105761.34) scale(49.86 -113.68)" xlink:href="#al"/><clipPath id="ds"><rect class="fv" x="145.96" y="1024.26" width="46.72" height="44.15"/></clipPath><clipPath id="dv"><polygon class="fv" points="172.75 1052.21 145.95 1053 148.12 1054.6 161.59 1055.83 165.43 1068.2 188.13 1068.41 189.79 1039.79 192.67 1036.11 185.05 1024.26 172.75 1052.21"/></clipPath><linearGradient id="dx" x1="-3560.89" y1="917.87" x2="-3560.89" y2="917.87" gradientTransform="translate(270790.2 67004.14) scale(76.04 -71.86)" xlink:href="#al"/><clipPath id="eb"><rect class="fv" x="195.22" y="1038.69" width="18.58" height="29.08"/></clipPath><clipPath id="ee"><polygon class="fv" points="204.48 1038.69 213.8 1067.77 195.22 1066.49 204.48 1038.69"/></clipPath><linearGradient id="eg" x1="-3502.16" y1="913.43" x2="-3502.14" y2="913.43" gradientTransform="translate(105910.76 44286.56) scale(30.24 -47.33)" xlink:href="#al"/><radialGradient id="ei" cx="-2699.62" cy="690.31" fx="-2699.62" fy="690.31" r="27.35" gradientTransform="translate(46993.51 -355.04) scale(17.33 2.06)" gradientUnits="userSpaceOnUse"><stop offset="0" stop-color="#ff4d2f"/><stop offset="1" stop-color="#000"/></radialGradient></defs><g class="et"><g id="a"/><g id="b"><g id="c"><rect id="e" class="fu" x="3.58" width="1920" height="1083"/><g id="f" transform="translate(-111.849 -320.5)"><path id="g" class="el" d="M81.01,733.09c.02-.13,0-.27-.03-.4-.1-1.01-.19-2.02-.31-3.03-.04-.31,.07-.68-.14-.91s-.58-.11-.88-.15c-.98-.13-1.96-.21-2.93-.31-.52-.11-1.04-.17-1.57-.18-.61-.08-1.22-.17-1.84-.24-.96-.11-1.92-.2-2.87-.3l-.37-.06-5.49-.65v-.08l2.74-.32c1.48-.17,2.97-.34,4.45-.51,1.43-.16,2.85-.32,4.28-.48,1.41-.16,2.82-.31,4.24-.47,.19,0,.34-.16,.34-.36v-.02c.18-1.76,.35-3.52,.54-5.28s.4-3.55,.59-5.32c.19-1.77,.37-3.58,.55-5.37,0-.09,.02-.17,.05-.36,.13,.37,.19,.76,.19,1.16,.29,2.59,.54,5.19,.82,7.78,.26,2.46,.53,4.92,.78,7.38,0,.21,.16,.38,.36,.39,0,0,.02,0,.02,0,1.69,.18,3.37,.36,5.06,.55,1.71,.19,3.43,.41,5.14,.6,1.69,.19,3.37,.38,5.06,.57,.13-.02,.26,.03,.35,.13l-5.27,.61c-2.78,.32-5.56,.64-8.34,.96-.65,.07-1.3,.14-1.95,.19-.28,.02-.41,.13-.44,.43-.34,3.27-.69,6.53-1.04,9.8-.22,2.07-.43,4.15-.64,6.22,0,.07-.05,.14-.11,.18-.23-2.02-.45-4.04-.68-6.06,0-.1,0-.21,0-.31-.11-1.09-.23-2.17-.35-3.26-.08-.84-.2-1.68-.3-2.53Z"/><path id="h" class="el" d="M1429.01,91.09c.02-.13,0-.27-.03-.4-.1-1.01-.19-2.02-.31-3.03-.04-.31,.07-.68-.14-.91s-.58-.11-.88-.15c-.98-.13-1.96-.21-2.93-.31-.52-.11-1.04-.17-1.57-.18-.61-.08-1.22-.17-1.84-.24-.96-.11-1.92-.2-2.87-.3l-.37-.06-5.49-.65v-.08l2.74-.32c1.48-.17,2.97-.34,4.45-.51,1.43-.16,2.85-.32,4.28-.48,1.41-.16,2.82-.31,4.24-.47,.19,0,.34-.16,.34-.36v-.02c.18-1.76,.35-3.52,.54-5.28,.19-1.76,.4-3.55,.59-5.32s.37-3.58,.55-5.37c0-.09,.02-.17,.05-.36,.13,.37,.19,.76,.19,1.16,.29,2.59,.54,5.19,.82,7.78,.26,2.46,.53,4.92,.78,7.38,0,.21,.16,.38,.36,.39,0,0,.02,0,.02,0,1.69,.18,3.37,.36,5.06,.55,1.71,.19,3.43,.41,5.14,.6,1.69,.19,3.37,.38,5.06,.57,.13-.02,.26,.03,.35,.13l-5.27,.61c-2.78,.32-5.56,.64-8.34,.96-.65,.07-1.3,.14-1.95,.19-.28,.02-.41,.13-.44,.43-.34,3.27-.69,6.53-1.04,9.8-.22,2.07-.43,4.15-.64,6.22,0,.07-.05,.14-.11,.18-.23-2.02-.45-4.04-.68-6.06,0-.1,0-.21,0-.31-.11-1.09-.23-2.17-.35-3.26-.08-.84-.2-1.68-.3-2.53Z"/><path id="i" class="el" d="M1841.92,75.06c.02-.1,0-.2-.02-.3-.08-.76-.14-1.52-.23-2.28-.03-.23,.06-.51-.11-.68s-.44-.09-.66-.11c-.73-.09-1.47-.16-2.2-.24-.39-.08-.78-.13-1.18-.13-.46-.06-.92-.13-1.38-.18-.72-.08-1.44-.15-2.16-.22l-.28-.04-4.12-.48v-.06l2.06-.24c1.11-.13,2.23-.26,3.34-.38,1.07-.12,2.14-.24,3.21-.36,1.06-.12,2.12-.24,3.18-.35,.17-.02,.24-.11,.26-.28,.13-1.32,.26-2.64,.41-3.96,.14-1.32,.3-2.66,.44-3.99,.14-1.33,.27-2.69,.41-4.03,0-.07,.02-.13,.04-.27,.1,.28,.14,.57,.14,.87,.21,1.95,.41,3.9,.61,5.85,.19,1.85,.39,3.69,.59,5.54,0,.16,.12,.29,.27,.29,0,0,.01,0,.02,0,1.27,.14,2.53,.27,3.8,.42,1.29,.15,2.57,.3,3.86,.45,1.27,.15,2.53,.28,3.8,.43,.1-.01,.2,.03,.27,.1l-3.96,.46c-2.09,.24-4.18,.48-6.26,.72-.49,.06-.97,.11-1.46,.15-.21,.02-.31,.09-.33,.32-.26,2.45-.52,4.9-.78,7.36-.16,1.56-.32,3.11-.48,4.67,0,.05-.03,.1-.08,.13-.17-1.52-.34-3.03-.51-4.55,0-.08,0-.16,0-.24-.09-.82-.17-1.63-.26-2.45-.07-.65-.16-1.28-.23-1.91Z"/><path id="j" class="em" d="M997.14,558.26c.02-.1,0-.2-.02-.3-.08-.76-.14-1.52-.23-2.28-.03-.23,.06-.51-.11-.68s-.44-.09-.66-.11c-.73-.09-1.47-.16-2.2-.24-.39-.08-.78-.13-1.18-.13-.46-.06-.92-.13-1.38-.18-.72-.08-1.44-.15-2.16-.22l-.28-.04-4.12-.48v-.06l2.06-.24c1.11-.13,2.23-.26,3.34-.38,1.07-.12,2.14-.24,3.21-.36,1.06-.12,2.12-.24,3.18-.35,.17-.02,.24-.11,.26-.28,.13-1.32,.26-2.64,.41-3.96s.3-2.66,.44-3.99c.14-1.33,.27-2.69,.41-4.03,0-.07,.02-.13,.04-.27,.1,.28,.14,.57,.14,.87,.21,1.95,.41,3.9,.61,5.85,.19,1.85,.39,3.69,.59,5.54,0,.16,.12,.29,.27,.29,0,0,.01,0,.02,0,1.27,.14,2.53,.27,3.8,.42,1.29,.15,2.57,.3,3.86,.45,1.27,.15,2.53,.28,3.8,.43,.1-.01,.2,.03,.27,.1l-3.96,.46c-2.09,.24-4.18,.48-6.26,.72-.49,.06-.97,.11-1.46,.15-.21,.02-.31,.09-.33,.32-.26,2.45-.52,4.9-.78,7.36-.16,1.56-.32,3.11-.48,4.67,0,.05-.03,.1-.08,.13-.17-1.52-.34-3.03-.51-4.55,0-.08,0-.16,0-.24-.09-.82-.17-1.63-.26-2.45-.07-.65-.16-1.28-.23-1.91Z"/><path id="k" class="em" d="M435.92,690.06c.02-.1,0-.2-.02-.3-.08-.76-.14-1.52-.23-2.28-.03-.23,.06-.51-.11-.68s-.44-.09-.66-.11c-.73-.09-1.47-.16-2.2-.24-.39-.08-.78-.13-1.18-.13-.46-.06-.92-.13-1.38-.18-.72-.08-1.44-.15-2.16-.22l-.28-.04-4.12-.48v-.06l2.06-.24c1.11-.13,2.23-.26,3.34-.38,1.07-.12,2.14-.24,3.21-.36,1.06-.12,2.12-.24,3.18-.35,.17-.02,.24-.11,.26-.28,.13-1.32,.26-2.64,.41-3.96,.14-1.32,.3-2.66,.44-3.99,.14-1.33,.27-2.69,.41-4.03,0-.07,.02-.13,.04-.27,.1,.28,.14,.57,.14,.87,.21,1.95,.41,3.9,.61,5.85,.19,1.85,.39,3.69,.59,5.54,0,.16,.12,.29,.27,.29,0,0,.01,0,.02,0,1.27,.14,2.53,.27,3.8,.42,1.29,.15,2.57,.3,3.86,.45,1.27,.15,2.53,.28,3.8,.43,.1-.01,.2,.03,.27,.1l-3.96,.46c-2.09,.24-4.18,.48-6.26,.72-.49,.06-.97,.11-1.46,.15-.21,.02-.31,.09-.33,.32-.26,2.45-.52,4.9-.78,7.36-.16,1.56-.32,3.11-.48,4.67,0,.05-.03,.1-.08,.13-.17-1.52-.34-3.03-.51-4.55,0-.08,0-.16,0-.24-.09-.82-.17-1.63-.26-2.45-.07-.65-.16-1.28-.23-1.91Z"/><path id="l" class="em" d="M104.92,262.06c.02-.1,0-.2-.02-.3-.08-.76-.14-1.52-.23-2.28-.03-.23,.06-.51-.11-.68s-.44-.09-.66-.11c-.73-.09-1.47-.16-2.2-.24-.39-.08-.78-.13-1.18-.13-.46-.06-.92-.13-1.38-.18-.72-.08-1.44-.15-2.16-.22l-.28-.04-4.12-.48v-.06l2.06-.24c1.11-.13,2.23-.26,3.34-.38,1.07-.12,2.14-.24,3.21-.36,1.06-.12,2.12-.24,3.18-.35,.17-.02,.24-.11,.26-.28,.13-1.32,.26-2.64,.41-3.96s.3-2.66,.44-3.99c.14-1.33,.27-2.69,.41-4.03,0-.07,.02-.13,.04-.27,.1,.28,.14,.57,.14,.87,.21,1.95,.41,3.9,.61,5.85,.19,1.85,.39,3.69,.59,5.54,0,.16,.12,.29,.27,.29,0,0,.01,0,.02,0,1.27,.14,2.53,.27,3.8,.42,1.29,.15,2.57,.3,3.86,.45,1.27,.15,2.53,.28,3.8,.43,.1-.01,.2,.03,.27,.1l-3.96,.46c-2.09,.24-4.18,.48-6.26,.72-.49,.06-.97,.11-1.46,.15-.21,.02-.31,.09-.33,.32-.26,2.45-.52,4.9-.78,7.36-.16,1.56-.32,3.11-.48,4.67,0,.05-.03,.1-.08,.13-.17-1.52-.34-3.03-.51-4.55,0-.08,0-.16,0-.24-.09-.82-.17-1.63-.26-2.45-.07-.65-.16-1.28-.23-1.91Z"/><path id="m" class="em" d="M194.92,93.06c.02-.1,0-.2-.02-.3-.08-.76-.14-1.52-.23-2.28-.03-.23,.06-.51-.11-.68s-.44-.09-.66-.11c-.73-.09-1.47-.16-2.2-.24-.39-.08-.78-.13-1.18-.13-.46-.06-.92-.13-1.38-.18-.72-.08-1.44-.15-2.16-.22l-.28-.04-4.12-.48v-.06l2.06-.24c1.11-.13,2.23-.26,3.34-.38,1.07-.12,2.14-.24,3.21-.36,1.06-.12,2.12-.24,3.18-.35,.17-.02,.24-.11,.26-.28,.13-1.32,.26-2.64,.41-3.96,.14-1.32,.3-2.66,.44-3.99,.14-1.33,.27-2.69,.41-4.03,0-.07,.02-.13,.04-.27,.1,.28,.14,.57,.14,.87,.21,1.95,.41,3.9,.61,5.85,.19,1.85,.39,3.69,.59,5.54,0,.16,.12,.29,.27,.29,0,0,.01,0,.02,0,1.27,.14,2.53,.27,3.8,.42,1.29,.15,2.57,.3,3.86,.45,1.27,.15,2.53,.28,3.8,.43,.1-.01,.2,.03,.27,.1l-3.96,.46c-2.09,.24-4.18,.48-6.26,.72-.49,.06-.97,.11-1.46,.15-.21,.02-.31,.09-.33,.32-.26,2.45-.52,4.9-.78,7.36-.16,1.56-.32,3.11-.48,4.67,0,.05-.03,.1-.08,.13-.17-1.52-.34-3.03-.51-4.55,0-.08,0-.16,0-.24-.09-.82-.17-1.63-.26-2.45-.07-.65-.16-1.28-.23-1.91Z"/><path id="n" class="em" d="M709.92,128.06c.02-.1,0-.2-.02-.3-.08-.76-.14-1.52-.23-2.28-.03-.23,.06-.51-.11-.68s-.44-.09-.66-.11c-.73-.09-1.47-.16-2.2-.24-.39-.08-.78-.13-1.18-.13-.46-.06-.92-.13-1.38-.18-.72-.08-1.44-.15-2.16-.22l-.28-.04-4.12-.48v-.06l2.06-.24c1.11-.13,2.23-.26,3.34-.38,1.07-.12,2.14-.24,3.21-.36,1.06-.12,2.12-.24,3.18-.35,.17-.02,.24-.11,.26-.28,.13-1.32,.26-2.64,.41-3.96,.14-1.32,.3-2.66,.44-3.99,.14-1.33,.27-2.69,.41-4.03,0-.07,.02-.13,.04-.27,.1,.28,.14,.57,.14,.87,.21,1.95,.41,3.9,.61,5.85,.19,1.85,.39,3.69,.59,5.54,0,.16,.12,.29,.27,.29,0,0,.01,0,.02,0,1.27,.14,2.53,.27,3.8,.42,1.29,.15,2.57,.3,3.86,.45,1.27,.15,2.53,.28,3.8,.43,.1-.01,.2,.03,.27,.1l-3.96,.46c-2.09,.24-4.18,.48-6.26,.72-.49,.06-.97,.11-1.46,.15-.21,.02-.31,.09-.33,.32-.26,2.45-.52,4.9-.78,7.36-.16,1.56-.32,3.11-.48,4.67,0,.05-.03,.1-.08,.13-.17-1.52-.34-3.03-.51-4.55,0-.08,0-.16,0-.24-.09-.82-.17-1.63-.26-2.45-.07-.65-.16-1.28-.23-1.91Z"/><path id="o" class="em" d="M591.92,586.06c.02-.1,0-.2-.02-.3-.08-.76-.14-1.52-.23-2.28-.03-.23,.06-.51-.11-.68s-.44-.09-.66-.11c-.73-.09-1.47-.16-2.2-.24-.39-.08-.78-.13-1.18-.13-.46-.06-.92-.13-1.38-.18-.72-.08-1.44-.15-2.16-.22l-.28-.04-4.12-.48v-.06l2.06-.24c1.11-.13,2.23-.26,3.34-.38,1.07-.12,2.14-.24,3.21-.36,1.06-.12,2.12-.24,3.18-.35,.17-.02,.24-.11,.26-.28,.13-1.32,.26-2.64,.41-3.96,.14-1.32,.3-2.66,.44-3.99s.27-2.69,.41-4.03c0-.07,.02-.13,.04-.27,.1,.28,.14,.57,.14,.87,.21,1.95,.41,3.9,.61,5.85,.19,1.85,.39,3.69,.59,5.54,0,.16,.12,.29,.27,.29,0,0,.01,0,.02,0,1.27,.14,2.53,.27,3.8,.42,1.29,.15,2.57,.3,3.86,.45,1.27,.15,2.53,.28,3.8,.43,.1-.01,.2,.03,.27,.1l-3.96,.46c-2.09,.24-4.18,.48-6.26,.72-.49,.06-.97,.11-1.46,.15-.21,.02-.31,.09-.33,.32-.26,2.45-.52,4.9-.78,7.36-.16,1.56-.32,3.11-.48,4.67,0,.05-.03,.1-.08,.13-.17-1.52-.34-3.03-.51-4.55,0-.08,0-.16,0-.24-.09-.82-.17-1.63-.26-2.45-.07-.65-.16-1.28-.23-1.91Z"/><path id="p" class="em" d="M604.92,910.06c.02-.1,0-.2-.02-.3-.08-.76-.14-1.52-.23-2.28-.03-.23,.06-.51-.11-.68s-.44-.09-.66-.11c-.73-.09-1.47-.16-2.2-.24-.39-.08-.78-.13-1.18-.13-.46-.06-.92-.13-1.38-.18-.72-.08-1.44-.15-2.16-.22l-.28-.04-4.12-.48v-.06l2.06-.24c1.11-.13,2.23-.26,3.34-.38,1.07-.12,2.14-.24,3.21-.36,1.06-.12,2.12-.24,3.18-.35,.17-.02,.24-.11,.26-.28,.13-1.32,.26-2.64,.41-3.96,.14-1.32,.3-2.66,.44-3.99,.14-1.33,.27-2.69,.41-4.03,0-.07,.02-.13,.04-.27,.1,.28,.14,.57,.14,.87,.21,1.95,.41,3.9,.61,5.85,.19,1.85,.39,3.69,.59,5.54,0,.16,.12,.29,.27,.29,0,0,.01,0,.02,0,1.27,.14,2.53,.27,3.8,.42,1.29,.15,2.57,.3,3.86,.45,1.27,.15,2.53,.28,3.8,.43,.1-.01,.2,.03,.27,.1l-3.96,.46c-2.09,.24-4.18,.48-6.26,.72-.49,.06-.97,.11-1.46,.15-.21,.02-.31,.09-.33,.32-.26,2.45-.52,4.9-.78,7.36-.16,1.56-.32,3.11-.48,4.67,0,.05-.03,.1-.08,.13-.17-1.52-.34-3.03-.51-4.55,0-.08,0-.16,0-.24-.09-.82-.17-1.63-.26-2.45-.07-.65-.16-1.28-.23-1.91Z"/><path id="q" class="em" d="M751.92,848.06c.02-.1,0-.2-.02-.3-.08-.76-.14-1.52-.23-2.28-.03-.23,.06-.51-.11-.68s-.44-.09-.66-.11c-.73-.09-1.47-.16-2.2-.24-.39-.08-.78-.13-1.18-.13-.46-.06-.92-.13-1.38-.18-.72-.08-1.44-.15-2.16-.22l-.28-.04-4.12-.48v-.06l2.06-.24c1.11-.13,2.23-.26,3.34-.38,1.07-.12,2.14-.24,3.21-.36,1.06-.12,2.12-.24,3.18-.35,.17-.02,.24-.11,.26-.28,.13-1.32,.26-2.64,.41-3.96s.3-2.66,.44-3.99,.27-2.69,.41-4.03c0-.07,.02-.13,.04-.27,.1,.28,.14,.57,.14,.87,.21,1.95,.41,3.9,.61,5.85,.19,1.85,.39,3.69,.59,5.54,0,.16,.12,.29,.27,.29,0,0,.01,0,.02,0,1.27,.14,2.53,.27,3.8,.42,1.29,.15,2.57,.3,3.86,.45,1.27,.15,2.53,.28,3.8,.43,.1-.01,.2,.03,.27,.1l-3.96,.46c-2.09,.24-4.18,.48-6.26,.72-.49,.06-.97,.11-1.46,.15-.21,.02-.31,.09-.33,.32-.26,2.45-.52,4.9-.78,7.36-.16,1.56-.32,3.11-.48,4.67,0,.05-.03,.1-.08,.13-.17-1.52-.34-3.03-.51-4.55,0-.08,0-.16,0-.24-.09-.82-.17-1.63-.26-2.45-.07-.65-.16-1.28-.23-1.91Z"/><path id="r" class="em" d="M879.92,968.06c.02-.1,0-.2-.02-.3-.08-.76-.14-1.52-.23-2.28-.03-.23,.06-.51-.11-.68s-.44-.09-.66-.11c-.73-.09-1.47-.16-2.2-.24-.39-.08-.78-.13-1.18-.13-.46-.06-.92-.13-1.38-.18-.72-.08-1.44-.15-2.16-.22l-.28-.04-4.12-.48v-.06l2.06-.24c1.11-.13,2.23-.26,3.34-.38,1.07-.12,2.14-.24,3.21-.36,1.06-.12,2.12-.24,3.18-.35,.17-.02,.24-.11,.26-.28,.13-1.32,.26-2.64,.41-3.96,.14-1.32,.3-2.66,.44-3.99,.14-1.33,.27-2.69,.41-4.03,0-.07,.02-.13,.04-.27,.1,.28,.14,.57,.14,.87,.21,1.95,.41,3.9,.61,5.85,.19,1.85,.39,3.69,.59,5.54,0,.16,.12,.29,.27,.29,0,0,.01,0,.02,0,1.27,.14,2.53,.27,3.8,.42,1.29,.15,2.57,.3,3.86,.45,1.27,.15,2.53,.28,3.8,.43,.1-.01,.2,.03,.27,.1l-3.96,.46c-2.09,.24-4.18,.48-6.26,.72-.49,.06-.97,.11-1.46,.15-.21,.02-.31,.09-.33,.32-.26,2.45-.52,4.9-.78,7.36-.16,1.56-.32,3.11-.48,4.67,0,.05-.03,.1-.08,.13-.17-1.52-.34-3.03-.51-4.55,0-.08,0-.16,0-.24-.09-.82-.17-1.63-.26-2.45-.07-.65-.16-1.28-.23-1.91Z"/><path id="s" class="em" d="M1841.92,1007.06c.02-.1,0-.2-.02-.3-.08-.76-.14-1.52-.23-2.28-.03-.23,.06-.51-.11-.68s-.44-.09-.66-.11c-.73-.09-1.47-.16-2.2-.24-.39-.08-.78-.13-1.18-.13-.46-.06-.92-.13-1.38-.18-.72-.08-1.44-.15-2.16-.22l-.28-.04-4.12-.48v-.06l2.06-.24c1.11-.13,2.23-.26,3.34-.38,1.07-.12,2.14-.24,3.21-.36,1.06-.12,2.12-.24,3.18-.35,.17-.02,.24-.11,.26-.28,.13-1.32,.26-2.64,.41-3.96,.14-1.32,.3-2.66,.44-3.99,.14-1.33,.27-2.69,.41-4.03,0-.07,.02-.13,.04-.27,.1,.28,.14,.57,.14,.87,.21,1.95,.41,3.9,.61,5.85,.19,1.85,.39,3.69,.59,5.54,0,.16,.12,.29,.27,.29,0,0,.01,0,.02,0,1.27,.14,2.53,.27,3.8,.42,1.29,.15,2.57,.3,3.86,.45,1.27,.15,2.53,.28,3.8,.43,.1-.01,.2,.03,.27,.1l-3.96,.46c-2.09,.24-4.18,.48-6.26,.72-.49,.06-.97,.11-1.46,.15-.21,.02-.31,.09-.33,.32-.26,2.45-.52,4.9-.78,7.36-.16,1.56-.32,3.11-.48,4.67,0,.05-.03,.1-.08,.13-.17-1.52-.34-3.03-.51-4.55,0-.08,0-.16,0-.24-.09-.82-.17-1.63-.26-2.45-.07-.65-.16-1.28-.23-1.91Z"/></g><g><path class="fd" d="M1408.5,467.6c-365.93,45.27-910.44-72.52-1398.92-151.11v36.95c401.85,72.04,773.49,202.15,1056.11,227.33,281.22,25.06,539.14-59.95,857.89-183.92v-78.9c-157.7,69.98-326.5,126.32-515.08,149.65Z"/><path class="fd" d="M1226.42,631.34c-396.18-3.76-745.98-142.89-1216.84-173.85v184.8c91.57,1.09,187.31,7.65,286.99,21,866.95,116.13,1094.21,115.87,1627.01-14.64v-192.8c-220.55,93.18-434.76,177.98-697.16,175.49Z"/><path class="fd" d="M1447.48,91.53c-401.88,42.59-926.64,7.89-1437.9-.17v61.15c487.54,12.07,1028.17,59.48,1675.39-43.95,83.43-13.33,162.84-28.19,238.61-44.17V0c-147.25,40.64-307.41,73.65-476.1,91.53Z"/><path class="fd" d="M1388.04,953.76c-396.06,33.48-893.57-18.35-1381.47-45.75v45.35c486.61,22.44,1025.15,81.06,1674.67-8.53,83.9-11.57,163.48-21.92,239.33-31.21v-8.34c-185.85,17.83-368.48,34.61-532.53,48.48Z"/><path class="fd" d="M9.58,763.25v27.35c618.66-39.5,1282.81,60.97,1914,107.44v-101.16c-662.4-6.41-1382.75-61.26-1914-33.63Z"/></g><g id="t"><g class="fk"><g id="v"><g id="w"><g class="ex"><g id="y"><rect id="aa" class="ew" x="1.99" y="935.2" width="380.87" height="147.71"/></g></g></g><g id="ab"><g class="ek"><g id="ad"><g id="ae" class="eq" transform="translate(630.216 143.683)"><g id="af"><g class="ev"><g id="ah"><g id="ai"><g class="ff"><g id="ak"><rect id="am" class="ga" x="389.17" y="1023.48" width="12.72" height="16.28"/></g></g></g></g></g></g></g><g id="an" class="eq" transform="translate(0 5.746)"><g id="ao"><g class="gd"><g id="aq"><g id="ar"><g class="eu"><g id="at"><rect id="av" class="fo" x="1.99" y="938.73" width="380.87" height="144.18"/></g></g></g></g></g></g></g><g id="aw" class="eq" transform="translate(663.916 170.826)"><g id="ax"><g class="ge"><g id="b`"><g id="ba" transform="translate(0 0)"><g class="gb"><g id="bc"><rect id="be" class="fg" x="409.88" y="1040.15" width="19.11" height="42.76"/></g></g></g></g></g></g></g><g id="bf" class="eq" transform="translate(618.691 232.925)"><g id="bg"><g class="ej"><g id="bi"><g id="bj" transform="translate(0 0)"><g class="fn"><g id="bl"><rect id="bn" class="fe" x="382.09" y="1078.3" width=".77" height="4.61"/></g></g></g></g></g></g></g><g id="bo" class="eq" transform="translate(630.216 157.808)"><g id="bp"><g class="ft"><g id="br"><g id="bs"><g class="fq"><g id="bu"><rect id="bw" class="fr" x="389.17" y="1032.15" width="14.84" height="50.76"/></g></g></g></g></g></g></g><g id="bx" class="eq" transform="translate(378.427 103.747)"><g id="by"><g class="fl"><g id="ca"><g id="cb"><g class="eo"><g id="cd"><rect id="cf" class="fi" x="234.48" y="998.94" width="15.44" height="68.77"/></g></g></g></g></g></g></g><g id="cg" class="eq" transform="translate(416.605 41.489)"><g id="ch"><g class="en"><g id="cj"><g id="ck"><g class="fy"><g id="cm"><rect id="co" class="fs" x="257.94" y="960.69" width="35.58" height="122.22"/></g></g></g></g></g></g></g><g id="cp" class="eq" transform="translate(72.929 118.685)"><g id="cq"><g class="gc"><g id="cs"><g id="ct" transform="translate(0)"><g class="f`"><g id="cv"><rect id="cx" class="fw" x="46.8" y="1008.12" width="96.03" height="74.79"/></g></g></g></g></g></g></g><g id="cy" class="eq" transform="translate(0 201.171)"><g id="d`"><g class="fm"><g id="db"><g id="dc" transform="translate(0 0)"><g class="ey"><g id="de"><rect id="dg" class="g`" x="1.99" y="1058.8" width="3.04" height="24.12"/></g></g></g></g></g></g></g><g id="dh" class="eq" transform="translate(41.039 126.743)"><g id="di"><g class="es"><g id="dk"><g id="dl" transform="translate(0)"><g class="fb"><g id="dn"><rect id="dp" class="fa" x="27.2" y="1013.07" width="30.63" height="69.84"/></g></g></g></g></g></g></g><g id="dq" class="eq" transform="translate(234.331 144.96)"><g id="dr"><g class="ep"><g id="dt"><g id="du" transform="translate(0.001)"><g class="fj"><g id="dw"><rect id="dy" class="fp" x="145.96" y="1024.26" width="46.72" height="44.15"/></g></g></g></g></g></g></g><g id="e`" class="eq" transform="translate(314.523 168.442)"><g id="ea"><g class="fx"><g id="ec"><g id="ed"><g class="er"><g id="ef"><rect id="eh" class="fh" x="195.22" y="1038.69" width="18.58" height="29.08"/></g></g></g></g></g></g></g></g></g></g></g></g></g><path class="fc" d="M426.99,1084.98v-66.37c-63.62-3.78-135.39-5.91-211.33-5.91s-150.98,2.22-215.67,6.17v66.11H426.99Z"/></g></g></g></svg>