<svg width="118.47" height="39" xmlns="http://www.w3.org/2000/svg">
 <defs>
  <style>.cls-1{fill:#fff;}</style>
 </defs>
 <title>Sin título-1</title>
 <g>
  <title>Layer 1</title>
  <path stroke="null" id="svg_1" d="m24.59425,11.30619a10.80095,10.58785 0 0 0 -7.07705,2.50361l0,-9.86907l-4.94323,0l0,19.2778a11.99557,11.75889 0 0 0 3.35316,8.24576a11.36119,11.13703 0 0 0 8.66713,3.55351a11.34471,11.12087 0 0 0 8.65065,-3.55351a11.98733,11.75081 0 0 0 3.34492,-8.24576a11.96261,11.72659 0 0 0 -3.1719,-8.12462a11.46005,11.23394 0 0 0 -8.82366,-3.78772zm6.07193,15.56276a6.64864,6.51746 0 0 1 -2.54576,2.54399a6.99467,6.85666 0 0 1 -3.53441,0.89645a7.02762,6.88897 0 0 1 -3.54265,-0.89645a6.6816,6.54977 0 0 1 -2.53752,-2.54399a7.28302,7.13933 0 0 1 -0.94745,-3.59389a7.10177,6.96165 0 0 1 2.08439,-5.09606a6.59097,6.46093 0 0 1 4.94323,-2.08365a6.59097,6.46093 0 0 1 4.94323,2.08365a7.12649,6.98588 0 0 1 2.09263,5.09606a7.41484,7.26855 0 0 1 -0.95569,3.59389zm75.79616,-11.77504a12.02028,11.78312 0 0 0 -17.67204,0a11.98733,11.75081 0 0 0 -3.1719,8.07616a12.02852,11.7912 0 0 0 3.34492,8.24576a12.16034,11.92041 0 0 0 17.3013,0a12.02852,11.7912 0 0 0 3.34492,-8.24576a11.99557,11.75889 0 0 0 -3.14719,-8.07616zm-2.71878,11.77504a6.6816,6.54977 0 0 1 -2.53752,2.54399a7.2995,7.15548 0 0 1 -7.07705,0a6.6816,6.54977 0 0 1 -2.53752,-2.54399a7.29126,7.1474 0 0 1 -1.02984,-3.59389a7.13473,6.99396 0 0 1 2.08439,-5.09606a6.81342,6.67899 0 0 1 9.88646,0a7.12649,6.98588 0 0 1 2.09263,5.09606a7.29126,7.1474 0 0 1 -0.88154,3.59389zm-49.23455,-4.38536a18.94904,18.57517 0 0 1 -0.33779,4.5065a4.33356,4.24806 0 0 1 -1.75485,2.36632a6.1296,6.00866 0 0 1 -6.44267,0a4.33356,4.24806 0 0 1 -1.75485,-2.36632a19.44336,19.05974 0 0 1 -0.33779,-4.5065l0,-10.67669l-4.94323,0l0,10.98358c0,3.09317 0.3625,5.37872 1.10399,6.98588a8.74951,8.57688 0 0 0 3.50145,3.83618a10.78448,10.5717 0 0 0 5.65176,1.37295a10.78448,10.5717 0 0 0 5.65176,-1.37295a8.74951,8.57688 0 0 0 3.49321,-3.86848c0.74972,-1.61523 1.11223,-3.89271 1.11223,-6.98588l0,-10.95127l-4.94323,0l0,10.67669zm24.66671,-9.82869a8.51883,8.35075 0 0 0 -4.77021,-1.34872a9.88646,9.69139 0 0 0 -4.77845,1.17912a11.11402,10.89474 0 0 0 -1.91138,1.30834l0,-9.85292l-4.94323,0l0,30.55212l4.94323,0l0,-8.60919a25.67183,25.16532 0 0 1 0.34603,-5.28181a6.385,6.25902 0 0 1 2.16678,-3.33545a5.50346,5.39488 0 0 1 3.64151,-1.32449a4.22646,4.14307 0 0 1 2.73525,0.80762a4.39123,4.30459 0 0 1 1.4253,2.42285a23.63687,23.17051 0 0 1 0.2554,4.45804l0,10.86244l4.94323,0l0,-11.62967c0,-2.9801 -0.31307,-5.13644 -0.95569,-6.59015a8.18928,8.0277 0 0 0 -3.09776,-3.61812z" class="cls-1"/>
 </g>
</svg>