<?xml version="1.0" encoding="UTF-8"?><svg xmlns="http://www.w3.org/2000/svg" xmlns:xlink="http://www.w3.org/1999/xlink" viewBox="0 0 1078.25 1012.96"><defs><style>.q{fill:url(#o);}.q,.r,.s,.t{mix-blend-mode:screen;}.u{fill:#bbc5e3;}.u,.v,.w,.x,.y,.a`,.aa,.ab,.ac,.ad,.ae,.r,.af,.ag,.ah,.s,.ai,.aj{fill-rule:evenodd;}.u,.ai{mix-blend-mode:soft-light;}.v{fill:url(#j);}.w{opacity:.7;}.w,.af,.ah,.aj{mix-blend-mode:multiply;}.w,.aj{fill:#864577;}.x{fill:url(#g);}.y,.ai{fill:#fff;}.ak{fill:#5c396b;}.a`{fill:#361537;}.al{isolation:isolate;}.aa{fill:#9d89b8;}.ab{fill:url(#h);}.ac{fill:url(#k);}.ad{fill:url(#f);}.ae{fill:url(#m);}.r{fill:url(#e);}.r,.af,.ah,.s,.aj{opacity:.5;}.af{fill:url(#n);}.ag{fill:url(#l);}.ah{fill:url(#i);}.s{fill:url(#d);}.t{fill:url(#p);}</style><linearGradient id="d" x1="155.7" y1="1012.96" x2="155.7" y2="290.17" gradientTransform="matrix(1, 0, 0, 1, 0, 0)" gradientUnits="userSpaceOnUse"><stop offset="0" stop-color="#000"/><stop offset="1" stop-color="#4a59d6"/></linearGradient><linearGradient id="e" x1="239.12" y1="989.73" x2="239.12" y2="311.12" xlink:href="#d"/><linearGradient id="f" x1="354" y1="395.52" x2="354" y2="170.49" gradientTransform="matrix(1, 0, 0, 1, 0, 0)" gradientUnits="userSpaceOnUse"><stop offset="0" stop-color="#9089bf"/><stop offset="1" stop-color="#d1bdf1"/></linearGradient><linearGradient id="g" x1="569" y1="380.37" x2="569" y2="0" gradientTransform="matrix(1, 0, 0, 1, 0, 0)" gradientUnits="userSpaceOnUse"><stop offset="0" stop-color="#aea9ed"/><stop offset="1" stop-color="#eae1f9"/></linearGradient><linearGradient id="h" x1="610.46" y1="216.54" x2="610.46" y2="12.56" gradientTransform="matrix(1, 0, 0, 1, 0, 0)" gradientUnits="userSpaceOnUse"><stop offset="0" stop-color="#6a6fe2"/><stop offset="1" stop-color="#5b2d74"/></linearGradient><linearGradient id="i" x1="287.86" y1="193.27" x2="850.15" y2="193.27" gradientTransform="matrix(1, 0, 0, 1, 0, 0)" gradientUnits="userSpaceOnUse"><stop offset="0" stop-color="#8b7cbd"/><stop offset="1" stop-color="#724577"/></linearGradient><linearGradient id="j" x1="0" y1="318.18" x2="388.95" y2="318.18" xlink:href="#g"/><linearGradient id="k" x1="825.01" y1="290.17" x2="1078.25" y2="290.17" xlink:href="#g"/><radialGradient id="l" cx="190.73" cy="286.45" fx="190.73" fy="286.45" r="43.66" gradientTransform="matrix(1, 0, 0, 1, 0, 0)" gradientUnits="userSpaceOnUse"><stop offset="0" stop-color="#55dbd6"/><stop offset="1" stop-color="#4aa1ff"/></radialGradient><radialGradient id="m" cx="964.42" cy="280.62" fx="964.42" fy="280.62" r="37.88" xlink:href="#l"/><linearGradient id="n" x1="438.2" y1="108.91" x2="640.75" y2="108.91" gradientTransform="matrix(1, 0, 0, 1, 0, 0)" gradientUnits="userSpaceOnUse"><stop offset="0" stop-color="#c77cbd"/><stop offset="1" stop-color="#974577"/></linearGradient><radialGradient id="o" cx="803.85" cy="232.17" fx="803.85" fy="232.17" r="63.91" gradientTransform="translate(844.28 -603.56) rotate(76.66)" gradientUnits="userSpaceOnUse"><stop offset="0" stop-color="#0056ff"/><stop offset="1" stop-color="#000" stop-opacity="0"/></radialGradient><radialGradient id="p" cx="528.95" cy="248.52" fx="528.95" fy="248.52" r="63.91" gradientTransform="translate(330.66 -301.24) rotate(45)" gradientUnits="userSpaceOnUse"><stop offset="0" stop-color="#0056ff"/><stop offset="1" stop-color="#000"/></radialGradient></defs><g class="al"><g id="a"/><g id="b"><g id="c"><g><path class="s" d="M226.73,290.17S-13.75,647.41,41.28,1012.96c0,0,15.09-383.73,237.02-634.04l-51.58-88.75Z"/><path class="r" d="M357.47,311.12S33.86,624.18,88.9,989.73c0,0,0-331.69,306.75-595.89l-38.18-82.72Z"/><g><path class="ad" d="M278.85,190.19s-52,48.81-84.24,163.27l18.72,42.06h100.19l199.88-15.15-178.39-209.88-56.16,19.7Z"/><path class="x" d="M850.15,331.9s-47.21-230.74-219.81-312.55c0,0-88.72-32.59-234.31-13.17,0,0-64.48,58.24-108.16,152.53l25.65,221.67h199.88l336.75-48.47Z"/><path class="ab" d="M778.05,205.33c-23.09,13.44-172.79,16.42-236.91-.07-12.21-3.17-21.34-7-25.88-11.62-28.41-28.82-87.18-168.95-75.56-172.9,39.7-13.52,146.16-10.05,201.05,8.83,65.02,22.38,164.74,159.75,137.3,175.77Z"/><path class="ah" d="M396.02,6.17s85.69,98.13,117.38,321.19l336.75,4.53-336.75,48.47h-199.88l-25.65-221.67S339.86,55.4,396.02,6.17Z"/><polygon class="w" points="513.4 327.36 313.51 380.37 513.4 380.37 850.15 331.9 513.4 327.36"/><path class="aj" d="M291.01,185.92l-12.16,4.27s-57.55,64.06-84.24,163.27l18.72,42.06h100.19l199.88-15.15h-199.88l-22.5-194.45Z"/><polygon class="aj" points="278.85 190.19 305.19 380.37 213.33 395.52 313.51 395.52 513.4 380.37 313.51 380.37 291.01 185.92 278.85 190.19"/><path class="aj" d="M287.86,158.7s15.46-40.21,66.14-35.01c50.68,5.2,75.44,225.94,75.44,225.94l-115.93,30.74-25.65-221.67Z"/><path class="u" d="M369.21,132.08l60.23-74.87s16.69,29.77,27.54,57.35l-76.64,32.91-11.13-15.38Z"/><path class="u" d="M388.95,165.34l78.24-24.98s16.78,45.34,24.98,79.77l-80.94,20.73s-12.53-53.61-22.27-75.51Z"/><path class="ak" d="M428.98,349.7c-.26-1.81-26.39-181.44-57.71-213.99-9.36-9.73-21.46-13.76-34.92-11.72-21.52,3.28-40.83,20.44-48.07,34.93l-.83-.42c7.35-14.69,26.93-32.1,48.77-35.43,13.8-2.1,26.15,2.05,35.73,11.99,31.52,32.76,57.7,212.69,57.96,214.5l-.92,.13Z"/><path class="v" d="M388.95,290.72l-4.72-49.87s-149.76-2.55-379.94,122.31l-4.29,18.31,5.33,14.04s162.36-38.25,302.64-55.86l80.98-48.94Z"/><path class="ac" d="M825.01,251.8s148.74,19,253.24,56.5l-4.16,20.25c-88.91-10.87-161.33-15.09-229.36-18.2l-19.71-58.54Z"/><path class="aj" d="M4.29,363.17l10.4,8.6s219.17-81.46,374.26-81.05l-80.98,48.94s-110.07,12.87-302.64,55.86l-5.33-14.04,4.29-18.31Z"/><path class="w" d="M1074.09,328.54s-67.96-16.74-235.74-37.82l6.37,19.62c70.3,3.13,140.76,7.53,229.36,18.2Z"/><path class="w" d="M388.95,290.72l-75.44,89.65-100.19,15.15-17.11-38.44L5.33,395.52l9.36-23.75s181.73-68.98,374.26-81.05Z"/><path class="aj" d="M563.19,320.88s11.68-31.17,27.47-43.98c15.79-12.81,174.89-16.78,192.06-15.31,17.17,1.47,50.14,62.31,50.14,62.31l-269.66-3.01Z"/><path class="a`" d="M563.19,320.88l252.81,3.01s-24.44-42.64-45.76-49.4c-21.32-6.76-178.76,1.4-185.63,8.52-6.87,7.12-21.42,37.87-21.42,37.87Z"/><polygon class="ak" points="689.93 272.29 689.26 271.64 697.48 263.16 681.23 216.6 682.11 216.29 698.55 263.4 689.93 272.29"/><polygon class="ak" points="904.49 313.86 904.42 312.93 964.44 308.01 965.47 276.92 966.41 276.96 965.33 308.87 964.92 308.91 904.49 313.86"/><polygon class="ak" points="191.33 320.45 181.83 283.72 182.74 283.49 192.23 320.22 191.33 320.45"/><path class="ag" d="M133.5,301.97l19.37,7.66,73.86-19.46,21.23-26.9s-72.78,20.92-114.46,38.7Z"/><path class="ae" d="M912.86,266.07l12.71,16.94,71.99,12.16,18.41-6.03s-57.96-15.16-103.12-23.07Z"/><path class="af" d="M640.75,29.56s-80.44,53.44-99.61,175.69c-12.21-3.17-21.34-7-25.88-11.62-28.41-28.82-87.18-168.95-75.56-172.9,39.7-13.52,146.16-10.05,201.05,8.83Z"/><path class="ai" d="M585.77,29.73s70.44,30.41,135.3,105.82l35.26,1.42s-39.72-74.75-107.06-104.12c0,0-27.79-8.82-63.51-3.12Z"/><path class="ai" d="M573.68,29.73s53.55,17.71,134.99,107.24l-73.2,3.39s-47.51-83.15-126.33-108.14c0,0,27.62-2.48,64.55-2.48Z"/><circle class="q" cx="803.85" cy="232.17" r="63.91" transform="translate(392.47 960.76) rotate(-76.66)"/><circle class="t" cx="528.95" cy="248.52" r="63.91" transform="translate(-20.8 446.81) rotate(-45)"/><path class="aa" d="M368.67,134.76s31.76,28.94,46.79,154.28c0,0-12.47-103.12-46.79-154.28Z"/><path class="y" d="M493.6,225.74s58.79,12.58,69.59,22.48c10.79,9.9-60.39,17.84-60.39,17.84,0,0-4.36-20.16-9.2-40.32Z"/><path class="y" d="M812.04,221.24s-28.19,13.19-29.32,19.61c-1.13,6.42,42.3,10.95,42.3,10.95,0,0-7.66-19.22-12.98-30.56Z"/></g></g></g></g></g></svg>