<?xml version="1.0" encoding="UTF-8"?><svg id="a" xmlns="http://www.w3.org/2000/svg" viewBox="0 0 987.25 774.81"><defs><style>.b{fill:#f4f4f4;}.c{fill:#fff;}.d{fill:#9575a1;}.e{fill:#613c6f;}</style></defs><path class="e" d="M348.94,214.21c.93,2.49,3.16,4.39,3.26,7.27-1.95-2.2-4.03-4.3-4.15-7.5,.29,.08,.59,.15,.89,.23Z"/><path class="d" d="M242.5,216.58c-1.63,1.09-3.16,2.42-5.32,2.22-.34-.34-.68-.68-1.02-1.02,1.97-1.19,4.16-1.17,6.35-1.21Z"/><path class="e" d="M255.41,223.43c-.28-.77-.56-1.53-.84-2.3l.16-.14c.95,.49,1.42,1.27,1.46,2.33-.26,.04-.52,.07-.77,.11Z"/><path class="e" d="M251.29,215.35c.62-.17,.93,.19,1.14,.64,.25,.52,.77,1.03,.21,1.64-.62,.17-.93-.19-1.13-.65-.23-.52-.79-1.02-.22-1.63Z"/><path class="e" d="M254.57,221.12c-.62-.4-1.32-.77-1.16-1.68,.02-.14,.39-.36,.52-.32,.94,.31,.64,1.19,.8,1.87l-.15,.13Z"/><path class="d" d="M694.8,372.75c-.45,1.16-1.68,1.24-2.56,1.8-1.11,.7-2.29,1.3-3.45,1.94,.04-.34,0-.71,.31-.96,1.98-.75,3.58-2.3,5.69-2.78Z"/><path class="d" d="M696.18,328.72c-.73,1.34-2.16,1.53-3.38,2.08-.26-.17-.43-.39-.36-.73,1.48,.2,2.31-1.43,3.75-1.35Z"/><path class="e" d="M688.82,376.79l-.31,.45c-.02-.24,.04-.42,.31-.45Z"/><g><path class="e" d="M563.56,60.39c.21-.83-.1-2.22,1.2-2.1,1.47,.14,1.65,1.8,2.35,2.84-1.31,.35-2.5,.13-3.55-.74Z"/><path class="e" d="M621.65,69.54c1.21-1.91,2.88-3,6.08-3.01-1.64,2.67-3.63,3.18-5.93,3.16l-.15-.15Z"/><path class="e" d="M631.79,64.68c-.58,.35-1.15,.7-1.74,1.03-.03,.01-.21-.26-.32-.39,.61-.27,1.22-.54,1.83-.82l.23,.19Z"/><g><path class="b" d="M244.42,551.95c-47.22-.17-94.44-.34-141.66-.53-1.76,0-3.52-.3-5.28-.46,.03-1.04-.25-1.93-1.17-2.53,.12-1.66-.69-2.94-1.52-4.33-4.73-7.9-9.35-15.87-14.01-23.82,4.23-1.34,8.21-3.11,11.69-6.04-1.83-1.97-3.12-.38-4.49,0-1.56-2.1-3.44-.94-4.62,.07-3.76,3.24-5.63,1.32-7.51-2.09-3.51-6.34-6.94-12.76-10.93-18.8-3.58-5.41-5.4-12.12-11.26-15.94,1.08-8.84,4.38-17.1,6.97-25.53,1.51-4.92,1.58-9.39,.06-14.35-4.75-15.41-9.07-30.96-13.56-46.45,1.64-.62,3.4-1.04,4.91-1.88,11.96-6.65,23.95-13.24,35.75-20.15,3.86-2.26,9.11-2.89,10.81-8.1l1.23-.93c.44,.83,.82,.81,1.15-.07l-.04,.03c7,.13,11.63-5.2,17.45-7.77,8.03-3.54,7.69-3.92,12.01,3.43,1.07,1.82,.93,5.9,5.12,4.3,2.85,1.45,2.62-.13,1.72-1.89-2.12-4.13-4.39-8.19-6.61-12.27,3.56-2.33,7.11-4.67,10.67-7,37.54,0,75.09-.02,112.63,0,7.11,0,14.22,.1,21.33,.15-.05,.34-.08,.68-.1,1.03-1.18,.89-.96,1.63,.26,2.25h0c.85,2.85,.97,6.2,4.75,7.11h-.02c.06,2.66,.11,5.33,3.58,5.94l-.03-.02c0,2.71,.14,5.32,3.58,5.95l-.03-.02c.14,.76-.39,2.37,1.37,1.07,4.72-1.3,.67-3.44,.15-4.63-2.8-6.41-8.18-11.49-9.74-18.58,38.24,.13,76.48,.25,114.72,.37-.19,2.79-2.8,2.89-4.48,4.02-7.67,5.17-16.86,7.8-23.74,14.28h0c-4.68,.24-7.67,3.69-11.96,5.76,2.09,1.48,3.45-.08,4.83,.12,1.94,2.07,3.86,.24,5.28-.49,7.33-3.77,14.72-7.52,21.62-11.99,6.01-3.89,13.29-5.81,18.11-11.54,19.68,0,39.36-.07,59.03-.01,38.45,.12,76.9,.31,115.36,.47,3.68,8.74,9.18,16.46,13.8,24.67,.51,.9,1.31,2.89,3.07,1.07,.64,.14,1.29,.28,1.93,.42,.25,.12,.5,.25,.76,.38-.13-.25-.27-.49-.4-.74-.74-2.89-2.6-5.22-3.86-7.84-2.92-6.1-7.92-11.12-9.31-18,28.05,0,56.1-.01,84.15-.02,.38,.54,.8,.64,1.28,.12,20.11,.03,40.23,.06,60.34,.09,.35,.22,.7,.45,1.05,.67,3.47,10.23,10.08,18.71,15.64,27.76,.36,.59,1.75,.55,2.66,.8,2.14-.25,1.96-1.38,1.09-2.81-1.71-2.82-3.63-5.54-5.04-8.5-2.89-6.05-7.96-10.96-9.2-17.85,46.61,.17,93.22,.35,139.83,.52,2.36,0,4.72-.06,7.08-.09-.12,.23-.14,.47-.05,.71,2.28,6.25,6.05,11.68,9.54,17.27-6.05,3.3-12.14,6.52-18.11,9.96-1.1,.63-4.23,.7-2.02,3.48-1.57,2.6-.97,3.32,1.73,1.89,5.74-3.02,11.45-6.11,17.16-9.2,2.09-1.13,3.83-1.75,5.35,1.04,3.29,6.02,6.44,12.17,10.36,17.77,3.87,5.54,5.43,12.65,11.36,16.78l.38,.08,.38-.07c-4.19,13.94-8.31,27.9-12.64,41.8-1.11,3.55-1.03,6.78-.01,10.36,3.81,13.43,8.56,26.59,11.43,40.28-16.48,7.76-31.79,17.66-47.84,26.19-1.09,.58-1.04,1.52-.04,2.31,1.26,3.93,2.37,1.76,3.48-.09h-.01c1.63,.19,2.96-.38,4.4-1.21,7.1-4.09,14.12-8.4,21.52-11.9,6.48-3.06,11.69-8.72,19.29-9.43h1.22c5.13,17.17,10.25,34.35,15.41,51.51,.64,2.11,1.11,3.87-2.14,3.83-24.61-.31-49.21-.59-73.82-.88,.38-2.63-1.67-4.21-2.72-6.21-1.96-3.7-5.09-6.8-5.76-11.17,4.75-3.76,10.22-6.32,15.5-9.2,.85-.46,2.66-.79,1.49-2.35-.41-.55-1.79-.37-2.73-.53-4.97-.71-8.5,2.65-12.18,4.87-4.12,2.49-6.55,2.67-8.43-2.15-.55-1.41-1.75-2.61-3.54-2.74-1.45,.16-3.8,0-2.13,2.36,1.73,2.44,2.21,5.79,5.18,7.34-4.94,2.77-10.05,5.28-14.78,8.38-5.78,3.79-12.7,5.76-17.55,11-7.44,1.44-14.95,.62-22.42,.65-24.67,.08-49.34,.03-74.02-.02-2.55,0-5.09-.35-7.64-.54-2.89-7.09-7.13-13.41-11.3-19.77-2.63-4-3.67-9.1-8.17-11.8-2.89-.11-3.52,1.05-2.03,3.52,2.02,3.36,4.14,6.67,5.92,10.16,3.09,6.06,8.17,11.06,9.6,18-29.22,.03-58.44,.13-87.66,.07-19.32-.04-38.64-.32-57.96-.5,.11-.22,.17-.45,.17-.7,18.13-10.2,36.26-20.4,54.39-30.6-.17-.36-.34-.72-.52-1.08h-3.51c-2.24-.27-4.25,.31-6.21,1.41-10.3,5.78-20.78,11.25-30.88,17.35-7.36,4.44-15.54,7.52-22.12,13.26-14.12,1.33-28.28,.34-42.42,.46-21.04,.18-42.08-.23-63.12-.38-.8-1.22-1.61-1.22-2.41,0l-33.18-.07c-2.66-1.39-4.54-3.48-6.02-6.1-4.37-7.7-8.76-15.39-13.42-22.91-1.33-2.14-1.92-5.48-5.57-5.41-4.39,1.3-.99,3.47-.26,4.76,5.54,9.89,11.29,19.66,16.98,29.47-27.12,.04-54.23,.1-81.35,.1-8.45,0-16.9-.17-25.34-.26,19.32-10.76,38.65-21.51,57.95-32.3,.86-.48,2.64-.81,1.55-2.37-.39-.55-1.79-.4-2.73-.56-2.45-.34-4.58,.46-6.7,1.64-10.6,5.93-21.36,11.57-31.81,17.75-8.56,5.06-17.84,8.92-25.65,15.23-10.91,1.62-21.84,.74-32.77,.32-6.43-11.5-12.2-23.41-20.45-33.81l.04,.05c-.18-1.48-.4-2.92-2.3-1.26-.89-.09-2.78-1.33-1.88,1.02,1.04,2.73,2.79,5.18,4.09,7.82,4.31,8.78,10.96,16.25,14.35,25.54-.05,.33-.09,.66-.13,1Zm389.29-192.89c3.15-.21,5.79-1.37,8.99-5.11-4.48,1.35-7.28,2.26-9.23,4.86-.15,.22-.3,.45-.44,.67l.69-.43Zm-10.67,5.91c3.16-.16,5.73-1.4,7.53-4.11-3.05,.35-5.82,1.28-7.76,3.88-1.4,.36-2.97,.45-3.68,2.17,2.03,.68,3.42,.29,3.91-1.93Zm40.12-22.77c-3.23,1.24-6.72,2.07-8.56,5.57,3.02-1.62,7.15-1.29,8.78-5.31l2.48-.68c-.11-.15-.18-.39-.32-.43-.99-.29-1.77,.07-2.38,.86Zm51.18,146.08c6.69,.58,13.37,.46,20.06,.07,4.36-.27,3.04-3.73,3.07-6.01,.18-13.94,.15-27.88,.17-41.82q.02-12.29,12.21-13.04c2.79-.17,5.89-.1,4.84-4.46,.15-3.34,.23-6.69,.48-10.02,.36-4.67-1.28-6.65-6.38-6.57-15.99,.25-31.98,.25-47.96-.13-5.86-.14-7.99,1.99-7.36,7.56,.16,1.36,.02,2.76,.02,4.14,.01,7.63,1.21,8.86,8.82,9.07,1.38,.04,2.79,.24,4.14,.02,4.95-.78,5.85,1.63,5.79,6.04-.25,16.18-.19,32.36-.13,48.54,0,2.18-1.05,4.87,1.79,6.33-.31,.85,.13,.45,.44,.27Zm-130.31-.21c5.93,.05,11.87-.16,17.77,.25,4.68,.32,5.79-1.74,5.59-5.88-.21-4.33-.19-8.7,.13-13.03,.21-2.76-1.77-7.04,1.23-7.9,2.31-.66,3.64,3.77,5.06,6.2q12.25,21.05,33.46,20.62c.2,0,.4,0,.59,0,1.54-.1,3.48,.44,4.37-1.08,.93-1.58-.64-3.02-1.43-4.24-4.72-7.38-9.52-14.7-14.46-21.93-2.47-3.62-3.77-6.67,1.04-9.55,2.4-1.44,3.32-4.32,4.57-6.75,8.59-16.81-1.1-36.63-19.92-38.25-12.55-1.08-25.27-.15-37.91-.12-3,.04-2.71,2.23-2.71,4.19,0,24.4-.01,48.8,0,73.2,0,1.91-.42,4.17,2.62,4.26ZM116.13,404.21c-3.1,.66-3.21,3.17-3.22,5.53-.05,24.1-.03,48.2-.04,72.3,0,2.29,.14,4.46,3.15,4.73,4.74,0,9.47,0,14.21,0q8.78,0,8.78-8.52c0-9.55,0-19.11,0-29.36,2.37,1.25,3.14,2.44,3.99,3.8,4.42,7.12,9.83,13.75,13.34,21.28,5.18,11.12,13.08,14.57,24.84,13.17,5.38-.64,7.13-1.94,7.06-7.32-.25-19.16,.13-38.33-.14-57.5-.29-20.81,4.28-17.5-18.89-17.85-3.72-.05-5.29,1.42-5.22,5.29,.16,9.28,.06,18.57-.06,27.86-.02,1.36,.92,3.2-1.6,4.26-6.91-10.83-13.94-21.62-20.71-32.58-2.16-3.5-4.54-5.39-8.92-5.1-5.5,.37-11.05,.03-16.58,0Zm256.24,44.99c4.86,7.7,8.93,13.81,12.65,20.13q11.05,18.76,29.37,18.29c.2,0,.4-.02,.59,0,3.75,.36,5.13-1.18,5.11-5.09-.1-23.88-.02-47.76,.14-71.63,.03-3.96-1.13-5.88-5.39-5.61-4.13,.26-8.31,.32-12.43-.01-5.39-.44-6.88,2.18-6.79,7.02,.16,8.48,.04,16.97-.01,25.46,0,1.11,.29,2.59-1.18,3-1.53,.44-1.87-1.14-2.45-2.02-2.69-4.07-5.26-8.2-7.89-12.31-7.39-11.53-12.66-26.17-31.25-21.24-.37,.1-.79,.01-1.18-.02-3.62-.32-4.87,1.48-4.87,4.93,0,24.07-.04,48.15-.19,72.22-.02,3.54,1.29,5.06,4.83,4.97,4.54-.12,9.1-.28,13.62,.05,4.9,.36,6.61-1.45,6.46-6.39-.31-10.02-.24-20.06,.86-31.74Zm90.84,40.74c.69,0,2.66,.07,4.63-.01,11.5-.48,22.79-9.14,25.38-19.44,2.9-11.5-1.42-22.16-12.17-28.8-5.28-3.25-11.02-5.76-16.54-8.62-2.22-1.15-5.53-2.09-3.9-5.35,1.29-2.58,4.43-3.25,7.28-2.33,3.87,1.26,8,2.29,11.32,4.48,3.48,2.29,4.56,.33,5.87-1.93,1.55-2.69,2.83-5.53,4.31-8.26,3.43-6.33,2.64-8.51-4.04-11.77-8.6-4.2-17.79-5.66-27.02-3.96-13.13,2.43-20.53,9.91-22.82,23.39-1.6,9.43,3.74,17.31,11.89,22.45,5.25,3.31,10.99,5.85,16.38,8.95,1.95,1.13,4.69,2.44,4.04,5.22-.69,2.97-3.62,3.1-6.25,3.32-6.79,.57-11.99-3.01-16.98-6.73-3.09-2.3-5.36-2.23-7.32,.9-2.37,3.77-4.23,7.88-6.77,11.52-2.77,3.96-1.32,5.88,2.2,8.36,8.84,6.23,18.51,9.04,30.51,8.61Zm85.79-86.11c-8.65-.76-17.91,2.07-26.82,8.07-23.07,15.55-26.74,44.77-6.72,65.09,13.34,13.54,30.12,15.29,47.52,12.73,11.24-1.65,11.44-3.04,8.98-14.13-.64-2.87-1.08-5.78-1.74-8.65-.89-3.85-2.75-4.91-6.85-3.34-6.75,2.6-13.54,4.32-21.09,1.39-6.92-2.69-12.44-7.67-13.41-14.72-1.16-8.38,1.84-15.24,8.56-19.1,8.26-4.74,16.94-4.69,25.39-.96,4.54,2,6.75,.76,7.81-3.46,1.24-4.96,2.26-9.99,3.06-15.04,.49-3.06-1.74-4.27-4.27-5.47-5.98-2.84-12.28-2.23-20.43-2.42Zm-308.75-1.06c-23.41-1.72-42.93,19.87-42.86,41.74,.07,23.05,16.61,47.2,47.28,44.71,20.55-1.67,38.2-19.4,38.41-43.86,.19-22.65-17.36-43.69-42.82-42.59Zm566.13,1.95c-22-1.4-42.6,17.35-42.91,41.83-.31,24.77,18.8,45.82,43.9,44.8,22.9-.93,41-19.47,41.43-43.23,.45-24.99-20.22-44.79-42.41-43.4Zm-495.07,40.72h-.14c0,12.04,.09,24.08-.05,36.12-.05,3.98,1.27,5.82,5.47,5.63,5.12-.23,10.27-.11,15.4-.05,2.73,.03,3.88-1.16,3.9-3.9,.11-24.47,.27-48.94,.44-73.41,.02-3.51-1.61-4.89-5.12-4.74-4.53,.19-9.1,.31-13.62-.02-5.11-.38-6.46,1.88-6.36,6.62,.24,11.25,.08,22.5,.08,33.75Zm348.63,1.82h-.07c0,11.84,.03,23.67-.02,35.51-.01,3.04,.3,5.58,4.27,5.56,5.52-.03,11.05,.05,16.57,.1,2.68,.02,3.85-1.22,3.85-3.97,0-24.66,.07-49.31,.14-73.97,0-2.96-1.29-4.27-4.31-4.19-4.54,.12-9.09,.28-13.61-.04-5.06-.36-7.08,1.37-6.93,6.68,.32,11.43,.1,22.88,.1,34.32Zm-16.23-93.96c2.54,0,4.72-.64,6.56-3.44-3.26,.07-5.09,1.4-6.56,3.44Z"/><path class="b" d="M560.05,743.21c-3.74,.11-3.33-2.89-3.37-5.01-.29-12.55,.7-24.96,2.8-37.41,1.46-8.65,2.17-17.45,4.12-26.05,1.23-5.45,2.23-10.96,3.32-16.44,.16-2.21,1.54-4.98-1.31-6.2-2.48-1.06-3.66,1.72-5.3,2.95-4.35,3.26-8.78,6.45-12.91,9.97-5.49,4.67-12.62,7.87-13.42,16.67-.45,4.92-2.3,9.74-3.71,14.55-2.07,7.07-7.2,11.18-13.77,11.28-5.43-3.22-7.07-7.78-4.71-13.64,2.58-6.4,6.75-11.69,11.79-16.35,6.58-6.07,7.15-13.87,2.25-23.23-.48-1.77,.5-3.92-1.65-5.75-4.6,5.64-9.32,11.05-14.75,15.74-10.51,9.1-19.97,20.34-36.09,18.57-5.38-1.75-7.39-6.09-7.97-11.11-1.82-15.7,4.25-28.58,15.13-39.36,5.59-5.55,9.69-5.64,16.58-1.66,.29,1.91,1.26,4.03,.75,5.7-3.91,12.81-12.57,21.48-24.57,26.98-1.4,.64-3.3,.48-3.21,2.66,.2,4.73,.84,9.28,5.94,11.51,8.71-.1,15.41-4.93,21.37-10.26,8.13-7.26,15.27-15.62,23.17-23.16,4.77-4.55,2.39-10.44,3.74-15.6,1.99-7.58,9.93-15.38,17.31-15.46,1.53-.02,3.17-.4,4.37,1.11,1.14,1.45,4.26,1.22,3.83,3.88-.41,2.54-2.92,2.1-4.76,2.57-9.56,2.45-15.52,14.26-11.73,24.73,1.64,4.55,2.75,8.98,2.89,13.72,.11,3.85,2.18,4.63,4.87,2.6,9.65-7.28,19.73-13.99,28.77-22.08,2.55-2.29,3.07-5.38,3.97-8.24,2.61-8.3,4.87-16.69,8.69-24.56,1.55-3.18,1.9-3.35,4.97-1.32-.23,1.92-.62,3.72-1.35,5.61-6.72,17.35-10.66,35.52-15.29,53.48-2.61,10.11-2.42,20.75-5.73,30.75-.42,1.27-.81,3.07,1.45,4.78,.28-3.57,3.74-5.47,3.03-9.15,3.44-.61,1.92-3.58,2.62-5.5,2.71-.79,2.8-3.15,3.19-5.32,.18-.93-.04-2.04,1.12-2.55,1.69-.02,2.54-.66,1.83-2.46,.16-.68,.32-1.37,.48-2.05,3.66-3.5,5.38-7.96,6.32-12.8,6.15-10.62,12.41-21.16,21.06-30.02,5.99-6.13,12.86-8,19.05-5.29,3.05,3.08,2.62,7.02,2.49,10.79-.16,4.4,1.61,6.13,5.95,4.98,.87-.36,1.74-.72,2.6-1.07,1.03,.19,1.71-.15,1.89-1.25,7.85-3.77,15.98-6.34,22.41-13.36,6.47-7.07,12.42-8.6,18.16-2,1.32,13.01-13.79,28.84-23.06,30.91-4.13,.92-4.54,3.09-4.25,6.25,.34,3.7,1.79,6.75,5.52,8.23,10.12,.65,17.04-5.77,23.75-11.63,7.43-6.48,13.88-14.1,20.78-21.19,3.62-3.72,5.31-8.41,7.01-13.17,.7-1.95,1.11-5.55,4.73-2.53,1,2.93,.44,5.84-.54,8.58-2.36,6.55-5.53,12.87-7.24,19.57-1.02,4-2.95,8.16-2.22,14.3,4.98-8.78,9.13-16.1,13.28-23.42,.06-.87,.12-1.73,.18-2.6l-.05,.06c2.35,.6,2.94-1.77,4.05-2.79,6.95-6.34,13.2-5.73,17.61,2.54,1.9,3.55,2.88,4.56,6.9,2.09,6.56-4.04,11.87-9.34,17.21-14.63,4.58-4.54,9.72-6.03,15.34-3.66,2.99,1.26,4.56,.28,5.89-1.53,2.95-4.02,5.39-8.42,8.35-12.44,1.73-2.36,4.01-5.11,6.56-.52-.03,.59,.11,1.26-.13,1.75-5.56,11.64-9.65,23.74-12.17,36.42-.48,2.43-.26,4.51,.98,5.96,1.86,2.16,2.81-.69,4.11-1.51,5.36-1.31,8.78-5.49,12.75-8.78,2.52-2.09,4.34-5.04,6.89-7.09,4.2-3.39,5.55-7.35,5.31-12.78-.46-10.45,8.76-20.28,18.29-20.4,1.18-.02,2.39-.09,3.08,1.17,2.06,2.92,.49,3.66-2.26,4.13-7.17,1.24-14.93,9.48-14.15,16.24,1.05,9.1,3.07,18.11,5.06,27.08,.62,2.81,2.6,4.73,5.28,1.25,10.19-7.54,20.46-14.97,30.52-22.68,2.19-1.68,3.97-2.17,6.31-.93,.5,3.05-1.65,4.71-3.58,6.29-6.62,5.4-13.36,10.66-20.05,15.99-2.13,1.7-4.08,3.68-6.39,5.08-7.3,4.43-13.29,9.51-12.69,19.22,.14,2.26-.44,4.79-1.4,6.86-2.98,6.46-5.44,13.6-14.06,14.76-7.33-2.72-9.33-8.83-4.9-16.38,2.41-4.12,4.92-8.58,8.51-11.52,6.33-5.2,7.36-11.43,6.22-18.77-.3-1.93-.29-3.91-.43-5.87-1.38-4.1-3.03-5.48-6.92-1.83-4.56,4.28-9.4,8.37-13.98,12.58-3.12,2.86-7.89,2.11-9.88,6.05-5.31-.15-8.29-2.54-8.05-8.19,.09-2.13-.06-4.26-.11-6.4-.18-2.04,.72-4.25-.98-6.34-3.39,1.82-5.23,5.08-7.76,7.64-5.49,5.55-9.28,13.18-17.88,15.04-2.46,.3-4.59-.42-4.52-3.16,.16-6.29-1.7-9.17-8.91-8.84-3.97,.18-7.88-3.48-10.95-6.74-.88-4.45-2.83-4.5-5.56-1.36-2.04,2.34-3.87,4.74-5.41,7.53-5.96,10.8-10.02,22.45-15.31,33.54-1.03,2.16-2.35,3.51-4.76,3.68-3.6-.28-4.71-2.63-4.36-5.75,.62-5.64,1.43-11.26,2.27-16.87,.19-1.3,1.53-2.81,.08-3.75-1.41-.91-2.74-.07-4.08,1.18-6.21,5.86-12.67,11.21-20.59,14.99-13.61,6.52-26.27-.09-25.58-14.54,.13-2.74-.09-5.5-.19-8.25-.07-1.83,2.52-3.87,.4-5.3-1.88-1.28-3.45,1.3-5.26,1.91-7.17,2.44-11.72,6.97-14.62,14.45-4.07,10.49-10.55,19.69-20.01,26.56-4.59,3.33-8.48,2.51-12.36-.38-3.66-2.73-3.5-5.85-1.71-10.27,4.31-10.61,12.32-17.82,21.08-24.05,7.45-5.31,9.23-12.15,9.04-20.33-1.35-2.62-2.87-5.99-6.36-3.58-4.16,2.88-8.49,6.11-11.34,10.18-9.58,13.7-18.27,27.8-24.55,43.6-6.63,16.69-12.54,33.47-16.95,50.84-.74,2.9-.31,6.47-3.52,8.41Zm253.9-59.29l.09-.06c4.28-.67,3.49-4.56,4.61-7.24-.44-1.74,.91-3.94-1.49-5.42-3.22,3-5.73,6.44-7.41,10.42-1.15,2.71-.72,4.74,2.95,4.42,1.01-.36,1.19-1.21,1.26-2.13Zm-208.77-7.13l.05-.05c4.15-1.22,6.14-4.28,7.03-8.27-.26-2.3,3.62-3.5,1.31-6.72-5.68,4.14-9.92,9.55-13.81,15.23-.74,1.08-2.52,2.74-.62,3.99,1.77,1.17,2.37-1.51,3.77-1.97,1.46-.02,2.19-.78,2.28-2.21Zm-114.36-38.79c-1.15-5.35-4.31-2.82-6.28-1.16-5.62,4.74-10.01,10.42-11.28,17.94,3.11,1.41,4.15-2.07,6.45-2.22,4.89-3.95,10.56-7.3,11.1-14.56Zm170.04,4.78c5.33-3.09,10.47-6.32,10.71-13.46-2.05-4.06-4.86-3.2-7.16-.63-2.95,3.3-5.8,6.71-7.89,10.75-1.18,2.28-2.95,5.87-1.78,6.59,2.34,1.43,4.44-1.32,6.12-3.26Zm114.05-16.08c-1.17-3.1-3.07-2.59-4.98-.86-4.05,3.68-8.63,7.21-10.73,12.25-1.57,3.76-5.36,7.77-1.83,12.85,.96-.8,1.9-1.41,2.62-2.23,.49-.56,.67-1.4,.98-2.12,7.72-4.21,11.37-11.84,15.82-18.8-.63-.36-1.25-.72-1.88-1.08Zm-248.85,61.04c.45-1.33,.42-2.06-.56-2.37-.85-.26-1.44,.19-2.05,.77-3.19,3.01-4.89,6.97-6.86,10.73-.54,1.02-.52,2.43,.81,3.06,1.1,.53,2.51,.59,3.2-.57,2.29-3.84,5.47-7.29,5.46-11.63Z"/><path class="b" d="M340.55,222.46c1.22-3.41,4.71-3.85,7.31-5.24,9.92-5.33,19.6-11.25,30.76-13.86-6,5.85-14.45,7.98-20.65,13.61,7.48-1.77,13.66-6.19,20.07-10.01,2.68-1.6,6.64-1.8,7.71-5.68,3.16,.19,5.88-.41,6.96-3.92l-.05,.19c1.48,.05,3.05,.28,3.66-1.63,13.13-4.97,26.8-7.77,40.55-10.32,1.42-.26,2.61-.07,3.96,.5,1.39,.58,3.48,1.25,4.53,.63,12.11-7.11,25.51-3.78,38.33-4.87,5.23-.44,10.57,.28,15.86,.47,1.15,5.11,1.68,5.41,6.71,3.61-1.48-1.21-2.86-2.36-4.25-3.5,40.77,2.51,78.98,13.7,114.77,33.41,19.07,10.5,36.71,22.95,52.63,37.75,8.31,7.73,16.82,15.33,23.52,24.63,.39,.4,.79,.81,1.18,1.21h0c-.04,1.4,.11,2.68,.97,3.92,6.31,9.04,11.39,18.81,16.87,28.35-6.03,1.9-12.06,3.79-18.09,5.69h-4.17c-3.77-5.47-8.52-10.29-11.03-16.59h0c1.62-.07,4.89,.9,4.37-.9-.69-2.37,2.37-4.36-.14-6.56-1.98-1.74-3.34-1.18-5.15,.02-2.99,2-5.26,.6-7.91-1.34-5.41-3.96-5.49-10.79-9.13-15.66-1.11-1.48,.52-2.52,1.84-2.97,1.48-.51,3.09-.6,4.58-1.1,2.3-.77,3.5-2.46,3.41-4.94-.09-2.25-1.41-3.71-3.4-4.38-2.23-.75-4.52-.34-5.81,1.7-1.78,2.81-5.19,4.9-4.24,9.08,.17,.77-.61,1.75-1.15,3.17-18.34-17.64-39.05-31.2-60.82-43.27,3.18-2.37,7.6-2.78,10.05-6.31l.51-.02h.51c.48,1.25,.73,2.67,1.49,3.72,1.56,2.17,3.8,2.63,6.24,1.53,2.2-.99,3.2-2.8,3.05-5.17-.18-2.85-2.26-3.82-4.61-4.59-2.53-.82-3.96,1.05-5.72,2.15-1.09,.36-1.55,1.17-1.59,2.27-4.73,.08-8.04,3.64-12.27,4.97-12.48-4.22-24.25-10.37-37.09-13.64-.66-.17-1.7-1.33-1.68-1.35,3.72-4.81-1.66-3.17-2.57-3.07-15.58,1.7-30.16-5.02-45.47-5.31-.55-.01-1.1-.4-1.65-.62-.74-.81-1.48-1.61-2.22-2.42-.06-1.53-.11-3.06-.17-4.59,1.16-.15,2.34-.25,3.49-.46,3.1-.56,5.04-2.27,4.78-5.59-.24-3.05-2.35-4.54-5.16-4.61-3.23-.08-5.02,1.83-5.31,5.06-.11,1.27,.6,2.86-1.4,3.32-.27-2.54-1.12-4.74-3.56-6h0c-.38-2.45-.85-4.82-4.13-4.75-1.02,.28-2.23,1.04-1.59,1.95,2.87,4.05,3.32,9.81,8.52,12.21l1.94-.39c.77,1.36,1.53,2.72,2.3,4.08,.03,.75,.07,1.5,.1,2.25-28.08-1.25-55.86,.58-83.09,8.11-4.11,1.14-8.14,2.86-12.68,1.9-1.32-.28-3.16,.51-4.38,1.36-10.65,7.5-23.13,10.95-34.89,16.01-2.81-4.33-5.62-8.66-8.43-12.99-5.94-2.87-11.92-1.6-17.9-.15v-.07Zm354.85,87.97c2.2,.08,3.5-.96,3.9-3.12,.59-.36,1.58-.55,1.04-1.51-.16-.28-1.03-.16-1.57-.22,.26-.93,.55-1.84,.77-2.78,.84-3.51-.51-5.89-3.99-6.65-3.21-.7-5.59,.86-6.12,4.03-.58,3.5,1.4,5.52,4.88,6.06,1.11,.17,2.36-.57,3.35,.46-.9,1.08-1.8,2.16-2.69,3.26-1.79,.25-2.34,1.29-1.67,2.88,.17,.4,1.11,.91,1.31,.78,1.18-.77,.64-2.09,.79-3.2Zm-127.09-113.43c-2.13,1.18-5.32,1.18-2.67,4.31,1.76,2.08,.85,4.06,.39,6.05-.76,3.32-.17,6,3.36,6.96,2.65,.72,5.12-.02,6.28-2.88,1.27-3.15-.07-5.23-2.92-6.67-.96-.48-3.26-.22-1.48-2.52,3.78-4.91-2.44-2.98-2.97-5.25Zm-35.56,.87c-2.88-.89,1.55-6.54-4.12-6.28-4.5,.2-5.94,3.51-6.36,6.9-.38,3.08,1.86,5.15,5.12,4.99,3.05-.15,5.04-1.87,5.37-5.61Zm153.13,86.94c-.03-4.8-1.91-6.46-5.19-6.21-3.07,.23-5.47,1.88-5.27,5.2,.18,3.01,1.98,5.28,5.4,5.03,3.18-.22,5-2.08,5.06-4.02Zm-225.71-83.78c3.18-.32,5.02-2.13,4.99-5.33-.03-3.29-2.28-5.15-5.29-5.03-2.9,.12-5.33,1.83-5.13,5.23,.19,3.17,2.17,4.87,5.42,5.13Zm175.84,38.24c-.18-3.03-2.18-4.64-5.29-4.74-3.38-.11-5.12,2.2-5.15,5.16-.03,3.12,2.12,5.11,5.3,5,3.04-.1,5.16-1.68,5.15-5.43Zm17.92,13.92c-.03-3.65-2.21-5.23-5.19-5.37-3.2-.15-5.22,1.91-5.24,5.03-.02,3.1,1.88,5.16,5.13,5.16,3.19,0,4.98-1.85,5.3-4.83Zm-166.24-58.61c.06-4.33-3.51-4.62-6.15-4.77-2.85-.16-4.5,2.32-4.29,5.13,.23,3.08,2.1,5.13,5.44,4.92,3.2-.2,4.98-2.03,5-5.28Zm-114.15,29.29c3.05-.43,5.2-1.85,5.11-5.21-.09-3.27-2.16-5-5.28-5-3.21,0-5.18,2.06-5.16,5.14,.02,3.15,2.19,4.79,5.33,5.07Zm69.33-25.21c-.32-3.37-2.31-5.15-5.44-5.02-2.82,.12-4.93,1.91-4.95,4.9-.02,3.18,1.78,5.16,5.14,5.22,3.42,.06,4.87-2,5.25-5.1Zm-53.86,11.81c.46,3.05,2.14,4.95,5.4,4.87,3.26-.09,5.15-2.15,5.1-5.21-.05-3.16-2.32-4.98-5.41-4.9-3.09,.08-5,1.87-5.09,5.25Zm160.34-12.61c-3.24,.38-5.27,2.26-5.26,5.38,.01,2.85,1.96,4.84,4.91,4.9,3.15,.07,5.36-1.57,5.47-4.94,.1-3.37-2.04-4.89-5.13-5.35Zm42.56,25.05c3.2-.37,5.08-2.18,4.91-5.42-.15-2.96-2.02-4.68-5.05-4.61-3.17,.08-5.34,1.68-5.29,5.03,.05,3.31,2.19,4.83,5.43,5Zm-176.21-24.38c-3.23,.28-5.26,1.96-5.14,5.23,.11,2.88,1.88,4.7,4.92,4.78,3.28,.09,5.34-1.59,5.43-4.85,.09-3.3-2.05-4.88-5.21-5.16Zm74.47-12.09c-.09-.62-.18-1.23-.26-1.85-4.43,1.7-8.78,.5-13.16,.41-1.94-.04-3.89,.41-5.82,.74-1.19,.2-2.37,.67-2.1,2.22,.21,1.22,1.36,1.47,2.29,1.34,6.36-.9,12.7-1.9,19.05-2.86Z"/><path class="b" d="M745.86,146.81c-11.51-8.31-22.82-16.92-34.57-24.87-28.1-19-58.26-34.01-90.27-45.28-1.47-.52-3.11-.71-4.15-2.08,1.25-1.24,2.51-2.48,3.76-3.72,.39-.39,.78-.78,1.17-1.18,2.31,.02,4.3-.49,5.93-3.16-3.2,.02-4.87,1.1-6.08,3.01-.4,.38-.8,.76-1.2,1.14-2.54,.19-5.06,.4-5.88,3.49-15.82-4.35-31.64-8.69-47.46-13.04-.7-1.04-.88-2.7-2.35-2.84-1.3-.12-.99,1.27-1.2,2.1-16.01-2.02-31.92-4.81-48.04-6.09-34.38-2.72-68.5-.49-102.51,4.58-.07-1.65-.8-2.87-2.28-3.63-.24-1.05,.22-2.43-1.24-2.92-.2-.07-.77,.28-.81,.5-.25,1.42,.84,2,1.81,2.63,.44,1.2,.88,2.39,1.32,3.59-19.53,3.89-38.77,9-57.94,14.34,.92-1.9,2.8-2.71,4.45-3.64,11.45-6.43,22.98-12.73,34.47-19.1,1.83-1.01,4.21-1.42,4.72-4,35.6-7.66,71.59-10.18,107.92-8.28,17.09,.89,34.13,2.25,50.9,5.94,.18,4.98,3.43,8.27,6.47,11.7-.17-4.48-3.64-7.46-5.09-11.34,23.76,3.08,46.61,9.73,69.09,17.79,1.62,.58,3.18,1.35,4.76,2.03-.61,.27-1.22,.54-1.83,.82,.11,.14,.29,.41,.32,.39,.59-.32,1.17-.68,1.74-1.03,15.02,4.29,28.97,11.17,42.87,18.07,28.52,14.13,55.01,31.45,79.54,51.75,1.61,1.33,3.85,2.24,4.04,4.81-.43,.88-.86,1.75-1.28,2.63h-.02c-1-.02-1.88,.21-2.37,1.2h.02c-3.28,.34-5.69,2.74-8.72,3.69ZM405.37,46.46c-.9,.96-.02,1.73,.34,2.54,.32,.72,.8,1.28,1.76,1.01,.88-.95,.06-1.74-.32-2.55-.34-.7-.81-1.27-1.78-1Z"/><path class="b" d="M577.82,80.36c-36.37-8.42-73.2-12.58-110.52-10.71-104.92,5.27-194.26,45.27-267.62,120.62-1.65,1.69-3.35,3.32-5.03,4.98-3-.5-3.09-3.06-3.71-5.24,17.9-20.44,38.44-37.93,60.53-53.63,49.54-35.21,104.32-57.89,164.25-68.13,52.41-8.95,104.56-7.29,156.46,3.93,1.13,.24,2.18,.87,3.27,1.31,.79,2.29,1.59,4.58,2.38,6.87Z"/><path class="b" d="M180.44,719.7c-12.65-5.4-17.76-16.28-19.71-28.72-2.46-15.64,.78-30.82,4.21-46.17,2.58-11.57,8-21.95,10.87-33.26,2.42,.29,2.02-1.98,2.78-3.14,5.73-8.73,10.47-18.24,19.91-23.94,3.11-1.88,5.68-2.3,7.99,.98-.44,2.38-2.17,3.79-4.15,4.56-6.97,2.7-10.73,8.98-14.16,14.56-9.24,15.02-15.71,31.25-19.42,48.75-2.93,13.79-2.88,27.35-1.1,41.02,.46,3.54,1.61,7.71,5.53,9.8,.21,.11,.29,.28,.25,.51,.1,.94,.59,1.51,1.55,1.63,7.84,11.21,21.48,11.1,31.44,1.02,17.93-18.16,27.89-40.72,34.24-64.9,3.9-14.85,5.11-30.02,3.07-45.55-2.48-18.85-15.18-28.12-33.1-24.33-9.99,2.11-17.02,8.96-23.79,15.96-6.16,6.38-12.19,12.93-11.32,22.84-2.95,1.59-6.05,3.7-8.94,.21-2.53-3.05-1.39-6.23-.12-9.67,6.86-18.58,20.76-30.16,38.19-37.66,9.18-3.95,18.59-.79,27.33,3.09,4.41,1.96,8.29,4.88,11.15,8.92,.16,.94,.49,1.75,1.53,2.03l-.05-.1c.21,2.27,.58,4.44,3.35,4.99h0c-.61,4.61,1.41,8.71,2.32,13.03,1.57,7.43,1.03,14.73-.54,22.42-1.76,8.62-1.77,17.6-3.75,26.41-4.02,17.9-10.69,34.51-21.23,49.44-9.62,13.63-19.44,27.32-38.93,26.75l-2.95-.43-1.62-1.21c-.3,0-.58,.05-.85,.17Z"/><path class="b" d="M256.02,302.87c10.51-17.83,24.48-32.8,39.23-47.09,4.22-4.09,8.9-7.72,13.37-11.56,.7,.49,.94,.1,1.06-.54l-.09,.11c4.84,.61,7.83-3.19,11.56-5.08,7.66-3.87,15.03-8.31,22.52-12.52l-.77-1.55c-2.2,1.05-4.46,2-6.59,3.17-3.71,2.06-6.98,5.06-11.57,5.15,4.43-4.76,9.55-8.48,15.79-10.51v.07c1.63,1.71,4.01,1.39,6,2.16,1.27,.49,2.89,.36,2.14,2.46-1.28,3.61,.54,5.92,3.65,6.77,3.34,.91,5.56-1.11,6.68-4.28,2.82,2.03,4.02,5.11,5.28,8.15-15.69,9.55-31.04,19.54-44.79,31.84-17.18,15.36-32.1,32.59-44.28,52.15-1.68,2.7-3.29,5-6.97,3.61-.42-3.32-1.2-6.43-4.56-8.1-.45-.41-.89-.82-1.34-1.23v-.58c0-1.84,.2-3.8-2.47-4l.04,.05c.29-3.61-2.11-6-3.92-8.67Zm15.1-5.3c-2.81,.38-4.97,2.05-4.9,5.21,.07,3.05,1.95,5.18,5.24,5.08,3.11-.1,5.19-1.75,5.21-5.09,.01-3.4-2.24-4.72-5.55-5.2Zm34.44-28.78c-.19-2.87-2.11-4.57-5.19-4.75-3.31-.19-5.14,1.76-5.2,4.95-.06,3.18,1.78,5.24,4.98,5.24,3.08,0,5.05-1.8,5.42-5.44Zm16.39-14.49c-.21-3.23-1.86-5.2-5.08-5.22-3.14-.02-5.28,1.88-5.37,4.99-.09,3.15,2.02,5.12,5.14,5.19,3.12,.07,5-1.74,5.31-4.96Zm-37.55,36.03c4.15,.1,5.86-2,5.91-5.08,.06-3.33-2.24-4.94-5.42-4.9-2.97,.04-4.87,1.69-4.91,4.75-.05,3.29,1.78,5.06,4.41,5.22Zm55.48-50.01c-.49-2.38-1.9-4.65-5.25-4.6-2.87,.05-4.9,1.54-5.11,4.64-.23,3.37,1.71,5.38,4.81,5.53,3.04,.14,5.22-1.56,5.56-5.57Zm4.75-1.52c4.95,2.46,8.42,2.17,12.5-.77-4.31-.38-7.82-.68-12.5,.77Z"/><path class="b" d="M339.08,689.91c-4.58-1.65-7.48-4.7-8.05-9.67-.53-4.62-3.25-4.81-5.97-2.28-2.89,2.7-6.26,4.5-9.55,6.44-6.62,3.9-14.86,.03-16.66-7.59,0-4.92,.86-9.88-.8-14.7-.65-4.94-2.88-5.26-6.08-1.95-2.58,2.66-5.03,5.43-7.41,8.29-5.1,6.11-10.55,12.22-19.68,11.92-3.58-1.87-4.25-5.34-4.13-8.75,.27-7.98,2.64-15.57,5.45-22.95,1.08-2.85,2.3-6.68,6.99-5.01-.31,2.63-.7,5.09-1.66,7.73-1.89,5.19-4.26,10.43-4.43,16.14-.05,1.53-.32,3.73,.53,4.46,1.69,1.48,2.67-1.59,4.41-1.56,10.95-8.36,18.88-19.53,27.81-29.78,1.58-1.81,2.97-5.45,6.53-3.02,2.71,1.85,5.56,2.95,3.88,8.11-2.45,7.55-3,15.75-3.99,23.72-.25,2.03-1.38,5.13,1.66,6.2,2.25,.79,4.17-.38,6.31-1.89,9.44-6.69,16.55-15.36,22.92-24.82,3.59-5.33,7.6-10.23,13.55-13.34,4.91-2.56,8.72-.74,12.32,2.24,3.46,2.86,3.66,6.43,2.21,10.62-3.93,11.28-12.12,18.34-22.53,23.1-4.47,2.04-5.09,4.13-2.94,8.62,2.18,4.55,4.57,4.18,8.35,2.65,14.18-5.75,22.95-17.77,33.16-28.13,2.06-2.09,4.15-4.18,6.36-6.11,2-1.75,3.9-1.86,5.11,.99,.17,2.85-1.32,4.85-3.35,6.58-7.72,6.56-13.41,15.01-21.55,21.4-8.78,6.89-17.29,12.57-28.77,12.36Zm16.84-45.17c-1.55-4.55-4.76-2.87-6.78-1.12-4.98,4.32-8.36,9.84-9.77,16.42l-.46,.58,.56-.48c2.78,.27,4.57-1.22,5.99-3.37,5.85-1.95,8.93-6.32,10.46-12.03Z"/><path class="b" d="M45.52,386.09c-4.27-14.34-8.5-28.69-12.84-43-.88-2.89-1.22-4.98,2.88-4.95,29.33,.25,58.65,.44,87.98,.65,1.12,1.77,1.63,3.65,1.06,5.73-2.3-.13-4.14,1.1-6.01,2.14-15.21,8.46-30.49,16.8-45.54,25.53-5,2.9-10.7,4.79-14.72,9.28h0c-4.92-.27-7.74,5.3-12.81,4.61Z"/><path class="b" d="M95.37,292.6c11.79-29.8,27.61-57.38,46.85-82.91,9.63-12.79,18.62-26.2,30.68-37.02,1.34,.82,2.68,1.64,4.03,2.46l.02,.02c.35,2.21,.69,4.42,3.55,4.74h0c-.38,1.92,.58,3.51,1.31,5.15-12.97,15.37-25.8,30.84-36.9,47.66-14.61,22.14-27.05,45.41-36.96,70.03-.81,2.01-1.88,3.9-2.83,5.85-3.1-4.05-3.85-9.77-8.84-12.49h-.01c.12-1.28,.14-2.51-.89-3.48Z"/><path class="b" d="M721.41,289.59c-4.04,1.62-6.67,.52-9.39-3.16-12.42-16.81-26.15-32.46-42.4-45.76-1.64-1.34-3.31-2.56-3.02-5.28,.18-1.73-1.06-3.96-3.13-3.46-4.72,1.13-7.29-2.14-10.36-4.37-12.44-9.04-25.41-17.2-39.14-24.16-37.43-18.95-76.95-29.32-119.01-30.79-19.99-.7-39.69,.78-59.41,3.28,2.87-3.55,8.02-4,10.65-7.87,26.51-3.9,53.05-3.48,79.48,.33,51.22,7.38,97.36,27,138.19,58.8,21.1,16.43,39.67,35.41,55.29,57.19,1.01,1.41,2.42,2.68,2.19,4.68-.04,.2-.02,.4,.07,.58Z"/><path class="b" d="M599.25,80.1c11.4,1.71,21.88,6.41,32.43,10.61,48.32,19.26,91.37,46.8,128.84,82.96,2.07,2,4.96,3.69,3.07,7.36-.34,0-.68,.05-1,.18-4.06,2.28-5.63-1.57-7.59-3.45-20.5-19.76-43.03-36.84-67.32-51.65-29.26-17.85-60.46-31.29-93.23-41.17,.13-3.07,3.81-2.61,4.8-4.82Z"/><path class="b" d="M184.39,160.7c16.99-17.9,36.2-33.18,56.37-47.28,12.24-8.56,24.8-16.63,38.15-23.39,.17,5.37,4.99,8.62,6.16,13.54-14.2,8.9-28.41,17.8-42.61,26.7-7.38,2.91-14.3,6.62-20.44,11.7h.01l-1.2,1.18h0c-6.99,1.19-12.6,4.95-17.8,9.49h.01l-1.2,1.19h.02c-4.7,.48-8.71,2.37-11.87,5.93h0l-5.61,.94Z"/><path class="b" d="M858.37,299.67c-2.76-5.86-7.45-11.38-2.88-18.43,.78-1.19,.22-2.25-1.36-2.43-9.05-1-9.24-9.25-12.24-15.13-.46-.91-.29-2.22-1.09-3.19q-4.84-5.85,1.96-8.75c-2.79-2.88-7.74,1.4-9.95-3.06,5.4-.19,8.33-5.96,13.74-6.12,11.4,17.52,20.11,36.4,27.92,55.71,3.16,7.83,5.57,15.96,8.69,23.8,1.85,4.65,1.32,6.7-4.14,5.65-1.14-.22-2.34-.08-3.51-.11-2.45-5.48-4.48-11.24-9.74-14.87l.13,.17c-.48-5.58-3.21-9.87-7.55-13.25Z"/><path class="b" d="M326.33,83.49c-12.9,6.22-25.8,12.44-38.7,18.66-2.5-4.13-4.99-8.26-7.49-12.39,18.52-11.56,38.71-19.52,59.07-27.02,13.88-5.12,27.98-9.66,42.55-12.48,.53,.53,1.06,1.06,1.6,1.58v.02c-9.91,3.03-18.15,9.28-27.04,14.21-10.1,5.6-20.79,10.23-29.98,17.41Z"/><path class="b" d="M429.59,177.03c-23.31,4.67-45.75,11.98-67.35,21.91-21.22,9.76-40.76,22.19-58.77,36.98-3.91,3.21-7.48,4.55-12.24,2.26,1.27-3.44,3.87-3.83,7.09-3.61,2.62,.17,2.81-.23,1.28-2.45-1.65-2.41,.86-2.5,1.7-3.18,16.77-13.6,34.97-24.98,54.39-34.37,23.93-11.57,48.96-19.87,75.18-24.43,3.09-.54,6.26-.62,9.39-.91-2.73,3.72-8.25,3.64-10.67,7.79Z"/><path class="b" d="M34.12,541.56c5.24-20.05,10.98-39.95,17.92-59.49,7.9,11.95,15.33,24.17,21.73,36.99-1.66,2.69-4.75,3.18-7.19,4.65-4.41,2.66-9.48,4.27-12.99,8.34h0c-7.23,1.65-12.68,6.95-19.47,9.5Z"/><path class="b" d="M931.35,341.19c3.26-.62,5.69-.45,4.12,3.98-5.3,14.9-8.2,30.57-14.43,45.18-.66,1.55-.6,3.42-.88,5.14-8.59-10.79-14.56-23.15-21.06-35.19,3.41-1.95,6.87-3.81,10.23-5.86,7.32-4.46,15.29-7.83,22.02-13.25Z"/><path class="b" d="M92.72,551.11c-19.42,.04-38.84,.08-58.26,.14-2.89,0-4.24-.89-2.38-3.81,.36-.51,.71-1.03,1.07-1.54l-.36-.1c2.8,1.18,4.96-.49,7.16-1.69,11.18-6.14,22.36-12.26,33.43-18.59,2.2-1.26,3.54-2.13,5.17,.64,4.84,8.26,10.2,16.22,14.17,24.97Z"/><path class="b" d="M172.58,221.48c-8.61,12.5-17.55,24.78-25.14,37.95-11.25,19.52-20.92,39.79-28.66,60.96-.86,2.36-1.17,6.08-5.37,4.18-3.53-1.6-1.54-4.39-.82-6.48,9.9-28.69,23.87-55.34,40.64-80.56,3.7-5.56,7.1-11.36,11.9-16.12,1.23-.08,2.56,.16,3.44-1.06,.81-.03,1.63-.05,2.44-.08l1.57,1.21Z"/><path class="b" d="M191.09,724.06c9.78,4.58,19.73,8.75,30.14,11.72,3.29,.94,6.68,.3,10.02,.09,3.5-.22,8.12-.03,8.11,3.68-.01,4.26-4.91,4.54-8.6,4.59-10.72,.14-20.36-3.81-29.93-8.04-4.43-1.96-8.76-4.32-13.65-5.01-8.52-1.19-15.09,2.77-21.02,8.25-1.89,1.75-3.39,3.53-6.46,1.55-3.37-2.17-4.13-3.85-1.18-7.1,5.62-6.18,11.94-10.55,20.71-10.12,2.47,.43,4.88,.18,7.24-.64,1.54,.35,3.08,.69,4.61,1.04Z"/><path class="b" d="M191.09,724.06c-1.54-.35-3.08-.69-4.61-1.04-.21-.61-.41-1.23-.62-1.84,19.49,.56,29.31-13.13,38.93-26.75,10.55-14.94,17.21-31.54,21.23-49.44,1.98-8.82,1.99-17.79,3.75-26.41,1.57-7.69,2.11-14.99,.54-22.42-.91-4.33-2.94-8.42-2.32-13.02,3.78,2.95,4.28,7.61,4.87,11.61,2.27,15.42,.94,30.65-1.86,46.09-3.29,18.17-9.59,34.89-19.05,50.44-7.36,12.09-15.46,23.69-28.93,30.26-3.96,1.93-8.19,.64-11.91,2.53Z"/><path class="b" d="M822.66,251.94c8.23,11.63,14.75,24.27,20.15,37.34,4.54,10.98,10.56,21.39,13.5,33.01,.42,1.66,3.26,4.08-.33,5.31-2.6,.89-4.88,.29-6.02-2.96-8.48-24.07-19.24-47.07-32.44-68.92-.17-.29-.04-.76-.05-1.15,1.73-.88,3.46-1.75,5.19-2.63Z"/><path class="b" d="M760.88,140.31c2.86,2.18,5.78,4.31,7.98,7.23,3.87,10.28,10,19.26,16.21,28.19-2.49,6.15,4.23,5.87,6.22,8.89-2.2,1.59-3.89,3.43-6.74,.14-11.5-13.24-24.65-24.84-37.66-36.55,2.88-1.24,6.61-1.19,7.71-5.11h-.02c1.01,.06,1.93-.09,2.37-1.17h.02c1.6,.17,3.02-.1,3.92-1.62Z"/><path class="b" d="M560.05,743.21c3.21-1.93,2.78-5.51,3.52-8.41,4.41-17.37,10.31-34.15,16.95-50.84,6.28-15.8,14.97-29.9,24.55-43.6,2.85-4.07,7.18-7.3,11.34-10.18,3.49-2.41,5.01,.95,6.36,3.58-8.82-.86-11.96,6.85-15.89,11.86-12.06,15.37-20.41,32.94-26.97,51.35-2.11,5.93-4.53,11.76-6.81,17.63-3.34,.64-2.2,3.12-2.12,5.16-.06,1.04-.11,2.08-.17,3.12-1.97,1.07-3.32,2.35-1.6,4.68-.05,.79-.09,1.58-.14,2.37-2.62,.88-1.81,3.06-1.85,4.92-.09,1.53-.18,3.07-.27,4.6-2.39,.32-2.22,2.05-2.07,3.76-1.62,2.86-3.22,2.94-4.82-.01Z"/><path class="b" d="M903.85,568.98c6.65,.28,3.67,5.25,3.09,7.81-.9,4.05-3.2,7.81-5,11.65-7.77,16.56-15.73,33.12-19.88,50.98-1.04,4.49-4.99,9.57-1.06,14.86,.93,1.26-.61,2.6-1.7,3.4-2.48,1.83-3.02-1.85-4.9-1.85,.13-1.7,3.47-2.43,1.81-4.44-4.28-5.18-1.11-10.67,.38-15.05,4.92-14.44,11.12-28.45,16.83-42.62,1.92-2.22,2.24-5.23,3.43-7.77,2.58-5.5,6.23-10.69,6.99-16.96Z"/><path class="b" d="M267.33,270.34c-10.12,13.48-20.64,26.69-28.79,41.54-1.71,3.11-3.8,6.05-5.08,9.32-1.86,4.76-4.96,5.51-9.85,3.82,9.07-18.08,19.26-35.18,32.45-50.38,4.24-.18,6.75-4.88,11.27-4.3Z"/><path class="b" d="M136.65,617.54c5.49,.76,7.22,5.69,4.97,13.15-2.68,8.87-5.09,17.83-7.61,26.75-5.73,10.43-10.28,21.37-14.04,32.65-.09,.94-.18,1.88-.27,2.82-3.07,1.72-6.13,3.44-9.2,5.16,4.07-13.35,11.61-25.22,16.23-38.36,4.83-13.72,11.1-27.06,9.93-42.17Z"/><path class="b" d="M810.23,693.51c8.62-1.16,11.07-8.3,14.06-14.76,.96-2.08,1.54-4.6,1.4-6.86-.6-9.71,5.39-14.79,12.69-19.22,2.31-1.4,4.26-3.39,6.39-5.08,6.69-5.32,13.43-10.58,20.05-15.99,1.93-1.57,4.08-3.24,3.58-6.29,1.69,1.6,5.42,1.3,4.74,5.1l.03-.06c-12.25,9.72-24.4,19.58-36.83,29.08-3.49,2.67-4.63,5.74-5.25,9.84-1.38,9-3.36,17.91-10.86,24.24-3.31,2.79-6.67,3.88-10,0Z"/><path class="b" d="M689.69,317.4c1.39,0,2.78,0,4.17,0,3.1,3.29,8.32,2.92,11.3,6.77,1.06,1.37,4.24,.64,5.11-1.2,1.61-3.4,2.65-7.1,3.61-10.75,.22-.84-1.25-.35-1.94-.52-5.47-9.54-10.56-19.31-16.87-28.35-.87-1.24-1.01-2.52-.97-3.91,11.98,13.46,21.01,28.9,29.83,44.48,1.32,2.34,.96,3.6-2.15,3.53-7.87-.18-15.74-.16-23.61-.22-6.59-.05-5.73-6.51-8.48-9.85Zm31.48,7.31c.24,.48,.47,.97,.71,1.45,.14-.12,.43-.31,.41-.35-.23-.48-.51-.93-.78-1.4-.15-1.62-.96-2.81-2.38-3.61l-.71-.43,.4,.73c.09,1.64,.17,3.3,2.35,3.59Z"/><path class="b" d="M104.56,310.34c-.37,1.32-.69,2.65-1.12,3.95-3.95,12.01-3.95,11.88-16.27,11.27-3.45-.17-3.92-1.17-2.86-4.24,3.12-9.12,6.16-18.27,10.24-27.03,.57,.59,1.14,1.19,1.71,1.78h.01c1.6,5.44,4.42,10.16,8.29,14.28Z"/><path class="b" d="M136.65,617.54c1.17,15.11-5.1,28.45-9.93,42.17-4.62,13.13-12.16,25.01-16.23,38.36-1.93,.35-2.29-2.06-3.91-2.24,5.96-14.07,11.85-28.17,17.91-42.2,4.03-9.34,6.4-19.14,8.29-29.07,.34-1.78-.7-3.79-.9-5.72-.11-1.11-.26-2.52,1.19-3.02,1.68-.58,3.15-.46,3.58,1.71Z"/><path class="b" d="M569.56,690.98c.72,3.69-2.75,5.58-3.03,9.15-2.27-1.71-1.87-3.51-1.45-4.78,3.31-10,3.12-20.63,5.73-30.75,4.63-17.96,8.57-36.13,15.29-53.48,.73-1.89,1.11-3.69,1.35-5.61,2.86,.21,4.88,.54,3.48,4.54-2.94,8.38-5.58,16.88-7.92,25.45-2.78,10.18-6.54,20.13-7.79,30.7-2.98,.66-1.86,2.75-1.58,4.55-.11,.82-.22,1.64-.34,2.46-1.87,.2-3.16,.65-1.08,2.53l-.53,6.7c-3.86,2.07-1.45,5.7-2.13,8.56Z"/><path class="b" d="M174.72,170.35c1.09-.82,2.17-1.63,3.26-2.45,1.69,2.46,3.51,.84,5.1,0,4.82-2.55,9.47-5.44,14.33-7.88,7.56-3.8,14.17-9.42,22.49-11.75-12.16,11.54-24.32,23.08-36.49,34.62-.98-1.01-1.95-2.01-2.93-3.02h0c-.48-2.1-.73-4.38-3.55-4.73l-.02-.02c-.07-1.89,.63-4.15-2.2-4.76Z"/><path class="b" d="M176.33,289.39c5.4,.13,10.06,5.06,9.86,10.43-.2,5.49-4.85,9.82-10.5,9.77-5.47-.04-10.37-4.86-10.26-10.08,.12-5.66,5.07-10.25,10.9-10.12Z"/><path class="b" d="M777.68,301.16c.17-5.65,5.2-10.12,11.08-9.83,5.64,.27,9.97,4.98,9.65,10.5-.31,5.56-4.99,9.76-10.64,9.58-5.49-.18-10.24-5-10.09-10.25Z"/><path class="b" d="M516.5,707.53c6.56-.1,11.69-4.21,13.77-11.28,1.41-4.81,3.26-9.63,3.71-14.55,.8-8.8,7.94-12,13.42-16.67,4.13-3.52,8.56-6.71,12.91-9.97,1.64-1.23,2.82-4.01,5.3-2.95,2.85,1.22,1.47,3.99,1.31,6.2-1.41-1.68-2.41-1.56-4.21-.02-6.03,5.14-12.33,9.98-18.61,14.83-4.49,3.47-6.01,8-6.76,13.56-1.06,7.88-3.3,15.61-10.03,21.03-3.73,3-7.26,3.47-10.81-.18Z"/><path class="b" d="M873.17,630.35l-.03,.06c4.54-6.31,4.78-14.39,8.58-20.97,3.42-5.91,4.34-13.07,9.19-18.24,.16,1.51,.9,2.44,2.51,2.51-5.71,14.17-11.91,28.18-16.83,42.62-1.49,4.38-4.66,9.87-.38,15.05,1.66,2.01-1.69,2.74-1.81,4.44-3.98-.45-2.9-3.71-3.37-6.09-1.32-6.68,3.13-12.73,2.14-19.38Z"/><path class="b" d="M139.04,661.42c4.14-.46,4.92,1.77,4.68,5.36-.63,9.69-6.12,17.21-11.57,24.42-4.31,5.7-9.55,10.89-15.71,14.87-2.62,1.69-5.18,3-7.15-.83,4.66-2.79,8.62-6.36,11.83-10.75,10.55-8.54,16.46-19.6,17.92-33.07Z"/><path class="b" d="M698.64,684.17c2.4-.17,3.73-1.52,4.76-3.68,5.3-11.09,9.35-22.74,15.31-33.54,1.54-2.79,3.37-5.19,5.41-7.53,2.73-3.14,4.68-3.09,5.56,1.36-8.49,8.73-11.76,20.29-16.75,30.92-1.83,3.9-3.41,7.93-5.51,11.67-2.35,4.17-5.49,4.45-8.78,.81Z"/><path class="b" d="M899.1,360.3c6.51,12.04,12.47,24.4,21.06,35.19-.47,1.65-.93,3.3-1.4,4.95l-.38,.07-.38-.08c.22-3.21-1.85-5.54-3.28-8.03-5.48-9.52-11.46-18.76-16.62-28.45-2.22-4.17-4-4.08-7.52-1.98-6.05,3.62-12.35,6.81-18.55,10.18-2.2-2.79,.92-2.85,2.02-3.48,5.97-3.43,12.06-6.66,18.11-9.95,2.56-1.81,.49-3.53-.3-5.01-2.19-4.11-4.64-8.08-6.98-12.11,.06-.21,.13-.42,.19-.64,1.19-.22,2.38-.85,3.54,.09-.08,5.33,4.3,8.6,6.1,13.07,.62,1.55,2.4,1.68,3.56,.97,7.8-4.73,16.53-7.88,23.53-13.96,1.98,0,3.96,0,5.94,.01-8.69,4.92-17.41,9.78-26.03,14.81-1.46,.85-4.9,1.02-2.62,4.34Z"/><path class="b" d="M854.21,553.41c-2.37,.03-4.73,.06-7.1,.09-.81-1.21-1.61-1.22-2.42,0-8.31-.09-16.61-.19-24.92-.28,5.33-5.37,12.7-7.4,18.84-11.49,6.47-4.31,6.68-4.02,10.71,3.02,1.65,2.88,3.26,5.78,4.88,8.67Z"/><path class="b" d="M921.81,341.14c-7,6.07-15.73,9.23-23.53,13.96-1.16,.71-2.94,.58-3.56-.97-1.79-4.48-6.17-7.74-6.1-13.07,6.71-.01,13.42-.03,20.13-.04,.79,1.21,1.6,1.22,2.41,.02,3.55,.04,7.1,.08,10.65,.11Z"/><path class="b" d="M774.83,153.69c8.24,5.48,14.44,13.1,21.1,20.22,3.31,3.54,6.49,7.2,9.71,10.82,1.8,2.03,3.42,4.06-1.02,4.79-1.82-1.27-3.89-1.42-6.01-1.34-.52-2.68-3.23-3.18-4.8-4.81-1.02-7.9-1.8-8.66-8.13-7.9-.99-2.32-1.9-4.68-2.98-6.96-2.4-5.06-6.62-9.16-7.86-14.84Z"/><path class="b" d="M473.35,682.87c16.13,1.77,25.58-9.47,36.09-18.57,5.42-4.69,10.15-10.1,14.75-15.74,2.16,1.83,1.18,3.98,1.65,5.75-8.49,7.69-15.83,16.61-25.29,23.29-6.79,4.8-13.71,8.81-22.49,7.49-1.8-.27-4.14,.62-4.72-2.23Z"/><path class="b" d="M831.58,648.92c-2.68,3.47-4.66,1.56-5.28-1.25-1.98-8.97-4.01-17.97-5.06-27.08-.78-6.76,6.98-15,14.15-16.24,2.75-.47,4.33-1.21,2.26-4.13,2.43,.21,4.82,.5,4.76,3.78-.06,3.07-2.57,2.25-4.33,2.66-5.24,1.2-12.05,8.7-12.11,13.98-.1,9.78,2.3,19.14,5.61,28.28Z"/><path class="b" d="M339.08,689.91c11.48,.21,20-5.47,28.77-12.36,8.14-6.39,13.83-14.84,21.55-21.4,2.03-1.73,3.53-3.73,3.35-6.58,4.69,.13,4.38,3.11,2.29,5.4-11.94,13.09-22.85,27.59-39.59,35.01-4.8,2.13-10.97,4.51-16.38-.07Z"/><path class="b" d="M475.99,677.57c-5.1-2.23-5.74-6.78-5.94-11.51-.09-2.18,1.81-2.02,3.21-2.66,12-5.49,20.66-14.16,24.57-26.98,.51-1.67-.46-3.79-.75-5.7,5.26,4.32,5.04,11.81-.65,19.53-4.32,5.86-9.43,11-16.27,13.66-5.29,2.06-7.09,4.88-4.69,10.17,.47,1.03,.36,2.31,.52,3.48Z"/><path class="b" d="M656.95,668.46c-3.73-1.48-5.18-4.53-5.52-8.23-.29-3.16,.11-5.33,4.25-6.25,9.27-2.06,24.38-17.89,23.06-30.91,5.8,3.14,3.97,8.47,2.23,12.27-3.89,8.53-9.69,15.77-19.06,19.09-5.52,1.96-7.62,5.42-5.21,11.11,.36,.85,.19,1.94,.26,2.91Z"/><path class="b" d="M260.55,269.6c5.52-9.26,13.65-16.19,21.14-23.68,2.85-2.85,6.56-.91,10.33-1.79-6.72,7.04-12.87,13.48-19.02,19.92-4.76,.49-7.76,4.92-12.46,5.55Z"/><path class="b" d="M891.61,586.34c-4.35,.68-5.82,4.62-7.41,7.63-2.94,5.56-6.06,11.06-6.79,17.73-.56,5.08-3.37,2.58-5.31,.25-1.84-5.35,2.22-9.27,3.86-13.52,3.41-8.82,8.08-17.21,17.37-21.57,1.98,1.21-6.14,4.88,1.17,4.79l-1.05,2.59c-.61,.7-1.22,1.39-1.83,2.09Z"/><path class="b" d="M791.33,648.1c-1.3,.82-2.25,3.68-4.11,1.51-1.24-1.45-1.47-3.53-.98-5.96,2.52-12.68,6.61-24.78,12.17-36.42,.23-.49,.09-1.16,.13-1.75,4.14-.06,5.07,1.38,3.41,5.45-3.96,9.67-8.45,19.16-10.19,29.64-.43,2.56-.87,4.98-.42,7.53Z"/><path class="b" d="M824.71,218.81c4.31-2.07,7.24-.73,9.49,3.38,1.67,3.05,3.85,5.81,5.8,8.7-5.18,.41-10.6-1.41-15.52,1.56-5.13-1.32-5.37-6.69-8.23-9.9,.04-.96,.09-1.92,.13-2.88,2.84,.33,5.87,2.48,8.33-.87Z"/><path class="b" d="M716.5,638.97c-4.15,7.32-8.3,14.64-13.28,23.42-.73-6.14,1.2-10.3,2.22-14.3,1.71-6.7,4.88-13.02,7.24-19.57,.98-2.73,1.54-5.65,.54-8.58,5.08,.61,6.96,3.65,4.98,8.77-.98,2.54-2.36,4.86-1.57,7.7l.05-.06c-.93-.05-1.9-.08-2,1.17-.11,1.29,.94,1.3,1.82,1.43Z"/><path class="b" d="M850.53,535.84c.68,4.37,3.81,7.46,5.76,11.17,1.05,2,3.11,3.58,2.72,6.21-.77,.09-1.54,.19-2.31,.28-.26-2.47-1.82-4.31-3.06-6.32-2.46-4-4.22-10.46-7.51-11.36-3.34-.91-8.39,3.34-12.31,5.9-6.23,4.06-13.77,6.01-18.91,11.78-1.29,.34-2.46,.02-3.55-.67,4.86-5.24,11.77-7.21,17.55-11,4.72-3.1,9.84-5.61,14.78-8.38,2.02-4.19-3.34-6.05-3.05-9.7,1.78,.13,2.98,1.33,3.54,2.74,1.89,4.82,4.32,4.63,8.43,2.15,3.68-2.22,7.21-5.58,12.18-4.88-4.6,2.85-9.16,5.79-13.83,8.52-1.98,1.16-2.89,2.05-.42,3.56Z"/><path class="b" d="M92.72,551.11c-3.97-8.75-9.33-16.71-14.17-24.97-1.62-2.77-2.97-1.9-5.17-.64-11.07,6.33-22.25,12.46-33.43,18.59-2.19,1.2-4.36,2.87-7.16,1.69-.13-.38-.04-.7,.26-.96,3.94-2.19,7.98-4.23,11.78-6.63,3.01-1.9,7.21-2.17,8.76-6.14h0c4.43,.12,7.49-2.98,11.14-4.72,4.84-2.3,8.98-6.09,14.54-6.87,4.22,10.64,10.41,20.16,16.9,29.5-.06,.36-.02,.7,.09,1.04-1.18,.03-2.36,.06-3.54,.1Z"/><path class="b" d="M79.26,520.47c-5.56,.77-9.7,4.56-14.54,6.87-3.64,1.74-6.71,4.83-11.14,4.72,3.51-4.06,8.58-5.68,12.99-8.34,2.44-1.47,5.54-1.96,7.19-4.65,4.08-.9,1.81-2.95,.8-4.67-5.93-10.16-11.83-20.33-17.9-30.4-1.02-1.69-1.58-4.23-4.37-4.25-.14-1.12,.09-2,1.37-2.25,5.86,3.81,7.68,10.52,11.26,15.94,4,6.03,7.42,12.45,10.93,18.8,1.89,3.41,3.75,5.33,7.51,2.09,1.18-1.02,3.06-2.18,4.62-.07-2.5,2.24-6.37,2.57-8.17,5.81-.18,.15-.37,.29-.56,.42Z"/><path class="b" d="M893.33,576.86c-9.28,4.37-13.95,12.75-17.37,21.58-1.64,4.25-5.71,8.17-3.86,13.52-3.64,.71-2.49-2.17-2.62-3.75-.77-9.07,4.25-16.23,9.13-22.78,4.35-5.85,9.07-11.93,15.98-15.41,.73,1.22,2.59,1.68,2.38,3.54-.99,.05-1.88,.27-2.39,1.25-.37,.43-.75,.87-1.12,1.3-.05,.25-.09,.51-.12,.77Z"/><path class="b" d="M283.48,551.27c7.81-6.31,17.09-10.17,25.65-15.23,10.45-6.18,21.22-11.82,31.81-17.75,2.12-1.19,4.25-1.99,6.71-1.64-1.57,1.14-3.04,2.47-4.72,3.41-15.43,8.62-30.96,17.09-46.32,25.84-2.91,1.66-6.79,2.3-8.16,6.12-1.78,.54-3.41,.14-4.98-.73Z"/><path class="b" d="M288.46,552.01c1.36-3.82,5.25-4.46,8.16-6.12,15.36-8.75,30.88-17.21,46.32-25.84,1.68-.94,3.15-2.26,4.72-3.41,.94,.17,2.34,0,2.73,.56,1.09,1.55-.69,1.88-1.55,2.37-19.3,10.79-38.63,21.54-57.95,32.3-.81,.04-1.61,.09-2.42,.13Z"/><path class="b" d="M841.21,234.12c2.2,1.55,2.82,4.17,4.24,6.25-5.04,.67-8.44,5.13-13.46,5.85-3.6-3.21-5.99-7.18-7.41-11.76,5.49-2.65,11.12,1.39,16.63-.35Z"/><path class="b" d="M259.89,316.07c-3.14,.64-6.13,2.11-5.26,5.66,1.16,4.73-1.56,4.18-4.34,4.14-1.17-.02-2.35-.1-3.51,0-4.59,.44-4.41-1.55-2.49-4.64,3.25-5.24,6.43-10.53,9.63-15.8,.32,4.48,3.15,7.55,5.98,10.63Z"/><path class="b" d="M546.99,552.22c6.57-5.74,14.76-8.82,22.12-13.26,10.1-6.1,20.58-11.57,30.88-17.35,1.96-1.1,3.98-1.67,6.22-1.41-1.57,1.15-3.04,2.48-4.73,3.43-14.62,8.18-29.28,16.27-43.9,24.46-1.35,.75-4.71,.93-1.73,3.79,0,.25-.06,.48-.17,.7-2.93,.76-5.85,1.38-8.67-.36Z"/><path class="b" d="M788.84,657.77c1.99-3.95,6.77-3.19,9.88-6.05,4.58-4.2,9.42-8.3,13.98-12.58,3.89-3.65,5.54-2.27,6.92,1.83-3.21-.13-4.8,2.42-6.71,4.24-5.77,5.52-11.49,10.96-19.39,13.53-2.12,.69-3.57,1.63-4.69-.98Z"/><path class="b" d="M754.07,659.52c8.6-1.87,12.39-9.5,17.88-15.04,2.53-2.56,4.37-5.81,7.76-7.64,1.69,2.09,.8,4.3,.98,6.34-5.98,3.44-8.87,9.95-14.1,14.18-2.46,1.99-4.64,4.08-7.95,4.49-2.12,.27-3.98,.27-4.57-2.33Z"/><path class="b" d="M468.9,277.37c1.97,1.11,1.57,3.08,1.74,4.7,1.41,13.34,2.74,26.68,4.05,40.03,.16,1.63,1.25,4.07-1.3,4.4-2.65,.35-2.13-2.26-2.25-3.9-.93-13.17-1.84-26.34-2.69-39.52-.12-1.87-.72-3.84,.45-5.72Z"/><path class="b" d="M264.88,680.36c9.13,.31,14.58-5.8,19.68-11.92,2.38-2.86,4.83-5.63,7.41-8.29,3.2-3.31,5.43-2.98,6.08,1.96-.96,.28-2.12,.22-2.46,1.5-7.16,5.44-12.32,13.18-20.42,17.57-3.7,2-7.15,3.12-10.3-.82Z"/><path class="b" d="M326.33,83.49c9.19-7.18,19.88-11.81,29.98-17.41,8.89-4.93,17.13-11.18,27.03-14.21,.08,2.1-1.75,2.44-3.05,3.16-11.02,6.16-22.1,12.21-33.08,18.45-1.23,.7-4.34,.52-2.82,3.6-5.71,3.02-11.77,5.06-18.07,6.4Z"/><path class="b" d="M599.25,80.1c-.99,2.22-4.67,1.76-4.8,4.82-5.55-1.52-11.09-3.04-16.64-4.56-.79-2.29-1.59-4.58-2.38-6.87,8.17,1.36,16.24,3.08,23.81,6.6Z"/><path class="b" d="M219.9,148.26c-8.32,2.34-14.93,7.96-22.49,11.75-4.87,2.45-9.52,5.33-14.33,7.88-1.59,.84-3.41,2.47-5.1,0,.74-.82,1.49-1.64,2.23-2.47,3.94-.73,7.78-1.63,9.79-5.69h0c4.77-.36,8.55-2.69,11.87-5.94h-.02c.4-.39,.8-.79,1.2-1.19h-.01c6.9-1.34,12.42-5.27,17.8-9.48h0c.72-.07,1.18-.41,1.2-1.19h-.01c3.35,.78,5.55-2.83,8.84-2.3-2.83,2.83-5.96,5.28-9.41,7.33-.87-.03-1.41,.35-1.56,1.23v.05Z"/><path class="b" d="M139.04,661.42c-1.46,13.47-7.37,24.53-17.92,33.07-.47-.53-.95-1.05-1.42-1.58l.27-2.82c.92-.68,1.97-1.23,2.74-2.05,7.43-7.82,11.81-17.06,12.73-27.86,1.39-.14,2.97-.83,3.59,1.24Z"/><path class="b" d="M98.61,361.03c-1.7,5.21-6.95,5.84-10.81,8.1-11.8,6.91-23.79,13.5-35.75,20.15-1.52,.84-3.27,1.26-4.91,1.88-.12-.86-.24-1.72-.36-2.58,4.17-1.87,9.08-2.53,11.57-7.11h0c4.46,.13,7.58-2.93,11.2-4.77,9.82-4.98,18.88-11.39,29.08-15.68Z"/><path class="b" d="M514.99,279.45c-1.01,12.77-3.73,25.28-5.94,37.87-.24,1.39-.58,3.16-2.3,2.8-2.34-.49-1.15-2.55-.9-3.87,2.33-12.18,4.76-24.34,7.17-36.51,.66-.1,1.32-.19,1.97-.29Z"/><path class="b" d="M360.67,631.77c-4.25,0-3.68-3.3-2.93-5.4,2.01-5.57,4.58-10.94,7.19-16.26,.08-.17,1.99-5.24,4.21-.8-.03,8.54-4.54,15.4-8.48,22.47Z"/><path class="b" d="M408.27,285.35c5.91,11.91,11.89,23.78,17.64,35.77,.69,1.44,3.05,3.91,.54,4.98-2.26,.97-2.75-2.28-3.48-3.85-5.7-12.28-11.23-24.64-16.81-36.97,.7,.02,1.4,.05,2.1,.07Z"/><path class="b" d="M344.4,77.08c-1.52-3.08,1.59-2.9,2.82-3.6,10.97-6.24,22.05-12.3,33.08-18.45,1.29-.72,3.13-1.06,3.05-3.16v-.02c3.39,.3,5.77-1.77,8.31-3.47,2.12,.03,3.58-2.2,5.84-1.73-.51,2.59-2.89,2.99-4.72,4-11.49,6.37-23.01,12.67-34.47,19.1-1.65,.92-3.54,1.74-4.45,3.64v-.03c-1.09-.23-2.01-.05-2.56,1.05-2.3,.89-4.6,1.78-6.9,2.67Z"/><path class="b" d="M806.8,192.82c1.38,.04,2.76,.06,4.13,.14,1.52,.09,2.69,.81,3.01,2.35,.3,1.48-1.01,1.93-1.99,2.53-3.22,1.96-5.88,3.88-2.93,8.31,.74,1.1,.54,4.88-1.5,4.82-2.43-.07-4.08-2.7-4.38-5.5,.17-4.31-3.01-7.11-4.78-10.54,.33-1.29,1.56-1.43,2.5-1.95,2.07,3.38,4.03,2.84,5.94-.16Z"/><path class="b" d="M272.03,670.43c-1.73-.03-2.71,3.04-4.41,1.56-.84-.74-.57-2.93-.53-4.46,.17-5.71,2.54-10.95,4.43-16.14,.96-2.63,1.36-5.1,1.66-7.73,5.66,.21,5.17,3.32,3.57,7.22-2.58,6.26-6.21,12.3-4.73,19.55Z"/><path class="b" d="M869.66,521.39c-1-.79-1.05-1.73,.04-2.31,16.06-8.54,31.36-18.44,47.84-26.19,.36,.68,.73,1.35,1.09,2.03-.16,.16-.32,.31-.48,.47-13.01,5.67-24.93,13.39-37.31,20.23-2.73,1.51-6.61,1.84-7.71,5.69h.01c-1.16,.03-2.32,.06-3.48,.09Z"/><path class="b" d="M360.67,631.77c3.94-7.07,8.44-13.93,8.48-22.47,4.77-.15,5.92,2.11,4.21,6.29-1.96,4.79-3.76,9.66-5.93,14.36-2.02,4.39-3.79,4.73-6.75,1.82Z"/><path class="b" d="M814.91,553.5c5.15-5.77,12.69-7.72,18.91-11.78,3.93-2.56,8.97-6.81,12.31-5.9,3.29,.9,5.06,7.35,7.51,11.36,1.23,2.01,2.8,3.85,3.06,6.32-.83-.03-1.66-.06-2.49-.08-1.63-2.89-3.24-5.79-4.88-8.67-4.03-7.03-4.24-7.33-10.71-3.02-6.14,4.09-13.51,6.12-18.84,11.49-1.62,.09-3.25,.18-4.87,.28Z"/><path class="b" d="M896.95,573.55c.22-1.86-1.65-2.31-2.38-3.54,2.71-3.77,5.8-4.15,9.27-1.03-.76,6.28-4.42,11.47-6.99,16.96-1.19,2.54-1.51,5.55-3.43,7.77-1.6-.07-2.35-1-2.51-2.51,.12-.73,.25-1.46,.37-2.19,3.02-.55,1.91-2.96,2.15-4.76,.35-.86,.7-1.73,1.05-2.59,.4-2.83,2.82-5.05,2.46-8.11Z"/><path class="b" d="M822.66,251.94l-5.19,2.63c-3.92-5.1-8.43-9.86-9.49-16.6l-.06,.06c10.27-1.04,10.85,8.19,14.74,13.91Z"/><path class="b" d="M762.59,181.2c.32-.12,.65-.18,1-.18,4.49,1.62,8.66,3.69,11.73,7.56,1.61,2.03,5.48,3.92-.12,5.82-.27,.09-.03,1.66-.03,3.12-4.94-3.42-8.13-8.14-12.29-11.79-2.01-1.76,1.44-3.18-.29-4.53Z"/><path class="b" d="M499.49,284.23c.3,11.26-1.42,22.39-2.22,33.59-.09,1.3-.06,3.07-2.16,2.7-1.51-.26-1.54-1.67-1.38-2.84,1.52-11.1,1.58-22.39,4.19-33.36,.52-.03,1.05-.06,1.57-.09Z"/><path class="b" d="M731.05,303.06c3.34,5.22,8.33,9.69,7.64,16.75-1.15-.04-2.29-.07-3.06,1.01-5.33-3.74-7.23-9.63-9.58-15.24,1.67-.84,3.33-1.68,5-2.52Z"/><path class="b" d="M545.92,281.85c-.34,5.6-3.03,10.23-4.71,15.14-2.24,6.51-4.61,12.97-6.93,19.45-.41,1.14-.91,2.37-2.38,2.11-1.72-.31-1.38-1.67-.94-2.77,4.47-11.13,8.98-22.24,13.52-33.34,.1-.24,.66-.28,1.44-.59Z"/><path class="b" d="M807.98,237.96c-4.41-1.95-6.62-4.91-4.26-9.76,.44-.91,1.18-1.71,.06-2.43-.59-.38-1.75-.71-2.16-.41-6.29,4.62-4.44-3.34-7.31-3.94,5.29-2.31,9.06-1.46,10.74,4.11,.06,.19,.05,.48,.18,.55,5.14,3.03,4.93,7.26,2.69,11.95l.06-.06Z"/><path class="b" d="M403.43,339.62c-4.82,5.73-12.11,7.64-18.11,11.54-6.9,4.47-14.29,8.22-21.62,11.99-1.42,.73-3.35,2.56-5.28,.49,1.83-2.61,6.3-2.03,7.13-5.87h0c12.14-3.93,22.58-11.03,33.21-17.77,1.53-.44,3.06-1,4.68-.38Z"/><path class="b" d="M529.03,286.53c-3.84,13.26-5.9,27.09-12.21,39.55,2.18-13.49,5.87-26.54,10.23-39.41,.66-.05,1.32-.09,1.98-.14Z"/><path class="b" d="M731.05,303.06c-1.67,.84-3.33,1.68-5,2.52-2.62-1.66-3.7-4.5-5.33-6.92-1.79-2.67-5.31-5.58,.84-7.41,.11-.03-.09-1.08-.15-1.66-.09-.19-.12-.38-.07-.58,4.29,3.96,7.6,8.59,9.71,14.06Z"/><path class="b" d="M555.66,299.03c-3.77,8.41-7.53,16.82-11.32,25.22-.66,1.46-1.61,3.35-3.39,2.35-2.06-1.15-.18-2.71,.47-3.97,4.46-8.68,7.96-17.87,13.7-25.87,.18,.76,.36,1.51,.54,2.26Z"/><path class="b" d="M52.3,479.74c2.8,.01,3.35,2.56,4.37,4.25,6.07,10.07,11.97,20.25,17.9,30.4,1.01,1.73,3.28,3.77-.8,4.67-6.4-12.83-13.83-25.04-21.73-36.99,.09-.78,.17-1.55,.26-2.33Z"/><path class="b" d="M244.55,550.95c-3.39-9.3-10.04-16.76-14.35-25.54-1.3-2.64-3.05-5.09-4.09-7.82-.89-2.35,.99-1.11,1.88-1.02,.57,.78,1.19,1.48,2.3,1.26l-.04-.05c-.07,4.69,3.41,7.74,5.34,11.51,3.91,7.63,9.59,14.29,12.3,22.57-.69,.03-1.38,.06-2.07,.1-.43-.34-.86-.68-1.28-1.01Z"/><path class="b" d="M783.01,198.92c4.25,1.03,5.54,5.18,8.19,7.88,1.01,1.02,.75,2.1-.9,2.45-2.58,.56-.89,2.49-1.19,3.79-.48,.03-.96,.06-1.44,.09-3.25-3.79-6.5-7.58-9.77-11.38,1.3-2.26,4.57-.17,5.19-2.9l-.08,.08Z"/><path class="b" d="M435.65,319.79c-4.93-10.25-8.05-21.16-11.56-31.92,.64-.03,1.28-.07,1.92-.1,4.1,10.22,8.83,20.21,11.69,30.91-.68,.37-1.37,.74-2.05,1.11Z"/><path class="b" d="M324.76,232.98c4.58-.09,7.85-3.1,11.57-5.15,2.13-1.18,4.39-2.12,6.59-3.17l.77,1.55c-7.49,4.21-14.86,8.66-22.52,12.52-3.73,1.88-6.71,5.69-11.56,5.08,4.38-4.55,9.92-7.48,15.16-10.82Z"/><path class="b" d="M172.58,221.48l-1.57-1.21c-1.32-3.07-2.82-6.15,2.19-7.42,1.74-.44-.03-1.49,.18-2.24,.78-2.83,2.48-5.09,5.35-5.56,1.9-.31,5.12-1.25,5.77,.99,.67,2.32-1.81,4-4.21,4.8-1.93,.64-6.18-.4-3.02,4.11,.2,.29-.55,1.84-.96,1.88-2.91,.3-2.79,2.87-3.73,4.64Z"/><path class="b" d="M397.57,552.04c-5.69-9.81-11.44-19.58-16.98-29.47-.73-1.3-4.13-3.46,.26-4.76,1.36,2.39,2.83,4.73,4.06,7.19,4.64,9.31,11.45,17.42,15.09,27.28-.81-.08-1.62-.15-2.43-.23Z"/><path class="b" d="M399.99,552.26c-3.64-9.86-10.45-17.96-15.09-27.28-1.23-2.46-2.7-4.8-4.06-7.19,3.65-.07,4.24,3.27,5.57,5.41,4.67,7.52,9.05,15.21,13.42,22.91,1.49,2.62,3.36,4.71,6.02,6.1-1.95,1.26-3.91-.37-5.86,.04Z"/><path class="b" d="M190.93,190.02c.62,2.18,.71,4.74,3.71,5.24q-6.52,8.38-14.07,6.39c3.14-4.41,6.36-8.34,10.36-11.63Z"/><path class="b" d="M485.13,292.62c.14,10.22,.29,20.45,.38,30.67,.01,1.27,.42,3.21-1.59,3.13-1.81-.07-1.62-1.95-1.6-3.28,.17-9.82,.38-19.64,.58-29.46,.74-.36,1.48-.71,2.22-1.07Z"/><path class="b" d="M360.18,300.7c7.32,8.23,14.64,16.46,21.97,24.69-.57,.5-1.14,1.01-1.71,1.51-8.05-7.58-14.33-16.73-21.41-25.17l1.15-1.02Z"/><path class="b" d="M701.29,553.01c-1.43-6.94-6.51-11.94-9.6-18-1.78-3.48-3.9-6.8-5.92-10.16-1.48-2.47-.86-3.62,2.04-3.52,.17,3.29,2.17,5.8,3.7,8.49,4.42,7.76,9.63,15.08,13.16,23.35-1.13-.05-2.25-.11-3.38-.16Z"/><path class="b" d="M899.1,360.3c-2.28-3.31,1.16-3.48,2.62-4.34,8.62-5.03,17.35-9.89,26.03-14.81,1.2,.01,2.39,.02,3.59,.03-6.73,5.42-14.71,8.79-22.02,13.25-3.35,2.04-6.81,3.91-10.23,5.86Z"/><path class="b" d="M247.91,551.87c-2.71-8.28-8.39-14.95-12.3-22.57-1.93-3.76-5.42-6.81-5.34-11.51,8.24,10.41,14.01,22.31,20.45,33.81-.93,.09-1.87,.18-2.8,.27Z"/><path class="b" d="M398.76,339.99c-10.64,6.73-21.07,13.84-33.21,17.76,6.88-6.48,16.07-9.11,23.74-14.28,1.68-1.13,4.29-1.23,4.48-4.02,1.76-.73,3.44-.7,4.99,.53Z"/><path class="b" d="M704.66,553.17c-3.52-8.27-8.74-15.58-13.16-23.35-1.53-2.69-3.53-5.2-3.7-8.49,4.5,2.7,5.54,7.8,8.16,11.8,4.17,6.36,8.41,12.68,11.3,19.77-.87,.09-1.74,.17-2.61,.26Z"/><path class="b" d="M124.6,344.52c.57-2.08,.07-3.96-1.06-5.73,4.36,1.43,8.74-.9,13.1,.07-1.75,1.06-3.5,2.13-5.25,3.18-1.67,1-2.85,2.08-.74,3.81,2.21,4.09,4.48,8.14,6.61,12.27,.9,1.75,1.13,3.34-1.72,1.89-1.65-2.86-3.12-5.84-5-8.54-1.65-2.36-1.43-6.43-5.65-6.6l-.28-.35Z"/><path class="b" d="M119.7,692.91c.47,.53,.95,1.05,1.42,1.58-3.21,4.39-7.17,7.96-11.83,10.75-.75-.14-1.5-.27-2.26-.41-.4-2.22,.6-4.64-.92-6.7,.16-.77,.31-1.53,.47-2.3,1.63,.18,1.98,2.59,3.92,2.24,3.07-1.72,6.13-3.44,9.2-5.16Z"/><path class="b" d="M748.92,369.47c-.91-.25-2.3-.21-2.66-.8-5.56-9.05-12.17-17.53-15.64-27.76,.18-.22,.28-.46,.31-.74,.62,.23,1.24,.45,1.86,.68,5.37,9.54,10.75,19.08,16.12,28.62Z"/><path class="b" d="M585.34,307.01c-4.58,7.17-9.02,14.45-14.82,20.63l-1.94-1.51c5.43-7.14,10.86-14.29,16.29-21.43,.16,.77,.32,1.54,.47,2.31Z"/><path class="b" d="M605.27,305.74c-4.43,8.44-11.33,14.72-18.17,21.07,5.23-7.76,10.75-15.25,17.97-21.29l.19,.23Z"/><path class="b" d="M748.92,369.47c-5.37-9.54-10.75-19.08-16.12-28.62,.99-.18,1.98-.36,2.97-.54,1.23,6.89,6.31,11.8,9.2,17.85,1.41,2.96,3.34,5.68,5.04,8.5,.87,1.43,1.05,2.56-1.09,2.81Z"/><path class="b" d="M460.13,306.8c1.14,5.59,2.3,11.17,3.41,16.76,.23,1.15,.49,2.55-1.11,2.86-1.53,.3-2.02-.97-2.15-2.18-.67-5.84-2.76-11.5-2.29-17.49,.71,.02,1.42,.03,2.13,.05Z"/><path class="b" d="M594.7,365.82c-1.76,1.82-2.56-.17-3.07-1.07-4.63-8.21-10.13-15.94-13.8-24.67,1.1,.14,2.21,.28,3.31,.41,3,9.26,9.66,16.56,13.56,25.33Z"/><path class="b" d="M275.17,340.03c.02-.34,.05-.69,.1-1.03,1.26,.03,2.52,.05,3.78,.08,1.56,7.09,6.94,12.17,9.74,18.58,.52,1.19,4.57,3.33-.15,4.63-.46-.36-.91-.72-1.37-1.07l.03,.02c-.49-2.41-1.28-4.64-3.58-5.95l.03,.02c-.43-2.44-1.28-4.62-3.58-5.94h.02c-.95-2.8-1.2-6.06-4.75-7.12h0c-.09-.74-.17-1.48-.26-2.23Z"/><path class="b" d="M814.59,216.65c-.69-1.72-4.2-3.89,.77-4.68,1.77-.28,2.31-1.87,3.21-3.09,.98-1.32,1.62-3.85,3.42-3.27,1.86,.6,3.32,2.58,2.57,5.09-2.54,.21-3.09,2.27-3.29,4.12-.28,2.6-1.58,3.28-3.87,2.93-.01-.64-.02-1.27-.03-1.91,.5-.41,1.85-1,1.36-1.17-1.33-.45-3.21-.89-3.7,1.44,0,.29-.15,.47-.44,.54Z"/><path class="b" d="M633.67,640.75c-4.34,1.16-6.12-.57-5.95-4.98,.14-3.77,.57-7.71-2.49-10.79,4.72,.17,5.05,4.28,6.27,7.33,1.07,2.67,1.47,5.62,2.17,8.44Z"/><path class="b" d="M385.75,201.28c-1.07,3.88-5.03,4.07-7.71,5.67-6.41,3.82-12.59,8.24-20.07,10.01,6.2-5.63,14.64-7.75,20.65-13.61l.41-.1c.89,.12,1.54-.21,1.93-1.03l.48-.15c.83,.1,1.45-.21,1.84-.96l-.05,.03c.81,.01,1.61,.02,2.42,.03l.1,.1Z"/><path class="b" d="M460.13,306.8c-.71-.02-1.42-.03-2.13-.05-2.99-7.63-3.04-15.8-4.41-23.73,.61-.36,1.23-.72,1.84-1.09,1.57,8.29,3.14,16.58,4.7,24.87Z"/><path class="b" d="M594.7,365.82c-3.9-8.77-10.56-16.08-13.56-25.33,.89-.15,1.78-.3,2.67-.44,1.4,6.87,6.4,11.9,9.31,18,1.25,2.62,3.12,4.95,3.86,7.84l-.36,.36c-.64-.14-1.29-.28-1.93-.42Z"/><path class="b" d="M774.83,153.69c1.24,5.68,5.46,9.78,7.86,14.84,1.08,2.28,1.99,4.64,2.98,6.96-.17,.17-.37,.26-.61,.25-6.21-8.93-12.34-17.92-16.21-28.19,1.82,.56,2.73,2.08,3.74,3.51,.39,.47,.78,.93,1.17,1.4l-.04-.05c.37,.44,.75,.88,1.12,1.32l-.02-.04Z"/><path class="b" d="M514.99,279.45c-.66,.1-1.32,.19-1.97,.29,1.9-10.43,3.62-20.89,6.74-31.05l-.07-.06c.46,10.58-2.07,20.71-4.69,30.82Z"/><path class="b" d="M785.06,175.74c.24,0,.44-.08,.61-.25,6.34-.76,7.11,0,8.13,7.9-.84,.41-1.68,.83-2.52,1.24-1.99-3.02-8.71-2.74-6.22-8.89Z"/><path class="b" d="M405.01,309.92c2.98,4.91,5.98,9.82,8.9,14.77,.19,.32-.1,1.17-.44,1.5-.63,.61-1.67,.58-2.1-.09-3.1-4.84-6.47-9.58-8.12-15.12,.59-.35,1.17-.7,1.76-1.05Z"/><path class="b" d="M386.89,308.71c4.11,5.55,8.22,11.1,12.84,17.33-4.91-.91-10.94-8.51-12.84-17.33Z"/><path class="b" d="M485.13,292.62c-.74,.36-1.48,.71-2.22,1.07,.09-9.04,.19-18.08,.28-27.12,.67-.02,1.34-.04,2.02-.06-.02,8.71-.05,17.41-.07,26.12Z"/><path class="b" d="M455.43,281.93c-.61,.36-1.23,.72-1.84,1.09-1.95-8.21-3.16-16.54-3.97-24.94,.43,.03,.85,.06,1.28,.09,1.51,7.92,3.02,15.84,4.53,23.76Z"/><path class="b" d="M735.63,320.82c.77-1.08,1.92-1.05,3.06-1.01,1.32,.33,2.87,.45,3.46,1.89,.69,1.7,2.83,3.25,1.44,5.25-.98,1.41-2.9,.73-4.43,.65-2.53-.13-3.22-1.73-3.17-3.99,.02-.93-.24-1.86-.37-2.79Z"/><path class="b" d="M806.8,192.82c-1.9,3-3.87,3.54-5.94,.16-2.49-3.17-6.04,.15-8.98-1.77,1.27-2.93,4.5-2,6.72-3.02,2.12-.09,4.19,.06,6.01,1.34,.64,1.16,2.8,1.31,2.18,3.29Z"/><path class="b" d="M230.86,139.66c-3.29-.53-5.49,3.08-8.84,2.31,6.14-5.08,13.06-8.79,20.44-11.7-3.19,3.97-7.16,6.97-11.6,9.39Z"/><path class="b" d="M345.5,310.15c6.57,4.02,11.12,10.09,16.04,15.81-6.81-3.69-12.03-9.09-16.51-15.29,.15-.18,.31-.35,.47-.52Z"/><path class="b" d="M440.71,291.39c-2.93-6.89-4.06-14.26-5.74-21.48,.56,.04,1.11,.07,1.66,.11,1.82,7.16,5,13.93,5.93,21.33l-1.86,.04Z"/><path class="b" d="M391.52,287.87c3.6,5.88,7.19,11.76,10.79,17.64-.58,.36-1.16,.72-1.74,1.08-4.29-5.27-7.07-11.54-10.26-17.53,.41-.4,.81-.79,1.22-1.19Z"/><path class="b" d="M448.33,312.75c1.21,3.52,2.47,7.02,3.58,10.56,.32,1.01,.85,2.53-.77,2.92-1.44,.35-2.14-1-2.35-2.12-.72-3.83-2.95-7.36-2.4-11.45,.65,.03,1.29,.06,1.94,.08Z"/><path class="b" d="M585.34,307.01c-.16-.77-.32-1.54-.47-2.31,2.91-5.74,7.23-10.38,11.73-14.92-2.78,6.4-6.41,12.21-11.25,17.23Z"/><path class="b" d="M874.72,662.26c1.84,.76,4.65-.12,5.17,2.88,.45,2.56-1.51,4.13-3.18,5.13-1.69,1.02-3.88,.7-4.62-1.89,1.84-1.62,2.25-3.86,2.63-6.12Z"/><path class="b" d="M53.59,532.05c-1.55,3.97-5.75,4.24-8.76,6.14-3.81,2.4-7.85,4.44-11.78,6.63,.14-1.16,0-2.41,1.08-3.27,6.79-2.55,12.23-7.86,19.47-9.5Z"/><path class="b" d="M841.21,234.12c-5.51,1.74-11.14-2.3-16.63,.35-.04-.67-.07-1.34-.11-2.01,4.93-2.97,10.34-1.15,15.52-1.56,.4,1.08,.81,2.15,1.21,3.23Z"/><path class="b" d="M873.27,327.48c-3.19,1.12-5.2,.04-5.96-3.26-.63-2.74-2.64-5.14-1.99-8.19,4.35,2.64,5.62,7.41,7.95,11.45Z"/><path class="b" d="M485.2,266.5c-.67,.02-1.34,.04-2.02,.06-.35-6.74-.64-13.47,2.02-20.06v20Z"/><path class="b" d="M295.6,663.61c.34-1.28,1.5-1.22,2.46-1.5,1.66,4.82,.8,9.78,.8,14.7-4.61-3.53-2.52-8.72-3.26-13.2Z"/><path class="b" d="M555.66,299.03c-.18-.75-.36-1.51-.54-2.26,1.2-5.51,4.03-10.18,7.55-14.51-.93,6.19-3.94,11.5-7.01,16.77Z"/><path class="b" d="M568.6,304.13c-.94,4.84-3.32,8.72-6.97,11.8,.94-4.78,2.62-9.11,6.97-11.8Z"/><path class="b" d="M817.4,217.75c2.29,.34,3.59-.33,3.87-2.93,.2-1.84,.74-3.91,3.29-4.12,1.35,1.2,2.07,3.28,.47,3.91-3.75,1.47-.3,2.84-.31,4.19-2.46,3.35-5.49,1.2-8.33,.88l.09-.49,.93-1.45Z"/><path class="b" d="M532.99,264.28c.75-6.07,3.77-11.31,6.32-16.78-.7,5.69-1.11,11.43-4.11,16.56l-2.2,.22Z"/><path class="b" d="M260.55,269.6c4.7-.62,7.7-5.06,12.46-5.55-.6,1.7-1.85,2.8-3.35,3.69-.41,.43-.82,.87-1.23,1.31l.08-.07c-.77,.1-1.19,.53-1.18,1.33l.02,.05c-4.52-.58-7.03,4.12-11.27,4.3,.46-2.6,2.53-3.77,4.48-5.05Z"/><path class="b" d="M429.59,177.03c2.42-4.15,7.94-4.07,10.67-7.79,1.84-1.05,3.83-1.42,5.93-1.24-2.63,3.87-7.78,4.33-10.65,7.87-1.98,.39-3.97,.77-5.95,1.16Z"/><path class="b" d="M787.68,213.13c.48-.03,.96-.06,1.44-.09,2.37,.98,4.37,2.98,7.44,1.64,1.29-.56,2.68,1.04,2.72,2.39,.04,1.57-1.68,1.33-2.69,1.31-3.91-.08-7.24-1.29-8.9-5.25Z"/><path class="b" d="M373.38,291.74c4,3.72,7.82,7.63,9.29,13.16-4.44-3.4-7.24-7.99-9.29-13.16Z"/><path class="b" d="M570.78,300.25c1.22-5.06,3.89-9.2,7.35-12.87-.64,5.33-4,9.13-7.35,12.87Z"/><path class="b" d="M364.31,237.8c-1.27-3.04-2.46-6.12-5.28-8.15-.18-1.57-.5-3.09-1.65-4.28-1.61-1.68-.53-2.28,1.07-2.68,2.81,4.33,5.62,8.66,8.43,12.99-.16,1.55-1.24,1.99-2.57,2.12Z"/><path class="b" d="M139.09,605.46c1.98,.15,4.53-.62,4.61,2.71,.04,1.7,.26,3.51-1.74,4.45-2.3,1.09-4.06,.72-5.02-1.83,2.29-1.14,2.04-3.31,2.15-5.34Z"/><path class="b" d="M139.09,605.46c-.11,2.02,.13,4.2-2.15,5.34-1.91,.48-3.47,.46-3.69-2.12-.19-2.21,.91-3.77,2.54-4.88,1.85-1.27,2.8-.09,3.3,1.67Z"/><path class="b" d="M413.33,256.83c3.27,4.92,5.79,10.11,6.01,16.17-2.54-5.19-5.37-10.27-6.01-16.17Z"/><path class="b" d="M559.31,317.54c1.02,.1,2.05,.39,1.68,1.29-1.23,2.97-2.22,6.23-5.28,7.93-.86,.48-2.36-.35-1.81-1.35,1.55-2.81,2.74-5.97,5.41-7.87Z"/><path class="b" d="M832,246.23c5.02-.72,8.41-5.18,13.46-5.85,.37,.73,.74,1.47,1.11,2.2-5.42,.16-8.34,5.93-13.74,6.12-.81-.64-1.17-1.43-.82-2.46Z"/><path class="b" d="M532.99,264.28l2.2-.22c-.91,4.9-1.48,9.89-4.15,14.28l-1.8-.03c1.25-4.68,2.5-9.36,3.75-14.04Z"/><path class="b" d="M436.64,270.02c-.55-.04-1.11-.07-1.66-.11-2.57-6.5-3.54-13.38-4.81-20.21,2.93,6.53,4.9,13.36,6.47,20.32Z"/><path class="b" d="M874.72,662.26c-.38,2.25-.79,4.49-2.63,6.12-2.94,.08-4.65-1.51-3.58-4.19,1-2.51,3.07-4.75,6.21-1.93Z"/><path class="b" d="M873.27,327.48c-2.33-4.04-3.6-8.81-7.95-11.45,.15-1.09,.31-2.18,.46-3.27,5.26,3.64,7.29,9.39,9.74,14.87-.75-.05-1.5-.1-2.25-.15Z"/><path class="b" d="M858.37,299.67c4.33,3.38,7.07,7.67,7.55,13.25-5.6-2.66-5.23-8.72-7.55-13.25Z"/><path class="b" d="M552.24,265.14c-1.12,5.27-2.36,10.5-5.86,16.48-1.25-7.17,3.72-11.21,4.16-16.4,.57-.02,1.13-.05,1.7-.07Z"/><path class="b" d="M798.36,194.92c1.77,3.43,4.95,6.23,4.78,10.54-3.38-1.58-4.71-5.07-6.91-7.69-2.02-2.41,.2-2.79,2.14-2.85Z"/><path class="b" d="M440.71,291.39l1.86-.04c1.57,4.66,3.31,9.28,3.94,14.2-.65-.07-1.3-.15-1.96-.22-2.39-4.34-2.71-9.26-3.84-13.95Z"/><path class="b" d="M435.65,319.79c.68-.37,1.37-.74,2.05-1.11,.13,.14,.31,.26,.39,.43,1.09,2.22,2.64,4.32,1.96,6.99-.06,.25-1.25,.56-1.52,.34-2.1-1.69-2.74-4.08-2.88-6.66Z"/><path class="b" d="M263.71,317.3c3.36,1.66,4.14,4.78,4.56,8.1-3.21,1.5-6.12,2.41-4.13-3,.71-1.92-.55-3.39-.43-5.1Z"/><path class="b" d="M104.56,310.34c-3.87-4.11-6.69-8.83-8.29-14.26,4.99,2.72,5.73,8.44,8.84,12.49-.18,.59-.37,1.18-.55,1.78Z"/><path class="b" d="M58.34,381.47c-2.5,4.58-7.4,5.24-11.57,7.11-.9-.59-1.48-1.34-1.24-2.49,5.07,.68,7.89-4.89,12.81-4.62Z"/><path class="b" d="M426.01,287.77c-.64,.03-1.28,.07-1.92,.1-2.2-3.73-2.91-7.92-3.82-12.08,3.28,3.38,4.41,7.73,5.74,11.99Z"/><path class="b" d="M280.14,89.76c2.5,4.13,4.99,8.26,7.49,12.39-.85,.47-1.71,.95-2.56,1.42-1.16-4.92-5.98-8.17-6.16-13.54,.41-.09,.82-.18,1.23-.27Z"/><path class="b" d="M391.52,287.87c-.41,.4-.81,.79-1.22,1.19-3.15-3.18-4.49-7.36-6.14-11.43,3.63,2.58,5.38,6.5,7.35,10.25Z"/><path class="b" d="M450.9,258.17c-.42-.03-.85-.06-1.28-.09-1.96-4.5-2.57-9.18-2.04-15.6,1.85,6.11,3.76,10.63,3.31,15.69Z"/><path class="b" d="M130.64,345.85c-2.1-1.73-.93-2.81,.74-3.81,1.76-1.05,3.5-2.12,5.25-3.18,1.56,0,3.11,0,4.67,0-3.56,2.33-7.11,4.67-10.67,7Z"/><path class="b" d="M552.24,265.14c-.57,.02-1.13,.05-1.7,.07,1.66-4.03,3.32-8.06,4.99-12.09,.27,4.46,.22,8.76-3.28,12.01Z"/><path class="b" d="M259.89,316.07c-2.83-3.07-5.66-6.14-5.98-10.63l-.1-.17c3.72,.44,3.24,5,6.12,6.26l-.04-.05c.41,1.19,.82,2.37,1.23,3.56-.03,.35-.04,.71-.02,1.06-.41-.01-.82-.03-1.22-.04Z"/><path class="b" d="M408.27,285.35c-.7-.02-1.4-.05-2.1-.07-2.25-3.06-3.44-6.56-4.24-10.21,.22-.21,.44-.41,.66-.61,2.83,3.14,4.35,6.97,5.68,10.89Z"/><path class="b" d="M190,159.75c-2.01,4.05-5.85,4.95-9.79,5.69,.86-2.05,1.81-4.02,4.18-4.74,1.87-.32,3.74-.63,5.61-.95Z"/><path class="b" d="M444.55,305.33c.65,.07,1.3,.15,1.96,.22,1.67,2.13,2.21,4.55,1.82,7.2-.65-.03-1.29-.06-1.94-.08-2.16-2.06-2.02-4.69-1.84-7.34Z"/><path class="b" d="M502.3,252.06c-.3,4.47-.59,8.93-.89,13.4-.6-.06-1.2-.12-1.8-.18-.54-4.43,.5-8.73,1.16-13.05,.51-.05,1.02-.11,1.53-.16Z"/><path class="b" d="M499.61,265.28c.6,.06,1.2,.12,1.8,.18-.34,3.11-.67,6.22-1,9.32-.61,0-1.21,0-1.82-.01-.33-3.23,.39-6.36,1.02-9.49Z"/><path class="b" d="M571.7,682.42c.18-2.23,.36-4.47,.53-6.7,.42-.06,.84-.12,1.26-.18,1.21,1.3-.07,3.62,1.89,4.62-.4,2.17-.49,4.54-3.2,5.32-.16-1.02-.32-2.04-.48-3.05Z"/><path class="b" d="M605.17,227.35c-2.45,3.53-6.87,3.94-10.05,6.31-.99-.15-2.03-.21-2.33-1.46,4.22-1.33,7.54-4.89,12.27-4.97l.11,.11Z"/><path class="b" d="M501.99,182.45c1.39,1.14,2.78,2.29,4.25,3.5-5.03,1.79-5.56,1.5-6.71-3.61,.88-1.35,1.69-1.06,2.46,.11Z"/><path class="b" d="M627.65,306.73c-1.12,3.53-3.51,5.83-6.92,7.14-.46,0-.92-.01-1.38-.02,2.37-2.83,4.39-6.07,8.31-7.11l-.02-.02Z"/><path class="b" d="M185.86,721.17c.21,.61,.41,1.23,.62,1.84-2.36,.82-4.77,1.07-7.24,.65,.41-1.32,.81-2.64,1.22-3.96,.27-.12,.55-.17,.85-.17,.54,.4,1.08,.81,1.62,1.21l2.95,.43Z"/><path class="b" d="M502.3,252.06c-.51,.05-1.02,.11-1.53,.16,.45-3.95,.9-7.91,1.35-11.86,.94,3.95,1.75,7.85,.18,11.7Z"/><path class="b" d="M638.3,320.95c-1.91,2.55-3.75,5.21-7.47,5.43,2.04-2.41,3.45-5.65,7.53-5.37l-.06-.06Z"/><path class="b" d="M529.25,278.31l1.8,.03c-.4,2.8-.46,5.68-2.02,8.2-.66,.05-1.32,.09-1.97,.14-.1-3,1.22-5.64,2.19-8.36Z"/><path class="b" d="M467.23,264.3c-1.73-3.97-.66-8.08-.61-12.17,1.21,3.15,2.37,6.28,1.91,9.73-.43,.81-.86,1.62-1.3,2.44Z"/><path class="b" d="M259.95,311.53c-2.88-1.27-2.4-5.82-6.12-6.26,.3-1.2,1.2-1.85,2.2-2.4,1.81,2.66,4.21,5.05,3.92,8.67Z"/><path class="b" d="M467.23,264.3c.43-.81,.86-1.62,1.3-2.44-.16,3.55,1.86,6.99,.58,10.6-.47-.02-.94-.05-1.41-.07-.15-2.7-.31-5.4-.46-8.09Z"/><path class="b" d="M106.11,698.13c1.53,2.07,.52,4.48,.92,6.7-3.94-1.74-3.87-4.02-.92-6.7Z"/><path class="b" d="M754.58,143.11c-1.1,3.92-4.83,3.87-7.71,5.11-.34-.47-.67-.94-1.01-1.41,3.03-.95,5.44-3.34,8.72-3.7Z"/><path class="b" d="M392.71,197.36c-1.08,3.51-3.8,4.11-6.96,3.92l-.1-.1c.02-.39,.03-.77,.02-1.16,2.14-1.43,4.4-2.54,7.04-2.66Z"/><path class="b" d="M612.19,322.12c-.49,2.83-2.63,3.81-5.84,5.22,1.22-3.7,3.12-4.95,5.94-5.13l-.1-.09Z"/><path class="b" d="M338.42,326.35c-3.19-.06-4.17-1.42-4.79-3.82,2.43,.08,3.46,1.43,4.79,3.82Z"/><path class="b" d="M247.97,583.11c-2.77-.55-3.14-2.71-3.35-4.99,3.31,.19,3.34,2.58,3.35,4.99Z"/><path class="b" d="M332.52,322.13c-2.85-.83-4.05-1.88-4.72-4.09,2.64-.12,3.54,1.4,4.72,4.09Z"/><path class="b" d="M498.59,274.77c.61,0,1.21,0,1.82,.01-.24,2.37-.49,4.73-.73,7.1-.52-.02-1.04-.05-1.56-.07,.16-2.35,.31-4.69,.47-7.04Z"/><path class="b" d="M614.57,74.18c.82-3.09,3.34-3.3,5.88-3.49l.18,.18c-1.25,1.24-2.51,2.48-3.76,3.72l-2.29-.4Z"/><path class="b" d="M586.74,272.68c1.04,3.04-1.29,3.72-2.34,5.76-1.16-3.26,.9-4.09,2.34-5.76Z"/><path class="b" d="M174.72,170.35c2.84,.62,2.13,2.87,2.2,4.76-1.34-.82-2.68-1.64-4.03-2.46,.61-.77,1.22-1.54,1.82-2.31Z"/><path class="b" d="M569.19,727.57c-1.71-2.33-.37-3.61,1.6-4.68,1.38,2.22-.08,3.46-1.6,4.68Z"/><path class="b" d="M607.44,302.88c.32-1.79,1.33-3.03,3.3-3.97,.45,2.63-.67,3.84-2.94,4.34l-.36-.36Z"/><path class="b" d="M168.57,220.35c-.88,1.22-2.21,.98-3.44,1.06,.57-1.71,1.48-3.19,2.9-4.33,.41,.44,.81,.88,1.22,1.32l-.68,1.95Z"/><path class="b" d="M582.17,280.84c.79,2.45-.28,3.56-2.46,4.44-.66-2.45,.97-3.25,2.46-4.44Z"/><path class="b" d="M570.97,719.77c-.08-2.04-1.22-4.52,2.12-5.16,.11,2.06,.29,4.14-2.12,5.16Z"/><path class="b" d="M567.21,734.86c.03-1.86-.77-4.03,1.85-4.92,.37,2.01,.99,4.11-1.85,4.92Z"/><path class="b" d="M817.4,217.75c-.31,.48-.62,.96-.93,1.44-.76-.1-1.52-.19-2.27-.28,.13-.75,.27-1.51,.4-2.26,.28-.07,.43-.25,.44-.54,.78-.09,1.56-.18,2.34-.27,.01,.64,.02,1.27,.03,1.91Z"/><path class="b" d="M612.29,322.21c-.31-2.32,1.34-3.23,3-4.13,.23,.24,.46,.47,.7,.7-.61,1.86-1.85,3-3.8,3.34l.1,.09Z"/><path class="b" d="M564.87,743.22c-.16-1.72-.33-3.44,2.07-3.76,.42,1.86-.23,3.14-2.07,3.76Z"/><path class="b" d="M814.19,218.91c.76,.09,1.52,.19,2.27,.28l-.09,.49c-.04,.96-.08,1.92-.13,2.87-1.83-.57-2.54-1.77-2.06-3.65Z"/><path class="b" d="M893.44,584.25c-.24,1.8,.87,4.22-2.15,4.76,.1-.89,.21-1.78,.32-2.67,.62-.7,1.23-1.4,1.84-2.09Z"/><path class="b" d="M783.09,198.84c-.92-.78-2.56-1.18-1.59-2.91,.49,.97,1,1.98,1.51,2.99l.08-.08Z"/><path class="b" d="M180.49,179.86c.98,1.01,1.95,2.01,2.93,3.02-.2,.97-.59,1.8-1.61,2.14-.74-1.64-1.7-3.23-1.31-5.16Z"/><path class="b" d="M760.88,140.31c-.9,1.52-2.32,1.79-3.92,1.61,.43-.88,.86-1.75,1.28-2.63,1.07-.16,2,.06,2.64,1.02Z"/><path class="b" d="M639.54,319.8c.24-1.16,.57-2.23,2.09-2.06,.16,.02,.45,.24,.43,.32-.26,1.44-1.55,1.37-2.56,1.7l.04,.04Z"/><path class="b" d="M573.49,675.54c-.42,.06-.84,.12-1.26,.18-2.09-1.88-.79-2.32,1.08-2.53,.06,.78,.12,1.56,.19,2.34Z"/><path class="b" d="M627.66,306.75c.06-.73,.1-1.51,1.01-1.68,.17-.03,.63,.43,.6,.61-.14,.89-.85,1.07-1.63,1.05l.02,.02Z"/><path class="b" d="M498.12,281.81c.52,.02,1.04,.05,1.56,.07-.06,.78-.12,1.57-.18,2.35-.52,.03-1.05,.06-1.57,.09-.42-.87-.62-1.73,.19-2.51Z"/><path class="b" d="M911.16,341.03c-.81,1.21-1.62,1.19-2.41-.02,.81-.77,1.61-.87,2.41,.02Z"/><path class="b" d="M439.04,552.3c.8-1.22,1.61-1.22,2.41,0-.8,.84-1.61,.85-2.41,0Z"/><path class="b" d="M844.7,553.5c.8-1.22,1.61-1.22,2.42,0-.8,.88-1.61,.77-2.42,0Z"/><path class="b" d="M372.26,288.72c-.14,.48-.23,.8-.32,1.12-.43-.24-.92-.41-1.25-.74-.11-.11,.16-.62,.25-.94l1.33,.56Z"/><path class="b" d="M613.37,296.03c.12-.73,.22-1.5,1.12-1.64,.18-.03,.63,.43,.6,.61-.12,.89-.83,1.09-1.6,1.14l-.12-.11Z"/><path class="b" d="M345.03,310.67c-.82-.38-1.73-.7-1.64-1.86,0-.14,.24-.37,.37-.37,1.19-.07,1.42,.88,1.74,1.71-.16,.17-.32,.34-.47,.52Z"/><path class="b" d="M638.17,638.43c-.18,1.1-.86,1.44-1.89,1.25,.03-1.34,.66-1.75,1.89-1.25Z"/><path class="b" d="M607.8,303.24c-.45,1.23-.84,2.53-2.53,2.5,0,0-.19-.22-.19-.22,.15-1.45,1.11-2.17,2.36-2.64l.36,.36Z"/><path class="b" d="M619.38,315.07c-.11,1.48-1.08,2.09-2.39,2.36l-.04-.05c-.12-1.68,.81-2.34,2.36-2.38l.08,.07Z"/><path class="b" d="M96.26,296.06c-.57-.59-1.14-1.19-1.71-1.78,.27-.56,.55-1.13,.82-1.69,1.03,.97,1.01,2.2,.89,3.47Z"/><path class="b" d="M502.1,205.81c.74,.81,1.48,1.62,2.22,2.42-.8,.02-1.6,.05-2.4,.07-.03-.75-.07-1.5-.1-2.25l.28-.24Z"/><path class="b" d="M396.32,195.93c-.61,1.91-2.18,1.68-3.66,1.63,.8-1.49,2.38-1.21,3.66-1.63Z"/><path class="b" d="M919.57,498.76c-.41,0-.82,0-1.22,0-.07-1.12-.13-2.25-.2-3.38,.16-.16,.32-.32,.48-.47,1.08,1.1,1.05,2.46,.94,3.85Z"/><path class="b" d="M325.33,315.42l.66,.77c-.26,.11-.5,.27-.77,.31-.1,.01-.37-.3-.34-.38,.08-.25,.28-.45,.45-.7Z"/><path class="b" d="M401.93,275.07c-.5-.75-2.21-1.41-.83-2.36,.79-.55,1.21,.93,1.48,1.75-.22,.2-.44,.4-.66,.6Z"/><path class="b" d="M519.76,248.69l.41-2.59c.15,.1,.4,.16,.44,.3,.29,.98-.02,1.73-.92,2.23l.07,.06Z"/><path class="b" d="M617.7,291.72c-.14-.05-.39-.11-.39-.16,0-.17,.1-.33,.15-.5,.14,.05,.39,.11,.39,.16,0,.17-.1,.33-.16,.5Z"/><path class="b" d="M96.26,551.01c-.12-.34-.15-.69-.09-1.04,.05-.52,.1-1.04,.15-1.55,.92,.6,1.19,1.5,1.17,2.53-.41,.02-.82,.04-1.22,.06Z"/><path class="b" d="M613.5,296.14c-.15,.51-.3,1.02-.44,1.53l-.66-.46c.33-.39,.66-.78,.98-1.18l.12,.11Z"/><path class="b" d="M885.08,340.96c-.07,.21-.13,.42-.19,.64-.75-.05-1.5-.1-2.25-.15-.09-.24-.07-.48,.05-.71,.88-.85,1.65-.43,2.39,.22Z"/><path class="b" d="M244.67,578.23c-1.04-.27-1.37-1.09-1.53-2.03,1.49-.07,1.54,.96,1.53,2.03Z"/><path class="b" d="M385.67,200.02c.01,.39,0,.78-.02,1.16-.81-.01-1.61-.02-2.42-.03,.57-.9,1.41-1.23,2.44-1.13Z"/><path class="b" d="M351.3,74.42c.54-1.11,1.47-1.28,2.56-1.05-.58,1.02-1.53,1.13-2.56,1.05Z"/><polygon class="b" points="322.05 313.73 322.41 313.74 322.23 314.18 322.05 313.73"/><path class="b" d="M383.28,201.13c-.39,.75-1.01,1.06-1.84,.96,.61-.32,1.23-.64,1.84-.96Z"/><path class="b" d="M267.32,270.29c0-.8,.41-1.22,1.18-1.33-.39,.44-.79,.88-1.18,1.33Z"/><path class="b" d="M669.24,340.15c-.48,.52-.9,.42-1.28-.12l1.28,.12Z"/><path class="b" d="M33.15,545.89c-.36,.51-.71,1.03-1.07,1.54-.07-.81,.14-1.43,1.07-1.54Z"/><path class="b" d="M639.5,319.76c-.4,.4-.81,.79-1.21,1.19l.06,.06c.39-.4,.79-.8,1.18-1.21l-.04-.04Z"/><path class="b" d="M730.94,340.17c-.03,.28-.14,.53-.31,.74-.35-.22-.7-.45-1.05-.67,.45-.02,.91-.05,1.36-.07Z"/><path class="b" d="M244.55,550.95c.43,.34,.85,.68,1.28,1.01l-1.41-.02c.04-.33,.08-.66,.13-1Z"/><path class="b" d="M677.53,299.57l-.6-.43c.1,.02,.25,.01,.3,.08,.1,.12,.14,.29,.2,.44l.09-.09Z"/><path class="b" d="M616.99,317.43c-.33,.45-.67,.9-1,1.35-.24-.22-.47-.45-.7-.69,.55-.24,1.11-.47,1.66-.7l.04,.05Z"/><path class="b" d="M261.12,316.11c-.02-.35-.01-.71,.02-1.06,.41,.15,.83,.3,1.24,.45v.58c-.42,.01-.84,.03-1.26,.04Z"/><path class="b" d="M773.76,152.45c-.39-.47-.78-.93-1.17-1.4,.39,.47,.78,.93,1.17,1.4Z"/><path class="b" d="M309.69,243.68c-.12,.64-.36,1.03-1.06,.54l1.06-.54Z"/><path class="b" d="M219.89,148.22c.15-.88,.69-1.26,1.56-1.23-.52,.41-1.04,.82-1.56,1.23Z"/><path class="b" d="M774.84,153.73c-.37-.44-.75-.88-1.12-1.32,.37,.44,.75,.88,1.12,1.32Z"/><path class="b" d="M677.43,299.66c.75,.02,1.15,.42,1.23,1.16h0c-1.03,.18-1.15-.48-1.14-1.25l-.09,.09Z"/><path class="b" d="M467.7,272.39c.47,.02,.94,.05,1.41,.07-.26,.4-.53,.8-.79,1.19-.21-.42-.41-.84-.62-1.26Z"/><path class="b" d="M168.04,217.08c.54-.47,1.09-1.27,1.84-.44,.75,.83-.05,1.3-.63,1.76-.4-.44-.81-.88-1.21-1.32Z"/><path class="b" d="M694.1,279.45c-.39-.4-.79-.81-1.18-1.21l1.18,1.21Z"/><path class="b" d="M380.96,202.24c-.39,.82-1.04,1.15-1.93,1.03,.64-.34,1.29-.69,1.93-1.03Z"/><path class="b" d="M268.42,269.04c.41-.44,.82-.87,1.23-1.31-.41,.44-.82,.87-1.23,1.31Z"/><path class="b" d="M369.04,285.45l-.58-.6,.65,.53-.08,.08Z"/><path class="b" d="M369.11,285.37l.49,.65c-.19-.19-.38-.38-.57-.57l.08-.08Z"/><path class="b" d="M619.36,313.86c.46,0,.92,.01,1.38,.02-.45,.4-.9,.79-1.35,1.19l-.08-.07c-.17-.39-.16-.77,.05-1.14Z"/><path class="b" d="M584.12,406.42c-.03,27.22-.06,54.43-.09,81.65-3.04-.09-2.62-2.35-2.62-4.26-.01-24.4,0-48.8,0-73.2,0-1.96-.29-4.15,2.71-4.19Z"/><path class="b" d="M116.13,404.21c-.22,6.09-.58,12.18-.62,18.27-.12,19.09-.13,38.19-.12,57.28,0,2.34,.41,4.67,.63,7.01-3.01-.27-3.15-2.44-3.15-4.73,0-24.1,0-48.2,.04-72.3,0-2.36,.12-4.87,3.22-5.53Z"/><path class="b" d="M872.04,372.15c6.2-3.37,12.5-6.56,18.55-10.18,3.52-2.1,5.29-2.19,7.52,1.98,5.16,9.69,11.14,18.93,16.62,28.45,1.43,2.49,3.5,4.82,3.28,8.03-5.93-4.12-7.48-11.24-11.36-16.78-3.92-5.6-7.07-11.75-10.36-17.77-1.52-2.79-3.26-2.16-5.35-1.04-5.71,3.09-11.42,6.18-17.16,9.2-2.7,1.42-3.3,.71-1.73-1.89Z"/><path class="b" d="M98.61,361.03c-10.2,4.28-19.25,10.7-29.08,15.68-3.62,1.84-6.74,4.9-11.2,4.77,4.02-4.49,9.72-6.38,14.72-9.28,15.05-8.73,30.33-17.07,45.54-25.53,1.87-1.04,3.71-2.27,6.01-2.14l.28,.35c-.86,1.72-2.68,2.16-4.12,3.11-6.46,4.25-13.96,6.81-19.81,12.07l.04-.03c-.39-.05-.77-.02-1.15,.07l-1.23,.93Z"/><path class="b" d="M555.84,551.88c-2.98-2.86,.38-3.04,1.73-3.79,14.62-8.18,29.29-16.27,43.9-24.46,1.69-.95,3.16-2.28,4.73-3.43,1.17,0,2.34,0,3.51,0,.17,.36,.34,.72,.52,1.08-18.13,10.2-36.26,20.4-54.39,30.6Z"/><path class="b" d="M918.15,495.38c.07,1.13,.13,2.25,.2,3.38-7.6,.71-12.82,6.37-19.29,9.43-7.4,3.5-14.41,7.8-21.52,11.9-1.44,.83-2.77,1.4-4.4,1.21,1.1-3.85,4.97-4.18,7.71-5.69,12.38-6.84,24.29-14.55,37.31-20.23Z"/><path class="b" d="M100.95,360.05c5.85-5.26,13.35-7.81,19.81-12.07,1.44-.95,3.27-1.39,4.12-3.11,4.22,.17,4,4.24,5.65,6.6,1.89,2.69,3.35,5.68,5,8.54-4.19,1.61-4.05-2.48-5.12-4.3-4.32-7.35-3.98-6.97-12.01-3.43-5.82,2.57-10.45,7.9-17.45,7.77Z"/><path class="b" d="M96.31,548.42c-.05,.52-.1,1.03-.15,1.55-6.49-9.34-12.68-18.86-16.9-29.5,.19-.13,.38-.28,.56-.42,.32,.06,.65,.14,.97,.22,4.66,7.95,9.27,15.92,14.01,23.82,.83,1.39,1.63,2.66,1.52,4.33Z"/><path class="b" d="M850.53,535.84c-2.47-1.5-1.55-2.4,.42-3.56,4.67-2.73,9.23-5.67,13.83-8.52,.94,.15,2.31-.02,2.73,.53,1.17,1.56-.64,1.89-1.49,2.35-5.28,2.88-10.74,5.44-15.5,9.2Z"/><path class="b" d="M882.63,341.45c.75,.05,1.5,.1,2.25,.15,2.35,4.03,4.79,8,6.98,12.11,.79,1.48,2.86,3.2,.3,5.01-3.49-5.59-7.26-11.01-9.54-17.27Z"/><path class="b" d="M80.79,520.27c-.32-.09-.64-.16-.97-.22,1.8-3.23,5.66-3.56,8.17-5.81,1.38-.39,2.66-1.98,4.49,0-3.48,2.93-7.47,4.7-11.69,6.04Z"/><path class="b" d="M365.54,357.76c-.83,3.84-5.29,3.26-7.13,5.87-1.39-.2-2.74,1.36-4.83-.12,4.29-2.06,7.28-5.51,11.96-5.75Z"/><path class="b" d="M840.63,523.75c-.29,3.64,5.07,5.51,3.05,9.7-2.97-1.55-3.45-4.9-5.18-7.34-1.67-2.36,.68-2.2,2.13-2.36Z"/><path class="b" d="M663.38,342.47c-1.63,4.01-5.77,3.68-8.78,5.3,1.85-3.49,5.33-4.32,8.56-5.57l.22,.26Z"/><path class="b" d="M622.8,364.73c1.95-2.6,4.71-3.52,7.77-3.88-1.8,2.72-4.37,3.96-7.53,4.11l-.23-.24Z"/><path class="b" d="M633.46,358.81c1.96-2.6,4.75-3.51,9.24-4.86-3.2,3.74-5.84,4.89-8.99,5.11l-.25-.25Z"/><path class="b" d="M643.7,353.31c1.47-2.04,3.3-3.37,6.56-3.44-1.84,2.81-4.02,3.45-6.56,3.44Z"/><path class="b" d="M275.43,342.26c3.55,1.06,3.81,4.32,4.75,7.12-3.78-.91-3.9-4.26-4.75-7.12Z"/><path class="b" d="M283.72,355.3c2.31,1.32,3.1,3.54,3.58,5.95-3.44-.63-3.59-3.25-3.58-5.95Z"/><path class="b" d="M280.16,349.38c2.3,1.31,3.15,3.5,3.58,5.94-3.48-.6-3.52-3.27-3.58-5.94Z"/><path class="b" d="M623.04,364.97c-.49,2.22-1.88,2.61-3.91,1.93,.71-1.72,2.27-1.81,3.67-2.17l.23,.24Z"/><path class="b" d="M869.66,521.39c1.16-.03,2.32-.06,3.48-.09-1.11,1.85-2.22,4.02-3.48,.09Z"/><path class="b" d="M230.3,517.84c-1.12,.22-1.74-.48-2.3-1.26,1.91-1.66,2.12-.22,2.3,1.26Z"/><path class="b" d="M663.16,342.2c.61-.79,1.39-1.15,2.38-.86,.14,.04,.22,.28,.32,.43-.83,.23-1.65,.46-2.48,.69l-.22-.26Z"/><path class="b" d="M287.27,361.23c.45,.36,.91,.72,1.37,1.07-1.75,1.3-1.23-.31-1.37-1.07Z"/><path class="b" d="M275.17,340.03c.09,.75,.17,1.5,.26,2.25-1.22-.62-1.44-1.35-.26-2.25Z"/><path class="b" d="M633.71,359.06l-.69,.43c.15-.22,.3-.45,.44-.67l.25,.25Z"/><path class="b" d="M596.98,365.88c.13,.25,.27,.49,.4,.74-.25-.13-.5-.25-.76-.38l.35-.36Z"/><path class="b" d="M713.9,488.01l.44,.27c-.31,.18-.76,.58-.44-.27Z"/><path class="b" d="M99.84,360.1c.38-.1,.76-.12,1.15-.07-.33,.88-.71,.91-1.15,.07Z"/><path class="b" d="M760.97,646.58c-.32,.72-.49,1.56-.98,2.12-.71,.82-1.65,1.43-2.62,2.23-3.53-5.08,.26-9.09,1.83-12.85,2.1-5.03,6.68-8.57,10.73-12.25,1.9-1.73,3.81-2.24,4.97,.86-7.25,4.8-11.97,11.38-13.94,19.88Z"/><path class="b" d="M660.85,642.77c-1.68,1.94-3.77,4.69-6.12,3.26-1.18-.72,.6-4.32,1.78-6.59,2.09-4.05,4.93-7.45,7.89-10.75,2.3-2.57,5.12-3.43,7.16,.63-5.94,2.6-9.54,7.07-10.71,13.46Z"/><path class="b" d="M479.71,652.55c-2.3,.15-3.34,3.63-6.45,2.22,1.26-7.52,5.65-13.2,11.28-17.94,1.97-1.66,5.13-4.19,6.28,1.16-6.53,2.7-10.1,7.65-11.1,14.56Z"/><path class="b" d="M602.9,679c-1.4,.46-2,3.14-3.77,1.97-1.89-1.25-.12-2.91,.62-3.99,3.89-5.69,8.13-11.09,13.81-15.23,2.31,3.22-1.57,4.42-1.31,6.72-3.71,1.6-5.87,4.51-7.03,8.27l-.05,.04c-1.49-.02-2.27,.71-2.27,2.21Z"/><path class="b" d="M526.05,687.73c0,4.34-3.17,7.79-5.46,11.63-.69,1.16-2.09,1.1-3.2,.57-1.32-.63-1.34-2.04-.81-3.06,1.97-3.77,3.67-7.73,6.86-10.73,.61-.58,1.19-1.03,2.05-.77,.98,.3,1.02,1.04,.56,2.37Z"/><path class="b" d="M812.68,686.05c-3.67,.32-4.09-1.72-2.95-4.42,1.68-3.98,4.2-7.42,7.41-10.42,2.4,1.48,1.06,3.68,1.49,5.42-4,.85-4.89,3.67-4.61,7.24l-.09,.06c-.99,.37-1.16,1.23-1.26,2.13Z"/><path class="b" d="M605.23,676.74c1.16-3.76,3.32-6.67,7.03-8.27-.89,3.99-2.88,7.05-7.03,8.27Z"/><path class="b" d="M814.03,683.86c-.28-3.57,.61-6.39,4.61-7.24-1.12,2.68-.33,6.57-4.61,7.24Z"/><path class="b" d="M571.7,682.42c.16,1.02,.32,2.03,.48,3.05-.7,1.92,.83,4.89-2.62,5.5,.68-2.86-1.72-6.49,2.13-8.55Z"/><path class="b" d="M602.9,679c0-1.51,.78-2.23,2.27-2.21-.08,1.43-.81,2.2-2.27,2.21Z"/><path class="b" d="M716.5,638.97c-.88-.13-1.93-.14-1.82-1.43,.1-1.25,1.07-1.22,2-1.17-.06,.87-.12,1.73-.18,2.6Z"/><path class="b" d="M812.68,686.05c.1-.9,.27-1.76,1.26-2.13-.07,.92-.25,1.77-1.26,2.13Z"/><path class="b" d="M490.19,186.43c-6.35,.97-12.69,1.96-19.05,2.86-.93,.13-2.08-.12-2.29-1.34-.27-1.56,.9-2.02,2.1-2.22,1.93-.33,3.89-.78,5.82-.74,4.38,.09,8.74,1.3,13.16-.41,.09,.62,.18,1.23,.26,1.85Z"/><path class="b" d="M497.73,199.03c-.05,1.11-.1,2.22-.15,3.32-5.2-2.4-5.65-8.16-8.52-12.21-.64-.91,.57-1.67,1.59-1.95,1.34,1.62,1.13,4.58,4.13,4.75h0c-.26,2.63,.65,4.69,2.95,6.08Z"/><path class="b" d="M497.73,199.03c-2.3-1.39-3.21-3.46-2.95-6.09,2.44,1.26,3.29,3.46,3.56,6l-.27,.25-.33-.17Z"/><path class="b" d="M494.77,192.95c-3-.17-2.79-3.13-4.13-4.75,3.28-.07,3.75,2.3,4.13,4.75Z"/><path class="b" d="M694.97,309.95c.9-1.08,1.8-2.16,2.7-3.25l-.11,.04c.36-.06,.73-.12,1.09-.17,.22,.24,.44,.49,.66,.74-.41,2.15-1.71,3.2-3.91,3.11-.15-.15-.3-.31-.43-.47Z"/><path class="b" d="M499.52,201.96c.8-.25,1.61-.49,2.41-.74,.05,1.53,.11,3.06,.17,4.59l-.28,.24c-.77-1.36-1.53-2.72-2.3-4.08Z"/><path class="b" d="M695.4,310.43c-.15,1.11,.39,2.43-.79,3.2-.2,.13-1.14-.39-1.31-.78-.67-1.59-.11-2.63,1.67-2.89,.13,.16,.27,.32,.43,.47Z"/><path class="b" d="M606.65,224.97c-.15,.78-.3,1.57-.45,2.36h-.51l-.51,.02-.11-.11c.04-1.1,.5-1.91,1.59-2.27Z"/><path class="b" d="M698.78,305.57c.54,.06,1.42-.06,1.57,.22,.54,.97-.46,1.15-1.04,1.52-.21-.25-.43-.49-.65-.74,.04-.36,.1-.73,.18-1.08l-.06,.08Z"/><path class="b" d="M756.93,141.94c-.45,1.08-1.36,1.23-2.37,1.18,.49-.99,1.37-1.22,2.37-1.18Z"/><path class="b" d="M621.8,69.69c-.39,.39-.78,.78-1.17,1.18l-.17-.18c.4-.38,.8-.76,1.2-1.15l.15,.15Z"/><path class="b" d="M206.49,585.44c3.67,1.35,3.38,3.19,.58,5.21-17.75,12.8-25.21,32.44-31.62,51.72-5.25,15.8-7.1,32.91-5.53,49.93,.38,4.13,3.63,7.48,3.26,11.83-3.91-2.08-5.06-6.26-5.53-9.8-1.79-13.67-1.83-27.23,1.1-41.02,3.72-17.5,10.19-33.73,19.42-48.75,3.43-5.58,7.19-11.86,14.16-14.56,1.98-.77,3.71-2.18,4.15-4.56Z"/><path class="b" d="M173.43,704.65c.52,.54,1.03,1.08,1.55,1.63-.96-.11-1.45-.68-1.55-1.63Z"/><path class="b" d="M182.91,720.74c-.54-.4-1.08-.81-1.62-1.21,.54,.4,1.08,.81,1.62,1.21Z"/><path class="b" d="M344.64,238.8c4.68-1.45,8.19-1.15,12.5-.77-4.08,2.94-7.55,3.23-12.5,.77Z"/><path class="b" d="M262.37,315.49c-.41-.15-.83-.3-1.24-.45-.41-1.19-.82-2.37-1.23-3.56,2.66,.2,2.46,2.17,2.47,4Z"/><path class="b" d="M345.46,656.77c-1.42,2.15-3.21,3.64-5.99,3.37l-.1-.1c1.41-6.57,4.79-12.09,9.77-16.42,2.02-1.75,5.23-3.43,6.78,1.12-6.79,1.14-9.23,6.06-10.46,12.03Z"/><path class="b" d="M339.47,660.14l-.56,.48c.15-.19,.31-.39,.46-.58l.1,.1Z"/><path class="b" d="M176.94,175.13c2.82,.35,3.07,2.63,3.55,4.74-2.86-.32-3.21-2.53-3.55-4.74Z"/><path class="b" d="M220.84,143.15c-5.38,4.21-10.9,8.14-17.8,9.49,5.2-4.54,10.81-8.3,17.8-9.49Z"/><path class="b" d="M201.87,153.81c-3.32,3.25-7.11,5.58-11.87,5.94,3.17-3.56,7.17-5.45,11.87-5.94Z"/><path class="b" d="M222.03,141.95c-.01,.78-.48,1.12-1.2,1.2,.4-.4,.8-.8,1.2-1.2Z"/><path class="b" d="M203.05,152.63c-.4,.4-.8,.8-1.2,1.2,.4-.4,.8-.8,1.2-1.2Z"/><path class="b" d="M719.13,320.8c1.41,.8,2.22,1.99,2.37,3.61l-.34,.29c-2.18-.29-2.25-1.95-2.34-3.59l.31-.31Z"/><path class="b" d="M721.51,324.41c.27,.46,.54,.92,.78,1.4,.02,.04-.26,.23-.41,.35-.24-.48-.47-.97-.71-1.45l.34-.29Z"/><path class="b" d="M718.82,321.12l-.4-.73c.24,.14,.47,.28,.71,.42l-.31,.31Z"/><path class="b" d="M896.95,573.55c.36,3.06-2.06,5.28-2.46,8.11-7.31,.09,.81-3.58-1.17-4.8,.02-.26,.06-.52,.12-.77,.37-.43,.75-.86,1.12-1.3,.5-.97,1.4-1.2,2.39-1.25Z"/><path class="b" d="M894.56,574.79c-.37,.43-.75,.86-1.12,1.3,.37-.43,.75-.86,1.12-1.3Z"/><path class="b" d="M817.37,215.85c-.78,.09-1.56,.18-2.34,.27,.48-2.33,2.37-1.9,3.7-1.44,.49,.17-.86,.76-1.36,1.17Z"/><path class="b" d="M121.93,458.65c0-14.02-.07-28.03,.07-42.05,.02-2.52-1.5-6.49,1.97-7.18,4.22-.85,9.21-1.63,12.31,3.14,3.7,5.72,7.34,11.47,11,17.21,5.25,8.24,10.56,16.44,15.71,24.74,1.29,2.08,2.75,3.27,5.16,2.61,2.71-.75,1.9-3.16,1.91-4.96,.12-12.25,.25-24.5,.11-36.75-.05-3.99,1.07-5.74,5.35-5.63,3.96,.1,6.5,.72,6.18,5.52-1.38,20.71-.42,41.46-.85,62.19-.03,1.67,.42,4.14-2.07,4.2-4.13,.1-8.78,1.78-11.81-2.99-5.74-9.05-11.58-18.03-17.36-27.05-2.84-4.43-5.53-8.96-8.46-13.33-1.33-1.98-2.23-5.11-5.57-4.22-3.36,.89-2.68,3.93-2.72,6.42-.21,12.04-.53,24.09-.48,36.13,.02,4.22-1.52,5.35-5.57,5.34-4.15-.02-5.67-1.48-5.54-5.55,.19-5.92,.05-11.85,.05-17.78h.6Z"/><path class="b" d="M411.87,481.57c-8.91,2.06-10.2,1.63-14.93-5.69-7.93-12.27-15.84-24.56-23.62-36.93-1.83-2.9-3.77-4.97-7.5-4.06-3.46,.16-2.63,2.81-2.64,4.79-.02,13.9,.03,27.81,.06,41.71-9.33,2.21-10.33,1.49-10.27-7.83,.13-18.93,.28-37.86,.56-56.79,.03-2.27-1.44-6.13,2.27-6.27,4.11-.16,8.99-2.44,12.29,2.76,8.85,13.97,17.99,27.75,26.85,41.71,1.28,2.02,2.43,3.9,4.93,3.09,2.55-.82,3.15-3.14,3.15-5.71-.02-11.44,.05-22.88,.07-34.33,.02-8.53,.13-8.63,8.66-7.13,.04,23.55,.08,47.11,.11,70.67Z"/><path class="b" d="M411.87,481.57c-.04-23.56-.08-47.12-.11-70.67,3.45-.72,2.23,2.14,2.24,3.36,.03,21.39-.07,42.77-.2,64.16,0,1.12-.51,2.24-.81,3.36-.04,.14-.32,.37-.37,.34-.27-.14-.5-.36-.74-.55Z"/><path class="b" d="M363.23,481.39c-.03-13.9-.09-27.81-.06-41.71,0-1.97-.82-4.62,2.64-4.79-.11,13.86-.16,27.73-.39,41.59-.03,1.74,1.52,4.63-2.19,4.91Z"/><path class="b" d="M487.55,462.79c.13,10.94-8.13,20.15-19.79,20.95-9.78,.68-19.01,.2-27.62-4.86-2.45-1.44-5.35-2.86-2.14-6.08,2.03-2.04,1.75-8.46,7.54-4.07,5.85,4.43,12.78,4.54,19.75,4.14,4.53-.26,7.24-3.17,8.81-6.82,1.64-3.82,.02-7.22-3.05-9.94-4.32-3.83-9.68-5.81-14.79-8.1-7.07-3.17-11.78-8.21-14.11-15.47-2.52-7.84,6.55-20.87,15.61-22.61,7.87-1.51,15.46-.52,22.85,2.47,3.61,1.46,3.32,4.02,1.82,6.68-1.25,2.24-1.9,4.91-6.07,2.74-5.08-2.65-11.09-2.55-16.7-1.18-6.12,1.5-8.02,9.55-3.55,14.25,4.03,4.23,9.54,5.89,14.66,8.25,6.25,2.88,11.91,6.39,15.21,12.91,1.13,2.24,1.63,4.37,1.57,6.76Z"/><path class="b" d="M564.59,423.71c-12.71-1.04-25.46-4.3-35.79,6.78-5.24,5.62-8.36,12.1-6.84,19.57,2.28,11.21,9.22,18.93,20.73,21.07,7.07,1.31,14.43,1.42,21.49-1.31,1.42,3.04,.34,6.56,2.38,9.62,1.57,2.35-1.2,3.57-2.99,3.89-13.14,2.34-25.93,2.68-37.58-5.68-24.29-17.41-21.61-47.16,1.64-62.39,10.88-7.12,22.9-6.96,35.08-4.69,3.13,.58,5.54,1.88,3.33,6.05-1.13,2.13-1.04,4.92-1.44,7.09Z"/><path class="b" d="M590.32,452.6c0-12.03,.09-24.07-.05-36.1-.04-3.63,.84-5.54,4.94-5.3,8.65,.5,17.33-.53,25.99,.94,8.13,1.39,13.92,5.47,16.35,13.3,2.35,7.57,1.31,14.84-4.27,20.94q-7.72,8.43-1.36,18.46c3.01,4.77,5.87,9.64,8.92,14.38,1.71,2.66,1.3,3.79-2,4.05-5.11,.41-8.82-.8-11.5-5.82-3.59-6.72-8.23-12.87-12.17-19.42-2.75-4.58-7.04-3.86-10.94-3.25-4.31,.68-3.43,4.65-3.49,7.69-.1,4.93-.22,9.88,.03,14.81,.2,4.03-.56,6.16-5.39,6.03-4.38-.12-5.93-1.44-5.78-5.84,.27-8.28,.08-16.58,.08-24.88h.65Zm10.51-20.18c0,12.12,.07,12.23,8.03,12.19,11.11-.05,17.15-4.09,17.29-11.58,.15-7.99-6.34-12.65-17.65-12.7-7.36-.03-7.67,.47-7.67,12.09Z"/><path class="b" d="M728.57,482.62c-9.04,2.23-10.38,1.34-10.3-7.2,.15-15.99,.24-31.99,.67-47.97,.13-4.67-1.35-6.59-6.03-6.12-2.35,.23-4.75-.1-7.11,.07-3.73,.26-5.81-.5-5.81-5.07,0-4.56,2.04-5.07,5.78-5.02,12.45,.18,24.9,.23,37.35,.03,4.04-.06,4.98,1.6,5.1,5.25,.13,3.98-1.35,5.2-5.17,4.99-3.93-.22-7.89,.12-11.84,.22-3.44,.16-2.7,2.78-2.7,4.79,0,18.68,.04,37.36,.07,56.04Z"/><path class="b" d="M728.57,482.62c-.03-18.68-.08-37.36-.07-56.04,0-2.01-.74-4.63,2.7-4.79-.12,18.43-.19,36.85-.47,55.28-.03,1.85,1.88,5.03-2.15,5.55Z"/><path class="b" d="M327.53,481.34c-.38,.08-.77,.23-1.15,.23-10.86,.12-8.98,.82-8.95-8.43,.06-17.86,.4-35.71,.56-53.57,.08-9.5,.01-9.5,9.51-8.71,0,23.49,.02,46.99,.03,70.48Z"/><path class="b" d="M327.53,481.34c0-23.49-.02-46.99-.03-70.48,2.79-1.13,2.37,1.11,2.38,2.45,.03,21.62,0,43.24-.03,64.86,0,1.59,.08,3.3-2.32,3.17Z"/><path class="b" d="M676.37,482.59c-1.59,1.16-3.44,.53-5.17,.75-4.24,.54-5.34-1.39-5.28-5.44,.26-19.36,.23-38.72,.34-58.08,.05-9.21,.48-9.53,10.03-7.85,.03,23.54,.06,47.08,.08,70.62Z"/><path class="b" d="M676.37,482.59c-.03-23.54-.06-47.08-.08-70.62,2.88-.89,2.3,1.45,2.3,2.73,0,21.67-.07,43.33-.13,65,0,1.47-.18,2.8-2.09,2.89Z"/><path class="b" d="M698.84,305.49c-.08,.36-.14,.72-.18,1.08-.36,.05-.73,.11-1.09,.17-.4-1.25,.33-1.36,1.27-1.26Z"/><path class="b" d="M607.04,432.61c1.54-2.71-2.05-7.32,3.81-7.26,4.85,.04,9.03,3.49,8.81,7.4-.32,5.51-4.81,6.39-8.76,6.7-6.39,.5-1.65-5.08-3.86-6.83Z"/><path class="b" d="M256.73,445.01c.48,7.71-1.22,14.67-8.62,18.36-11.09,5.54-20.84,.43-24.19-11.8-2.03-7.43-.13-14.08,3.34-20.38,2.45-4.44,10.24-7.12,14.85-6.19,7.67,1.55,12.71,5.73,14.26,13.54,.42,2.1,.25,4.31,.35,6.48Z"/><path class="b" d="M821.07,456.4c-1.34,7.43-7.44,9.93-13.39,11.1-4.88,.96-9.99-1.16-13.64-5.12-6.93-7.54-5.68-27.86,3.49-33.01,8.99-5.04,20.57-1.47,23.49,8.62,.01,6.14,.03,12.27,.04,18.4Z"/><path class="b" d="M821.07,456.4c-.01-6.13-.03-12.27-.04-18.4,3.31,4.7,3.33,13.44,.04,18.4Z"/></g><path class="c" d="M275.6,436.61c3.08,20.42-4.15,34.4-18.86,42.46-18.08,9.91-41.06,1.09-48.93-17.65-7.61-18.11-2.04-34.65,8.05-44.1,15.32-14.35,39.38-12.88,51.45,2.8,.57,4.35,3.08,7.56,6.12,10.46l-.04-.06c.41,2.15-1.46,5.12,2.21,6.09Zm-35.13-17.75c-14.79-1.2-23.73,12.48-23.42,25.75,.32,13.66,7.27,25.77,23.66,25.59,14.29-.16,22.7-10.07,22.86-25.02,.18-17.31-10.36-27.37-23.1-26.32Z"/><path class="c" d="M840.67,439.48c3.08,20.42-4.15,34.4-18.86,42.46-18.08,9.91-41.06,1.09-48.93-17.65-7.61-18.11-2.04-34.65,8.05-44.1,15.32-14.35,39.38-12.88,51.45,2.8,.57,4.35,3.08,7.56,6.12,10.46l-.04-.06c.41,2.15-1.46,5.12,2.21,6.09Zm-35.13-17.75c-14.79-1.2-23.73,12.48-23.42,25.75,.32,13.66,7.27,25.77,23.66,25.59,14.29-.16,22.7-10.07,22.86-25.02,.18-17.31-10.36-27.37-23.1-26.32Z"/></g></svg>