<?xml version="1.0" encoding="UTF-8"?><svg id="a" xmlns="http://www.w3.org/2000/svg" viewBox="0 0 987.25 774.81"><defs><style>.b{fill:#fff;}</style></defs><path class="b" d="M71.49,552.83c-13.48,7.72-26.6,16.1-40.67,22.79-.04-1.32-.17-2.67,.93-3.7,9.3-2.47,16.46-8.99,24.85-13.18,4.03-2.02,7.87-4.44,11.81-6.63,1.17-.65,2.27-.45,3.07,.72Z"/><path class="b" d="M51.51,505.04c3.51,.43,3.75,3.73,5.08,5.96,4.51,7.58,8.89,15.25,13.17,22.97,.72,1.3,2.66,2.85,.46,4.6-1.32-1.94-2.72-3.83-3.94-5.83-5.08-8.37-9.04-17.42-15.06-25.23-.16-.16-.32-.3-.5-.44l.79-2.03Z"/><path class="b" d="M69.13,397.62c0,.4-.01,.8-.02,1.19-8.07,4.85-16.14,9.7-24.21,14.55-.35-1.24-.69-2.49-1.04-3.73,7.08-1.6,12.4-6.58,18.69-9.72,2.13-1.06,4.02-2.52,6.55-2.32l.03,.03Z"/><path class="b" d="M44.9,413.36c8.07-4.85,16.14-9.7,24.21-14.55,2.11,1.9,.18,2.74-1.07,3.46-7.47,4.3-14.76,8.95-22.8,12.17-.25-.32-.36-.68-.34-1.08Z"/><path class="b" d="M50.89,509.79c-.32,.04-.64,.05-.96,.04-.14-1.04-.02-2,.79-2.77,.17,.13,.34,.28,.5,.44-.11,.76-.22,1.52-.33,2.29Z"/><path class="b" d="M50.89,509.79c.11-.76,.22-1.52,.33-2.29,6.02,7.81,9.98,16.85,15.06,25.23,1.21,2,2.62,3.89,3.94,5.83-.15,1.72,1.92,3.13,.42,5.6-7.2-11.37-13.68-22.75-19.74-34.37Z"/><path class="b" d="M69.1,397.59l.29-.51c-.09,.18-.17,.36-.26,.53l-.03-.03Z"/><g><path class="b" d="M979.99,383.29c-3.12,1.28-2.7,4.46-3.45,6.86-4.73,15.27-9.27,30.6-13.88,45.91-6.39-8.75-11.48-18.28-16.48-27.84-1.89-3.61-5.44-6.53-5.09-11.17,.66-1.43,2.05-1.84,3.28-2.61,10.13-6.35,21.41-10.83,30.69-18.57,1.93-.83,3.38,.35,4.93,1.16v6.26Z"/><path class="b" d="M400.74,608.14c-37.96-.27-75.92-.55-113.88-.82,19.45-11.17,38.91-22.35,59.07-33.92-2.81-1.38-3.97-.08-5.32,.21-2.21-2.17-4-.73-6.06,.46-12.93,7.46-26.08,14.56-38.84,22.3-5.58,3.38-12.13,5.35-16.5,10.63-12.95,1.16-25.9,.57-38.85,.1-6.15-11.02-12.29-22.04-18.44-33.06l-1.62,.93c4.67,11.37,12.11,21.29,17.67,32.19-29.38,.01-58.77,.13-88.15,0-23.7-.1-47.4,.23-71.09-.96-4.06-11.5-11.4-21.18-17.54-31.52-.06-.11-.97,.29-1.48,.45-2.39-2.18-4.86-1.49-7.33-.17-.84-1.23-1.99-1.44-3.22-.76-4.14,2.3-8.16,4.84-12.4,6.95-8.81,4.4-16.32,11.23-26.08,13.83,5.67-21.91,12.05-43.62,19.07-65.14,.34,.01,.67,0,1.01-.04,6.36,12.2,13.16,24.13,20.71,36.06,1.57-2.59-.6-4.07-.44-5.88,2.31-1.83,.28-3.46-.48-4.82-4.49-8.1-9.09-16.14-13.82-24.1-1.39-2.34-1.65-5.8-5.33-6.25,2.64-9.62,5.11-19.29,7.99-28.83,1.43-4.74,1.57-9.08,.12-13.95-5.15-17.35-9.83-34.83-14.69-52.27,8.44-3.39,16.09-8.26,23.92-12.77,1.31-.76,3.34-1.63,1.12-3.63,0-.42,.02-.83,.02-1.25,.09-.19,.18-.37,.27-.56l-.3,.53c-2.66-.21-4.65,1.32-6.88,2.43-6.6,3.29-12.18,8.52-19.61,10.19-4.76-16.14-9.43-32.3-14.34-48.4-1.35-4.41,.83-5.07,4.28-5.04,30.15,.24,60.31,.48,90.46,.72,.78,1.24,1.61,1.29,2.48,.1,.41,.05,.82,.11,1.23,.16-.99,1.93,2.84,4.19-1.11,6.27-11.89,6.29-23.63,12.9-35.09,19.93-4.31,2.65-9.85,3.72-12.66,8.61-.54,.16-1.08,.32-1.62,.48l.31,.47,1.34-.92c.5,.04,1.01,.09,1.51,.13,2.78,2.5,5.03,.31,7.26-.95,12.93-7.34,25.86-14.69,38.69-22.21,2.59-1.52,3.72-1.24,5.18,1.44,3.45,6.36,7.46,12.42,10.9,18.79,1.04,1.93,1.93,3.05,4.13,2.75,3.7-.59,1.48-2.16,.79-3.81-3.45-8.19-10.54-14.52-12.09-23.67,3.6-2.58,7.05-5.42,11.51-6.44,2.18-.57,4.29-1.21,6.64-1.2,43.51,.19,87.02,.29,130.52,.43,1.43,0,2.86,.36,4.29,.55,4.26,10.92,11.3,20.33,16.88,30.53,1.01,1.84,1.64-.41,1.95-1.45,.4,.03,.81,.06,1.22,.07,.42,.41,.84,.83,1.26,1.24l.51,.29c-.17-.09-.34-.19-.52-.28-.42-.42-.83-.84-1.25-1.26-.93-2.29-1.78-4.61-2.81-6.85-3.53-7.7-9.37-14.16-12-22.35,41.69,.17,83.38,.33,125.07,.5-7.18,6.79-16.4,10.32-24.69,15.32-7.7,4.65-15.56,9.05-23.64,13.72,2.2,1.51,3.3-.12,4.65-.28,2.2,2.34,4,.72,6.03-.44,7.76-4.46,15.8-8.48,23.33-13.29,7.29-4.66,15.94-7.19,21.89-13.92h-.01c1.04,.12,1.92-.16,2.53-1.06,38.32,.03,76.64,0,114.96,.11,23.91,.06,47.83,.31,71.74,.47,.01,.24,.05,.47,.13,.69,2.61,7.15,7.19,13.23,10.83,19.82,.9,1.62,1.66,3.96,4.34,3.79,3.56-.84,2.07-2.65,.96-4.55-3.77-6.42-7.45-12.88-11.17-19.32,2.49-.03,4.98-.05,7.48-.08,.85,1.4,1.71,1.43,2.59,.02,22.97,.07,45.93,.13,68.9,.2-.1,2.66-1.95,3.91-4,5.04-4.15,2.28-8.46,4.32-12.38,6.94-5.81,3.87-12.82,5.87-18.76,11.76h6.04c1.03-.11,2.24,.1,3.06-.37,13.27-7.69,26.49-15.47,39.73-23.22,22.15,.02,44.29,.05,66.44,.07,1.43,7.53,6.81,13.1,9.9,19.81,.62,1.35,2.01,1.23,2.9-.2,.37,.06,.75,.11,1.12,.14,.17,.1,.34,.19,.51,.29-.18-.08-.36-.17-.55-.25,.28-3.29-1.81-5.38-3.81-7.52l.03,.06c-1.63-4.12-3.25-8.25-4.88-12.37,33.28,.18,66.56,.34,99.84,.55,19.32,.12,38.65,.32,57.97,.48,2.91,6.84,6.53,13.24,11.36,18.93-3.87,2.31-7.73,4.64-11.61,6.93-2.14,1.26-.96,1.58,.48,1.86,1.98,4.96,4.04,.68,5.85-.09,3.52-1.5,6.92-4.75,9.92,.74,4.95,9.07,9.76,18.24,15.12,27.07,2.29,3.77,3.22,8.59,7.5,11.03-4.29,14.97-8.43,29.97-12.95,44.87-1.27,4.19-1.24,7.94-.05,12.09,4.26,14.76,9.23,29.32,12.26,44.42-12.32,5.07-23.04,13.06-34.85,19.07-.87,.44-1.6,1.46-.33,2.46-.46,.88-1.64,1.85-.87,2.73,1.05,1.19,2.3,.01,3.29-.54,6.82-3.79,13.77-7.39,20.34-11.6,4.55-2.91,10.2-4.36,13.32-9.33l.25-.43c5.63,19.59,11.28,39.17,16.87,58.77,.7,2.47,2.3,5.38-2.72,5.34-26.05-.2-52.11-.26-78.17-.37-2.23-7.14-7.62-12.66-10.11-19.67,11.55-6.64,23.1-13.27,35.13-20.19-2.62-1.69-3.72-.18-5.06,.05-2.34-2.5-4.23-.25-6.05,.74-5.1,2.78-9.99,5.96-15.15,8.63-12.12,6.29-12.12,6.18-19.11-5.87-.6-1.03-.5-4.67-3.57-2.15-1.11-.4-1.24-2.32-3.92-1.63,3.5,6.16,6.88,12.1,10.26,18.03-4.74,4.7-10.92,7.15-16.46,10.61-5.85,3.66-12.77,5.66-17.48,11.11-13.9,1.28-27.83,.38-41.75,.51-19.96,.19-39.93,.14-59.89,.19-.64-.01-1.29-.02-1.94-.04-2.6-.33-5.21-.66-7.81-.99-6.97-12.27-13.94-24.54-20.93-36.8-.7-1.23-1.3-3.01-3.05-.95-5.32-.95-1.75,2.33-1.27,3.2,6.2,11.38,12.57,22.67,18.9,33.99-.06,.3-.09,.59-.1,.9-30.05-.19-60.1-.38-90.16-.57-.86-1.3-1.7-1.28-2.52,.03-12.42-.1-24.83-.2-37.25-.29,1.67-6.33,3.35-12.67,5.02-19,.92-.49,.91-1.31,.8-2.18h-.03c11.53-3.11,20.61-10.68,30.51-16.8-10.83,3.88-20.38,10.18-30.28,15.83,1.24-6.47,2.61-12.93,3.69-19.43,.62-3.69,.09-6.88-5.03-5.93-6.51-5.15-6.91,1.32-7.87,4.64-2.81,9.76-5.02,19.7-7.47,29.56-1.9,1.25-3.67,2.65-4.81,4.69-2.46-.03-4.51,.61-6.32,3.4,3.4-.1,5.22-1.16,6.45-3.25,.86,.02,1.72,.05,2.58,.07,.71,3.25-1.26,5.92-1.93,8.86l-65.84-.51c.6-5.27,1.3-10.54,1.75-15.83,.35-4.12-.92-6.98-5.91-6-3.65-2.84-4.89,.03-5.45,2.69-1.35,6.42-2.29,12.92-3.39,19.39-31.1-.16-62.19-.32-93.29-.48-.3-.95-.52-1.95-1.66-2.29-1.3-.84-2.61-1.69-3.91-2.53-1.63-1.34-2.64-3.1-3.67-4.93-4.49-7.97-9.12-15.86-13.72-23.77-.89-1.53-1.86-2.67-2.42,.21-1.41-.48-1.29-3.07-4.33-2.59,6.7,11.94,13.16,23.44,19.63,34.95-.05,.29-.17,.55-.36,.78ZM118.7,505.1c2.03,2.36,3.3,3.94,4.17,6.12,4.93,12.27,10.29,24.37,15.22,36.65,5.83,14.54,2.73,11.69,19.5,12.12,4.11,.11,6.6-1.49,8.1-5.3,3.87-9.85,7.75-19.7,11.92-29.41,2.67-6.22,3.8-13.17,8.72-18.57,.64,3.17,.61,6.24,.65,9.3,.18,12.5-.38,25.01,.87,37.51,.47,4.73,2.02,6.55,6.9,6.31,7.5-.38,15.04-.33,22.54-.07,5.21,.18,6.82-1.89,6.79-7.01-.24-38.61-.35-77.22-.19-115.83,.02-6.22-2.71-8.23-8.19-8.14-11.89,.2-23.78,.46-35.66,.64-2.91,.04-4.12,1.29-5.15,4.16-4.67,13.07-9.54,26.07-14.81,38.9-2.32,5.64-3.05,12.18-7.94,17.34-7.29-18.97-14.22-37.12-21.26-55.23-1.26-3.25-3.32-5.27-7.44-5.17-11.69,.3-23.38,.26-35.07,.1-4.53-.06-6.37,1.47-6.15,6.19,.34,7.29,.13,14.6,.15,21.91,.09,31.3,.17,62.61,.27,93.91,.03,8.54,.05,8.55,8.84,8.55,6.68,0,13.38-.33,20.04,.03,5.27,.29,7.45-1.1,7.31-6.88-.37-15.76-.13-31.54-.13-48.14Zm344.72-16.45c-7.46-19.3-14.55-37.11-21.15-55.09-1.6-4.37-4.2-5.91-8.27-5.87-10.64,.09-21.27,.33-31.91,.49q-9.49,.15-9.51,9.4c-.06,33.98-.08,67.97,1.04,101.94,.15,4.59,.06,9.18,.1,13.77,.03,3.79,1.6,5.57,5.74,5.42,8.13-.3,16.28-.31,24.42-.11,4.28,.1,5.88-1.34,5.83-5.76-.18-14.81-.04-29.63,.1-44.44,.01-1.36-1.06-3.32,1.61-4.36,6.03,14.14,12.34,28.09,17.95,42.31,5.45,13.82,3.22,11.48,18.27,12.06,5.37,.2,8.27-2.08,10.01-6.51,3.33-8.46,6.23-17.1,9.76-25.47,3.06-7.27,5.12-15.05,9.92-22.57,1.65,3.11,1.22,5.41,1.23,7.6,.1,13.35,.37,26.71,.12,40.06-.1,5.47,2.28,6.89,7.14,6.68,7.71-.33,15.43-.6,23.14-.45,4.42,.09,5.89-1.68,5.88-5.86-.13-39.44-.19-78.87-.2-118.31,0-4.13-1.75-6.35-5.88-6.36-11.9-.01-23.8-.01-35.69,.16-3.54,.05-6.28,1.61-7.63,5.3-3.89,10.64-7.74,21.3-11.98,31.8-3.07,7.6-4.68,15.84-10.06,24.17Zm-166.38-.64c.44,21.49-.12,42.98,1.06,64.46,.17,3.16-.41,6.48,4.48,6.45,23.19-.12,46.37-.16,69.56-.17,3.11,0,4.61-1.22,4.57-4.44-.1-7.72-.12-15.45-.09-23.17,.02-4.15-2.2-5.34-5.98-5.28-8.77,.14-17.55,.19-26.32,.08-11.55-.14-9.85,2-10.36-10.29-.22-5.28,1.92-6.32,6.59-6.18,9.18,.27,18.38,.04,27.57,.04,4.23,0,6.6-1.56,6.43-6.31-.24-6.88-.2-13.78-.02-20.67,.11-4.13-1.7-5.5-5.64-5.42-8.35,.17-16.71,.17-25.06,.05-11.23-.16-9.4,1.95-9.88-10.01-.19-4.85,1.2-6.66,6.29-6.48,9.59,.35,19.21,.02,28.82,.07,4.57,.02,6.96-1.64,6.73-6.68-.3-6.67-.29-13.37-.06-20.04,.15-4.41-1.71-5.86-5.91-5.83-21.93,.15-43.86,.18-65.8,.19-4.78,0-7.17,1.6-7.09,6.99,.27,17.53,.1,35.07,.1,52.61Zm369.93,4h.13c0,19.41,.08,38.82-.05,58.23-.03,5.03,1.83,7.24,7.02,7.05,7.72-.29,15.45-.32,23.17-.16,4.72,.1,6.77-1.43,6.54-6.52-.51-11.66-.55-23.35-.7-35.02-.02-1.55-.73-3.75,1.33-4.38,2.26-.7,2.96,1.35,4.02,2.98,8.48,13.01,17.19,25.86,25.6,38.92,1.84,2.85,3.91,3.92,7.16,3.82,9.39-.27,18.78-.31,28.17-.54,5.74-.13,6.55-1.74,3.34-6.74-8.7-13.55-17.47-27.05-26.21-40.58-1.78-2.76-3.12-5.4,.39-8.02,9.45-7.08,13.6-16.9,14.62-28.39,2.37-26.65-13.2-43.28-35.98-45.63-16.63-1.72-33.36-.78-50.05-.75-7.67,.02-8.47,.89-8.48,8.73-.04,18.99-.01,37.99-.01,56.98Zm250.49-1.62c.89-34.18-23.45-61.04-54.17-66.3-19.61-3.36-38.39,.91-53.92,14.72-21.33,18.96-27.44,42.6-21.04,69.84,10.3,43.84,56.34,61.72,93.09,43.06,24.54-12.45,35.76-34.01,36.03-61.32Zm-364.41,13.14h.82c0,15.85,.15,31.7-.09,47.54-.07,4.75,1.17,6.7,6.28,6.61,17.52-.29,35.07,.34,52.56-.43,10.49-.46,20.13-4.76,27.37-12.77,13.04-14.42,13.51-34.56,1.51-50.22-1.77-2.31-3.88-4.3-1.51-7.64,5.92-8.36,5.97-18.01,4.94-27.56-2.12-19.6-17.94-31.5-35.99-31.86-15.43-.3-30.87,.08-46.31,.14q-9.58,.03-9.58,9.29c0,22.3,0,44.6,0,66.9Zm-311.18-10.06h.4c0,19.62,.11,39.24-.07,58.86-.05,5.41,1.86,7.48,7.39,7.19,7.5-.4,15.04-.31,22.55-.04,5.25,.19,6.92-2.01,6.9-7.06-.18-38.83-.23-77.65-.2-116.48,0-4.96-2.03-7.42-7-7.39-7.73,.04-15.45,.05-23.18,.13-4.69,.05-6.99,1.79-6.9,7.18,.32,19.2,.12,38.41,.12,57.61Zm328.09,113.78c2.63-.26,4.19-.48,4.73-2.76-2.17-.53-3.31,.33-4.73,2.76Z"/><path class="b" d="M742.2,610.06c.65,.01,1.3,.03,1.94,.04,.55,.96,1.1,1.93,1.65,2.88-2.22,13.96-7.09,27.25-10.42,40.94-1.06,4.37-2.82,8.61-2.84,14.75,4.91-6.43,7.28-12.39,10.41-17.91,5.45-6.16,8.97-13.81,15.29-19.32,4.52-3.93,8.86-5.14,13.53-.44,2.88,6.68,3.57,13.91,5.36,20.87,.99,3.85,1.08,8.94,7.2,8.81,2.85-.39,5.11-1.98,6.84-4.04,7.86-9.35,17.04-17.61,23.24-28.33,3.69-6.38,8.23-11.96,15.48-14.7,4.41-1.67,8.49-1.81,12.14,1.67,.97,2.98,1.78,5.91,1,9.14-3.37,13.9-12.1,23.45-24.48,29.86-3.18,1.65-7.3,2.31-6.28,7.02,.99,4.62,.87,10.4,7.63,11.28,7.2,1.38,12.3-3.13,17.52-6.67,13.14-8.91,22.17-21.93,32.62-33.52,1.54-1.7,2.93-3.53,4.46-5.25,2.39-2.69,4.6-2.46,6.58,.5,.12,2.26-1.1,3.94-2.37,5.62-9.09,11.97-18.84,23.45-30.24,33.19-8.78,7.51-18.04,15.24-31.04,13.88-9.2-2.54-10.46-10.71-12.85-18.08,0-2.49,0-4.99,0-7.48-7.22,6.59-12.7,13.94-22.76,14.36-8.88-2.49-10.41-10.21-12.35-17.55-.83-3.13-.43-6.58-2.47-9.4-.24-2.05-.29-4.61-2.65-5.06-2.02-.38-2.77,2.06-3.96,3.44-11.5,13.41-18.96,29.04-25.36,45.32-1.77,4.51-2.54,9.82-7.53,12.46-4.24-.15-5.56-2.58-5.77-6.54-.47-8.85,1.56-17.38,2.98-25.98,.38-2.27,.78-5.12-2.52-3.46-10.34,5.19-17.97,.26-25.49-5.89-.32-.26-.71-.43-1.07-.64-1.43-4.17-3.62-3.29-5.85-.78-5.03,5.66-8.21,12.36-11.02,19.33-5.26,13.02-8.48,26.91-16.32,38.85-5.74-.21-7.15-3.92-7.33-8.84-.36-10.03,1.36-19.85,2.82-29.7-.23-2.88,2.35-5.68-.02-9.64-1.8,2.07-3.35,3.71-4.74,5.48-5.69,7.19-12.2,13.56-19.36,19.25-8.33,6.62-16.82,13.04-28.43,11.91-8.91-1.19-13.87-14.55-12.29-26.48,1.55-11.69,6.18-22.4,13.58-31.73,3.01-3.79,6.59-6.86,11.26-8.57,4.43-1.63,8.52-1.74,12.15,1.75,2.24,5.64,1.02,10.87-1.64,16.07-5.63,11-13,20.08-25.34,23.93-1.28,.4-2.16,1.16-2.66,2.38-2.02,4.92,2.04,12.98,7.51,14.92,6.44,1.14,11.15-2.73,15.97-5.81,8.15-5.21,14.59-12.35,20.98-19.54,6.63-7.46,12.75-15.36,19.96-22.33,3.02-2.92,3.03-7.62,4.72-11.38,1.55-3.43,3.6-5.29,6.92-1.69,.53,7.83-3.83,14.36-5.78,21.53-2.85,10.48-6.32,20.83-5.55,32.15l11.29-26.07c2.2-4.31,5.08-8.14,8.32-11.7,6.74-7.4,13.6-7.2,19.94,.54,5.5,6.71,5.87,6.93,12.69,1.43,8.8-7.1,16.9-14.67,18.32-27.05,.58-5.1,2.57-10.12,6.46-13.97Zm-130.69,51.34l-.07,.1c6.59-3.27,10.58-8.52,11.97-15.74,.66-4.6-1.74-4.55-4.77-2.95-7.02,3.72-10.38,10.52-13.77,17.15-1.05,2.06-3.37,5.3-1.41,6.73,2.39,1.75,4.59-1.4,6.46-3.21,.14-.14,.2-.36,.3-.55,.43-.51,.86-1.02,1.29-1.53Zm223.75-36.32c.96-4.28-.51-5.63-4.53-3.67-6.61,3.22-9.78,9.34-12.61,15.58-1.28,2.82-5.26,6.74-2.38,8.58,3.11,1.99,5.47-3.01,7.83-5.41,6.44-3.06,10.32-8.1,11.7-15.08Z"/><path class="b" d="M400.74,608.14c.19-.23,.31-.49,.36-.78,.76-1.11,1.52-2.21,2.27-3.32l2.25-.56c1.3,.84,2.61,1.69,3.91,2.53-4.52,2.51-2.11,7.14-3.02,10.68-4.35,16.91-9.51,33.53-15.01,50.1-4,12.06-6.4,24.6-5.67,38.88,1.79-2.59,2.72-3.94,3.65-5.28,5.5-7.45,10.54-15.28,18.89-20.14,4-2.33,7.6-3.06,11.3,.25,1.37,3.58,1.5,7.31,1.32,11.08-.21,4.55,1.97,3.66,4.5,1.97,6.81-4.23,13.66-8.41,20.43-12.72,2.36-1.5,4.43-2.35,6.27,.59-5.8,6.7-13.97,10.15-20.97,15.2-7.15,5.16-13.58,10.54-16.95,19.18-2.65,6.82-7.11,12.64-14,16.05-4.99-.92-5.21-4.11-3.52-7.87,2.5-5.57,6.3-10.36,10.91-14.2,7.37-6.15,9.03-13.97,8.14-22.87-1.66-3.85-3.98-2.41-6.41-.85-9.55,6.15-14.41,15.7-18.82,25.63-4.12,9.29-4.49,19.69-8.75,28.92-4.15-.38-3.4-3.55-3.3-6.11,.27-7.65,.75-15.29,1.05-22.94,.05-1.32,.79-3.15-.93-3.88-1.69-.71-2.55,.93-3.46,1.97-2.87,3.3-5.87,6.38-9.68,8.67-8.49,5.1-16.38,1.88-18.11-7.82-.68-3.83-.37-7.84-.51-11.76-.01-1.42,.55-3.35-.76-4.03-1.89-.98-2.76,1.19-3.86,2.27-.72,.71-1.18,1.68-1.84,2.47-6.04,7.24-11.64,14.97-20.96,18.49-1.35-.73-2.69-1.45-4.04-2.17-.62-1.56-1.24-3.12-2.14-5.37-5.24,8.95-9.88,17.27-14.93,25.33-3.79,6.06-6.68,13.06-14.07,16.03-5-1.67-6.82-5.52-7.57-10.4-1.12-7.32-.93-14.72-1.03-22.73-3.55,1.43-4.74,3.96-6.41,5.92-10.75,12.62-23.57,22.29-39.48,27.42-16.65,5.36-33.09-3.77-38.24-20.72-3.31-10.89-2.98-21.78-1.05-32.75,4.15-23.56,11.47-45.65,29.78-62.49,6.02-5.54,12.59-10.12,20.39-12.96,5.31-1.93,10.14-1.79,14.86,1.3,.17,.39,.46,.67,.86,.81l.21,.32c.43,.31,.86,.63,1.29,.94h-.05c3.49,8.45,3.29,16.79-.02,25.31-3.77,9.71-8.99,18.58-14.84,27.12-5.22-1.35-1.67-3.93-.6-5.73,5.44-9.15,10.61-18.4,12.59-29.03,1.02-5.47,.93-10.79-3.32-15.15-2.72-2.52-5.8-1.6-8.77-.78-7.43,2.06-13.61,6.48-18.94,11.69-23.03,22.47-30.13,51.02-29.48,81.91,.14,6.88,2.62,14.34,9.46,18.71v-.02c.05,1.54,.95,2.29,2.37,2.56,6.12,4.41,12.79,5.08,19.53,2.04,28.14-12.69,48.96-31.86,55.98-63.33,3.54-15.88,8.17-31.45,15.35-46.15,1.93-3.95,4.12-7.71,6.81-11.19,2.14-2.77,4.3-3.06,6.66-.33,.12,2.92-.2,5.74-.99,8.6-5.05,18.32-13.24,35.32-21.43,52.37-8.47,17.64-7.96,36.54-6.46,55.45,.21,2.58,1.45,4.41,4.57,3.32,8.45-10.14,14.17-22,20.91-33.21,4.39-7.3,8.72-14.64,11.94-22.6,.85-2.1,1.78-5.96,5.63-2.73-.59,2.16-1.16,4.32-1.76,6.47-1.36,4.91-3.55,9.62-3.56,14.85,0,2.5,.13,4.92,3.65,2.68,8.9-5.92,14.51-14.83,20.95-22.98,1.29-1.64,2.5-3.34,3.81-4.97,1.37-1.72,2.48-4.46,5.37-2.65,2.55,1.6,5.13,2.98,4.2,7.29-1.62,7.52-2.66,15.18-2.26,22.98,.23,4.6,2.43,5.39,5.37,2.71,9.65-8.81,19.57-17.25,22.09-31.46,4.34-24.41,9.26-48.75,18.1-72.06Zm-108.95,58.27c5.73-9.81,8.68-20.65,11.82-31.42-5,10.09-10.79,19.9-11.77,31.47l-.28,.41,.24-.46Z"/><path class="b" d="M612.83,92.35c-20.87-5.03-41.64-10.32-63.02-13.11-87.25-11.38-170,2.81-248.1,43.25-46.46,24.05-86.83,56.02-121.21,95.49-.96,1.1-1.86,2.27-2.92,3.26-2.45,2.28-5.6,1.54-7.5,.02-2.34-1.88,.63-3.53,1.79-4.87,50.65-58.65,112.5-100.85,185.85-126.05,19.57-6.73,39.57-11.83,59.95-15.51,52.66-9.53,105.24-9.47,157.71,1.21,14.77,3,29.66,5.69,43.7,11.52-2.08,1.6-4.16,3.2-6.25,4.8Z"/><path class="b" d="M513.64,228.73c-3.79,.48-7.52,.05-11.22-.74-.82-1.32-1.67-1.37-2.54-.04-20.61,.53-41.16,1.69-61.35,6.22-6.08,1.37-12.11,2.99-18.13,4.62-2.61,.71-5.05,1.57-7.92,.97-2.91-.61-5.79-.3-7.37,3.04-.37,.78-1.54,1.29-2.44,1.69-11.43,5.01-22.87,9.97-34.32,14.94-3-3.08-3.22-8.12-7.35-10.41-.49-1.56-.97-3.12-1.46-4.67-.95-1.86-2.71-2.66-4.52-2.44-4.82,.58-9.6,1.5-14.39,2.29l.06,.03c.14-.58,.09-1.5,.44-1.7,13.25-7.57,26.09-15.99,41.09-19.95-1.39,3.3-4.86,3.68-7.45,5.25-4.91,2.99-10.24,5.33-15.84,10.46,6.65-1.23,10.38-4.43,14.35-6.79,8.86-5.25,18.52-9.25,26.35-16.17,14.39-5.77,29.42-9.03,44.63-11.71,1.89-.33,3.17,.57,4.74,.9,1.6,.34,3.68,.99,4.86,.31,13.02-7.53,27.33-4.27,41.12-5.23,.41,.75,.82,1.51,1.23,2.27-1.79,2.13-4.2,1.16-6.32,1.09-4.13-.13-8.19-.14-12.12,1.35-4.26-.12-8.87-1.01-10.47,4.73-3.54,1.94-5.12,4.78-3.45,8.67,1.15,2.68,3.63,3.18,6.24,2.64,4.42-.92,5.28-4.95,2.25-10.17,.26-3.33,2.68-3.58,5.22-3.64l11.05,.27c.04,.86,.07,1.72,.11,2.58-2.06,3.95-2.53,7.67,2.46,9.63,2.79,1.1,5.52,.05,6.79-2.71,1.64-3.56,.14-6.35-3.1-8.29,.03-.6,.06-1.21,.08-1.81,.59-.02,1.19-.03,1.78-.05,.69,.2,1.37,.4,2.06,.6,.79,1.63,1.16,3.67,3.62,3.65l-.02-.02c.37,4.69,2.21,8.59,6.19,11.3,.56,3.16,5.43,3.23,5.06,7.05Zm-110,2.15c-.25-3.38-2.01-5.43-5.46-5.58-3.42-.14-5.77,1.71-5.81,5.09-.04,3.47,2.03,6,5.74,6.05,3.44,.04,5.18-2.18,5.52-5.56Zm23.3-7.79c-.79-2.74-1.96-5.34-5.66-5.24-3.83,.1-5.74,2.32-5.58,5.99,.15,3.44,2.37,5.38,5.74,5.19,3.29-.19,5.21-2.27,5.51-5.94Zm-51.22,22.55c3.64-.11,5.47-2.01,5.46-5.48-.02-3.41-1.91-5.6-5.3-5.72-3.8-.14-5.81,2.47-5.81,5.92,0,3.33,2.3,5.16,5.65,5.28Zm67.62-32.95c-2.24,.3-4.08,2.12-3.98,5.63,.11,3.95,2.69,5.66,6.1,5.43,2.86-.19,5.08-2.26,4.91-5.4-.18-3.45-1.87-5.92-7.03-5.66Z"/><path class="b" d="M641.8,240.24c20.44,11.12,38.34,25.58,55.04,41.63,7.04,6.76,13.83,13.74,20.05,21.26,1.31,1.59,2.4,3.36,3.58,5.05,.13,1.02,.39,1.96,1.46,2.41l-.05-.19c4.27,11.41,11.19,21.37,17.47,31.67l.03,1.29c-6.47,2.02-12.95,4.04-19.42,6.06l-4.47,.04c-4.32-6.06-8.64-12.11-13.39-18.78,4.36,.96,7.23,1.19,6.71-4.63-.38-4.21-1.67-5.06-5.02-3.93-6.32,2.14-15.72-3.84-16.35-10.61-.04-.39,.41-.96,.25-1.19-4.45-6.6-3.09-10.26,5.08-11.75,2.23-.41,3.12-3.72,1.7-6.45-1.5-2.88-4.2-4.13-6.77-2.71-3.32,1.84-6.12,4.7-7.1,8.68-.47,1.9,.78,4.84-1.48,5.52-2.34,.7-2.73-2.62-4.25-3.86-18.37-15.04-36.68-30.18-58.15-40.82-.69-.34-1.19-1.1-1.77-1.66,2.66-3.13,6.4-4.34,10.09-5.61,2.53,3.62,5.64,6.32,10.04,3.29,4.08-2.81,2.64-6.31,.15-9.55,2.19-1.72,4.38-3.44,6.57-5.16Zm35.69,38.33c-.58-3.7-2.33-5.97-6.12-5.91-3.5,.05-5.35,2.19-5.54,5.44-.2,3.47,2.21,5.54,5.26,5.72,3.37,.19,5.74-1.89,6.4-5.25Zm28.93,28.12c-3.41,.13-6.11,1.28-6.11,5.34,0,3.35,1.72,5.72,5.15,5.84,3.64,.13,6-2.06,6.04-5.7,.03-2.99-.84-5.92-5.08-5.47Zm-48.5-43.57c-.34-3.29-2.3-5.19-5.7-5.2-3.46-.01-5.56,2.02-5.53,5.43,.04,3.67,2.31,5.86,6,5.7,3.39-.15,5.19-2.29,5.22-5.93Zm62.74,73.88c3.19-.36,5.57-1.99,5.7-5.38,.14-3.69-2.14-5.89-5.8-5.89-3.46,0-5.22,2.22-5.34,5.62-.14,3.65,2.09,5.14,5.44,5.64Z"/><path class="b" d="M250.19,331.43c12.18-20.55,28.22-37.9,45.34-54.33,2.38-2.28,5.06-4.26,7.61-6.37,1.47,.66,.95-.74,1.29-1.25l.16-.3,.33,.06c.64-.44,1.29-.88,1.93-1.32l-.09,.03c2.47,.49,4.45-.79,6.41-1.92,6.62-3.85,13.22-7.74,19.79-11.69,4.02-2.42,9.09-3.28,11.73-7.78,1.55,.66,5.08-1.13,4.25,2.41-1.23,5.2,1.76,7.09,5.51,8.81-.44,2.85-2.7,2.6-4.74,2.89-1.45,.2-3.97-.6-3.68,1.9,.22,1.96,2.55,1.52,4.16,1.75,2.31,.32,5.74-1.83,6.29,2.66-35.71,22.24-64.79,51.07-86.74,87.02-1.47,2.4-2.8,5.46-6.68,3.64-.4-2.96-1.09-5.75-4.26-7.03-.25-.45-.51-.9-.76-1.35-.7-6.79-6.86-11.18-7.85-17.84Zm52.73-36.26c-.74-2.78-2.32-5.28-5.69-5.35-3.64-.08-5.95,2.18-6,5.78-.05,3.34,2.24,5.56,5.47,5.65,3.54,.1,5.66-2.16,6.22-6.08Zm-16.42,18.07c-.65-3.44-2.6-5.55-6.33-5.35-3.48,.18-5.42,2.42-5.25,5.67,.17,3.14,2.16,5.55,5.57,5.58,3.64,.03,5.59-2.22,6.01-5.9Zm-21.05,13.59c-2.69,.66-5.09,2.1-5.07,5.61,.02,3.66,2.02,5.84,5.77,5.79,3.39-.05,5.42-2.05,5.51-5.42,.1-3.75-2.23-5.51-6.21-5.98Zm74.13-62.49c-.19-3.47-1.97-5.42-5.44-5.43-3.66,0-5.93,1.92-5.88,5.64,.04,3.36,2.31,5.54,5.48,5.55,3.39,.01,5.78-1.95,5.83-5.76Zm-18.98,14.56c-.58-2.58-1.94-5.27-5.33-5.43-3.51-.16-6.06,1.68-6.09,5.59-.03,3.47,1.79,5.43,5.37,5.51,3.51,.08,5.36-1.79,6.05-5.67Z"/><path class="b" d="M513.64,228.73c.38-3.83-4.5-3.9-5.06-7.05h.25c2.87-.43,5.74-.89,8.62-1.29,3.45-.48,5.28-2.5,5.13-5.91-.14-3.11-2.02-5.04-5.14-5.29-3.54-.28-5.41,1.82-5.94,5.1-.32,1.97,.49,4.35-2.39,5.07-3.43-2.11-2.99-7.1-6.71-8.99l.02,.02c-.11-2.3-1.09-3.74-3.62-3.65-.69-.2-1.37-.4-2.05-.59,1.3-.83,4.05,.1,4.03-1.79-.02-2.44-2.5-2.59-4.56-2.5-.41-.76-.82-1.51-1.23-2.27,7.86-.65,15.84-1.78,21.19,6.47,2.13-3.52-2.44-3.1-1.14-5.73,11.68,.03,23.37,2.04,34.94,4.39,28.75,5.84,56.24,15.37,82.05,29.45,2.53,1.38,5.32,2.47,7.17,4.89-1.65,2.49-5.3,2.77-6.46,5.8-2.61,.05-4.88,.81-6.37,3.13l-1.11,1.32,.1-.05c-5.32,.53-9.49,3.07-12.72,7.26-12.75-6.04-25.76-11.45-39.19-15.83-2.2-.72-5.27-.48-1.89-4.19,.97-1.06-2.13-1.26-3.23-1.18-18.68,1.45-36.31-5.6-54.68-6.59Zm32.54-13.16c-1.87-1.36,1.89-4.17-1.2-5.08-4.81-1.42-7.26,1.6-8.97,5.37-1.47,3.26-.1,5.92,2.97,7.12,4.19,1.64,6.76-.27,7.59-4.62,2.9-1.84,6.84,3.02,9.66-1.8-3.35-1.79-6.6-2.13-10.06-.99Zm36.2,14.47c-.2,2.71,1.22,4.66,3.93,5.37,2.57,.68,4.95,.21,6.41-2.43,1.56-2.82,.84-5.01-1.37-7.22-1.14-1.14-6.17-1.03-1.83-4.79,1.49-1.29-1.02-2.19-2.03-3-1.86-1.48-3.78-1.4-5.73-.09-.77,.52-1.46,1.48-.7,1.94,4.67,2.86,1.39,6.62,1.33,10.22Zm33.68,9.35c-.64-3.33-2.18-5.51-5.82-5.44-3.55,.06-5.67,2.07-5.62,5.37,.06,3.48,2.21,6.07,5.98,5.79,3.23-.24,5.18-2.42,5.46-5.72Zm-45.76-16.81c-.27-3.34-2.21-5.02-5.69-4.97-3.63,.05-5.4,2.38-5.46,5.52-.07,3.28,2.23,5.63,5.45,5.58,3.39-.06,5.83-2.04,5.7-6.13Z"/><path class="b" d="M654.72,71.05c12.04,2.98,22.95,8.73,33.99,14.06,37.56,18.12,72.21,40.66,103.12,68.78-6.02,.95-10.47,4.88-15.32,8.06-16.34-12.55-32.39-25.49-49.88-36.48-27.08-17.02-55.46-31.33-85.61-42.09-1.55-.55-2.99-1.41-4.48-2.13,6.09-3.34,11.66-7.62,18.18-10.19Z"/><path class="b" d="M77.34,320.53c5.6-17.59,14.63-33.6,23.43-49.67,7.31-13.35,15.2-26.44,24.46-38.54,11.24-14.68,21.25-30.38,34.77-43.23,3.7-.32,2.93,5.13,6.47,5.01l-.02-.02c.09,3.36,.78,6.37,4.5,7.57-29.51,33.35-53.9,70.06-72.24,110.68-4.26,9.44-8.17,19.05-12.23,28.58l-.39-.44c.66-2.88-.69-5.16-2.05-7.53-2.33-4.09-5.57-7.69-6.7-12.42Z"/><path class="b" d="M580.27,65.76c-21.61-3.33-43.2-6.59-65.11-7.67-27.39-1.34-54.6,.1-81.74,3.67-4.13,.54-8.28,.86-12.42,1.27-.25-5.82-6.31-9.23-6.29-15.15,2.92-.5,5.84-.99,8.76-1.49,1.02,1.44,1.82,1,2.52-.29,12.24-2.66,24.71-3.62,37.15-4.39,34.61-2.14,69.1-.87,103.37,4.76,1.64,.27,3.24,.78,4.86,1.17l1.02,1.13c1.07,6.38,6.49,10.75,7.88,16.98Z"/><path class="b" d="M749.4,318.85c-4.38,1.76-7.08,.23-9.86-3.61-13.31-18.42-28.3-35.35-45.22-50.63-4.45-4.02-8.02-8.25-13.5-11.74-15.8-10.06-30.93-21.16-47.59-29.92-28.6-15.04-58.9-25-90.77-30.19-32.18-5.24-64.38-5.26-96.58-.13-1.22,.19-2.49,.07-3.74,.09,3.5-3.82,9.19-4.41,12.53-8.47,16.81-3.4,33.88-3.11,50.83-2.51,66.72,2.37,126.34,24.64,179.05,65.41,24.07,18.62,44.75,40.57,62.39,65.37,1.16,1.63,2.9,3.14,2.44,5.54-.06,.27-.05,.54,.02,.8Z"/><path class="b" d="M583.32,609.04c.67-2.95,2.64-5.61,1.93-8.86,2.13-1.03,2.51-2.8,2.1-4.91,2.45-9.87,4.66-19.8,7.47-29.56,.95-3.32,1.35-9.78,7.87-4.64-.31,2.04-.54,4.1-.95,6.13-6.39,31.72-15.91,62.49-27.9,92.52-9.14,22.87-19.16,45.3-33.75,65.35-4.57,6.28-9.84,11.92-17.71,14.17-5.39-.03-8.19-3.33-10.19-7.84-5.99-13.49-8.69-27.8-10.69-42.27-3.53-25.48,.22-50.72,2.7-75.99,.14-1.44,.2-2.89,.29-4.34,1.1-6.47,2.05-12.97,3.39-19.39,.56-2.66,1.8-5.53,5.45-2.69,.16,13.12-2.76,25.94-3.68,38.98-1.85,26.34-4.75,52.66,1.74,78.75,1.9,7.63,3.12,15.54,6.93,22.59,1.16,2.15,1.87,5.49,5.6,2.97,1.84-.08,2.92-1.39,4.19-2.47,7.1-6.07,11.92-13.84,16.28-21.9,14.16-26.2,24.95-53.87,35.08-81.8,1.72-4.76,4.07-9.48,3.86-14.79Z"/><path class="b" d="M275.54,97.69c15.75-10.41,33.15-17.53,50.47-24.7,19.48-8.07,39.56-14.43,60.09-19.29,2.81-.67,5.74-.84,8.61-1.24-1.34,2.68-4.22,3.15-6.47,4.5-10.01,6.03-20.73,10.87-30,18.12l.02-.02c-6.12,1.99-11.56,5.13-16.29,9.5-15.06,6.29-30.16,12.49-44.61,20.12-4.75,2.5-9.52,4.95-14.29,7.42-1.38-5.39-4.83-9.71-7.52-14.41Z"/><path class="b" d="M794.49,199.1c-3.73,1.76-5.92-.88-8.07-3.03-29.54-29.46-62.87-53.76-99.78-73.18-21.22-11.17-43.27-20.37-66.07-27.79-1.77-.58-3.51-1.27-5.26-1.91,2.62-1.5,5.25-3,7.87-4.51,15.27,3.67,29.57,10,43.8,16.4,47.22,21.24,89.22,50.11,125.75,86.84,1.94,1.95,5.09,3.64,2.2,7.12,0,0-.44,.05-.44,.05Z"/><path class="b" d="M280.68,112.88c-15.4,10-30.79,20.01-46.19,30.01-10,4.18-19.38,9.42-27.87,16.19h.01c-9.73,3.35-18.3,8.72-26.34,15.03h.01c-1.77-.49-3.88,2.36-5.4-.56,15.6-16.88,33.38-31.26,51.7-45,15.15-11.36,31.12-21.48,47.63-30.75-.08,5.98,5.58,9.5,6.44,15.08Z"/><path class="b" d="M893.98,323.27q-3.23-6.21,.94-16.61c-9.4,2.29-11.03-4.94-13.53-10.69-2.33-5.37-4.83-10.57-8.32-15.27,.12-.45,.24-.9,.36-1.35,1.72-.39,3.45-.79,5.17-1.18,1.93,.12,3.65-.26,5.19-2.5-4.8,1.13-6.08-1.65-6.64-5.2,2.22-1.29,4.43-2.58,6.65-3.87,9.92,14.94,17.12,31.3,24.42,47.57,5.88,13.12,10.57,26.71,15.13,40.34,1.78,5.31,.98,7.32-4.8,6.33-1.22-.21-2.49-.08-3.74-.11-4.3-11.32-10.48-21.57-17.79-31.17l.03-.02c.16-1.12,.02-2.1-1.23-2.54h.03c.11-1.09-.09-2.04-1.21-2.57l.04,.05c-.23-.41-.47-.82-.7-1.22Z"/><path class="b" d="M434.73,194.03c-17.85,4.93-35.78,9.51-53.1,16.31-28.95,11.38-54.94,27.62-79.38,46.59-.97-.06-1.94-.12-2.91-.19-.39-1.98-3.13-1.16-3.73-3.44,17.67-15.09,37.13-27.82,57.99-38.35,29.41-14.85,60.24-25.42,93.07-29.66,.61-.08,1.25-.02,1.87-.02-4.6,2.92-9.21,5.84-13.81,8.76Z"/><path class="b" d="M572.39,48.78l-1.02-1.13c27.61,4.46,54.58,11.2,80.39,22.15-5.93,3.47-11.87,6.94-17.8,10.41-16.71-4.58-33.41-9.17-50.12-13.75-3.58-6.05-5.47-13.19-11.45-17.68Z"/><path class="b" d="M73.73,606.33c-20.71,.03-41.43,.13-62.14,.07-7.21-.02-3.55-3.86-2.18-6.81,1.69,2.78,3.32,1.17,5.18,.1,12.62-7.28,25.33-14.39,37.9-21.74,3.04-1.78,4.84-1.22,6.42,1.7,4.86,8.93,10.74,17.3,14.81,26.67Z"/><path class="b" d="M156.39,241.8c1.36-.07,2.57-1.57,4.32-.32-6.66,9.98-13.5,19.81-19.91,29.92-16.12,25.41-28.69,52.56-39.12,80.74-.22,.58-.35,1.2-.51,1.8-.88,3.29-3.59,4.67-6.18,3.48-1.98-.91-1.78-3.85-.83-6.21,4.34-10.8,8.19-21.82,12.96-32.43,11.56-25.68,25.35-50.13,41.88-72.99,1.11-1.53,2.16-3.06,3.88-3.98,1.17,.36,2.35,1.8,3.51-.02Z"/><path class="b" d="M880.19,323.52c.96,2.76,4.31,4.83,5.7,8.29,3.12,7.73,6.02,15.53,8.73,23.41,.6,1.76,3.13,4.38-.6,5.48-2.73,.81-5.14,.18-6.4-3.22-3.75-10.18-7.66-20.3-11.76-30.34-8.3-20.34-18.97-39.45-30.51-58.1-1.04-1.68-4.69-3.55-.99-6.1,3.06-2.1,5.3-1.12,7.18,1.98,10.38,17.14,20.48,34.43,28.38,52.9,.64,1.5,1.73,2.95,.27,5.71Z"/><path class="b" d="M800.24,161.4c.39,.12,.57,.39,.54,.8,.4,1.38,.56,2.89,1.24,4.11,4.94,8.88,9.99,17.7,15,26.54,.07,.97,.14,1.94,.21,2.91-.12,3.16,4.2,2.96,4.52,6.01,.1,1.01,1.67,1.9,.17,3.03-1.39,1.05-2.51,.84-3.67-.59-12.15-15.02-26.63-27.74-40.55-41.01,4.99-2.72,9.97-5.44,14.96-8.15,2.83,1.26,4.82,3.54,6.84,5.76,.28,.15,.53,.35,.73,.6Z"/><path class="b" d="M403.4,50.08c1.86-1.32,4.01-1.18,6.12-1.2,.38,2.63,.34,5.53,3.9,6.14l-.02-.02c-.64,3.45,2.48,5.81,2.64,9.03-21.09,4.74-41.99,10.21-62.76,16.18,.99-2.35,4.97-1.83,4.96-5.15l-.02,.02c2.46,.4,4.43-.86,6.39-1.98,7-3.99,13.99-8.01,20.93-12.1,6.01-3.54,12.74-5.91,17.85-10.92Z"/><path class="b" d="M260.85,297.33c-2.89,6.33-8.1,11-12.01,16.61-8.47,12.15-16.44,24.59-23.14,37.82-.75,1.49-1.44,3.02-2.34,4.42-1.87,2.91-5.16,2.55-7.32,1.55-2.98-1.38-.07-3.59,.67-5.09,9.19-18.51,20.21-35.87,33.06-52.06,4.14,.44,6.8-4.11,11.06-3.25Z"/><path class="b" d="M286.31,743.83c-3.12,1.09-4.36-.74-4.57-3.32-1.51-18.9-2.01-37.81,6.46-55.45,8.19-17.05,16.37-34.05,21.43-52.37,.79-2.87,1.11-5.69,.99-8.6,5.13,.5,4.37,4,3.72,7.38-2.47,12.75-7.9,24.45-12.82,36.35-4.51,10.91-11.39,20.72-14.08,32.5-3,13.13-1.74,26.48-2.96,39.68-.15,1.6,.94,2.69,1.83,3.83Z"/><path class="b" d="M203.92,740.51c-6.84-4.36-9.32-11.82-9.46-18.71-.65-30.9,6.45-59.45,29.48-81.91,5.34-5.21,11.52-9.63,18.94-11.69,2.97-.82,6.05-1.74,8.77,.78-16.12,3.23-26.92,13.95-35.51,26.76-14.18,21.16-19.24,44.88-17.49,70.22,.38,5.5,3.79,9.61,5.27,14.55Z"/><path class="b" d="M817.41,680.32c13.01,1.36,22.26-6.37,31.04-13.88,11.4-9.75,21.15-21.22,30.24-33.19,1.27-1.68,2.49-3.36,2.37-5.62,5.92,.97,7.23,2.82,4,6.83-13.18,16.35-26.43,32.73-44.83,43.7-7.13,4.25-14.69,7.14-22.83,2.15Z"/><path class="b" d="M86.47,340.92c-.45,1.59-.85,3.19-1.35,4.76-4.1,12.79-4.51,13.01-17.8,11.54-2.17-.24-3.67-.41-2.76-3.22,3.11-9.63,5.79-19.42,10.59-28.42,2.68,.41,3.25,2.95,4.53,4.68,2.4,3.23,3.2,7.47,6.39,10.23l.39,.44Z"/><path class="b" d="M727.5,698.33c4.99-2.65,5.76-7.95,7.53-12.46,6.4-16.27,13.86-31.91,25.36-45.32,1.19-1.38,1.94-3.82,3.96-3.44,2.36,.45,2.4,3.01,2.65,5.06-12.41,13.01-19.7,29.01-26.48,45.31-1.43,3.44-2.66,6.99-4.49,10.21-2.31,4.08-5.32,5.32-8.52,.64Z"/><path class="b" d="M162.62,186.33c.8-.84,1.6-1.69,2.4-2.53,.55,2.97,1.85,2.37,3.9,1.16,8.61-5.07,17.28-10.07,26.06-14.84,4.66-2.53,8.97-5.86,14.37-6.85-12.62,12.38-25.24,24.76-37.86,37.14-2.32-1.6-2.1-5.21-5.04-6.32l.02,.02c-.46-3-1.83-5.55-3.85-7.77Z"/><path class="b" d="M662.43,713.22c7.84-11.94,11.06-25.83,16.32-38.85,2.82-6.98,6-13.67,11.02-19.33,2.23-2.51,4.42-3.39,5.85,.78-9.82,12.52-13.95,27.67-19.59,42.14-1.81,4.63-3.68,9.27-6,13.66-1.64,3.12-4.11,5.65-7.6,1.61Z"/><path class="b" d="M832.23,331.98c-.11,6.02-5.39,11.17-11.25,10.97-6-.21-11.1-5.55-10.9-11.43,.21-6.18,5.16-10.89,11.4-10.83,6.25,.06,10.87,4.91,10.75,11.29Z"/><path class="b" d="M163.62,317.99c5.97,.08,10.52,4.78,10.53,10.87,0,6.26-4.97,11.33-11.04,11.25-5.99-.08-11.23-5.5-10.99-11.37,.27-6.34,5.07-10.83,11.49-10.74Z"/><path class="b" d="M607.95,693.93c-5.47-1.93-9.54-10-7.51-14.92,.5-1.22,1.38-1.98,2.66-2.38,12.34-3.85,19.72-12.93,25.34-23.93,2.66-5.2,3.88-10.43,1.64-16.07,5.77,.76,6.86,4.84,6.38,9.57-1.2,11.84-8.62,19.93-17.15,27.18-2.19,1.87-4.75,3.4-7.34,4.69-7.56,3.77-7.98,4.6-5.19,12.31,.42,1.17,.78,2.36,1.17,3.55Z"/><path class="b" d="M819.9,672.57c-6.76-.88-6.64-6.66-7.63-11.28-1.01-4.7,3.11-5.37,6.28-7.02,12.38-6.41,21.1-15.96,24.48-29.86,.78-3.23-.03-6.17-1-9.14,5.36,.73,6.76,4.46,6.37,9.04-1.22,14.25-10.22,23.35-21.41,30.51-10.13,6.48-10.33,6.17-7.09,17.74Z"/><path class="b" d="M892.24,609.81c-12.94-.02-25.88-.03-38.82-.05,8.35-4.91,16.73-9.77,25.05-14.75,3.34-2,5.21-.94,6.83,2.33,2.11,4.26,4.61,8.32,6.94,12.47Z"/><path class="b" d="M715.48,349.47c1.49-.01,2.98-.03,4.47-.04,3.78,3.07,9.17,3.34,12.49,7.41,.84,1.02,3.28,.46,4.54-.82,3.37-3.42,2.17-8.45,4.2-12.37l-1.81-.28c0-.43-.02-.86-.03-1.29,2.12-1.6,.83-3.08-.09-4.67-1.5-2.56-3.52-4.92-3.6-8.12,7.46,8.47,12.4,18.5,17.53,28.41,1.28,2.48-.49,2.86-2.35,2.86-8.94-.03-17.87-.09-26.81-.16-3.17-.03-4.75-2.06-5.84-4.72-.86-2.09-1.8-4.14-2.7-6.21Zm35.27,9.4c-1.98-4.05-3.31-8.46-7.15-11.26,1.2,4.49,2.56,8.87,7.15,11.26Z"/><path class="b" d="M817.23,195.75c-.07-.97-.14-1.94-.21-2.91,3.13-3.76-.93-5.98-2.07-8.67-2.24-5.25-6.95-9.3-7.65-15.35,8.78,6.02,15.48,14.21,22.22,22.21,4.05,4.8,9.25,8.64,12.18,14.41,.47,.93,1.49,1.45,.11,2.33-2.99-.36-5.99-.73-8.98-1.09-2.82-3.37-5.6-6.56-7.17-10.98-2.22-6.23-5.58-1.89-8.43,.05Z"/><path class="b" d="M605.37,701.68c11.61,1.13,20.1-5.28,28.43-11.91,7.16-5.69,13.67-12.06,19.36-19.25,1.4-1.76,2.94-3.41,4.74-5.48,2.37,3.96-.21,6.76,.02,9.64-6.56,5.99-12.96,12.17-19.71,17.92-6.02,5.13-12.62,9.41-20.52,11.24-4.45,1.03-8.6,.76-12.32-2.17Z"/><path class="b" d="M742.95,650.75c-3.13,5.52-5.5,11.48-10.41,17.91,.02-6.14,1.78-10.38,2.84-14.75,3.32-13.69,8.2-26.98,10.42-40.94,5,.06,6.72,2.29,5.18,7.21-2.49,7.92-4.73,15.91-7.13,23.86-.67,2.2-1.34,4.37-.9,6.71Z"/><path class="b" d="M960.31,376.02c.19,1.02,4.13,.76,1.3,2.56-7.17,4.57-14.63,8.68-22.01,12.92-1.49,.85-2.73,.4-3.68-1.11-2.87-4.55-6.35-8.83-6.09-14.67,3.76-.02,7.52-.05,11.28-.07,.88,1.31,1.73,1.29,2.56-.05,.82,.01,1.64,.02,2.46,.04,.86,1.32,1.71,1.32,2.56-.01,.82,.01,1.64,.02,2.46,.03,.85,1.3,1.7,1.31,2.55,0,.82,0,1.64,0,2.47,0,.84,1.31,1.69,1.32,2.55,.01,.54,.12,1.08,.24,1.61,.36Z"/><path class="b" d="M400.27,731.86c6.89-3.41,11.35-9.23,14-16.05,3.36-8.64,9.8-14.03,16.95-19.18,7-5.05,15.17-8.51,20.97-15.2,4.4,1.27,3.6,3.16,.58,5.21-7.08,4.8-14.19,9.55-21.27,14.34-5.45,3.68-9.84,8.12-12.48,14.41-2.33,5.56-5.4,10.92-10.21,14.82-2.39,1.94-4.93,5.1-8.53,1.65Z"/><path class="b" d="M676.47,660.8l-11.29,26.07c-.78-11.32,2.69-21.67,5.55-32.15,1.95-7.17,6.31-13.7,5.78-21.53,5.74-.16,5.83,3.67,4.82,7.51-1.3,4.94-3.2,9.73-4.88,14.57-.65,1.87-2.21,3.7,.02,5.53Z"/><path class="b" d="M255.17,295.19c5.53-10.56,14.63-18.03,23.01-26.04,2.3-2.2,6.22-.72,10.8-.8-7.83,8.08-14.71,15.17-21.59,22.27-4.77-.33-7.6,4.52-12.22,4.57Z"/><path class="b" d="M381.82,740.62c4.26-9.23,4.62-19.63,8.75-28.92,4.41-9.94,9.27-19.48,18.82-25.63,2.43-1.57,4.75-3.01,6.41,.85-11.2,4.83-16.52,14.8-21.26,25.02-3.88,8.35-5.21,17.55-7.47,26.43-.72,2.83-1.29,6.64-5.25,2.27Z"/><path class="b" d="M832.83,206.68c2.99,.36,5.99,.73,8.98,1.09-.17,2.29,.05,4.14,3.1,4.23,1.89,.06,4.04,.65,4.47,2.76,.42,2.1-2.01,2.29-3.18,3.34-2.5,2.24-6.29,3.98-2.3,8.36,1.37,1.5,.42,4.56-1.27,5.61-1.79,1.11-2.63-1.35-3.52-2.63-.82-1.18-1.42-2.51-2.12-3.77,1.06-4.9-3.45-7.39-4.87-11.21,.22-5.6-4.75-2.08-7.19-4.24,1.92-2.84,5.5-2.09,7.9-3.54Zm1.07,4.03l-.42,.33c.12,.13,.24,.36,.37,.37,.13,.01,.28-.19,.42-.3l-.37-.39Z"/><path class="b" d="M242.98,678.88c5.85-8.54,11.07-17.41,14.84-27.12,3.31-8.52,3.5-16.86,.02-25.3,5.55,2.72,6.15,7.99,6.19,13.1,.12,15.41-8.09,27.61-16.14,39.77-1.33,2.01-3.62,3.45-4.91-.45Z"/><path class="b" d="M859.49,256.03c-3.75-2.51-5.3-6.65-7.57-10.25,.16-1.96,1.42-2.81,3.19-3.13,1.89-.29,3.92,.21,5.63-1.03,1.57,.14,2.8-.52,3.86-1.6,2.77-1.51,3.77,.84,4.87,2.43,2.36,3.42,4.5,6.99,6.73,10.5-5.29,2.53-11.65-.7-16.72,3.07Z"/><path class="b" d="M73.73,606.33c-4.07-9.37-9.96-17.74-14.81-26.67-1.59-2.92-3.38-3.48-6.42-1.7-12.57,7.35-25.28,14.46-37.9,21.74-1.86,1.07-3.5,2.68-5.18-.1-.03-.29,.06-.53,.29-.71,14.76-7.02,28.52-15.81,42.67-23.91,2.48-1.32,4.94-2,7.34,.17,.92,1.85,1.81,3.71,2.75,5.55,4.41,8.68,10.46,16.48,13.84,25.71l-2.57-.08Z"/><path class="b" d="M284.28,751.77c7.39-2.97,10.27-9.97,14.07-16.03,5.05-8.06,9.68-16.38,14.93-25.33,.9,2.25,1.52,3.81,2.14,5.37-5.36,8.9-10.73,17.81-16.08,26.72-2.05,3.42-4.38,6.63-7.49,9.15-2.41,1.95-4.99,3.35-7.55,.12Z"/><path class="b" d="M868.39,271.8c-3.13-4.29-6.78-8.29-7.62-13.84,5.9-2.3,11.82,1.43,17.72-.06,2.19,1.51,3.01,3.87,3.9,6.2-2.87,2.29-7.55,2.11-8.92,6.48v-.02c-1.89-.4-3.47,.49-5.09,1.23Z"/><path class="b" d="M251.8,347.13c-2.18,1.6-4.17,3.21-4.2,6.38-.02,1.49,2.74,3.99-.55,4.45-3.8,.53-7.83,.9-11.59-.42-.87-.3-.16-1.83,.36-2.74,3.27-5.7,5.87-11.8,10.16-16.88,2.88,.71,2.26,5.23,5.75,5.28l-.03-.04c.03,1.32,.07,2.64,.1,3.96Z"/><path class="b" d="M340.6,573.61c1.35-.29,2.51-1.59,5.32-.21-20.16,11.58-39.61,22.75-59.07,33.92-.92,.06-1.84,.11-2.77,.17,.22-2.3,2.23-2.78,3.8-3.68,17.57-10.07,35.14-20.14,52.71-30.2Z"/><path class="b" d="M512.21,301.98c-1.16,15.5-2.3,31-3.53,46.49-.13,1.61,.71,4.41-2.31,3.99-2.28-.31-1.46-2.67-1.3-4.18,1.61-15.46,3.31-30.91,4.98-46.36,.72,.02,1.44,.03,2.16,.05Z"/><path class="b" d="M209.35,163.26c-5.4,.99-9.72,4.33-14.37,6.85-8.78,4.77-17.45,9.77-26.06,14.84-2.05,1.21-3.35,1.81-3.9-1.16,.39-.39,.78-.77,1.17-1.16,5.55-1.45,10.48-3.91,14.11-8.52h-.01c6.97-.66,11.9-5.59,17.64-8.73,3.04-1.66,7.41-2.05,8.7-6.31h-.01c5.44,.54,8.54-5.35,13.89-5.04-2.39,3.2-5.78,5.18-8.98,7.39-1.12,.07-2.1,.32-2.2,1.71l.03,.12Z"/><path class="b" d="M479.6,308.2c1.57,15.17,3.2,30.33,4.64,45.52,.17,1.76,1.72,4.9-1.29,5.18-2.77,.25-2.31-3.13-2.44-4.92-1.11-15.25-2.01-30.52-2.97-45.78,.69,0,1.38,0,2.07,.01Z"/><path class="b" d="M448.35,314.41c3.82,13.4,7.66,26.79,11.4,40.2,.39,1.4,2.02,3.54-.28,4.32-2.52,.86-2.92-1.66-3.36-3.43-3.34-13.69-6.63-27.39-9.94-41.09,.72,0,1.45,0,2.17,0Z"/><path class="b" d="M561.69,308.09c-2.81,13.97-9.02,26.81-13.31,40.29-.46,1.45-1.62,2.71-3.34,1.93-1.57-.72-.76-2.09-.31-3.23,5.18-12.95,10.36-25.91,15.53-38.86,.47-.04,.95-.09,1.42-.13Z"/><path class="b" d="M855.11,242.65c-1.77,.32-3.03,1.17-3.19,3.13-4.66-4.92-4.55-9.6,.24-13.36,.79-.62,1.33-1.58,2-2.37,1.27-1.49,1.78-5.11,4.52-3.22,3.14,2.17,2.78,6.06,1.63,9.31-.93,2.63-4.25,3.68-5.19,6.5Z"/><path class="b" d="M897.02,329.56c7.31,9.6,13.5,19.84,17.79,31.17-5.61,1.37-8.58-1-9.41-6.55-1.07-7.11-4.65-13.3-7.23-19.87-.59-1.5-.78-3.16-1.15-4.75Z"/><path class="b" d="M433.25,319.49c4.55,11.82,9.15,23.62,13.6,35.48,.46,1.22,2.31,3.29-.31,4.06-2.06,.61-2.68-1.5-3.2-3.06-3.86-11.61-8.66-22.92-11.53-34.86,.48-.54,.97-1.08,1.45-1.62Z"/><path class="b" d="M354.62,402.15c-1.35,.16-2.45,1.79-4.65,.28,8.08-4.68,15.94-9.07,23.64-13.72,8.29-5,17.51-8.53,24.69-15.32,2.49-.02,4.97-.04,7.46-.06-.02,.4,.01,.79,.09,1.18h.01c-2.01-.26-3.51,.79-5.17,1.73-15.33,8.69-30.71,17.29-46.08,25.92Z"/><path class="b" d="M794.49,199.1s.45-.05,.44-.05c4.65,1.7,9.09,3.68,12.32,7.71,1.98,2.47,5.49,4.61,.67,7.69-.36,.23-.05,1.5-.05,3.04-5.85-3.81-9.1-9.22-13.57-13.34-2.04-1.88,1.13-3.33,.18-5.04Z"/><path class="b" d="M760.53,334.44c3.42,5.46,8.74,10.13,7.43,17.59-.39,.48-.78,.96-1.17,1.44-4.69,.34-5.55-3.56-7.19-6.55-1.49-2.72-2.89-5.48-4.33-8.23,1.13-2.19,1.96-4.75,5.26-4.25Z"/><path class="b" d="M544.3,309.25c-4.33,14.91-6.36,30.52-13.4,44.62,2.7-15.18,6.6-30.02,11.52-44.59,.63-.01,1.25-.02,1.88-.03Z"/><path class="b" d="M784.32,660.68c-6.12,.12-6.21-4.96-7.2-8.81-1.78-6.96-2.48-14.19-5.36-20.87,4.19,0,5.24,3.17,6.59,6.25,3.28,7.5,2.49,16,5.97,23.43Z"/><path class="b" d="M760.53,334.44c-3.3-.5-4.13,2.06-5.26,4.25-1.26-1.89-2.58-3.74-3.78-5.67-2.76-4.41-7.58-8.55-2.08-14.18-.07-.27-.08-.53-.02-.8,5.12,4.51,8.58,10.15,11.14,16.4Z"/><path class="b" d="M156.39,241.8c-1.16,1.82-2.34,.38-3.51,.02,1.51-6.59,8.51-9.31,10.82-15.51,.95-2.56,4.43-1.73,6.86-1.59,2.56,.14,2.33,1.51,1.29,3.38-2.14,3.86-6.06,2.98-9.47,3.67-.46,2.35,3.48,2.46,2.37,4.98-1.07,2.44-3.2,2.19-5.28,2.36-1.58,.13-3.59,.05-3.09,2.69Z"/><path class="b" d="M525.82,313.79c.16,12.24-2.64,24-4.69,35.86-.23,1.32-.79,2.49-2.41,2.15-1.37-.28-1.27-1.55-1.1-2.52,2.16-11.96,4.06-23.99,8.2-35.5Z"/><path class="b" d="M319.45,717.96c9.32-3.52,14.93-11.25,20.96-18.49,.66-.79,1.12-1.76,1.84-2.47,1.1-1.08,1.97-3.25,3.86-2.27,1.31,.68,.75,2.61,.76,4.03-5.3,2.87-7.2,8.93-11.74,12.52-2.9,2.3-5.62,4.85-8.62,7.01-2.28,1.65-4.85,2.58-7.06-.34Z"/><path class="b" d="M410.8,309.42c6.21,12.78,13.77,24.94,17.79,38.73-.43,0-.86,.02-1.29,.03-3.89-2.49-4.4-6.95-5.97-10.68-3.96-9.41-9.07-18.33-12.06-28.16,.51,.03,1.02,.06,1.52,.09Z"/><path class="b" d="M493.31,323.22c-1.61-10.74,.89-21.44,.33-32.19-.26-4.97-.04-9.96,.7-14.96,2.1,15.68,1.79,31.45,1.45,47.22-.83-.02-1.65-.05-2.48-.07Z"/><path class="b" d="M572.03,326.98c-3.27,10.32-8.36,19.86-12.92,29.62-.7,1.5-1.27,3.71-3.33,2.39-1.74-1.11-.35-2.99,.37-4.45,4.57-9.26,9.16-18.51,13.75-27.76,.71,.07,1.42,.13,2.13,.2Z"/><path class="b" d="M781.8,669.12c10.06-.42,15.54-7.77,22.76-14.36,0,2.5,0,4.99,0,7.48-2.49,.85-3.69,3.19-5.54,4.78-5.89,5.06-11.64,5.79-17.22,2.09Z"/><path class="b" d="M650.03,398.32h-6.04c5.93-5.89,12.95-7.89,18.76-11.76,3.92-2.62,8.23-4.66,12.38-6.94,2.05-1.13,3.9-2.38,4-5.04,2.94,.02,5.88,.04,8.82,.06-7.3,4.24-14.75,8.23-21.84,12.8-5.43,3.5-12.13,5.19-16.08,10.88Z"/><path class="b" d="M403.4,50.08c-5.11,5.01-11.84,7.38-17.85,10.92-6.94,4.09-13.93,8.11-20.93,12.1-1.96,1.12-3.94,2.38-6.39,1.98,9.27-7.24,20-12.09,30-18.12,2.25-1.36,5.14-1.82,6.47-4.5,2.65-1.7,5.61-2.29,8.7-2.38Z"/><path class="b" d="M493.31,323.22c.83,.02,1.65,.05,2.48,.07,.08,10.57,.2,21.14,.21,31.71,0,1.47,.71,3.97-1.69,3.91-2.28-.06-1.64-2.45-1.62-4.01,.18-10.56,.41-21.12,.62-31.69Z"/><path class="b" d="M813.83,214.17c1.62,4.83,6.41,6.47,8.61,10.4,.88,1.58,3.64,3,1.01,5.12-2.26,1.81-4.51,2.39-6.93-.35-3.86-4.37-8.03-8.43-2.68-15.17Zm.65,5.65c-.13-.16-.26-.43-.4-.44-.15-.01-.32,.23-.48,.36,.13,.16,.26,.43,.4,.44,.15,.01,.32-.23,.48-.36Z"/><path class="b" d="M727.94,609.4c.01-.3,.05-.6,.1-.89,4.74-1.52,.86-3.92,.16-5.23-5.76-10.74-11.82-21.33-17.78-31.96,1.75-2.06,2.35-.28,3.05,.95,6.98,12.26,13.95,24.53,20.93,36.8-2.1,1.03-4.26,1-6.45,.33Z"/><path class="b" d="M344.68,246.57c-2.65,4.49-7.71,5.36-11.74,7.78-6.56,3.95-13.16,7.84-19.79,11.69-1.96,1.14-3.94,2.41-6.41,1.92,3.31-3.56,7.16-6.42,11.47-8.67,1.06-.07,2.05-.24,2.32-1.51l-.1,.05c2.28,.28,3.87-1.17,5.68-2.16,5.81-3.18,11.2-7.11,17.45-9.47,.42,0,.79,.12,1.11,.38Z"/><path class="b" d="M399.64,215.32c-7.83,6.92-17.49,10.92-26.35,16.17-3.97,2.35-7.7,5.55-14.35,6.79,5.6-5.13,10.93-7.47,15.84-10.46,2.59-1.58,6.06-1.96,7.45-5.25l.31,.05c.91,.08,1.61-.23,1.98-1.11l-.08,.04c1.14,.15,2.12-.05,2.62-1.24l-.09,.05c.48-.28,.97-.56,1.45-.84,3.56-1.89,7.2-3.54,11.22-4.19Z"/><path class="b" d="M323.11,709.29c-3.52,2.23-3.66-.18-3.65-2.68,.02-5.22,2.2-9.94,3.56-14.85,.6-2.15,1.17-4.31,1.76-6.47,5.17,.91,3.43,4.2,2.39,7.12-1.97,5.49-4.21,10.89-4.06,16.88Z"/><path class="b" d="M924.99,565.15c-1.27-1-.55-2.02,.33-2.46,11.81-6.01,22.54-13.99,34.85-19.07,.38,.79,.77,1.58,1.15,2.36l-.25,.43c-2.07-.64-3.47,.67-5.11,1.59-10.29,5.78-20.64,11.44-30.97,17.15Z"/><path class="b" d="M735.65,329.3c.09,3.2,2.1,5.55,3.6,8.12,.93,1.58,2.22,3.06,.09,4.67-6.28-10.31-13.19-20.26-17.47-31.67,4.62,3.56,7.34,8.55,10.2,13.44-.05,.86,.31,1.44,1.15,1.71l-.03-.08c-.2,1.94,.66,3.22,2.47,3.89v-.07Z"/><path class="b" d="M364.28,335.83c7.73,6.56,14.38,14.06,19.62,22.8-8.38-5.99-13.59-14.75-19.62-22.8Z"/><path class="b" d="M602.9,338.38c-4.81,7.59-8.74,15.91-15.93,21.5-.59-.48-1.18-.96-1.78-1.44,5.77-7.47,11.54-14.93,17.31-22.4,.13,.78,.26,1.56,.39,2.33Z"/><path class="b" d="M286.83,402.02c-.32,1.03-.95,3.29-1.95,1.45-5.58-10.2-12.62-19.61-16.88-30.53,.74-.07,1.47-.15,2.21-.23,5.54,9.77,11.08,19.54,16.62,29.31Z"/><path class="b" d="M389.43,339.49c5.26,4.99,8.65,11.55,13.23,17.12,.5,.6,.69,1.62-.25,2.17-1.03,.6-2.19,.27-2.77-.58-3.99-5.83-7.87-11.73-11.79-17.61,.53-.37,1.05-.73,1.58-1.1Z"/><path class="b" d="M220.5,154.04c-5.35-.31-8.45,5.58-13.89,5.04,8.49-6.78,17.88-12.01,27.87-16.19-3.48,4.04-7.68,7.19-12.25,9.88-.63,.44-1.26,.89-1.89,1.33l.16-.05Z"/><path class="b" d="M807.3,168.83c.7,6.05,5.4,10.1,7.65,15.35,1.15,2.68,5.21,4.9,2.07,8.67-5.01-8.84-10.06-17.66-15-26.54-.68-1.22-.84-2.73-1.24-4.11,1.52,.77,2.83,1.77,3.67,3.29,.34,.4,.68,.8,1.01,1.2,.26,.12,.43,.32,.5,.6,0,.86,.39,1.43,1.27,1.6l.08-.05Z"/><path class="b" d="M343.57,246.19c-6.25,2.36-11.65,6.29-17.45,9.47-1.81,.99-3.4,2.44-5.68,2.16,5.86-5.87,11.96-11.37,20.25-13.62l-.06-.03c.98,.67,1.96,1.34,2.94,2.01Z"/><path class="b" d="M409,340.94c4.05,4.62,6.71,10.16,9.69,15.49,.4,.72,.9,1.49,.11,2.21-.97,.88-2.21,.55-2.71-.31-3.11-5.42-6.07-10.92-9.08-16.39l1.98-.99Z"/><path class="b" d="M299.34,256.75c.97,.06,1.94,.12,2.91,.19-3.99,5.39-8.96,7.61-15.64,4.82,2.45-6.38,8.37-3.75,12.73-5.01Z"/><path class="b" d="M341.93,338.21c8.68,4.96,14.26,13.04,20.65,20.3-7.8-5.84-15.44-11.86-20.61-20.34l-.04,.03Z"/><path class="b" d="M600.17,374.44c3.72,6.44,7.41,12.91,11.17,19.32,1.12,1.9,2.6,3.71-.96,4.55-2.8-8.02-8.42-14.53-12.02-22.12-.58-1.23-1.81-1.58-3.14-1.49-.07-.23-.11-.46-.13-.69,1.74-.4,3.47-.72,5.08,.43Z"/><path class="b" d="M840.45,250.46c2.4,.9,4.66,2.67,4.35,5.18-.27,2.12-1.81,5.72-4.16,5.2-2.68-.59-3.86-4.05-4.02-7-.12-2.31,1.8-2.95,3.84-3.37Z"/><path class="b" d="M356.47,266.99c-.55-4.5-3.99-2.34-6.29-2.66-1.61-.23-3.94,.21-4.16-1.75-.28-2.5,2.24-1.7,3.68-1.9,2.04-.28,4.3-.04,4.74-2.89l-.15,.02c.73,3.56,6,2.08,6.51,5.87-1,1.69-2.41,2.82-4.33,3.31Z"/><path class="b" d="M833.03,251.53c-2.04-4.18-4.5-5.71-5.04-8.76,4.94-1.08,9.59-2.16,11.29,5.11-2.9-1.37-4.97-.19-6.25,3.64Z"/><path class="b" d="M460.79,293.27c1.15,7.49,3.77,14.72,3.97,22.38-.58,.58-1.15,1.16-1.73,1.75-2.52-6.97-3-14.27-3.49-21.57,.42-.85,.84-1.7,1.26-2.55Z"/><path class="b" d="M878.5,257.9c-5.9,1.5-11.82-2.24-17.72,.06-.43-.65-.85-1.29-1.28-1.94,5.07-3.78,11.42-.54,16.72-3.07,2.07,1.04,2.31,2.93,2.29,4.95Z"/><path class="b" d="M512.21,301.98c-.72-.02-1.44-.03-2.16-.05,.46-7.98,.91-15.97,2.45-23.84,.45-.02,.89-.04,1.34-.06-.4,7.99,.5,16.08-1.62,23.96Z"/><path class="b" d="M618.45,344.7c-3.47,5.83-7.64,10.99-13.43,14.65,3.35-5.9,7.46-11.11,12.46-15.57l.96,.92Z"/><path class="b" d="M437.15,274.19c2.47,8.19,4.93,16.37,7.4,24.56-.64,.18-1.29,.37-1.93,.55-3.46-7.9-4.43-16.52-5.47-25.12Z"/><path class="b" d="M772.05,394.4c-.88,1.43-2.28,1.54-2.9,.2-3.09-6.71-8.47-12.28-9.9-19.81,.44-.03,.88-.06,1.32-.09,2.94,4.13,4.08,9.53,8.78,12.42l-.03-.06c-.27,2.88,1.46,5.03,2.72,7.35Z"/><path class="b" d="M602.9,338.38c-.13-.77-.26-1.55-.39-2.33,3.95-6.52,7.39-13.44,13.95-17.93l.02,.02c-3.5,7.43-8.38,13.94-13.58,20.24Z"/><path class="b" d="M544.3,309.25c-.63,.01-1.25,.02-1.88,.03,.78-6.5,2.79-12.66,5.04-18.76,.78,.06,1.57,.11,2.35,.16-2.03,6.13-2.54,12.71-5.51,18.57Z"/><path class="b" d="M360.8,263.69c-.51-3.8-5.79-2.32-6.51-5.87,2.46-1.1,4.82-2.32,5.8-5.1l1.71,.23c1.59,2.68,3.21,5.36,2.82,8.68-.94,1.3-2.29,1.85-3.82,2.06Z"/><path class="b" d="M250.19,331.43c.99,6.66,7.14,11.05,7.85,17.84-1.58-.16-2.83-.91-3.85-2.09,.13-1.93-.77-3.23-2.49-4.01l.03,.04c-.84-2.95-1.28-6.14-4.68-7.48,.67-1.71,1.5-3.3,3.15-4.28Z"/><path class="b" d="M469.18,358.01c-1.06-5.92-2.17-11.83-3.14-17.76-.18-1.09-.48-2.83,1.23-2.93,1.85-.11,1.25,1.58,1.41,2.73,.81,5.92,3.4,11.66,2.12,17.77-.54,.06-1.08,.13-1.62,.19Z"/><path class="b" d="M877.16,270.46c.57,3.55,1.84,6.34,6.64,5.2-1.54,2.24-3.26,2.62-5.19,2.5-2.07-3.63-7.38,.97-9.08-3.58,1.31-1.34,2.63-2.68,3.94-4.02v.02c1.23-.04,2.46-.08,3.68-.12Z"/><path class="b" d="M463.03,317.39c.58-.58,1.15-1.16,1.73-1.75,.96,4.88,1.92,9.77,2.89,14.65,.25,1.26,.59,2.66-1.27,2.8-1.26,.09-1.65-1-1.78-2.1-.53-4.54-1.05-9.07-1.57-13.61Z"/><path class="b" d="M425.49,693.55c-2.53,1.7-4.71,2.58-4.5-1.97,.17-3.77,.05-7.5-1.32-11.08,3.69,.59,4.06,3.62,4.68,6.42,.49,2.19-.14,4.57,1.14,6.62Z"/><path class="b" d="M572.03,326.98c-.71-.07-1.42-.13-2.13-.2,2.76-5.68,5.52-11.37,8.28-17.05l1.5,.67c-1.73,5.85-3.94,11.51-7.64,16.58Z"/><path class="b" d="M433.25,319.49c-.48,.54-.96,1.08-1.45,1.62-3.05-5.64-4.9-11.65-6.11-17.86l1.7-.64,5.86,16.88Z"/><path class="b" d="M414.71,47.88c-.02,5.93,6.04,9.33,6.29,15.15-.83,.27-1.66,.53-2.49,.8-.97-3.36-1.88-6.77-5.1-8.84l.02,.02c0-2.43-1.75-4.16-2.53-6.27,1.14-.87,2.4-1.18,3.81-.86Z"/><path class="b" d="M820.67,232.41c3.2,1.89,5.25,5.92,10.09,3.72,1.22-.56,2.86,1.23,2.84,2.66-.04,2.23-2.17,1.43-3.39,1.42-5.11,0-8.39-2.57-9.54-7.81Z"/><path class="b" d="M86.08,340.48c-3.19-2.76-3.99-7-6.39-10.23-1.29-1.73-1.85-4.26-4.53-4.68,.32-1.86,.49-3.78,2.19-5.05,1.13,4.73,4.37,8.34,6.69,12.42,1.35,2.37,2.71,4.65,2.05,7.53Z"/><path class="b" d="M585.1,335.17c-.22,4.63-3.73,7.86-5.53,11.81-.35,.77-1.47,.7-2.19,.13-.85-.67-.41-1.55-.02-2.21,2.04-3.47,4.16-6.9,6.25-10.34,.5,.2,.99,.41,1.49,.61Z"/><path class="b" d="M180.3,174.12c-3.63,4.62-8.57,7.07-14.11,8.52,2.31-3.6,5.06-6.78,8.72-9.09,1.51,2.92,3.63,.07,5.4,.56Z"/><path class="b" d="M434.73,194.03c4.6-2.92,9.21-5.84,13.81-8.76,1.82-1.66,4.02-1.16,6.14-1.04-3.34,4.06-9.03,4.65-12.53,8.47-.35,.2-.72,.26-1.11,.2-.4,.13-.81,.26-1.21,.39-1.62,.81-3.33,.98-5.1,.74Z"/><path class="b" d="M633.96,80.21c5.93-3.47,11.87-6.94,17.8-10.41,1.16,0,2.23,.23,2.96,1.26-6.52,2.57-12.09,6.85-18.18,10.19-.86-.35-1.72-.69-2.58-1.04Z"/><path class="b" d="M376.63,322.48c4.58,4.43,8.63,9.21,10.82,15.31-5.03-4.07-7.92-9.71-10.82-15.31Z"/><path class="b" d="M631.41,354.37c3.43-5.78,7.91-10.49,13.88-13.69l.02,.02c-3.11,6.04-7.82,10.53-13.63,13.93l-.27-.26Z"/><path class="b" d="M587.78,330.24c.9-5.65,4.28-9.81,7.57-14.03-.35,5.9-4.28,9.82-7.57,14.03Z"/><path class="b" d="M460.79,293.27c-.42,.85-.84,1.7-1.26,2.55-.7-2.57-1.97-5.14-1.98-7.71,0-4.98-2.21-9.75-1.09-15.89,1.75,7.68,3.78,14.2,4.32,21.06Z"/><path class="b" d="M572.39,48.78c5.99,4.49,7.87,11.63,11.45,17.68-1.19-.23-2.38-.46-3.57-.7-1.39-6.23-6.81-10.6-7.88-16.98Z"/><path class="b" d="M427.31,348.18c.43,0,.86-.02,1.29-.03,3.39,2.56,4.5,6.17,4.52,10.21,0,.14-1.38,.57-1.51,.4-2.44-3.1-4.79-6.28-4.29-10.58Z"/><path class="b" d="M571.37,359.43c-.88,.06-1.63-.07-1.81-1.13-.25-1.4,4.96-8.88,6.2-8.81,.87,.05,1.5,.41,1.48,1.51-.03,1.69-4.5,8.23-5.87,8.43Z"/><path class="b" d="M424.29,300.17c-3.46-5.24-3.95-11.48-5.95-17.21l1.45-.51c2.1,5.68,4.2,11.36,6.3,17.04l-1.81,.68Z"/><path class="b" d="M255.17,295.19c4.63-.05,7.46-4.9,12.22-4.57-1.14,1.21-2.28,2.42-3.42,3.63-1.04,.12-1.9,.46-1.99,1.69l.07-.09c-.84,.05-1.3,.45-1.22,1.34v.13c-4.25-.87-6.91,3.69-11.05,3.25,1.27-1.36,2.54-2.71,3.82-4.07,.87,.03,1.45-.32,1.6-1.22l-.03-.09Z"/><path class="b" d="M617.49,343.78c3.03-4.62,6.59-8.77,11.05-12.2-2.37,5.12-5.16,9.91-10.09,13.12-.32-.31-.64-.61-.96-.92Z"/><path class="b" d="M280.68,112.88c-.86-5.58-6.53-9.1-6.44-15.08l1.31-.11c2.69,4.71,6.14,9.02,7.52,14.41-.79,.26-1.59,.52-2.38,.77Z"/><path class="b" d="M527.61,298.15c.38-5.76,1.39-11.37,4.46-16.5-1.55,5.42,.27,11.31-2.65,16.5-.6,0-1.2,0-1.8,0Z"/><path class="b" d="M549.81,290.69c-.78-.05-1.56-.11-2.35-.16,1.21-5.34,1.63-10.96,6.31-15.12-1.32,5.09-2.64,10.19-3.97,15.28Z"/><path class="b" d="M399.64,324.38c2.45,3.68,5.47,7.09,5.64,11.96-4.06-2.95-5.75-7.46-7.69-11.79,.69-.06,1.37-.11,2.05-.17Z"/><path class="b" d="M410.8,309.42c-.51-.03-1.01-.06-1.52-.09-3.51-4.6-5.01-10.05-6.6-15.49,3.35,4.89,6.55,9.81,8.13,15.58Z"/><path class="b" d="M358.25,75.06c0,3.31-3.97,2.8-4.96,5.15l.06-.04c-.44,.24-.88,.47-1.32,.71-3.14,1.82-6.54,2.94-10.07,3.69,4.73-4.37,10.17-7.51,16.29-9.5Z"/><path class="b" d="M448.35,314.41c-.72,0-1.45,0-2.17,0-1.43-4.24-3.31-8.41-2.44-14.14,3.04,4.93,3.89,9.51,4.61,14.14Z"/><path class="b" d="M792.67,155.04c-4.99,2.72-9.97,5.43-14.96,8.15-.4-.41-.8-.83-1.19-1.24,4.85-3.17,9.3-7.11,15.32-8.06,.28,.38,.56,.76,.84,1.14Z"/><path class="b" d="M399.64,324.38c-.68,.06-1.37,.11-2.05,.17-3.08-4.15-5.84-8.47-7.07-13.58,.17-.19,.34-.37,.53-.54,3.48,4.27,6.33,8.94,8.59,13.96Z"/><path class="b" d="M479.6,308.2c-.69,0-1.38,0-2.07-.01-.37-4.58-.74-9.15-1.11-13.73,.67-.02,1.34-.04,2.02-.06,.22,4.62,1.92,9.11,1.17,13.8Z"/><path class="b" d="M474.89,284.34v-18.74l.85-.02c.53,5.82,1.06,11.65,1.59,17.47l-2.44,1.29Z"/><path class="b" d="M561.69,308.09c-.47,.04-.95,.09-1.42,.13,.25-5.1,3.86-9.02,4.83-13.87,.52-.02,1.05-.03,1.57-.05-.98,4.84-1.1,10-4.99,13.79Z"/><path class="b" d="M832.12,214.46c1.42,3.82,5.94,6.31,4.87,11.21-2.62-2.12-4.34-4.96-6.17-7.72,.04-1.13,.08-2.26,.11-3.39,.38-.19,.78-.22,1.18-.1Z"/><path class="b" d="M258.8,350.62c3.17,1.28,3.86,4.07,4.26,7.03-9.9,2.79-3.59-4.24-4.26-7.03Z"/><path class="b" d="M612.63,256.52c3.23-4.19,7.4-6.73,12.72-7.26-.1,.8-.2,1.6-.31,2.4-3.7,1.28-7.43,2.48-10.09,5.61-.77-.25-1.55-.5-2.32-.75Z"/><path class="b" d="M527.61,298.15c.6,0,1.2,0,1.8,0-1.24,4.45,.34,9.47-3.33,14.45-2.07-5.65,1.51-9.92,1.52-14.46Z"/><path class="b" d="M364.62,261.63c.39-3.32-1.23-6-2.82-8.68-.45-.39-.9-.78-1.35-1.18-.1-.32-.12-.65-.05-.99,.07-.47,.13-.95,.2-1.42l.41-.36c4.13,2.29,4.35,7.33,7.35,10.41-.77,1.53-2.28,1.83-3.73,2.22Z"/><path class="b" d="M566.68,294.3c-.52,.02-1.05,.03-1.57,.05,1.25-4.97,4.03-9.26,6.24-13.8h-.02c.42,5.24-1.42,9.73-4.65,13.75Z"/><path class="b" d="M328.25,350.62c3.91,1.68,7.26,4.04,9.25,8.02-3.85-1.73-7.96-3.13-9.47-7.79l.22-.22Z"/><path class="b" d="M877.16,270.46c-1.23,.04-2.46,.08-3.69,.12,1.36-4.37,6.04-4.19,8.92-6.48,.47,.83,.95,1.66,1.42,2.49-2.22,1.29-4.43,2.58-6.65,3.87Z"/><path class="b" d="M771.56,354.51c.57,1.78,3.15,3.4,1.07,5.37-1.46,1.38-3.59,.59-5.2-.31-1.95-1.09-1.75-2.52-.05-3.81,1.39-.42,2.79-.83,4.18-1.25Z"/><path class="b" d="M603.3,304.57c-1.57,3.44-2.57,5.8-3.72,8.08-.45,.9-1.37,1.75-2.44,1.04-1.05-.7-.72-1.93-.06-2.7,1.67-1.96,2.2-4.91,6.22-6.41Z"/><path class="b" d="M474.89,284.34l2.44-1.29c.97,3.72,1.54,7.48,1.11,11.34-.67,.02-1.35,.04-2.02,.06-.51-3.37-1.02-6.75-1.52-10.12Z"/><path class="b" d="M623.18,88.69c-2.62,1.5-5.25,3.01-7.87,4.51-.83-.28-1.65-.56-2.48-.84,2.08-1.6,4.16-3.2,6.25-4.8,1.51-.13,2.97-.09,4.1,1.14Z"/><path class="b" d="M513.83,278.02c-.45,.02-.89,.04-1.34,.06-.57-4.36,1.45-8.33,1.84-12.56,.34,4.2,1.56,8.43-.51,12.49Z"/><path class="b" d="M632.72,244.87c1.16-3.03,4.81-3.31,6.46-5.8,1.06-.02,2.01,.18,2.61,1.17-2.19,1.72-4.38,3.44-6.57,5.16-.84-.18-1.67-.36-2.51-.53Z"/><path class="b" d="M651.36,359.74c2.63-3.45,4.43-5.91,9.36-6.96-2.99,3.59-4.6,6.31-9.36,6.96Z"/><path class="b" d="M581.25,306.21c-1.03-3.34,.53-5.53,3.52-8.12,.58,4.06-1.81,5.96-3.52,8.12Z"/><path class="b" d="M413.41,55c3.22,2.07,4.13,5.47,5.1,8.84-.82,.06-1.64,.13-2.46,.19-.16-3.22-3.28-5.57-2.64-9.03Z"/><path class="b" d="M631.68,354.63c-.73,2.97-2.45,4.89-6.31,5.84,1.29-3.56,3.03-5.44,6.04-6.1l.27,.26Z"/><path class="b" d="M162.62,186.33c2.02,2.23,3.39,4.77,3.85,7.77-3.54,.12-2.77-5.33-6.47-5.01,.87-.92,1.75-1.84,2.62-2.76Z"/><path class="b" d="M247.04,335.71c3.4,1.35,3.84,4.54,4.68,7.48-3.49-.05-2.87-4.57-5.75-5.28,.36-.74,.71-1.47,1.07-2.2Z"/><path class="b" d="M166.45,194.08c2.93,1.11,2.72,4.72,5.04,6.32-.18,.42-.36,.83-.54,1.25-3.72-1.2-4.41-4.21-4.5-7.57Z"/><path class="b" d="M771.56,354.51c-1.39,.42-2.79,.83-4.18,1.25-.19-.76-.39-1.53-.59-2.29,.39-.48,.78-.96,1.17-1.44,1.27,.72,3.58-.05,3.6,2.48Z"/><path class="b" d="M390.51,310.97c-2.21-1.11-3.12-2.99-3.3-5.72,3.02,.67,3.49,2.87,3.83,5.17-.18,.17-.36,.35-.52,.54Z"/><path class="b" d="M410.9,48.75c.78,2.12,2.52,3.84,2.53,6.27-3.56-.61-3.52-3.51-3.9-6.14,.46-.05,.91-.09,1.37-.14Z"/><path class="b" d="M873.48,270.57c-1.31,1.34-2.63,2.68-3.94,4.02-1.05-.65-1.28-1.64-1.15-2.78,1.61-.75,3.2-1.64,5.09-1.23Z"/><path class="b" d="M830.94,214.56c-.04,1.13-.08,2.26-.11,3.39-1.12-.59-2.22-1.34-1.9-2.75,.2-.9,1.18-.9,2.02-.64Z"/><path class="b" d="M251.69,343.16c1.72,.79,2.62,2.08,2.49,4.01-.8-.02-1.59-.03-2.39-.05-.03-1.32-.07-2.64-.1-3.96Z"/><path class="b" d="M864.6,240.02c-1.06,1.09-2.29,1.74-3.86,1.6,.56-2.28,2.15-2.09,3.86-1.6Z"/><path class="b" d="M735.66,329.37c-1.81-.67-2.67-1.94-2.47-3.89,1.83,.66,2.44,2.09,2.47,3.89Z"/><path class="b" d="M943.66,375.59c-.83,1.33-1.68,1.35-2.56,.05,.84-.93,1.69-1.06,2.56-.05Z"/><path class="b" d="M425.99,46.1c-.7,1.29-1.5,1.73-2.52,.29,.75-.83,1.6-.84,2.52-.29Z"/><path class="b" d="M635.26,608.87c.83-1.31,1.67-1.33,2.52-.03-.83,.76-1.67,.99-2.52,.03Z"/><path class="b" d="M633.99,325.63c-.02,1.65-.96,2.38-2.51,2.5l.07,.06c.15-1.52,.86-2.47,2.5-2.5l-.05-.05Z"/><path class="b" d="M328.03,350.84c-.79-.19-1.7-.28-1.81-1.32-.02-.22,.47-.72,.69-.7,1.05,.09,1.12,1.02,1.33,1.79l-.22,.22Z"/><path class="b" d="M610.23,374.39c-.87,1.41-1.74,1.38-2.59-.02,.87-.9,1.73-.9,2.59,.02Z"/><path class="b" d="M499.88,227.95c.87-1.32,1.72-1.28,2.54,.04-.86,.81-1.71,.8-2.54-.04Z"/><path class="b" d="M948.67,375.62c-.84,1.33-1.7,1.34-2.56,.01,.85-.91,1.7-1.04,2.56-.01Z"/><path class="b" d="M953.68,375.65c-.85,1.31-1.7,1.3-2.55,0,.85-.96,1.7-.96,2.55,0Z"/><path class="b" d="M958.69,375.66c-.85,1.31-1.7,1.3-2.55-.01,.85-.98,1.7-.97,2.55,.01Z"/><path class="b" d="M106.26,372.1c-.88,1.19-1.71,1.14-2.48-.1,.87-1.06,1.67-.27,2.48,.1Z"/><path class="b" d="M646.58,339.46c.3-.57-.21-1.73,1.12-1.52,.15,.02,.37,.25,.38,.4,.14,1.3-.96,.82-1.56,1.06l.06,.06Z"/><path class="b" d="M571.35,280.56c.16-.9,.32-1.81,.49-2.71,.16,.1,.42,.18,.46,.32,.34,1.05-.05,1.83-.97,2.38h.02Z"/><path class="b" d="M206.29,743.05c-1.42-.26-2.33-1.01-2.38-2.56,1.26,.41,2,1.32,2.38,2.56Z"/><path class="b" d="M209.32,163.14c.1-1.39,1.08-1.63,2.2-1.71-.38,1.03-1.11,1.6-2.2,1.71Z"/><path class="b" d="M631.47,328.13c-.11,.54-.21,1.08-.32,1.63l-.69-.42c.36-.38,.72-.77,1.07-1.15l-.07-.06Z"/><path class="b" d="M895.82,327.01c1.25,.44,1.39,1.41,1.23,2.54-1.18-.47-1.27-1.47-1.23-2.54Z"/><path class="b" d="M894.64,324.44c1.12,.52,1.32,1.48,1.21,2.58-1.13-.52-1.24-1.51-1.21-2.58Z"/><path class="b" d="M616.45,318.12c.16-.53,.31-1.06,.47-1.59l.46,.32c-.3,.43-.6,.86-.91,1.29l-.02-.02Z"/><path class="b" d="M604.73,300.22l.19,.49-.73,.16c.03-.18,.02-.39,.11-.53,.06-.09,.28-.08,.43-.12Z"/><path class="b" d="M607.39,296.79l-.16,.43c-.15-.17-.32-.33-.44-.51-.02-.03,.21-.21,.33-.32l.28,.4Z"/><path class="b" d="M721.93,310.6c-1.07-.45-1.33-1.39-1.46-2.41,1.11,.43,1.69,1.18,1.46,2.41Z"/><path class="b" d="M341.96,338.17l-.79-.87,.49-.28,.26,1.18,.04-.03Z"/><path class="b" d="M261.98,295.95c.09-1.24,.95-1.57,1.99-1.69-.25,1.05-.94,1.59-1.99,1.69Z"/><path class="b" d="M400.84,289.35l.9,1.31c-1.42,.26-.49-.96-.86-1.36l-.05,.05Z"/><path class="b" d="M405.85,374.5c-.08-.39-.11-.78-.09-1.18,.87,.04,1.75,.07,2.62,.11-.61,.9-1.49,1.18-2.53,1.07Z"/><path class="b" d="M873.44,279.35c-.12,.45-.24,.9-.36,1.35-.73-.39-1.02-.94-.47-1.66,.05-.07,.54,.19,.83,.3Z"/><path class="b" d="M304.42,269.48c-.34,.51,.18,1.9-1.29,1.25,.43-.42,.86-.83,1.29-1.25Z"/><path class="b" d="M320.54,257.78c-.27,1.27-1.27,1.44-2.32,1.51,.31-1.21,1.14-1.63,2.32-1.51Z"/><path class="b" d="M373.91,320.04c.15-.14,.31-.39,.4-.36,.31,.09,.59,.27,.89,.42-.12,.13-.28,.39-.36,.37-.32-.09-.61-.27-.92-.42Z"/><path class="b" d="M387.05,220.3c-.5,1.2-1.48,1.39-2.62,1.24,.54-1.13,1.52-1.31,2.62-1.24Z"/><path class="b" d="M352.03,80.87c.44-.24,.88-.47,1.32-.71-.44,.24-.88,.47-1.32,.71Z"/><path class="b" d="M260.83,297.2c-.08-.89,.38-1.29,1.22-1.34-.41,.45-.81,.89-1.22,1.34Z"/><path class="b" d="M388.42,219.51c-.48,.28-.97,.56-1.45,.84,.48-.28,.97-.56,1.45-.84Z"/><path class="b" d="M306.84,267.93c-.64,.44-1.29,.88-1.93,1.32,.64-.44,1.29-.88,1.93-1.32Z"/><path class="b" d="M662.87,350.73c-.2,.18-.4,.35-.6,.53,.03-.12,.01-.3,.09-.36,.12-.11,.31-.14,.47-.2l.04,.04Z"/><path class="b" d="M384.51,221.5c-.37,.88-1.07,1.19-1.98,1.11,.66-.37,1.32-.74,1.98-1.11Z"/><path class="b" d="M256.4,625.19c-.41-.15-.7-.42-.86-.81,.29,.27,.58,.54,.86,.81Z"/><path class="b" d="M257.89,626.45c-.43-.31-.86-.63-1.29-.94,.43,.31,.86,.63,1.29,.94Z"/><path class="b" d="M255.2,295.28c-.15,.9-.73,1.26-1.6,1.22,.53-.41,1.06-.81,1.6-1.22Z"/><path class="b" d="M220.35,154.09c.63-.44,1.26-.88,1.89-1.33-.63,.44-1.26,.88-1.89,1.33Z"/><path class="b" d="M634.04,325.68c.06-.17,.08-.36,.18-.5,.06-.08,.23-.08,.35-.11-.19,.19-.39,.37-.58,.56l.05,.05Z"/><path class="b" d="M400.89,289.3l-.49-.25,.44,.3,.05-.05Z"/><path class="b" d="M800.24,161.4c-.2-.25-.44-.45-.73-.6,.46-.05,.7,.15,.73,.6Z"/><path class="b" d="M645.29,340.68c.43-.41,.86-.81,1.29-1.22l-.06-.06c-.4,.43-.81,.86-1.21,1.3l-.02-.02Z"/><path class="b" d="M805.47,166.68c-.34-.4-.68-.8-1.01-1.2,.34,.4,.68,.8,1.01,1.2Z"/><path class="b" d="M893.98,323.27c.23,.41,.47,.82,.7,1.22-.23-.41-.47-.82-.7-1.22Z"/><path class="b" d="M733.22,325.56c-.84-.26-1.19-.85-1.15-1.71,.38,.57,.76,1.14,1.15,1.71Z"/><path class="b" d="M662.83,350.69c.18-.17,.36-.34,.54-.51-.17,.18-.34,.37-.5,.55l-.04-.04Z"/><path class="b" d="M807.23,168.88c-.88-.17-1.26-.74-1.27-1.6,.42,.53,.84,1.07,1.27,1.6Z"/><path class="b" d="M439.83,193.29c.4-.13,.81-.26,1.21-.39-.4,.13-.81,.26-1.21,.39Z"/><path class="b" d="M403.37,604.04c-.76,1.11-1.52,2.22-2.27,3.32-6.46-11.51-12.92-23.02-19.62-34.95,3.04-.49,2.92,2.11,4.33,2.59,5.86,9.68,10.14,20.31,17.56,29.04Z"/><path class="b" d="M873.39,571.27c1.96,3.52,4.03,7,5.85,10.6,.89,1.78,3.18,3.65,.49,5.81-3.38-5.94-6.76-11.88-10.26-18.03,2.68-.69,2.81,1.23,3.92,1.63Z"/><path class="b" d="M587.35,595.27c.41,2.11,.02,3.88-2.1,4.91-.86-.02-1.72-.05-2.58-.07l-.13-.15c1.14-2.03,2.91-3.43,4.81-4.68Z"/><path class="b" d="M582.67,600.1c-1.23,2.09-3.04,3.15-6.45,3.25,1.8-2.79,3.86-3.43,6.32-3.4l.13,.15Z"/><path class="b" d="M569.96,607.25c1.42-2.43,2.55-3.29,4.73-2.76-.54,2.28-2.1,2.5-4.73,2.76Z"/><path class="b" d="M603.02,589.57c-.23-.91-.02-1.66,.8-2.18,.11,.86,.12,1.69-.8,2.18Z"/><path class="b" d="M58.66,407.11l-1.34,.92-.31-.47c.54-.16,1.08-.32,1.62-.48l.03,.03Z"/><path class="b" d="M289.29,403.34l.52,.28c-.17-.1-.34-.2-.51-.29h-.01Z"/><path class="b" d="M288.05,402.08c.42,.42,.83,.84,1.25,1.26h.01c-.42-.43-.84-.84-1.26-1.26h0Z"/><path class="b" d="M773.14,394.58c.18,.08,.36,.17,.55,.25-.17-.1-.34-.19-.51-.29l-.04,.04Z"/><path class="b" d="M823.57,640.16c-2.36,2.4-4.72,7.4-7.83,5.41-2.88-1.84,1.11-5.76,2.38-8.58,2.83-6.24,6-12.36,12.61-15.58,4.03-1.96,5.5-.61,4.53,3.67-7.01,2.61-9.88,8.44-11.69,15.08Z"/><path class="b" d="M610.22,662.93c-.1,.18-.15,.41-.3,.55-1.87,1.81-4.06,4.96-6.46,3.21-1.96-1.43,.36-4.67,1.41-6.73,3.39-6.63,6.75-13.43,13.77-17.15,3.02-1.6,5.42-1.65,4.77,2.95-6.52,3.32-10.6,8.5-11.97,15.74l.07-.1c-.43,.51-.86,1.02-1.29,1.53Z"/><path class="b" d="M610.22,662.93c.43-.51,.86-1.02,1.29-1.53-.43,.51-.86,1.02-1.29,1.53Z"/><path class="b" d="M291.83,666.47c.99-11.56,6.77-21.37,11.77-31.47-3.14,10.77-6.09,21.61-11.82,31.42l.05,.05Z"/><path class="b" d="M291.79,666.42l-.24,.46,.28-.41-.05-.05Z"/><path class="b" d="M360.4,250.78c-.06,.33-.04,.66,.06,.99-.24,.27-.36,.58-.37,.94-.98,2.78-3.33,4-5.8,5.1l.15-.02c-3.75-1.72-6.74-3.61-5.51-8.81,.83-3.54-2.7-1.75-4.25-2.41-.33-.26-.7-.38-1.11-.38-.98-.67-1.96-1.34-2.94-2.01,4.79-.79,9.57-1.7,14.39-2.29,1.81-.22,3.58,.58,4.52,2.44-4.46,1.89,.19,3.31,.25,4.97l.6,1.48Z"/><path class="b" d="M496.21,201.86c2.06-.08,4.53,.06,4.56,2.5,.02,1.88-2.73,.95-4.03,1.79-.6,.01-1.19,.03-1.79,.05-2.26-1.32-4.25,.24-6.35,.6-3.68-.09-7.36-.18-11.05-.27,.07-.75,.15-1.49,.22-2.24,3.93-1.49,7.99-1.48,12.12-1.35,2.12,.07,4.53,1.04,6.32-1.09Z"/><path class="b" d="M477.77,204.3c-.07,.75-.15,1.49-.22,2.24-2.54,.06-4.96,.31-5.22,3.64-1.68-.38-3.36-.76-5.03-1.14,1.61-5.75,6.22-4.85,10.47-4.73Z"/><path class="b" d="M502.39,210.37c3.73,1.89,3.28,6.89,6.71,8.99-.09,.77-.18,1.54-.27,2.32h-.25c-3.98-2.72-5.82-6.61-6.19-11.31Z"/><path class="b" d="M488.6,206.81c2.1-.37,4.09-1.93,6.35-.6-.03,.6-.06,1.2-.08,1.81-2.22-.29-4.19,.54-6.16,1.37-.04-.86-.07-1.72-.11-2.58Z"/><path class="b" d="M359.8,249.3c-.06-1.66-4.72-3.09-.25-4.97,.49,1.56,.97,3.12,1.46,4.67l-.41,.36c-.26-.09-.53-.1-.8-.06Z"/><path class="b" d="M498.79,206.74c2.53-.1,3.51,1.34,3.62,3.65-2.46,.03-2.84-2.01-3.62-3.65Z"/><path class="b" d="M546.58,218.36c-.13-.93-.26-1.86-.4-2.79,3.46-1.14,6.71-.8,10.06,.99-2.82,4.82-6.77-.04-9.66,1.8Z"/><path class="b" d="M626.35,248c-.37,.44-.74,.88-1.11,1.32,.37-.44,.74-.88,1.11-1.32Z"/><path class="b" d="M206.63,159.08c-1.29,4.26-5.66,4.64-8.7,6.31-5.73,3.14-10.67,8.06-17.64,8.72,8.04-6.31,16.61-11.69,26.34-15.03Z"/><path class="b" d="M750.76,358.87c-4.58-2.39-5.94-6.78-7.15-11.26,3.84,2.81,5.16,7.21,7.15,11.26Z"/><path class="b" d="M833.9,210.71l.37,.39c-.14,.11-.29,.31-.42,.3-.13-.01-.25-.24-.37-.37l.42-.33Z"/><path class="b" d="M814.47,219.82c-.16,.13-.33,.37-.48,.36-.15-.01-.27-.28-.4-.44,.16-.13,.33-.37,.48-.36,.15,.01,.27,.28,.4,.44Z"/><path class="b" d="M360.09,252.71c0-.36,.13-.67,.37-.94,.45,.39,.9,.78,1.35,1.18-.57-.08-1.14-.16-1.71-.23Z"/><path class="b" d="M359.8,249.3c.27-.05,.54-.03,.8,.06-.07,.47-.13,.95-.2,1.42-.2-.49-.4-.99-.6-1.48Z"/><path class="b" d="M90.85,494.47c0-16.91,.12-33.82-.08-50.73-.05-4.39,1.37-5.94,5.75-5.73,6.04,.3,12.16,.57,18.15-.07,6.19-.66,8.9,2.05,10.92,7.42,7.14,19,14.62,37.88,21.96,56.81,1.14,2.93,2.11,6.3,5.94,6.32,3.55,.02,3.69-3.37,4.63-5.83,7.59-19.92,15.35-39.77,22.64-59.8,1.43-3.92,3.23-5.09,7.13-5.02,7.5,.13,15.02,0,22.51-.41,4.8-.26,4.83,2.57,4.83,5.96,.02,22.34,.1,44.67,.16,67.01,.03,11.9-.07,23.8,.17,35.69,.08,4.09-1.31,5.47-5.39,5.41-16.91-.26-13.64,1.88-13.91-13.13-.34-18.77-.5-37.54-.77-56.31-.04-2.63,.57-5.66-3.36-6.3-3.55-.58-4.8,.97-6.1,4.33-8.5,22-17.41,43.84-26.17,65.74-1.18,2.96-2.25,5.39-6.45,5.47-4.21,.08-5.35-2.26-6.58-5.25-8.89-21.58-17.89-43.11-26.61-64.75-1.44-3.57-3.13-6.02-7.15-5.22-4.2,.83-2.96,4.51-2.96,7.18-.05,20.46-.14,40.92,.2,61.37,.09,5.33-1.1,7.39-6.87,7.14-14.3-.63-12.3,1.95-12.44-12.22-.14-15.03-.03-30.06-.03-45.09h-.11Z"/><path class="b" d="M527.03,492.29c0,17.73,0,35.46,0,53.19,0,.62,.25,1.46-.06,1.84-4.43,5.4-10.46,1.93-15.74,2.69-4.14,.59-3.86-2.65-3.87-5.43-.05-18.79-.12-37.58-.19-56.37,0-2.5-.07-5.01-.11-7.51-.05-3.36-.75-6.48-4.69-7.05-3.58-.52-4.49,2.68-5.45,5.05-6.19,15.31-12.2,30.69-18.31,46.03-2.83,7.11-5.96,14.1-8.54,21.3-1.08,3.02-2.93,3.67-5.64,3.76-2.8,.09-4.71-.83-5.84-3.6-7.5-18.37-15.07-36.72-22.67-55.05-1.83-4.41-4.18-8.64-5.63-13.16-1.17-3.63-3.62-3.48-6.34-3.34-3.53,.18-2.91,2.91-2.91,5.1,.02,21.09-.1,42.17,.25,63.25,.09,5.59-1.23,7.63-7.2,7.4-13.96-.53-11.92,1.63-12.07-11.92-.34-31.72-.5-63.44-1.05-95.15-.09-5.4,1.64-6.86,6.74-6.62,7.08,.34,14.2,.15,21.3-.07,3.74-.12,5.57,1.45,6.86,4.9,7.59,20.31,15.33,40.57,23.17,60.79,.87,2.24,2.38,4.5,5.25,4.86,3.41,.43,3.43-2.67,4.14-4.53,7.71-20.12,15.36-40.25,22.79-60.48,1.63-4.45,3.66-6.94,8.9-6.58,6.44,.44,12.96,.35,19.41-.03,5.1-.3,6.91,1.26,6.8,6.61-.32,16.7-.12,33.4-.12,50.1,.27,0,.54,0,.81,0Z"/><path class="b" d="M305.63,486.49c0-14.41,.18-28.82-.1-43.22-.09-4.77,1.06-6.59,6.19-6.5,16.5,.28,33,.2,49.5-.04,4.55-.07,6.72,1.14,6.07,5.95-.22,1.64-.19,3.35,0,5,.46,4.22-1.68,5.5-5.52,5.48-9.82-.05-19.65,.37-29.45-.04-5.71-.24-7.32,1.82-6.92,7.2,.42,5.61,.05,11.27,.11,16.91,.08,7.29,1.15,8.39,8.32,8.42,8.77,.03,17.55,.15,26.32-.15,4.3-.15,6.37,1.09,5.72,5.58-.03,.2,0,.42,0,.63-.16,11.29,1.27,9.42-9.65,9.58-8.14,.12-16.29,.22-24.44,.13-4.4-.05-6.51,1.44-6.27,6.22,.33,6.67,.19,13.36,.12,20.04-.05,5.19,2.73,7.23,7.47,6.54,9.99-1.47,20.02-.21,30.01-.74,3.82-.21,5.11,1.61,5.06,5.29-.19,13.85,1.58,11.26-10.93,11.52-14.39,.3-28.8-.29-43.15,1.04-5.47,.51-7.94-1.17-7.75-7.26,.3-9.57-.4-19.17-.51-28.76-.11-9.6-.02-19.21-.02-28.81h-.17Z"/><path class="b" d="M675.29,492.01c0-16.7,.15-33.39-.09-50.09-.07-5.21,1.23-7.74,6.98-7.45,14.37,.71,28.8-.99,43.15,.98,19.72,2.7,29.45,17.66,27.38,36.82-1.26,11.62-6.37,20.18-16.78,25.79-4.92,2.65-2.95,6.61-.66,10.15,7.49,11.62,14.85,23.34,22.58,34.8,3.01,4.47,1.88,5.37-2.96,5.96-9.2,1.13-15.45-1.58-20.17-10.18-6.03-11.02-13.48-21.27-20.42-31.78-2.8-4.23-12.78-6.17-16.81-3.52-2.31,1.52-2.15,3.83-2.14,6.14,.04,11.06-.11,22.13,.16,33.18,.11,4.42-.9,6.37-5.84,6.24-16.62-.44-13.93,1.8-14.07-13.85-.14-14.4-.03-28.8-.03-43.2h-.28Zm19.06-27.34c.31,6.43,.7,12.86,.88,19.3,.1,3.44,1.58,4.79,5.02,4.64,4.37-.2,8.78,.29,13.11-.14,8.11-.81,17.17-6.5,18.32-13.51,2.56-15.67-3.24-25.35-21.15-26.09-17.7-.73-15.92-2.4-16.18,15.81Z"/><path class="b" d="M851.48,550.23c-33.82,.62-56.97-27.92-56.92-59.94,.05-32.29,25.74-58.61,57.48-58.6,33.03,0,57.68,29.62,56.98,59.62-.75,32.24-25.67,59.94-57.54,58.92Zm35.72-58.92c.5-6.02-.58-11.77-2.51-17.31-4.4-12.63-12.75-21.54-26.25-23.6-13.2-2.01-25.28,1.03-33.85,12.42-9.5,12.63-10.22,26.62-6.7,41.5,5.61,23.74,28.26,31.43,47.43,23.97,16.6-6.46,21.32-20.71,21.87-36.98Z"/><path class="b" d="M589.94,549.14c-7.52,0-15.04-.15-22.56,.06-3.7,.1-5.11-1.01-5.13-4.92-.2-34.43-.5-68.87-.99-103.3-.07-4.71,1.85-5.53,5.93-5.46,13.36,.24,26.73,.15,40.1,.27,24.57,.23,31.3,19.15,29.07,35.99-.68,5.16-2.44,10.23-6.41,13.85-4.52,4.13-3.26,6.82,.89,10.44,16.32,14.29,13.04,39.86-5.92,49.08-8.4,4.09-17.29,3.81-26.21,3.85-2.92,.01-5.85,0-8.77,0v.11Zm-7.21-32.49h.03c0,4.38,.09,8.75-.03,13.12-.1,3.63,1.39,5.5,5.12,5.42,5-.11,10.03,.14,14.99-.34,8.87-.87,14.46-6.06,15.9-14.12,1.57-8.78-1.68-15.66-9.47-19.65-7.39-3.78-15.38-2.97-23.25-2.66-3.03,.12-3.28,2.7-3.29,5.11,0,4.38,0,8.75,0,13.13Zm11.39-67.1c-1.25,0-2.52,.15-3.75-.03-6.01-.86-8.31,1.64-7.84,7.68,.41,5.17,.05,10.4,.09,15.61,.13,15.4,.15,15.52,15.77,13.98,6.17-.61,11.54-2.84,14.48-9.08,6.54-13.89-1.34-30.21-18.75-28.17Z"/><path class="b" d="M270.49,493.94c0,16.9-.18,33.8,.11,50.69,.09,5.25-1.74,6.87-6.83,6.88-13.11,.02-13.1,.21-13.12-12.71-.05-31.5,.02-63-.29-94.5-.05-5.58,1.22-7.66,7.18-7.46,14.96,.5,12.61-1.24,12.72,12.67,.11,14.81,.03,29.62,.03,44.43h.21Z"/><path class="b" d="M702.96,468.69c0-.62-.17-1.3,.02-1.86,1.19-3.39-3.49-9.48,4.3-9.82,9.88-.43,15.48,3,16.05,9.54,.71,8.13-2.31,12.34-9.47,13.19q-10.86,1.29-10.9-11.06Z"/><path class="b" d="M878.6,490.5c-.46,11.76-2.82,23.11-14.36,28.95-13.85,7.01-32.64,2.67-37.57-15.69-3.6-13.39-3.07-25.81,5.95-36.94,10.27-12.68,34.87-12.73,43.17,7.81,2.01,4.97,3.68,10.22,2.81,15.87Z"/><path class="b" d="M590.69,516.75c2.24-3.52-3.4-10.22,4.96-10.56,7.81-.32,14.54,4.6,14.74,10.42,.24,7.12-4.4,10.66-14.42,10.66-9.23,0-2.5-7.44-5.28-10.52Z"/><path class="b" d="M606.4,468.6c-.07,8.05-4.71,12.53-12.47,9.77-7.63-2.71-1.94-10.55-3.47-15.87-.71-2.46-.08-4.93,3.51-5.29,8.28-.81,12.51,2.97,12.44,11.39Z"/></g></svg>